<?xml version="1.0" encoding="utf-8"?>
<!-- Generator: Adobe Illustrator 22.0.1, SVG Export Plug-In . SVG Version: 6.00 Build 0)  -->
<svg version="1.1" id="master-artboard" xmlns="http://www.w3.org/2000/svg" xmlns:xlink="http://www.w3.org/1999/xlink" x="0px"
	 y="0px" viewBox="0 0 1400 980" style="enable-background:new 0 0 1400 980;" xml:space="preserve">
<style type="text/css">
	.st0{display:none;fill:#445D7B;}
	.st1{fill:#A9B3C1;}
	.st2{fill:#33465C;}
	.st3{fill:none;}
	.st4{fill:#60718D;}
	.st5{fill:#996B53;}
	.st6{fill:#12B57B;}
	.st7{fill:#BCA877;}
	.st8{fill:#AE6344;}
	.st9{fill:#E3E2D5;}
	.st10{fill:#445D7B;}
	.st11{fill:#F8DB94;}
	.st12{fill:#00A99D;}
	.st13{fill:#F4BB3A;}
	.st14{fill:#39B54A;}
	.st15{fill:#7F2E19;}
	.st16{fill:#999999;}
	.st17{fill:#666666;}
	.st18{fill:#808080;}
	.st19{fill:#7989A3;}
	.st20{fill:#0071BC;}
	.st21{fill:#FFFFFF;}
	.st22{fill:#85402A;}
	.st23{fill:#F09B36;}
	.st24{fill:#A17A94;}
	.st25{fill:#31B78D;}
	.st26{fill:#4AC6E0;}
	.st27{fill:#CA6A4F;}
	.st28{fill:#895881;}
	.st29{fill:#BEC0C2;}
	.st30{fill:#C2CE2F;}
	.st31{fill:#B55232;}
	.st32{fill:#EF4D4E;}
	.st33{fill:#0D0E1F;}
</style>
<path class="st0" d="M0,0h1400v980H0V0z"/>
<path class="st1" d="M892.9,383.7L892.9,383.7c0-6.6,5.4-12,12-12h29.8c13.3,0,24.1-10.8,24.1-24.1l0,0c0-13.3-10.8-24.1-24.1-24.1
	H782c-6.6,0-12-5.4-12-12l0,0c0-6.6,5.4-12,12-12h64.1c9,0,16.3-7.3,16.3-16.3l0,0c0-9-7.3-16.3-16.3-16.3H650.3
	c-9,0-16.3,7.3-16.3,16.3l0,0c0,9,7.3,16.3,16.3,16.3h37.1c6.6,0,12,5.4,12,12l0,0c0,6.6-5.4,12-12,12H492.5
	c-13.3,0-24.1,10.8-24.1,24.1l0,0c0,13.3,10.8,24.1,24.1,24.1H562c9.4,0,17,7.6,17,17l0,0c0,9.4-7.6,17-17,17H419.8
	c-11.1,0-20.1,9-20.1,20.1l0,0c0,11.1,9,20.1,20.1,20.1h253.8c11.1,0,20.1-9,20.1-20.1l0,0c0-11.1-9-20.1-20.1-20.1h-6.9
	c-9.4,0-17-7.6-17-17l0,0c0-9.4,7.6-17,17-17h143.6c6.6,0,12,5.4,12,12l0,0c0,6.6-5.4,12-12,12h-5c-13.9,0-25.1,11.2-25.1,25.1l0,0
	c0,13.9,11.2,25.1,25.1,25.1h243.2c13.9,0,25.1-11.2,25.1-25.1l0,0c0-13.9-11.2-25.1-25.1-25.1H904.9
	C898.2,395.7,892.9,390.3,892.9,383.7z"/>
<path class="st1" d="M509.5,580.3L509.5,580.3c0-12.8-10.4-23.2-23.2-23.2H234.2c-12.8,0-23.2,10.4-23.2,23.2l0,0
	c0,12.8,10.4,23.2,23.2,23.2h48.4c9.5,0,17.2,7.7,17.2,17.2l0,0c0,9.5-7.7,17.2-17.2,17.2h-74.9c-10.5,0-19.1,8.5-19.1,19.1l0,0
	c0,10.5,8.5,19.1,19.1,19.1h246.9c10.5,0,19.1-8.5,19.1-19.1l0,0c0-10.5-8.5-19.1-19.1-19.1h-24c-9.5,0-17.2-7.7-17.2-17.2l0,0
	c0-9.5,7.7-17.2,17.2-17.2h55.7C499.1,603.5,509.5,593.1,509.5,580.3z"/>
<path class="st1" d="M1211.3,554.2L1211.3,554.2c0-11.9-9.6-21.5-21.5-21.5H964.9c-11.9,0-21.5,9.6-21.5,21.5l0,0
	c0,11.9,9.6,21.5,21.5,21.5h51.9c8.5,0,15.3,6.9,15.3,15.3l0,0c0,8.5-6.9,15.3-15.3,15.3H912.4c-12.4,0-22.5,10.1-22.5,22.5l0,0
	c0,12.4,10.1,22.5,22.5,22.5h245.2c12.4,0,22.5-10.1,22.5-22.5v-1.8c0-11.4-9.3-20.7-20.7-20.7l0,0c-8.5,0-15.3-6.9-15.3-15.3l0,0
	c0-8.5,6.9-15.3,15.3-15.3h30.4C1201.7,575.7,1211.3,566.1,1211.3,554.2z"/>
<path class="st2" d="M1177.6,838.1H222.4c-19.4,0-35.1-15.7-35.1-35.1v-39.1h1025.4V803C1212.7,822.4,1197,838.1,1177.6,838.1z"/>
<g transform="matrix(1, 0, 0, 1, 0, 0)">
	<path class="st3" d="M764.3,267.7c6.1,1.1,11.9-3,13-9c0.5-2.9-0.1-5.9-1.8-8.4c-1.7-2.5-4.3-4.1-7.2-4.6c-0.7-0.1-1.3-0.2-2-0.2
		c-5.3,0-10,3.8-11,9.2c-0.5,2.9,0.1,5.9,1.8,8.4C758.8,265.5,761.4,267.2,764.3,267.7z"/>
	<path class="st3" d="M1003.9,687.6v-46.7c0-0.8-1.5-2-3-2.8h-6.5v57.3C1003.8,694,1003.9,687.9,1003.9,687.6z"/>
	<path class="st3" d="M654.6,235.4c9.9,0,18-8.1,18-18s-8.1-18-18-18s-18,8.1-18,18C636.6,227.4,644.6,235.4,654.6,235.4z"/>
	<path class="st4" d="M610.9,227c1.1,5.2,3.2,10.1,6.1,14.6c1.2,1.8,0.9,4.2-0.6,5.7l-8.9,8.9l8.4,8.4l8.9-8.9
		c1.5-1.5,3.9-1.8,5.7-0.6c4.5,2.9,9.4,4.9,14.6,6.1c2.1,0.5,3.6,2.3,3.6,4.5v12.6h11.8v-12.6c0-2.2,1.5-4,3.6-4.5
		c5.2-1.1,10.1-3.2,14.6-6.1c1.8-1.2,4.2-0.9,5.7,0.6l8.9,8.9l8.4-8.4l-8.9-8.9c-1.5-1.5-1.8-3.9-0.6-5.7c2.9-4.5,4.9-9.4,6.1-14.6
		c0.5-2.1,2.3-3.6,4.5-3.6h12.6v-11.8h-12.6c-2.2,0-4-1.5-4.5-3.6c-1.1-5.2-3.2-10.1-6.1-14.6c-1.2-1.8-0.9-4.2,0.6-5.7l8.9-8.9
		l-8.4-8.4l-8.9,8.9c-1.5,1.5-3.9,1.8-5.7,0.6c-4.5-2.9-9.4-4.9-14.6-6.1c-2.1-0.5-3.6-2.3-3.6-4.5v-12.6h-11.8v12.6
		c0,2.2-1.5,4-3.6,4.5c-5.2,1.1-10.1,3.2-14.6,6.1c-1.8,1.2-4.2,0.9-5.7-0.6l-8.9-8.9l-8.4,8.4l8.9,8.9c1.5,1.5,1.8,3.9,0.6,5.7
		c-2.9,4.5-4.9,9.4-6.1,14.6c-0.5,2.1-2.3,3.6-4.5,3.6h-12.6v11.8h12.6C608.5,223.4,610.4,224.9,610.9,227z M668.7,254
		c-3.9,0-3.9-6,0-6C672.5,248,672.5,254,668.7,254z M651.7,180c3.9,0,3.9,6,0,6C647.8,186,647.8,180,651.7,180z M654.6,190.3
		c15,0,27.2,12.2,27.2,27.2c0,15-12.2,27.2-27.2,27.2s-27.2-12.2-27.2-27.2C627.4,202.5,639.6,190.3,654.6,190.3z M616.8,208.2
		c3.5-10.3,10.1-18.8,19.2-24.7c3.3-2.1,6.3,3.1,3,5.2c-7.8,5-13.5,12.3-16.4,21.1C621.4,213.5,615.6,211.9,616.8,208.2z"/>
	<path class="st5" d="M621.7,443.1v-9.8h9.2v2.7c15.8,2.3,77.7,10.4,138.3,5.2v-7.9h9.2v9.8c1.6-1,3.4-1.8,5.3-2.1
		c1.2-0.2,2.8-0.3,4.5,0c8-5.9,10.1-18.5,10.6-25c-9.9-1.7-14.5-5.4-15-5.8c-1-0.9-1.6-2.1-1.6-3.4c0-1.3,0.5-2.6,1.5-3.5
		c4.3-4,7.2-12,8.8-18.5c-12,3.4-24.9,1.4-25.6,1.2c-1.8-0.3-3.3-1.7-3.7-3.5c-0.4-1.8,0.3-3.7,1.8-4.8c4.1-2.9,6.7-11.4,7.9-18.9
		c-22.4,9.4-52.4,14.3-53.8,14.5c-2,0.3-3.9-0.6-4.8-2.4c-0.9-1.7-0.6-3.9,0.7-5.3c6.8-7.2,6.8-16.5,5.5-23.2
		c-19.6,23.6-59.9,38.4-61.7,39c-1.5,0.5-3.2,0.3-4.4-0.7c-1.2-1-1.9-2.6-1.7-4.2c0.5-4.1-0.8-8.9-3-13.2
		c-2.6,5.7-6.5,10.8-9.9,15.1c-5.4,6.6-10.9,13.8-15.3,21.8c-7.2,13.2-8.7,27.6-8.7,40.5c0.2,0,0.5,0.1,0.7,0.1
		C618.4,441.3,620.1,442.1,621.7,443.1z M744.1,383.4c3.7,0,3.7,5.7,0,5.7C740.4,389.1,740.4,383.4,744.1,383.4z M715.2,417.8
		c3.7,0,3.7,5.7,0,5.7C711.5,423.5,711.5,417.8,715.2,417.8z M705.4,418.7c3.7,0,3.7,5.7,0,5.7C701.8,424.4,701.8,418.7,705.4,418.7
		z M698.5,374.9c5.2,0,5.1,8,0,8C693.3,382.9,693.4,374.9,698.5,374.9z M691,393.4c5.2,0,5.1,8,0,8
		C685.8,401.4,685.9,393.4,691,393.4z M675,385.4c5.2,0,5.1,8,0,8C669.8,393.4,669.9,385.4,675,385.4z M654.6,418.3
		c13.3,2.1,26.7,2.7,40.2,2c3.7-0.2,3.7,5.5,0,5.7c-14,0.8-27.9,0-41.7-2.2C649.5,423.2,651,417.7,654.6,418.3z M629.1,412.8
		c1.4-5.4,4.2-10.2,8.1-14.2c3.6-3.7,9.3,2,5.7,5.7c-3,3-5,6.6-6.1,10.7C635.5,419.9,627.8,417.8,629.1,412.8z"/>
	<path class="st6" d="M657.7,721.7l7.5-20.9H644c2.3,7.4,0.7,15.1-3.6,20.9H657.7z"/>
	<path class="st4" d="M747.5,736.4h91.1v-5.5h-93.1L747.5,736.4z"/>
	<path class="st7" d="M778.3,466.8v5.9h3.9c1.8-0.9,6.5-7.2,7.7-14.3c0.3-2,0.6-5.6-1.5-7.4c-1.5-1.2-2.4-1.2-3.1-1.1
		c-2.6,0.5-5.4,3.7-6.9,5.9v6.8c1.1-0.8,2-1.8,2.7-3c1.1-1.9,4.1-0.2,3,1.7C782.6,463.7,780.6,465.6,778.3,466.8z"/>
	<path class="st6" d="M783.8,721.7c-3.4-4-5.3-8.9-5.5-14.2l-0.1-6.7h-43.4l7.5,20.9H783.8z"/>
	<path class="st1" d="M542.3,686.4c20.3,0,40.6,0,60.9,0c70.8,0,141.7,0,212.5,0c3.1,0,4.3,3,3.7,5.3h45.3c5.5,0,9.9-4.5,9.9-9.9
		V491.9c0-5.5-4.5-9.9-9.9-9.9H535.4c-5.5,0-9.9,4.5-9.9,9.9v189.8c0,5.5,4.5,9.9,9.9,9.9h3.3C538,689.3,539.2,686.4,542.3,686.4z
		 M848.3,582c3.9,0,3.9,6,0,6C844.5,588,844.5,582,848.3,582z M850.9,667.2c-4.4,0-4.4-6.9,0-6.9
		C855.3,660.3,855.3,667.2,850.9,667.2z M827.5,496.3h24.1c3,0,5.4,2.4,5.4,5.4s-2.4,5.4-5.4,5.4h-24.1c-3,0-5.4-2.4-5.4-5.4
		S824.5,496.3,827.5,496.3z M790.3,584.7c12.2,0,24.4,0,36.7,0c3.9,0,3.9,6,0,6c-12.2,0-24.4,0-36.7,0
		C786.5,590.7,786.5,584.7,790.3,584.7z M752.3,661.1c28.3,0,56.5,0,84.8,0c4.4,0,4.4,6.9,0,6.9c-28.3,0-56.5,0-84.8,0
		C747.9,668,747.9,661.1,752.3,661.1z M707,503c5.2,0,5.1,8,0,8C701.8,511,701.9,503,707,503z M692.3,503c5.2,0,5.1,8,0,8
		C687.2,511,687.2,503,692.3,503z M700,553.9c18.1,0,32.8,14.7,32.8,32.8c0,18.1-14.7,32.8-32.8,32.8s-32.8-14.7-32.8-32.8
		C667.2,568.7,681.9,553.9,700,553.9z M585.7,503c27.1,0,54.2,0,81.3,0c5.2,0,5.1,8,0,8c-27.1,0-54.2,0-81.3,0
		C580.5,511,580.5,503,585.7,503z M546.8,502.2c4.4,0,4.4,6.9,0,6.9C542.4,509.1,542.4,502.2,546.8,502.2z M546.8,519.8
		c4.4,0,4.4,6.9,0,6.9C542.4,526.6,542.4,519.8,546.8,519.8z M546.8,537.3c4.4,0,4.4,6.9,0,6.9C542.4,544.2,542.4,537.3,546.8,537.3
		z M543.4,563.7c0-4.4,6.9-4.4,6.9,0c0,31.8,0,63.7,0,95.5c0,4.4-6.9,4.4-6.9,0C543.4,627.3,543.4,595.5,543.4,563.7z"/>
	<path class="st8" d="M923.5,618.1L923.5,618.1L923.5,618.1C923.5,618.2,923.5,618.1,923.5,618.1z"/>
	<path class="st8" d="M923.5,622.5v77.3c7.8,0,15.5,0,23.3,0c3,0,2.9,4.6,0,4.6c-7.8,0-15.5,0-23.3,0v10.7h61.9v-85
		c-9.9,0-19.7,0-29.6,0c-3,0-2.9-4.6,0-4.6c9.9,0,19.7,0,29.6,0v-2.2c-19.9,0-39.9,0-59.8,0C924.6,623.4,923.9,623,923.5,622.5z
		 M958.4,704.4c-3,0-2.9-4.6,0-4.6C961.4,699.8,961.4,704.4,958.4,704.4z M968.7,704.4c-3,0-2.9-4.6,0-4.6
		C971.7,699.8,971.7,704.4,968.7,704.4z M946.4,650.8c9.8-5.6,21.3-4,25.7,3.7c4.4,7.7,0.1,18.5-9.7,24.1c-3.9,2.3-8.1,3.3-12,3.3
		c-5.8,0-11-2.4-13.7-7C932.3,667.3,936.6,656.4,946.4,650.8z"/>
	<path class="st9" d="M700,610.5c13.1,0,23.7-10.6,23.7-23.7c0-13.1-10.6-23.7-23.7-23.7c-13.1,0-23.7,10.6-23.7,23.7
		S686.9,610.5,700,610.5z"/>
	<path class="st10" d="M726.4,252.6l7.4,1.3c1.9,0.3,3.2,1.9,3.3,3.8c0.1,3.5,0.9,6.9,2.2,10.1c0.7,1.7,0.1,3.8-1.4,4.8l-6.2,4.3
		l3.5,5l6.2-4.3c1.6-1.1,3.6-0.9,5,0.4c2.6,2.4,5.5,4.3,8.7,5.6c1.7,0.7,2.8,2.6,2.4,4.4l-1.3,7.4l6,1.1l1.3-7.4
		c0.3-1.9,1.9-3.2,3.8-3.3c3.5-0.1,6.9-0.9,10.1-2.2c1.7-0.7,3.8-0.1,4.8,1.4l4.3,6.2l5-3.5l-4.3-6.2c-1.1-1.5-0.9-3.6,0.4-5
		c2.4-2.6,4.3-5.5,5.6-8.7c0.7-1.7,2.6-2.7,4.4-2.4l7.4,1.3l1.1-6l-7.4-1.3c-1.9-0.3-3.2-1.9-3.3-3.8c-0.1-3.5-0.9-6.9-2.2-10.1
		c-0.7-1.7-0.1-3.8,1.4-4.8l6.2-4.3l-3.5-5l-6.2,4.3c-1.6,1.1-3.6,0.9-5-0.4c-2.6-2.4-5.5-4.3-8.7-5.6c-1.7-0.7-2.8-2.6-2.4-4.4
		l1.3-7.4l-6-1.1l-1.3,7.4c-0.3,1.9-1.9,3.2-3.8,3.3c-3.5,0.1-6.9,0.9-10.1,2.2c-1.7,0.7-3.8,0.1-4.8-1.4l-4.3-6.2l-5,3.5l4.3,6.2
		c1.1,1.5,0.9,3.6-0.4,5c-2.4,2.6-4.3,5.5-5.6,8.7c-0.7,1.7-2.6,2.8-4.4,2.4l-7.4-1.3L726.4,252.6z M786.9,238.4c3.9,0,3.9,6,0,6
		C783,244.4,783,238.4,786.9,238.4z M747.4,253.3c1.9-10.4,11.9-17.4,22.3-15.5c5,0.9,9.4,3.7,12.4,7.9c2.9,4.2,4,9.3,3.1,14.4
		c-1.7,9.3-9.8,15.8-18.9,15.8c-1.1,0-2.3-0.1-3.4-0.3c-5-0.9-9.4-3.7-12.4-7.9C747.6,263.4,746.5,258.3,747.4,253.3z"/>
	<path class="st11" d="M769.1,472.8v-22.4c-14.3,1.2-28.6,1.7-42.3,1.7c-43.9,0-82.2-4.8-95.9-6.8v27.5h26.4v-3.4
		c0-3.2,2.6-5.7,5.7-5.7s5.7,2.6,5.7,5.7v3.4h62.6v-3.4c0-3.2,2.6-5.7,5.7-5.7s5.7,2.6,5.7,5.7v3.4L769.1,472.8L769.1,472.8z"/>
	<path class="st7" d="M617.8,472.8h3.9v-7.2c-1.9-1.3-3.6-2.8-5.1-4.5c-1.5-1.6,1-4.1,2.4-2.4c0.8,0.9,1.7,1.8,2.7,2.6v-5.4
		c-1.5-2.2-4.3-5.4-6.9-5.9c-0.7-0.1-1.7-0.1-3.1,1.1c-2.1,1.7-1.8,5.3-1.5,7.4C611.3,465.6,616.1,471.9,617.8,472.8z"/>
	<path class="st11" d="M787.3,700.8l0.1,6.5c0.1,3.7,1.8,7.2,4.5,9.7c2.8,2.6,6.4,3.9,10.1,3.7c7.8-0.3,13.8-6.8,13.6-14.6l-0.4-5.3
		L787.3,700.8L787.3,700.8z"/>
	<path class="st12" d="M1126.8,736.4v-12.1H1107c0,4,0,8.1,0,12.1H1126.8z"/>
	<path class="st13" d="M1190,636.5h-20.8v24.3h20.8C1190,652.7,1190,644.6,1190,636.5z"/>
	<path class="st14" d="M1069.5,633.4v103h24.1V633.3c0,0,0,0-0.1,0C1085.5,633.4,1077.5,633.4,1069.5,633.4z M1087.8,703.9
		c0,3.5-2.8,6.3-6.3,6.3s-6.3-2.8-6.3-6.3v-43.8c0-3.5,2.8-6.3,6.3-6.3s6.3,2.8,6.3,6.3V703.9z"/>
	<path class="st15" d="M959,672.6c6.4-3.7,9.6-10.4,7.2-14.7c-1.4-2.4-4.3-3.6-7.7-3.6c-2.7,0-5.8,0.8-8.7,2.4
		c-6.4,3.7-9.6,10.4-7.2,14.7C945.1,675.8,952.6,676.3,959,672.6z M948.9,667.5c0.4,0,0.9-0.1,1.5-0.4c0.6-0.3,1.2-0.7,1.9-1.2
		c0.6-0.5,1.3-1.3,2.1-2.2c0.8-0.9,1.7-1.7,2.7-2.4c1-0.6,2.1-1,3-1.1c0.9-0.1,1.7,0.1,2.2,0.3c0.5,0.2,0.7,0.4,0.7,0.4
		s-0.3,0-0.8,0.1c-0.5,0.1-1.1,0.3-1.7,0.7c-0.6,0.4-1.3,1-1.9,1.7c-0.6,0.7-1.2,1.5-2,2.4c-0.8,0.9-1.8,1.7-2.9,2.2
		c-1.1,0.5-2.2,0.7-3.1,0.6c-0.9-0.1-1.5-0.4-1.9-0.7c-0.2-0.1-0.3-0.3-0.4-0.4c-0.1-0.1-0.1-0.1-0.1-0.1S948.5,667.5,948.9,667.5z"
		/>
	<path class="st16" d="M1137,611.9c-0.4,0-0.7-0.1-1-0.2v124.7h24.1V611.7c-0.3,0.1-0.6,0.2-1,0.2
		C1151.7,611.9,1144.3,611.9,1137,611.9z M1153.7,707.3H1142v-45.1h11.7V707.3z M1153.7,651.7H1142v-20.3h11.7V651.7z"/>
	<path class="st17" d="M1190,602.4C1190,602.3,1190,602.3,1190,602.4l-18.7-0.1c-1.2,0-2.1,1-2.1,2.1v5.7v17.2h20.8
		C1190,619,1190,610.7,1190,602.4z M1186.1,614.6c-1.2,0.1-2.3-1.1-2.3-2.3c0-1,0-1.9,0-2.9c0-1.3,1.1-2.2,2.3-2.3
		c1.2-0.1,2.3,1.1,2.3,2.3c0,1,0,1.9,0,2.9C1188.4,613.6,1187.3,614.5,1186.1,614.6z"/>
	<path class="st17" d="M1175.5,710.3c0-3,4.6-2.9,4.6,0c0,8.7,0,17.4,0,26.1h9.9c0-22.1,0-44.3,0-66.4h-20.8v66.4h6.3
		C1175.5,727.7,1175.5,719,1175.5,710.3z M1177.4,696.2c3,0,2.9,4.6,0,4.6C1174.4,700.8,1174.5,696.2,1177.4,696.2z"/>
	<path class="st18" d="M1107,581.4c0,44.6,0,89.2,0,133.8h19.8v-105v-28.3c0-1.2-1-2.1-2.1-2.1h-18.1
		C1106.8,580.2,1107,580.7,1107,581.4z M1115.5,593.5c0-3,4.6-2.9,4.6,0c0,13.4,0,26.7,0,40.1c0,3-4.6,2.9-4.6,0
		C1115.5,620.2,1115.5,606.8,1115.5,593.5z M1117.4,641.6c3,0,2.9,4.6,0,4.6C1114.5,646.2,1114.5,641.6,1117.4,641.6z M1117.4,651.1
		c3,0,2.9,4.6,0,4.6C1114.5,655.7,1114.5,651.1,1117.4,651.1z"/>
	<path class="st19" d="M319.9,390.3h197.6c4.6,0,8.3-3.7,8.3-8.3V262.3c0-4.6-3.7-8.3-8.3-8.3H319.9c-4.6,0-8.3,3.7-8.3,8.3V382
		C311.6,386.6,315.3,390.3,319.9,390.3z M318.7,266.5c0-3.3,2.7-6,6-6h187.9c3.3,0,6,2.7,6,6v111.3c0,3.3-2.7,6-6,6H324.8
		c-3.3,0-6-2.7-6-6V266.5z"/>
	<path class="st20" d="M1041,603.4c0,13.6,0,27.1,0,40.7h19.3V630v-25.6c0-1.2-1-2.1-2.1-2.1h-17.4
		C1040.9,602.6,1041,602.9,1041,603.4z M1045.7,613.4c3,0,2.9,4.6,0,4.6C1042.8,618,1042.8,613.4,1045.7,613.4z M1043.4,622.3
		c0-1.3,1.1-2.2,2.3-2.3c1.2-0.1,2.3,1.1,2.3,2.3c0,1,0,1.9,0,2.9c0,1.3-1.1,2.2-2.3,2.3c-1.2,0.1-2.3-1.1-2.3-2.3
		C1043.4,624.2,1043.4,623.3,1043.4,622.3z"/>
	<path class="st20" d="M1060.3,736.4v-49.7H1041c0,16.6,0,33.1,0,49.7H1060.3z M1052.9,721.8c-3,0-2.9-4.6,0-4.6
		C1055.8,717.3,1055.8,721.8,1052.9,721.8z M1051,700.4c0-3,4.6-2.9,4.6,0c0,3.6,0,7.1,0,10.7c0,3-4.6,2.9-4.6,0
		C1051,707.5,1051,704,1051,700.4z"/>
	<path class="st21" d="M509.5,269.6H327.9v105h181.6V269.6z M489.7,284.5c3.7,0,6.7,3,6.7,6.7s-3,6.7-6.7,6.7c-3.7,0-6.7-3-6.7-6.7
		S486,284.5,489.7,284.5z M466,284.5c3.7,0,6.7,3,6.7,6.7s-3,6.7-6.7,6.7s-6.7-3-6.7-6.7S462.4,284.5,466,284.5z M442.4,284.5
		c3.7,0,6.7,3,6.7,6.7s-3,6.7-6.7,6.7s-6.7-3-6.7-6.7S438.7,284.5,442.4,284.5z M418.7,284.5c3.7,0,6.7,3,6.7,6.7s-3,6.7-6.7,6.7
		c-3.7,0-6.7-3-6.7-6.7S415,284.5,418.7,284.5z M340.8,278.2h20.7V317h-20.7V278.2z M390.4,363.9h-49.2V326h49.2V363.9z M390.4,317
		h-20.7v-38.8h20.7V317z M425.9,363.9h-14.4V326h14.4V363.9z M449.6,363.9h-14.4V326h14.4V363.9z M473.2,363.9h-14.4V326h14.4V363.9
		z M496.9,363.9h-14.4V326h14.4V363.9z M498.5,317h-86.6v-6.2h86.6V317z"/>
	<path class="st13" d="M1060.3,677.5v-24.3H1041c0,8.1,0,16.2,0,24.3H1060.3z"/>
	<path class="st22" d="M920,724.3h68.7v12.1H920V724.3z"/>
	<path class="st23" d="M345.9,565.9c0-2.8-2.3-5.2-5.2-5.2c-1.8,0-3.3,0.9-4.3,2.3c0.3-0.1,0.6-0.1,1-0.1c4.7,0,5.1,6.5,1.3,7.8
		c0.6,0.2,1.3,0.4,1.9,0.4C343.6,571,345.9,568.7,345.9,565.9z"/>
	<path class="st21" d="M1072.1,269.6H890.5v105h181.6V269.6z M925,349h-21.4v-21.4H925V349z M955.7,349h-21.4v-21.4h21.4V349z
		 M986.4,349H965v-21.4h21.4V349z M1017.1,364.9h-21.4v-21.4h21.4V364.9z M1017.1,335.8h-21.4v-21.4h21.4V335.8z M1048.3,364.9
		h-21.4v-21.4h21.4V364.9z M1048.3,335.8h-21.4v-21.4h21.4V335.8z M1059,306.7H903.6v-26H1059L1059,306.7L1059,306.7z"/>
	<path class="st23" d="M363.6,617c-1.8,0-3.7,0-5.5,0l21.5,55.1c1.8,0,3.7,0,5.5,0L363.6,617z"/>
	<path class="st24" d="M240.3,736.4h56v-28h-56c0,9.1,0,18.2,0,27.3C240.3,735.9,240.3,736.2,240.3,736.4z M265,720.1
		c7.3,0,14.6,0,22,0c3.7,0,3.7,5.7,0,5.7c-7.3,0-14.6,0-22,0C261.3,725.8,261.3,720.1,265,720.1z M254.9,720.1c3.7,0,3.7,5.7,0,5.7
		C251.2,725.8,251.2,720.1,254.9,720.1z M243.2,720.1c3.7,0,3.7,5.7,0,5.7C239.5,725.8,239.5,720.1,243.2,720.1z"/>
	<path class="st25" d="M358.6,604.3c-1.9,0-3.7-0.1-5.6-0.1l2.9,7.5c1.8,0,3.7,0,5.5,0L358.6,604.3z"/>
	<path class="st25" d="M348.6,578.6l-4.8,1.9l7.9,20.3c1.9,0,3.7,0.1,5.6,0.1L348.6,578.6z"/>
	<path class="st26" d="M433.2,727.5h-47.9c-1.6,0.8-5.2,4.3-9.3,8.9h66.5C438.4,731.9,434.8,728.4,433.2,727.5z"/>
	<path class="st25" d="M403.1,718.4l-16.7-42.8c-1.8,0-3.7,0-5.5,0l16.7,42.8H403.1z"/>
	<path class="st13" d="M246.5,639.3h4.9l-3.8-31l-4.8,0.6L246.5,639.3z"/>
	<path class="st27" d="M240.6,591.9l4.8-0.6l1.3,10.2l-4.8,0.6L240.6,591.9z"/>
	<path class="st28" d="M296.3,701.6v-21.4h-56c0,7.1,0,14.3,0,21.4H296.3z"/>
	<path class="st29" d="M288.4,621.5L274,619l-3.5,20.3h14.8L288.4,621.5z"/>
	<path class="st30" d="M291,606.2c0.3-1.6-0.8-3.2-2.5-3.5l-8.5-1.4c-0.8-0.1-1.6,0-2.2,0.5c-0.7,0.5-1.1,1.2-1.2,1.9l-1.5,8.5
		l14.4,2.5L291,606.2z"/>
	<path class="st19" d="M882.5,390.3h197.6c4.6,0,8.3-3.7,8.3-8.3V262.3c0-4.6-3.7-8.3-8.3-8.3H882.5c-4.6,0-8.3,3.7-8.3,8.3V382
		C874.2,386.6,877.9,390.3,882.5,390.3z M881.3,266.5c0-3.3,2.7-6,6-6h187.9c3.3,0,6,2.7,6,6v111.3c0,3.3-2.7,6-6,6H887.3
		c-3.3,0-6-2.7-6-6L881.3,266.5L881.3,266.5z"/>
	<path class="st31" d="M1209.4,751.4c-36.5,0-73,0-109.6,0c-129.5,0-259,0-388.6,0v12.5h501.3c0.1,0,0.1-0.1,0.1-0.1v-14.2
		C1212.1,750.6,1211,751.4,1209.4,751.4z"/>
	<path class="st24" d="M240.3,673.3h56V651c0-1.4-1.1-2.5-2.5-2.5h-53.5C240.3,656.7,240.3,665,240.3,673.3z"/>
	<path class="st11" d="M604.7,700.8l3.6,11.3c1.7,5.3,6.2,8.9,11.3,9.6h4.2c0.7-0.1,1.5-0.3,2.2-0.5c7.4-2.4,11.5-10.3,9.1-17.8
		l-0.8-2.6L604.7,700.8L604.7,700.8z"/>
	<path class="st23" d="M447.2,451.1l-2.7,4.1c0.7,0.5,1.5,0.9,2.2,1.4c1.9,1.2,0.1,4.2-1.7,3c-0.8-0.5-1.6-1-2.3-1.5l-6.3,9.4
		l-12.9,19.4c2.6,3.4,6.6,8.4,10.2,11.8l3.7-5.5c-0.1-0.1-0.2-0.1-0.3-0.2c-1-0.9-2.1-1.7-3.2-2.6c-0.7-0.6-0.6-1.8,0-2.4
		c0.7-0.7,1.7-0.6,2.4,0c1,0.8,2,1.6,3,2.4l22.7-34C457.1,454.3,452.2,452.6,447.2,451.1z"/>
	<path class="st4" d="M711.3,721.6v14.8h26.5L725,700.8h-45.5c-3,12.1-6.8,24-11.5,35.6h20.7v-14.8c0-6.2,5.1-11.3,11.3-11.3
		C706.2,710.3,711.3,715.4,711.3,721.6z"/>
	<path class="st4" d="M654.5,730.9h-30c-0.9,0.1-1.8,0.2-2.7,0.2c-0.9,0-1.8-0.1-2.7-0.2h-57.7v5.5h91.1L654.5,730.9z"/>
	<path class="st23" d="M374,520.1l2.8-4.1c-1.4-1.1-2.6-2.2-3.8-3.5l-3.3,4.7c1.3,0.8,2.5,1.6,3.8,2.4
		C373.7,519.8,373.8,519.9,374,520.1z"/>
	<path class="st25" d="M395.6,444.3c2.4,9.6,8.2,25.1,21.1,36.1l21.2-31.8C424.1,445.3,409.9,443.8,395.6,444.3z M409,459.4
		c-2.5-2.8-4.3-6-5.6-9.6c-0.8-2.1,2.6-3,3.3-0.9c1.1,3,2.7,5.7,4.7,8.1C412.9,458.6,410.5,461,409,459.4z M413.9,464.5
		c-2.2,0-2.2-3.4,0-3.4C416.2,461,416.2,464.5,413.9,464.5z"/>
	<path class="st31" d="M688,751.4c-36.5,0-73,0-109.6,0c-130.4,0-260.8,0-391.1,0v12.4c0,0.1,0.1,0.1,0.1,0.1h501.3v-12.6
		C688.5,751.3,688.3,751.4,688,751.4z"/>
	<path class="st25" d="M402.5,479c-0.4-0.4-0.7-0.9-1-1.3l-2.9-2l-22.3,32.1c1.2,1.3,2.3,2.7,3.4,4.1L402.5,479z"/>
	<path class="st23" d="M372.1,522.8c-0.1,0-0.2-0.1-0.4-0.2c-1.3-0.9-2.7-1.7-4-2.6l-22.4,32.3c1.7,0.6,3.2,1.4,4.5,2.5L372.1,522.8
		z"/>
	<path class="st27" d="M700,719.5c-1.2,0-2.1,0.9-2.1,2.1v64.5c0,1.2,0.9,2.1,2.1,2.1c1.2,0,2.1-0.9,2.1-2.1v-64.5
		C702.1,720.5,701.2,719.5,700,719.5z"/>
	<path class="st25" d="M340.8,278.2h20.7V317h-20.7V278.2z"/>
	<path class="st25" d="M369.7,317h20.7v-38.8h-20.7V317z M379,302.4c5.2,0,5.1,8,0,8C373.8,310.4,373.9,302.4,379,302.4z"/>
	<path class="st23" d="M341.3,363.9h49.2V326h-49.2V363.9z M358.3,347.7c4.7,0,9.3,0,14,0c5.2,0,5.1,8,0,8c-4.7,0-9.3,0-14,0
		C353.2,355.7,353.2,347.7,358.3,347.7z"/>
	<path class="st32" d="M411.9,310.9h86.6v6.2h-86.6V310.9z"/>
	<path class="st32" d="M425.4,291.2c0,3.7-3,6.7-6.7,6.7c0,0,0,0,0,0c-3.7,0-6.7-3-6.7-6.7c0,0,0,0,0,0c0-3.7,3-6.7,6.7-6.7
		c0,0,0,0,0,0C422.4,284.5,425.4,287.5,425.4,291.2C425.4,291.2,425.4,291.2,425.4,291.2z"/>
	<path class="st32" d="M449.1,291.2c0,3.7-3,6.7-6.7,6.7c0,0,0,0,0,0c-3.7,0-6.7-3-6.7-6.7c0,0,0,0,0,0c0-3.7,3-6.7,6.7-6.7
		c0,0,0,0,0,0C446.1,284.5,449.1,287.5,449.1,291.2C449.1,291.2,449.1,291.2,449.1,291.2z"/>
	<path class="st32" d="M472.7,291.2c0,3.7-3,6.7-6.7,6.7c0,0,0,0,0,0c-3.7,0-6.7-3-6.7-6.7c0,0,0,0,0,0c0-3.7,3-6.7,6.7-6.7
		c0,0,0,0,0,0C469.7,284.5,472.7,287.5,472.7,291.2C472.7,291.2,472.7,291.2,472.7,291.2z"/>
	<path class="st32" d="M496.4,291.2c0,3.7-3,6.7-6.7,6.7c0,0,0,0,0,0c-3.7,0-6.7-3-6.7-6.7c0,0,0,0,0,0c0-3.7,3-6.7,6.7-6.7
		c0,0,0,0,0,0C493.4,284.5,496.4,287.5,496.4,291.2C496.4,291.2,496.4,291.2,496.4,291.2z"/>
	<path class="st23" d="M411.5,326h14.4v37.9h-14.4V326z"/>
	<path class="st25" d="M435.2,326h14.4v37.9h-14.4V326z"/>
	<path class="st23" d="M458.9,326h14.4v37.9h-14.4V326z"/>
	<path class="st25" d="M482.5,326h14.4v37.9h-14.4V326z"/>
	<path class="st20" d="M903.6,306.7H1059v-26H903.6V306.7z M971.5,293.4c3.9,0,3.9,6,0,6C967.6,299.4,967.6,293.4,971.5,293.4z
		 M923,294.4c11,0,22,0,33,0c3.9,0,3.9,6,0,6c-11,0-22,0-33,0C919.1,300.4,919.1,294.4,923,294.4z"/>
	<path class="st16" d="M903.6,327.7H925V349h-21.4V327.7z"/>
	<path class="st10" d="M934.3,327.7h21.4V349h-21.4V327.7z"/>
	<path class="st10" d="M965,327.7h21.4V349H965V327.7z"/>
	<path class="st32" d="M995.7,314.4h21.4v21.4h-21.4V314.4z"/>
	<path class="st4" d="M1026.9,314.4h21.4v21.4h-21.4V314.4z"/>
	<path class="st32" d="M995.7,343.5h21.4v21.4h-21.4V343.5z"/>
	<path class="st4" d="M1026.9,343.5h21.4v21.4h-21.4V343.5z"/>
	<path class="st21" d="M240.3,735.7c0-9.1,0-18.2,0-27.3h-5.1v28h5.1C240.3,736.2,240.3,735.9,240.3,735.7z"/>
	<path class="st21" d="M240.3,680.2h-5.1v21.4h5.1C240.3,694.4,240.3,687.3,240.3,680.2z"/>
	<path class="st21" d="M237.7,648.5c-1.4,0-2.5,1.1-2.5,2.5v22.3h5.1c0-8.3,0-16.5,0-24.8L237.7,648.5L237.7,648.5z"/>
	<path class="st21" d="M688,751.4c0.3,0,0.5,0,0.7-0.1v-5.7H300.9h-70.3h-43.2c-0.1,0-0.1,0.1-0.1,0.1v5.6c130.4,0,260.8,0,391.1,0
		C615,751.4,651.5,751.4,688,751.4z"/>
	<path class="st21" d="M1209.4,751.4c1.6,0,2.7-0.8,3.3-1.8v-3.8c0-0.1-0.1-0.1-0.1-0.1h-10.2h-33.2h-9.2H1136h-9.2h-24.1h-9.2
		h-24.1h-9.2h-33.2h-33.8h-77.9H711.3v5.8c129.5,0,259,0,388.6,0C1136.4,751.4,1172.9,751.4,1209.4,751.4z"/>
	<path class="st21" d="M585.7,511c27.1,0,54.2,0,81.3,0c5.1,0,5.2-8,0-8c-27.1,0-54.2,0-81.3,0C580.5,503,580.5,511,585.7,511z"/>
	<path class="st21" d="M692.3,511c5.1,0,5.2-8,0-8C687.2,503,687.2,511,692.3,511z"/>
	<path class="st21" d="M707,511c5.1,0,5.2-8,0-8C701.9,503,701.8,511,707,511z"/>
	<path class="st21" d="M636.8,414.9c1.1-4.1,3.1-7.7,6.1-10.7c3.6-3.7-2-9.3-5.7-5.7c-3.9,4-6.7,8.8-8.1,14.2
		C627.8,417.8,635.5,419.9,636.8,414.9z"/>
	<path class="st21" d="M675,393.4c5.1,0,5.2-8,0-8C669.9,385.4,669.8,393.4,675,393.4z"/>
	<path class="st21" d="M698.5,382.9c5.1,0,5.2-8,0-8C693.4,374.9,693.3,382.9,698.5,382.9z"/>
	<path class="st21" d="M691,401.4c5.1,0,5.2-8,0-8C685.9,393.4,685.8,401.4,691,401.4z"/>
	<path class="st21" d="M815.7,686.4c-70.8,0-141.7,0-212.5,0c-20.3,0-40.6,0-60.9,0c-3.1,0-4.3,3-3.7,5.3h133.1h56.5h91.1
		C820,689.3,818.8,686.4,815.7,686.4z"/>
	<path class="st21" d="M675,700.8l-12.8,35.6h5.8c4.7-11.6,8.5-23.5,11.5-35.6H675z"/>
	<path class="st21" d="M358.3,355.7c4.7,0,9.3,0,14,0c5.1,0,5.2-8,0-8c-4.7,0-9.3,0-14,0C353.2,347.7,353.2,355.7,358.3,355.7z"/>
	<path class="st21" d="M379,310.4c5.1,0,5.2-8,0-8C373.9,302.4,373.8,310.4,379,310.4z"/>
	<path class="st21" d="M464.1,453c-4.6-2-10.7-3.8-14.8-4.9l-2,3c4.9,1.5,9.8,3.2,14.6,5.2L464.1,453z"/>
	<path class="st21" d="M437.9,448.6l2.8-4.1c-17.8-9.1-37.9-6.5-46.1-4.8c0.3,1.3,0.6,2.9,1.1,4.7
		C409.9,443.8,424.1,445.3,437.9,448.6z"/>
	<path class="st21" d="M337.5,562.9c-0.4,0-0.7,0-1,0.1c-0.6,0.8-0.9,1.8-0.9,2.9c0,2.2,1.3,4,3.2,4.8
		C342.6,569.4,342.2,562.9,337.5,562.9z"/>
	<path class="st21" d="M622.6,209.8c3-8.8,8.7-16.1,16.4-21.1c3.2-2.1,0.2-7.3-3-5.2c-9.1,5.9-15.7,14.4-19.2,24.7
		C615.6,211.9,621.4,213.5,622.6,209.8z"/>
	<path class="st21" d="M651.7,186c3.9,0,3.9-6,0-6C647.8,180,647.8,186,651.7,186z"/>
	<path class="st21" d="M668.7,248c-3.9,0-3.9,6,0,6C672.5,254,672.5,248,668.7,248z"/>
	<path class="st21" d="M786.9,244.4c3.9,0,3.9-6,0-6C783,238.4,783,244.4,786.9,244.4z"/>
	<path class="st21" d="M923,300.4c11,0,22,0,33,0c3.9,0,3.9-6,0-6c-11,0-22,0-33,0C919.1,294.4,919.1,300.4,923,300.4z"/>
	<path class="st21" d="M971.5,299.4c3.9,0,3.9-6,0-6C967.6,293.4,967.6,299.4,971.5,299.4z"/>
	<path class="st21" d="M923.5,622.5c0.5,0.5,1.2,0.8,2,0.8c19.9,0,39.9,0,59.8,0v-5.2h-61.8c0,0,0,0-0.1,0.1V622.5z"/>
	<path class="st21" d="M1040.8,602.3h-2.4c-1.2,0-2.1,1-2.1,2.1v39.7h4.7c0-13.6,0-27.1,0-40.7
		C1041,602.9,1040.9,602.6,1040.8,602.3z"/>
	<path class="st21" d="M1041,686.7h-4.7v49.7h4.7C1041,719.8,1041,703.3,1041,686.7z"/>
	<path class="st21" d="M1041,653.2h-4.7v24.3h4.7C1041,669.4,1041,661.3,1041,653.2z"/>
	<path class="st21" d="M1093.5,633.4C1093.5,633.4,1093.5,633.4,1093.5,633.4l0.1-3.4c0-1.2-1-2.1-2.1-2.1h-19.8
		c-1.2,0-2.1,1-2.1,2.1v3.4C1077.5,633.4,1085.5,633.4,1093.5,633.4z"/>
	<path class="st21" d="M1107,724.3h-4.3v12.1h4.3C1107,732.4,1107,728.3,1107,724.3z"/>
	<path class="st21" d="M1106.5,579.7h-1.6c-1.2,0-2.1,1-2.1,2.1V630v85.1h4.3c0-44.6,0-89.2,0-133.8
		C1107,580.7,1106.8,580.2,1106.5,579.7z"/>
	<path class="st21" d="M1137,611.9c7.3,0,14.7,0,22,0c0.4,0,0.7-0.1,1-0.2v-1.5c0-1.2-1-2.1-2.1-2.1h-19.8c-1.2,0-2.1,1-2.1,2.1v1.5
		C1136.3,611.8,1136.6,611.9,1137,611.9z"/>
	<path class="st21" d="M1193.3,660.8v-24.3h-3.3c0,8.1,0,16.2,0,24.3H1193.3z"/>
	<path class="st21" d="M1190,627.3h3.3v-22.9c0-1.2-1-2.1-2.1-2.1h-1.1c0,0,0,0.1,0,0.1C1190,610.7,1190,619,1190,627.3z"/>
	<path class="st21" d="M1193.3,736.4V670h-3.3c0,22.1,0,44.3,0,66.4H1193.3z"/>
	<path class="st21" d="M790.3,590.7c12.2,0,24.4,0,36.7,0c3.9,0,3.9-6,0-6c-12.2,0-24.4,0-36.7,0
		C786.5,584.7,786.5,590.7,790.3,590.7z"/>
	<path class="st21" d="M848.3,582c-3.9,0-3.9,6,0,6C852.2,588,852.2,582,848.3,582z"/>
	<path class="st33" d="M1212.6,736.4h-10.2v-132c0-6.2-5.1-11.3-11.3-11.3h-19.8c-4.4,0-8.2,2.5-10.1,6.2c-1.1-0.3-2.2-0.5-3.4-0.5
		h-19.8c-0.7,0-1.5,0.1-2.1,0.2v-17.2c0-6.2-5.1-11.3-11.3-11.3h-19.8c-6.2,0-11.3,5.1-11.3,11.3v37c-0.7-0.1-1.4-0.2-2.1-0.2h-19.8
		c-0.7,0-1.5,0.1-2.1,0.2v-14.5c0-6.2-5.1-11.3-11.3-11.3h-19.8c-6.2,0-11.3,5.1-11.3,11.3v132h-29.2v-16.7c0-2.1-1.5-3.9-3.4-4.4
		v-10.5c14.6-1.7,18.6-11.6,18.6-17.1v-46.7c0-7.8-8.6-11.3-9.6-11.6c-0.5-0.2-1.1-0.3-1.6-0.3h-7.4v-15.5c0-2.5-2.1-4.6-4.6-4.6
		h-71c-2.5,0-4.6,2.1-4.6,4.6v101.8c-2,0.5-3.4,2.3-3.4,4.4v16.7h-63.1v-10.1c0-2.5-2.1-4.6-4.6-4.6h-23.9c3.7-4.3,5.8-9.9,5.6-16
		c0-0.1,0-0.1,0-0.2l-0.3-4.8h40.1c10.5,0,19.1-8.6,19.1-19.1V491.9c0-10.5-8.6-19.1-19.1-19.1H794c1.5-2.5,2.6-4.9,3.3-6.9
		c2.9-8.1,2.5-15.1-1.1-19.8c12.1-11.6,11.9-33.1,11.9-34.2c0-2.3-1.8-4.3-4.1-4.5c-4.5-0.4-7.8-1.3-10.1-2.2
		c6.9-10.2,9-25.4,9.2-27.4c0.2-1.7-0.6-3.4-2-4.4c-1.5-1-3.3-1-4.9-0.1c-5.9,3.5-13.8,4.2-19.6,4.2c5.3-10,6.2-24,6.3-26
		c0.1-1.6-0.7-3.2-2.1-4.1c-1.4-0.9-3.1-1-4.6-0.2c-14.3,7.4-35.7,12.5-48.3,15.2c6.2-15.2-1.2-31.3-1.6-32.1
		c-0.7-1.5-2.3-2.6-4-2.6c-1.7-0.1-3.3,0.8-4.2,2.3c-11.2,19.9-43.2,35-56.5,40.6c-1.2-7.8-5.6-15.4-10.2-20.4
		c-1.2-1.3-3-1.8-4.7-1.3c-1.7,0.5-2.9,2-3.2,3.7c-1.1,7.3-6.7,15-10.9,20.1c-5.6,6.9-11.5,14.6-16.2,23.2
		c-8.7,15.9-10,33.5-9.8,47.5c-0.3,0.2-0.5,0.4-0.8,0.6c-5.4,4.5-6.5,12.4-3.1,21.9c0.7,1.9,1.8,4.4,3.3,6.9h-70.6
		c-10.5,0-19.1,8.6-19.1,19.1v189.8c0,10.5,8.6,19.1,19.1,19.1H595l4.5,14.1c0.8,2.5,2,4.8,3.5,6.8h-46.3c-2.5,0-4.6,2.1-4.6,4.6
		v10.1h-97.7c-14.5-18-19.2-18-20.8-18h-20.7L355.5,571c-0.2-0.5-0.5-1-0.9-1.4c0.3-1.2,0.5-2.4,0.5-3.7c0-0.8-0.1-1.5-0.2-2.3
		l54.1-77.8c1.7,1.6,3.5,3.1,5.5,4.5c2.2,3,10.9,14.6,17.6,19c0.8,0.5,1.6,0.8,2.5,0.8c0.3,0,0.6,0,0.9-0.1c1.2-0.2,2.2-0.9,2.9-2
		l36.1-54.1c0.7-1,0.9-2.2,0.7-3.4c-0.2-1.2-0.9-2.2-2-2.9c-6.6-4.4-20.7-8-24.3-8.9c-27.3-16.8-59.5-7.2-60.9-6.8
		c-2.1,0.6-3.4,2.7-3.2,4.8c0.1,0.9,1.6,14.8,9.3,29.6c-0.2,0.2-0.4,0.4-0.5,0.6l-60.4,87c-4,2.5-6.8,7-6.8,12.1
		c0,5.2,2.8,9.7,6.9,12.2c0,0.5,0.1,1,0.3,1.5l54.1,138.8h-2.9c-1.6,0-6.3,0-20.8,18h-58.5V651c0-6.4-5.2-11.6-11.6-11.6h-1.5
		l5.5-31.9c0.9-5.4-2.7-10.5-8.1-11.4l-8.5-1.4c-2.6-0.5-5.2,0.1-7.4,1.7s-3.6,3.8-4,6.4l-6.3,36.7h-6.4l-6.4-51.6
		c-0.1-0.8-0.5-1.4-1.1-1.9c-0.6-0.5-1.4-0.7-2.1-0.6l-10.5,1.3c-1.6,0.2-2.7,1.6-2.5,3.2l6.1,49.5h-3c-6.4,0-11.6,5.2-11.6,11.6
		v85.5h-38.6c-5.1,0-9.3,4.2-9.3,9.3v18c0,5.1,4.2,9.3,9.3,9.3h501.3v13.1c0,6.2,5.1,11.3,11.3,11.3c6.2,0,11.3-5.1,11.3-11.3v-13.1
		h501.3c5.1,0,9.3-4.2,9.3-9.3v-18C1221.9,740.6,1217.7,736.4,1212.6,736.4z M994.5,638.2h6.5c1.5,0.7,3,2,3,2.8v46.7
		c0,0.3-0.1,6.4-9.5,7.9V638.2z M235.2,680.2h5.1h56v21.4h-56h-5.1L235.2,680.2L235.2,680.2z M235.2,708.4h5.1h56v28h-56h-5.1
		L235.2,708.4L235.2,708.4z M626,721.2c-0.7,0.2-1.5,0.4-2.2,0.5h-4.2c-5.1-0.8-9.7-4.4-11.3-9.6l-3.6-11.3h29.7l0.8,2.6
		C637.6,710.9,633.5,718.8,626,721.2z M644,700.8h21.3l-7.5,20.9h-17.4C644.7,715.9,646.3,708.2,644,700.8z M815.7,706.1
		c0.3,7.8-5.8,14.3-13.6,14.6c-3.7,0.1-7.4-1.2-10.1-3.7c-2.8-2.6-4.4-6.1-4.5-9.7l-0.1-6.5h28L815.7,706.1z M778.2,700.8l0.1,6.7
		c0.2,5.3,2.2,10.2,5.5,14.2h-41.6l-7.5-20.9H778.2z M1036.3,653.2h4.7h19.3v24.3H1041h-4.7V653.2z M1036.3,686.7h4.7h19.3v49.7
		H1041h-4.7V686.7z M1071.7,627.8h19.8c1.2,0,2.1,1,2.1,2.1v3.4v103.1h-24.1v-103V630C1069.5,628.8,1070.5,627.8,1071.7,627.8z
		 M1102.7,724.3h4.3h19.8v12.1H1107h-4.3V724.3z M1138.1,608h19.8c1.2,0,2.1,1,2.1,2.1v1.5v124.7H1136V611.7v-1.5
		C1136,609,1136.9,608,1138.1,608z M1169.2,610.1v-5.7c0-1.2,1-2.1,2.1-2.1h18.7h1.1c1.2,0,2.1,1,2.1,2.1v22.9h-3.2h-20.8V610.1z
		 M1169.2,636.5h20.8h3.3v24.3h-3.3h-20.8V636.5z M1169.2,670h20.8h3.3v66.4h-3.3h-9.9c0-8.7,0-17.4,0-26.1c0-2.9-4.6-3-4.6,0
		c0,8.7,0,17.4,0,26.1h-6.3L1169.2,670L1169.2,670z M1126.8,581.9v28.3v105H1107h-4.3V630v-48.1c0-1.2,1-2.1,2.1-2.1h1.6h18.1
		C1125.8,579.7,1126.8,580.7,1126.8,581.9z M1060.3,604.4V630v14.1H1041h-4.7v-39.7c0-1.2,1-2.1,2.1-2.1h2.4h17.4
		C1059.4,602.3,1060.3,603.2,1060.3,604.4z M923.5,618.1h61.8v5.2v2.2c-9.9,0-19.7,0-29.6,0c-2.9,0-3,4.6,0,4.6c9.9,0,19.7,0,29.6,0
		v85h-61.9v-10.7c7.8,0,15.5,0,23.3,0c2.9,0,3-4.6,0-4.6c-7.8,0-15.5,0-23.3,0v-77.3L923.5,618.1L923.5,618.1L923.5,618.1
		L923.5,618.1z M920,724.3h68.7v12.1H920V724.3z M838.6,730.9v5.5h-91.1l-2-5.5H838.6z M624.4,400.4c4.3-8,9.9-15.2,15.3-21.8
		c3.4-4.2,7.3-9.4,9.9-15.1c2.2,4.3,3.6,9.1,3,13.2c-0.2,1.6,0.4,3.2,1.7,4.2c1.2,1,2.9,1.3,4.4,0.7c1.9-0.7,42.1-15.4,61.7-39
		c1.3,6.7,1.3,16-5.5,23.2c-1.4,1.4-1.6,3.6-0.7,5.3c0.9,1.7,2.8,2.7,4.8,2.4c1.4-0.2,31.3-5.1,53.8-14.5
		c-1.3,7.5-3.8,15.9-7.9,18.9c-1.5,1.1-2.2,3-1.8,4.8c0.4,1.8,1.9,3.2,3.7,3.5c0.7,0.1,13.5,2.1,25.6-1.2
		c-1.6,6.5-4.5,14.6-8.8,18.5c-1,0.9-1.5,2.2-1.5,3.5c0,1.3,0.6,2.6,1.6,3.4c0.5,0.5,5.1,4.1,15,5.8c-0.5,6.4-2.6,19.1-10.6,25
		c-1.7-0.3-3.3-0.3-4.5,0c-1.9,0.3-3.7,1.1-5.3,2.1v-9.8h-9.2v7.9c-60.6,5.2-122.5-2.9-138.3-5.2v-2.7h-9.2v9.8
		c-1.6-1-3.4-1.8-5.3-2.1c-0.2,0-0.5-0.1-0.7-0.1C615.7,428,617.2,413.6,624.4,400.4z M781,459.7c-0.7,1.2-1.6,2.2-2.7,3v-6.8
		c1.5-2.2,4.3-5.4,6.9-5.9c0.7-0.1,1.7-0.1,3.1,1.1c2.1,1.7,1.8,5.3,1.5,7.4c-1.2,7.1-5.9,13.5-7.7,14.3h-3.9v-5.9
		c2.4-1.2,4.3-3.1,5.7-5.4C785.1,459.6,782.1,457.8,781,459.7z M737,463.6c-3.2,0-5.7,2.6-5.7,5.7v3.4h-62.6v-3.4
		c0-3.2-2.6-5.7-5.7-5.7s-5.7,2.6-5.7,5.7v3.4h-26.4v-27.5c13.7,2,52.1,6.8,95.9,6.8c13.8,0,28.1-0.5,42.3-1.7v22.4h-26.4v-3.4
		C742.8,466.2,740.2,463.6,737,463.6z M611.7,451.1c1.5-1.2,2.4-1.2,3.1-1.1c2.6,0.5,5.4,3.7,6.9,5.9v5.4c-0.9-0.8-1.8-1.7-2.7-2.6
		c-1.5-1.7-3.9,0.8-2.4,2.4c1.5,1.7,3.3,3.2,5.1,4.5v7.2h-3.9c-1.8-0.9-6.5-7.2-7.7-14.3C609.8,456.5,609.6,452.8,611.7,451.1z
		 M525.5,681.7V491.9c0-5.5,4.5-9.9,9.9-9.9h329.2c5.5,0,9.9,4.5,9.9,9.9v189.8c0,5.5-4.5,9.9-9.9,9.9h-45.3h-91.1h-56.5H538.7h-3.3
		C529.9,691.6,525.5,687.2,525.5,681.7z M561.4,730.9H619c0.9,0.1,1.8,0.2,2.7,0.2c0.9,0,1.8-0.1,2.7-0.2h30l-2,5.5h-91.1
		L561.4,730.9L561.4,730.9z M395.6,444.3c-0.5-1.8-0.8-3.4-1.1-4.7c8.2-1.7,28.3-4.4,46.1,4.8l-2.8,4.1l-21.2,31.8
		C403.8,469.5,398.1,453.9,395.6,444.3z M436.2,487.9c-0.7-0.6-1.7-0.7-2.4,0c-0.6,0.6-0.7,1.8,0,2.4c1,0.9,2.1,1.7,3.2,2.6
		c0.1,0.1,0.2,0.2,0.3,0.2l-3.7,5.5c-3.6-3.5-7.6-8.4-10.2-11.8l12.9-19.4l6.3-9.4c0.8,0.5,1.6,1,2.3,1.5c1.9,1.2,3.6-1.8,1.7-3
		c-0.7-0.5-1.5-0.9-2.2-1.4l2.7-4.1l2-3c4.2,1.1,10.3,2.9,14.8,4.9l-2.2,3.3l-22.7,34C438.2,489.5,437.2,488.7,436.2,487.9z
		 M398.5,475.7l2.9,2c0.3,0.4,0.7,0.9,1,1.3l-22.9,33c-1.1-1.4-2.2-2.8-3.4-4.1L398.5,475.7z M373,512.5c1.2,1.3,2.4,2.5,3.8,3.5
		l-2.8,4.1c-0.1-0.2-0.3-0.3-0.5-0.5c-1.3-0.8-2.5-1.6-3.8-2.4L373,512.5z M367.8,520c1.3,0.9,2.7,1.7,4,2.6
		c0.1,0.1,0.2,0.1,0.4,0.2l-22.3,32c-1.3-1.1-2.8-1.9-4.5-2.5L367.8,520z M338.8,570.6c-1.9-0.8-3.2-2.6-3.2-4.8
		c0-1.1,0.3-2.1,0.9-2.9c0.9-1.4,2.5-2.3,4.3-2.3c2.8,0,5.2,2.3,5.2,5.2s-2.3,5.2-5.2,5.2C340.1,571,339.4,570.9,338.8,570.6z
		 M343.8,580.5l4.8-1.9l8.7,22.3c-1.9,0-3.7-0.1-5.6-0.1L343.8,580.5z M353.1,604.3c1.9,0,3.7,0.1,5.6,0.1l2.9,7.4
		c-1.8,0-3.7,0-5.5,0L353.1,604.3z M358,617c1.8,0,3.7,0,5.5,0l21.5,55.1c-1.8,0-3.7,0-5.5,0L358,617z M380.9,675.6
		c1.8,0,3.7,0,5.5,0l16.7,42.8h-5.5L380.9,675.6z M385.3,727.5h47.9c1.6,0.8,5.2,4.3,9.3,8.9H376
		C380.1,731.9,383.7,728.4,385.3,727.5z M276.6,603.8c0.1-0.8,0.6-1.5,1.2-1.9s1.4-0.6,2.2-0.5l8.5,1.4c1.6,0.3,2.7,1.8,2.5,3.5
		l-1.5,8.5l-14.4-2.5L276.6,603.8z M274,619l14.4,2.5l-3.1,17.8h-14.8L274,619z M251.4,639.3h-4.9l-3.7-30.4l4.8-0.6L251.4,639.3z
		 M240.6,591.9l4.8-0.6l1.3,10.2l-4.8,0.6L240.6,591.9z M293.8,648.5c1.4,0,2.5,1.1,2.5,2.5v22.3h-56h-5.1V651
		c0-1.4,1.1-2.5,2.5-2.5h2.6H293.8z M187.4,763.9c-0.1,0-0.1-0.1-0.1-0.1v-12.4v-5.6c0-0.1,0.1-0.1,0.1-0.1h43.2h70.3h387.8v5.7
		v12.6H187.4z M688.7,721.6v14.8H668h-5.8l12.8-35.6h4.6H725l12.8,35.6h-26.5v-14.8c0-6.2-5.1-11.3-11.3-11.3
		C693.8,710.3,688.7,715.4,688.7,721.6z M702.1,786.2c0,1.2-0.9,2.1-2.1,2.1c-1.2,0-2.1-0.9-2.1-2.1v-64.5c0-1.2,0.9-2.1,2.1-2.1
		c1.2,0,2.1,0.9,2.1,2.1V786.2z M1212.6,763.9H711.3v-12.5v-5.8h204.2h77.9h33.8h33.2h9.2h24.1h9.2h24.1h9.2h24.1h9.2h33.2h10.2
		c0.1,0,0.1,0.1,0.1,0.1v3.8v14.2C1212.7,763.8,1212.6,763.9,1212.6,763.9z"/>
	<path class="st33" d="M700,619.6c18.1,0,32.8-14.7,32.8-32.8s-14.7-32.8-32.8-32.8s-32.8,14.7-32.8,32.8
		C667.2,604.9,681.9,619.6,700,619.6z M700,563.1c13.1,0,23.7,10.6,23.7,23.7c0,13.1-10.6,23.7-23.7,23.7
		c-13.1,0-23.7-10.6-23.7-23.7C676.3,573.7,686.9,563.1,700,563.1z"/>
	<path class="st33" d="M827.5,507.2h24.1c3,0,5.4-2.4,5.4-5.4s-2.4-5.4-5.4-5.4h-24.1c-3,0-5.4,2.4-5.4,5.4S824.5,507.2,827.5,507.2
		z"/>
	<path class="st33" d="M550.3,659.2c0-31.8,0-63.7,0-95.5c0-4.4-6.9-4.4-6.9,0c0,31.8,0,63.7,0,95.5
		C543.4,663.6,550.3,663.6,550.3,659.2z"/>
	<path class="st33" d="M546.8,544.2c4.4,0,4.4-6.9,0-6.9C542.4,537.3,542.4,544.2,546.8,544.2z"/>
	<path class="st33" d="M546.8,526.6c4.4,0,4.4-6.9,0-6.9C542.4,519.8,542.4,526.6,546.8,526.6z"/>
	<path class="st33" d="M546.8,509.1c4.4,0,4.4-6.9,0-6.9C542.4,502.2,542.4,509.1,546.8,509.1z"/>
	<path class="st33" d="M752.3,668c28.3,0,56.5,0,84.8,0c4.4,0,4.4-6.9,0-6.9c-28.3,0-56.5,0-84.8,0C747.9,661.1,747.9,668,752.3,668
		z"/>
	<path class="st33" d="M850.9,660.3c-4.4,0-4.4,6.9,0,6.9C855.3,667.2,855.3,660.3,850.9,660.3z"/>
	<path class="st33" d="M243.2,725.8c3.7,0,3.7-5.7,0-5.7C239.5,720.1,239.5,725.8,243.2,725.8z"/>
	<path class="st33" d="M254.9,725.8c3.7,0,3.7-5.7,0-5.7C251.2,720.1,251.2,725.8,254.9,725.8z"/>
	<path class="st33" d="M265,725.8c7.3,0,14.6,0,22,0c3.7,0,3.7-5.7,0-5.7c-7.3,0-14.6,0-22,0C261.3,720.1,261.3,725.8,265,725.8z"/>
	<path class="st33" d="M406.7,448.9c-0.7-2.1-4.1-1.2-3.3,0.9c1.3,3.5,3.1,6.7,5.6,9.6c1.5,1.7,3.9-0.8,2.4-2.4
		C409.4,454.6,407.8,451.9,406.7,448.9z"/>
	<path class="st33" d="M413.9,461c-2.2,0-2.2,3.4,0,3.4C416.2,464.5,416.2,461,413.9,461z"/>
	<path class="st33" d="M1081.5,653.8c-3.5,0-6.3,2.8-6.3,6.3v43.8c0,3.5,2.8,6.3,6.3,6.3s6.3-2.8,6.3-6.3v-43.8
		C1087.8,656.6,1085,653.8,1081.5,653.8z"/>
	<path class="st33" d="M1142,631.4h11.7v20.3H1142V631.4z"/>
	<path class="st33" d="M1142,662.2h11.7v45.1H1142V662.2z"/>
	<path class="st33" d="M1120.1,633.6c0-13.4,0-26.7,0-40.1c0-2.9-4.6-3-4.6,0c0,13.4,0,26.7,0,40.1
		C1115.5,636.5,1120.1,636.5,1120.1,633.6z"/>
	<path class="st33" d="M1117.4,646.2c2.9,0,3-4.6,0-4.6C1114.5,641.6,1114.5,646.2,1117.4,646.2z"/>
	<path class="st33" d="M1117.4,655.7c2.9,0,3-4.6,0-4.6C1114.5,651.1,1114.5,655.7,1117.4,655.7z"/>
	<path class="st33" d="M1177.4,700.8c2.9,0,3-4.6,0-4.6C1174.5,696.2,1174.4,700.8,1177.4,700.8z"/>
	<path class="st33" d="M1055.6,711.1c0-3.6,0-7.1,0-10.7c0-2.9-4.6-3-4.6,0c0,3.6,0,7.1,0,10.7
		C1051,714.1,1055.6,714.1,1055.6,711.1z"/>
	<path class="st33" d="M1052.9,717.3c-2.9,0-3,4.6,0,4.6C1055.8,721.8,1055.8,717.3,1052.9,717.3z"/>
	<path class="st33" d="M1045.7,627.5c1.2-0.1,2.3-1,2.3-2.3c0-1,0-1.9,0-2.9c0-1.2-1.1-2.3-2.3-2.3c-1.2,0.1-2.3,1-2.3,2.3
		c0,1,0,1.9,0,2.9C1043.4,626.4,1044.5,627.5,1045.7,627.5z"/>
	<path class="st33" d="M1045.7,618c2.9,0,3-4.6,0-4.6C1042.8,613.4,1042.8,618,1045.7,618z"/>
	<path class="st33" d="M1186.1,607.1c-1.2,0.1-2.3,1-2.3,2.3c0,1,0,1.9,0,2.9c0,1.2,1.1,2.3,2.3,2.3c1.2-0.1,2.3-1,2.3-2.3
		c0-1,0-1.9,0-2.9C1188.4,608.2,1187.3,607.1,1186.1,607.1z"/>
	<path class="st33" d="M653.1,423.8c13.8,2.2,27.7,3,41.7,2.2c3.7-0.2,3.7-5.9,0-5.7c-13.5,0.8-26.9,0.1-40.2-2
		C651,417.7,649.5,423.2,653.1,423.8z"/>
	<path class="st33" d="M705.4,424.4c3.7,0,3.7-5.7,0-5.7C701.8,418.7,701.8,424.4,705.4,424.4z"/>
	<path class="st33" d="M715.2,423.5c3.7,0,3.7-5.7,0-5.7C711.5,417.8,711.5,423.5,715.2,423.5z"/>
	<path class="st33" d="M744.1,389.1c3.7,0,3.7-5.7,0-5.7C740.4,383.4,740.4,389.1,744.1,389.1z"/>
	<path class="st33" d="M950.4,681.9c3.9,0,8.1-1.1,12-3.3c9.8-5.6,14.1-16.4,9.7-24.1c-4.4-7.7-16-9.3-25.7-3.7
		c-9.8,5.6-14.1,16.4-9.7,24.1C939.3,679.5,944.6,681.9,950.4,681.9z M949.8,656.8c2.8-1.6,5.9-2.4,8.7-2.4c3.4,0,6.3,1.2,7.7,3.6
		c2.5,4.3-0.8,11-7.2,14.7c-6.4,3.7-13.8,3.1-16.3-1.2C940.2,667.2,943.4,660.4,949.8,656.8z"/>
	<path class="st33" d="M948.8,668c0.4,0.3,1,0.6,1.9,0.7c0.9,0.1,2-0.1,3.1-0.6c1.1-0.5,2.1-1.4,2.9-2.2c0.8-0.9,1.4-1.7,2-2.4
		c0.6-0.7,1.2-1.3,1.9-1.7c0.6-0.4,1.2-0.6,1.7-0.7c0.5-0.1,0.8-0.1,0.8-0.1s-0.2-0.2-0.7-0.4c-0.5-0.2-1.3-0.4-2.2-0.3
		c-0.9,0.1-2,0.5-3,1.1c-1,0.7-1.9,1.5-2.7,2.4c-0.8,0.9-1.5,1.6-2.1,2.2c-0.6,0.6-1.3,1-1.9,1.2c-0.6,0.2-1.1,0.3-1.5,0.4
		c-0.4,0-0.6,0-0.6,0s0,0,0.1,0.1C948.5,667.7,948.6,667.8,948.8,668z"/>
	<path class="st33" d="M958.4,699.8c-2.9,0-3,4.6,0,4.6C961.4,704.4,961.4,699.8,958.4,699.8z"/>
	<path class="st33" d="M968.7,699.8c-2.9,0-3,4.6,0,4.6C971.7,704.4,971.7,699.8,968.7,699.8z"/>
	<path class="st33" d="M627.4,217.4c0,15,12.2,27.2,27.2,27.2s27.2-12.2,27.2-27.2c0-15-12.2-27.2-27.2-27.2
		C639.6,190.3,627.4,202.5,627.4,217.4z M654.6,199.4c9.9,0,18,8.1,18,18c0,9.9-8.1,18-18,18s-18-8.1-18-18
		C636.6,207.5,644.6,199.4,654.6,199.4z"/>
	<path class="st33" d="M762.9,275.6c1.1,0.2,2.3,0.3,3.4,0.3c9.1,0,17.2-6.5,18.9-15.8c0.9-5-0.2-10.1-3.1-14.4
		c-2.9-4.2-7.3-7-12.4-7.9c-10.4-1.9-20.4,5.1-22.3,15.5c-0.9,5,0.2,10.1,3.1,14.4C753.4,271.9,757.8,274.7,762.9,275.6z
		 M755.3,254.7c1-5.4,5.7-9.2,11-9.2c0.7,0,1.3,0.1,2,0.2c2.9,0.5,5.5,2.2,7.2,4.6c1.7,2.5,2.4,5.4,1.8,8.4c-1.1,6.1-6.9,10.1-13,9
		c-2.9-0.5-5.5-2.2-7.2-4.6C755.4,260.6,754.7,257.7,755.3,254.7z"/>
	<path class="st33" d="M725,238c-2.2-0.4-4.3,1.1-4.7,3.2l-2.5,13.9c-0.2,1,0,2.1,0.7,3c0.6,0.9,1.5,1.5,2.6,1.7l8.3,1.5
		c0.1,0.4,0.1,0.8,0.2,1.2c-1.6,0.7-3.2,1.1-4.9,1.3c-1.5,0.1-2.9,1.2-2.9,2.9c0,1.4,1.3,3,2.9,2.9c1.8-0.2,3.6-0.5,5.3-1.1
		l-6.1,4.2c-0.9,0.6-1.5,1.5-1.7,2.6c-0.2,1,0,2.1,0.7,3l8.1,11.6c1.3,1.8,3.8,2.3,5.6,1l7-4.8c1.8,1.4,3.7,2.6,5.6,3.6l-1.5,8.3
		c-0.4,2.2,1.1,4.3,3.2,4.7l13.9,2.5c0.2,0,0.5,0.1,0.7,0.1c0.8,0,1.6-0.2,2.3-0.7c0.9-0.6,1.5-1.5,1.7-2.6l1.5-8.3
		c2.2-0.3,4.4-0.8,6.5-1.4l4.8,7c0.6,0.9,1.5,1.5,2.6,1.7c1,0.2,2.1,0,3-0.7l11.6-8.1c1.8-1.3,2.3-3.8,1-5.6l-4.8-7
		c0.4-0.5,0.8-1.1,1.2-1.6c4.5,4.1,9.4,7.7,14.6,10.8c3.2,1.9,6.1-3,2.9-4.9c-4.6-2.8-8.9-6-12.9-9.5l6.2,1.1
		c2.2,0.4,4.3-1.1,4.7-3.2l2.5-13.9c0.4-2.2-1.1-4.3-3.2-4.7l-8.3-1.5c-0.3-2.2-0.8-4.4-1.4-6.5l7-4.8c1.8-1.3,2.3-3.8,1-5.6
		l-8.1-11.6c-0.6-0.9-1.5-1.5-2.6-1.7c-1-0.2-2.1,0-3,0.7l-7,4.8c-0.2-0.2-0.4-0.3-0.6-0.4c3.3-4.5,6.1-9.3,8.4-14.4
		c1.5-3.3-3.4-6.3-4.9-2.9c-2.3,5-5.1,9.8-8.3,14.3c-0.1,0-0.1-0.1-0.2-0.1l1.5-8.3c0.2-1,0-2.1-0.7-3c-0.6-0.9-1.5-1.5-2.6-1.7
		l-13.9-2.5c-2.2-0.4-4.3,1.1-4.7,3.2l-1.5,8.3c-2.2,0.3-4.4,0.8-6.5,1.4l-4.8-7c-1.3-1.8-3.8-2.3-5.6-1l-11.6,8.1
		c-0.9,0.6-1.5,1.5-1.7,2.6s0,2.1,0.7,3l4.8,7c-1.4,1.8-2.6,3.7-3.6,5.6L725,238z M739.3,245.5c1.3-3.2,3.2-6.1,5.6-8.7
		c1.3-1.4,1.4-3.5,0.4-5l-4.3-6.2l5-3.5l4.3,6.2c1.1,1.6,3.1,2.1,4.8,1.4c3.2-1.3,6.6-2.1,10.1-2.2c1.9-0.1,3.5-1.4,3.8-3.3l1.3-7.4
		l6,1.1l-1.3,7.4c-0.3,1.9,0.7,3.7,2.4,4.4c3.2,1.3,6.1,3.2,8.7,5.6c1.4,1.3,3.5,1.4,5,0.4l6.2-4.3l3.5,5l-6.2,4.3
		c-1.5,1.1-2.1,3.1-1.4,4.8c1.3,3.2,2.1,6.6,2.2,10.1c0.1,1.9,1.4,3.5,3.3,3.8l7.4,1.3l-1.1,6l-7.4-1.3c-1.9-0.3-3.7,0.7-4.4,2.4
		c-1.3,3.2-3.2,6.1-5.6,8.7c-1.3,1.4-1.4,3.5-0.4,5l4.3,6.2l-5,3.5l-4.3-6.2c-1.1-1.5-3.1-2.1-4.8-1.4c-3.2,1.3-6.6,2.1-10.1,2.2
		c-1.9,0.1-3.5,1.4-3.8,3.3l-1.3,7.4l-6-1.1l1.3-7.4c0.3-1.9-0.7-3.7-2.4-4.4c-3.2-1.3-6.1-3.2-8.7-5.6c-1.4-1.3-3.5-1.4-5-0.4
		l-6.2,4.3l-3.5-5l6.2-4.3c1.5-1.1,2.1-3.1,1.4-4.8c-1.3-3.2-2.1-6.6-2.2-10.1c-0.1-1.9-1.4-3.5-3.3-3.8l-7.4-1.3l1.1-6l7.4,1.3
		C736.8,248.3,738.6,247.3,739.3,245.5z"/>
	<path class="st33" d="M319.9,399.5h197.6c9.6,0,17.5-7.8,17.5-17.5V262.3c0-9.6-7.8-17.5-17.5-17.5H319.9
		c-9.6,0-17.5,7.8-17.5,17.5V382C302.4,391.6,310.3,399.5,319.9,399.5z M311.6,262.3c0-4.6,3.7-8.3,8.3-8.3h197.6
		c4.6,0,8.3,3.7,8.3,8.3V382c0,4.6-3.7,8.3-8.3,8.3H319.9c-4.6,0-8.3-3.7-8.3-8.3V262.3z"/>
	<path class="st33" d="M324.8,383.8h187.9c3.3,0,6-2.7,6-6V266.5c0-3.3-2.7-6-6-6H324.8c-3.3,0-6,2.7-6,6v111.3
		C318.7,381.1,321.4,383.8,324.8,383.8z M327.9,269.6h181.6v105H327.9V269.6z"/>
	<path class="st33" d="M882.5,399.5h197.6c9.6,0,17.5-7.8,17.5-17.5V262.3c0-9.6-7.8-17.5-17.5-17.5H882.5
		c-9.6,0-17.5,7.8-17.5,17.5V382C865,391.6,872.8,399.5,882.5,399.5z M874.2,262.3c0-4.6,3.7-8.3,8.3-8.3h197.6
		c4.6,0,8.3,3.7,8.3,8.3V382c0,4.6-3.7,8.3-8.3,8.3H882.5c-4.6,0-8.3-3.7-8.3-8.3L874.2,262.3L874.2,262.3z"/>
	<path class="st33" d="M887.3,383.8h187.9c3.3,0,6-2.7,6-6V266.5c0-3.3-2.7-6-6-6H887.3c-3.3,0-6,2.7-6,6v111.3
		C881.3,381.1,884,383.8,887.3,383.8z M890.5,269.6h181.6v105H890.5V269.6z"/>
	<path class="st33" d="M625.9,151c3.7,0,3.7-5.7,0-5.7C622.2,145.3,622.2,151,625.9,151z"/>
	<path class="st33" d="M720.9,190.6c3.7,0,3.7-5.7,0-5.7C717.2,184.9,717.2,190.6,720.9,190.6z"/>
	<path class="st33" d="M582,247.5c8.3-1.2,16.2-3.6,23.8-7.2c0.5,1,1,2,1.5,3l-9.6,9.6c-0.9,0.9-1.3,2-1.3,3.2s0.5,2.4,1.3,3.2
		l14.9,14.9c1.8,1.8,4.7,1.8,6.5,0l9.6-9.6c3.4,1.9,7.1,3.4,10.8,4.5v13.6c0,2.5,2.1,4.6,4.6,4.6h21c2.5,0,4.6-2.1,4.6-4.6v-13.6
		c1.2-0.3,2.3-0.7,3.5-1.2c0.8,1.9,1.6,3.9,2.3,5.8c0.6,1.4,1.9,2.4,3.5,2c1.4-0.4,2.6-2.1,2-3.5c-0.9-2.2-1.7-4.3-2.6-6.5
		c0.7-0.4,1.4-0.7,2.1-1.1l9.6,9.6c1.8,1.8,4.7,1.8,6.5,0l14.9-14.9c0.9-0.9,1.3-2,1.3-3.2s-0.5-2.4-1.3-3.2l-9.6-9.6
		c1.9-3.4,3.4-7.1,4.5-10.8h13.6c2.5,0,4.6-2.1,4.6-4.6v-21c0-2.5-2.1-4.6-4.6-4.6h-13.6c-0.2-0.8-0.5-1.6-0.8-2.4
		c0.6-0.3,1.2-0.7,1.7-1.2c2.2-1.7,4.4-3.5,6.6-5.2c1.2-1,1-3,0-4.1c-1.2-1.2-2.8-1-4.1,0c-1.3,1.1-2.7,2.1-4,3.2
		c-0.7,0.6-1.5,1.4-2.4,1.9c-0.5-1-1-2.1-1.6-3.1l9.6-9.6c0.9-0.9,1.3-2,1.3-3.2s-0.5-2.4-1.3-3.2l-14.9-14.9
		c-1.8-1.8-4.7-1.8-6.5,0l-9.6,9.6c-3.4-1.9-7.1-3.4-10.8-4.5v-13.6c0-2.5-2.1-4.6-4.6-4.6h-21c-2.5,0-4.6,2.1-4.6,4.6v13.6
		c-0.7,0.2-1.4,0.5-2.2,0.7c-1.5-3.3-3-6.6-4.5-9.8c-1.5-3.3-6.5-0.4-4.9,2.9c1.4,3,2.8,6,4.2,9.1c-1.1,0.5-2.3,1.1-3.4,1.7
		l-9.6-9.6c-1.8-1.8-4.7-1.8-6.5,0l-14.9,14.9c-1.8,1.8-1.8,4.7,0,6.5l9.6,9.6c-1.9,3.4-3.4,7.1-4.5,10.8h-13.6
		c-2.5,0-4.6,2.1-4.6,4.6v21c0,2.5,2.1,4.6,4.6,4.6h13.6c0.3,0.9,0.5,1.7,0.8,2.6c-7.4,3.5-15.1,5.8-23.2,6.9
		C576.8,242.5,578.4,248,582,247.5z M593.8,223.4v-11.8h12.6c2.2,0,4-1.5,4.5-3.6c1.1-5.2,3.2-10.1,6.1-14.6
		c1.2-1.8,0.9-4.2-0.6-5.7l-8.9-8.9l8.4-8.4l8.9,8.9c1.5,1.5,3.9,1.8,5.7,0.6c4.5-2.9,9.4-4.9,14.6-6.1c2.1-0.5,3.6-2.3,3.6-4.5
		v-12.6h11.8v12.6c0,2.2,1.5,4,3.6,4.5c5.2,1.1,10.1,3.2,14.6,6.1c1.8,1.2,4.2,0.9,5.7-0.6l8.9-8.9l8.4,8.4l-8.9,8.9
		c-1.5,1.5-1.8,3.9-0.6,5.7c2.9,4.5,4.9,9.4,6.1,14.6c0.5,2.1,2.3,3.6,4.5,3.6h12.6v11.8h-12.6c-2.2,0-4,1.5-4.5,3.6
		c-1.1,5.2-3.2,10.1-6.1,14.6c-1.2,1.8-0.9,4.2,0.6,5.7l8.9,8.9l-8.4,8.4l-8.9-8.9c-1.5-1.5-3.9-1.8-5.7-0.6
		c-4.5,2.9-9.4,4.9-14.6,6.1c-2.1,0.5-3.6,2.3-3.6,4.5v12.6h-11.8v-12.6c0-2.2-1.5-4-3.6-4.5c-5.2-1.1-10.1-3.2-14.6-6.1
		c-1.8-1.2-4.2-0.9-5.7,0.6l-8.9,8.9l-8.4-8.4l8.9-8.9c1.5-1.5,1.8-3.9,0.6-5.7c-2.9-4.5-4.9-9.4-6.1-14.6c-0.5-2.1-2.3-3.6-4.5-3.6
		L593.8,223.4L593.8,223.4z"/>
	<path class="st33" d="M571.3,247.6c3.7,0,3.7-5.7,0-5.7C567.6,241.9,567.6,247.6,571.3,247.6z"/>
	<path class="st33" d="M685.1,287.4c3.7,0,3.7-5.7,0-5.7C681.4,281.6,681.4,287.4,685.1,287.4z"/>
	<path class="st33" d="M716.2,264.3c-3.7,0-3.7,5.7,0,5.7C719.9,270,719.9,264.3,716.2,264.3z"/>
	<path class="st33" d="M799.1,202.4c3.7,0,3.7-5.7,0-5.7C795.4,196.7,795.4,202.4,799.1,202.4z"/>
	<path class="st33" d="M821.3,293.7c3.7,0,3.7-5.7,0-5.7C817.6,287.9,817.6,293.7,821.3,293.7z"/>
</g>
</svg>
