<?xml version="1.0" encoding="utf-8"?>
<!-- Generator: Adobe Illustrator 22.0.1, SVG Export Plug-In . SVG Version: 6.00 Build 0)  -->
<svg version="1.1" id="Layer_1" xmlns="http://www.w3.org/2000/svg" xmlns:xlink="http://www.w3.org/1999/xlink" x="0px" y="0px"
	 viewBox="0 0 501 444" style="enable-background:new 0 0 501 444;" xml:space="preserve">
<style type="text/css">
	.st0{fill:#9DAAD3;}
	.st1{fill:#17181C;}
	.st2{fill:#E69376;}
	.st3{fill:#0B152A;}
	.st4{fill:#F6A382;}
	.st5{fill:#151F34;}
	.st6{fill:#00B8C4;}
	.st7{fill:#3B2314;}
	.st8{fill:#F79F7D;}
	.st9{fill:#E0856E;}
	.st10{fill:#E98A6F;}
	.st11{fill:#FFFFFF;}
	.st12{fill:#3EC0C5;}
	.st13{enable-background:new    ;}
	.st14{fill:#2A407C;}
	.st15{clip-path:url(#SVGID_1_);enable-background:new    ;}
	.st16{fill:#3B4775;}
	.st17{clip-path:url(#SVGID_2_);fill:#2A407C;}
	.st18{fill:#6174B7;}
	.st19{fill:#355194;}
	.st20{fill:#4F1531;}
	.st21{fill:#00468A;}
	.st22{fill:#0058A8;}
	.st23{fill:#340E07;}
	.st24{fill:#F3B68E;}
	.st25{fill:#F7B68D;}
	.st26{fill:#DC9D7E;}
	.st27{fill:#E6E7E8;}
	.st28{fill:#215BA6;}
	.st29{fill:#1E2732;}
	.st30{fill:#6651A1;}
	.st31{fill:#3C2551;}
	.st32{fill:#492E5C;}
	.st33{fill:#0061A2;}
	.st34{fill:#276FB7;}
	.st35{opacity:0.3;fill:#EDBA46;}
	.st36{opacity:0.5;fill:#FFFFFF;}
	.st37{fill:none;stroke:#80BAE5;stroke-width:2.1336;stroke-miterlimit:10;}
	.st38{fill:none;stroke:#80BAE5;stroke-width:7.305;stroke-linecap:round;stroke-linejoin:round;stroke-miterlimit:10;}
	.st39{fill:#053B6B;}
	.st40{fill:#007FA2;}
	.st41{fill:#030308;}
	.st42{fill:#30528A;}
	.st43{fill:#FFD37C;}
	.st44{fill:#3F1900;}
</style>
<g>
	<g>
		<g>
			<path class="st0" d="M93.1,378.3c0,13.3,24.2,24,54,24c29.8,0,54-10.8,54-24c0-13.3-24.2-24-54-24
				C117.2,354.2,93.1,365,93.1,378.3z"/>
			<g>
				<g>
					<g>
						<path class="st1" d="M128.9,372.9c-3.8,3.8-10.1,5.9-10.1,5.9c-5.3,1.3-8.4-2.2-8.4-2.2c-1.1-1.6,0.2-2.5,0.2-2.5
							c11.2-8.5,14.5-10.9,14.5-10.9h10.3c0.5,4.1,0.2,5.8,0.2,5.8c-0.9,1.2-2.8,2.9-5.6,3.4c-0.2,0-0.6-0.3-0.8-0.2L128.9,372.9z"
							/>
					</g>
					<path d="M110.5,374.2c0,0.2,0.1,0.5,0.2,0.7c0.9,1.9,3.3,2.6,5.2,2.6c2.3,0,4.4-1.2,6.4-2.2c1.9-1,3.6-2.2,5.3-3.6
						c1.2-1,2.6-1.4,4-2c1.5-0.7,2.7-1.7,4-2.7c0,1.1-0.1,2-0.1,2c-0.9,1.2-2.8,2.9-5.6,3.4c-0.2,0-0.6-0.3-0.8-0.2l-0.3,0.7
						c-3.8,3.8-10.1,5.9-10.1,5.9c-5.3,1.3-8.4-2.2-8.4-2.2C109.3,375.2,110.3,374.3,110.5,374.2z"/>
				</g>
				<g>
					<path class="st2" d="M136.5,280c-11.4,12.6-15.9-0.7-15.9-0.7l-1.4-77.5c-0.1,1.2-0.5-7.8,13.9-5.9c14.4,1.9,18,7.5,18,7.5
						S143.1,257,136.5,280"/>
					<path class="st2" d="M120.5,278.3c0,0,5.8,81.6,6.3,84.4c0,0,7,1.6,7.1-0.1c0.1-3.9,8.1-51.6,8.2-57.8
						c0.3-15.5-3.7-18.5-7.7-29C134.3,275.9,120.5,265.7,120.5,278.3z"/>
				</g>
				<g>
					<g>
						<path class="st3" d="M139.2,280.5c6.6-23,11.9-77,11.9-77s-3.6-5.6-18-7.5c-14.4-1.9-14,7-13.9,5.9c0,0-2.7,38.3,1.3,76.5
							C120.5,278.3,130.3,286.1,139.2,280.5z"/>
						<path class="st3" d="M136.5,280c-11.4,12.6-15.9-0.7-15.9-0.7"/>
						<path class="st3" d="M122.8,362.5c-1.7-2.4-2.3-84.2-2.3-84.2c0-12.6,15.5-6.8,15.5-6.8c4,10.5,6.3,17.8,6.1,33.4
							c-0.1,6.1-4.2,54.9-4.3,58.8C137.8,363.6,127.6,369.3,122.8,362.5z"/>
					</g>
				</g>
				<path class="st3" d="M150.5,185.6c0,0,7.7,12.5,0,26.4c-7.7,14-31.3,8.9-31.3-9.2C119.1,185,135.3,178.1,150.5,185.6z"/>
				<path class="st4" d="M161.7,160.3c2,7.2,10.4,34.9,10.4,34.9c-30.1,36-52.7,4.5-53,1.2c-0.4-3.9,4-18.9,4.8-35.1
					C123.9,161.3,132.2,148.6,161.7,160.3z"/>
				<path class="st3" d="M119.3,205.4c-1.4-9.7,1.5-19.5,3.1-29.3h44.1c2.8,9.4,5.7,19,5.7,19s1.9,22.2-17,24.9
					C155.2,220,122.3,225.7,119.3,205.4z"/>
				<g>
					<path class="st4" d="M169.4,281.7c-9.4,14.2-15.9,1.6-15.9,1.6l-15.3-75.5c0,1.2,0.5-9.8,15-10c14.5-0.2,18.9,4.8,18.9,4.8
						S172.6,257.9,169.4,281.7"/>
					<path class="st4" d="M153.3,282.4c0,0,15.1,86,16,88.7c0,0,7.2,0.5,7-1.1c-0.5-3.9,0.8-58.1,0-64.2c-2-15.4-4.2-18.1-9.7-27.8
						C166.7,278,151.4,269.9,153.3,282.4z"/>
				</g>
				<g>
					<path class="st1" d="M168.7,369.4l-4.3,13c0,0,0.9,11.6,10.2,4.4l2.8-2.7c1.4-1.2,1-2.9,1-2.9l-0.8-5l-1-6.9
						C176.6,369.4,170.7,365.4,168.7,369.4z"/>
					<path d="M174.6,385.2l2.8-2.7c0.6-0.5,0.8-1,1-1.5l0,0.3c0,0,0.4,1.7-1,2.9l-2.8,2.7c-9.3,7.2-10.2-4.4-10.2-4.4l0.2-0.5
						C165.1,384.6,167.2,390.9,174.6,385.2z"/>
				</g>
				<g>
					<g>
						<path class="st5" d="M171.4,282"/>
						<path class="st5" d="M171.4,282c3.1-23.7,0.7-86.8,0.7-86.8s-3.8-5.6-18.3-5.4c-14.5,0.2-17.5,16.8-17.5,15.6
							c0,0,12.2,64.6,17.5,80.2C153.9,285.6,162.9,293.2,171.4,282z"/>
						<path class="st5" d="M165.8,370.3c-0.9-2.8-12.8-88.5-12.8-88.5c-0.1-11.6,15.2-8.8,15.2-8.8c5.5,9.8,6.8,14.3,8.8,29.7
							c0.8,6.1,2.4,62.4,2.9,66.3C179.9,369,173.4,373.5,165.8,370.3z"/>
					</g>
				</g>
				<g>
					<g>
						<path class="st2" d="M112.1,147.8c0,0-18.1,2.4-43.5,8.9c0,0-3.6,2.9-0.5,4.8c3.2,1.9,45.9,1.7,48.8-0.4
							C124.4,155.8,112.1,147.8,112.1,147.8z"/>
						<g>
							<g>
								<path class="st2" d="M57.6,162c6.3,1,7.3,0.5,8.9,0c7.1-2.3,0-7.3-2-8.2c-1.2-0.5-3,1.8-8.3,2.4c0,0-7-0.8-8-1.9
									c0,0-1.4-0.8-2.1,0.1C46.2,154.3,48.1,158.9,57.6,162z"/>
							</g>
							<path class="st2" d="M64.2,153.4c0,0,1.3,3-2.6,2.6l-4.1-2.6c0,0-1.2-0.5-0.9-1.7c0,0,0.4-0.7,1.7-0.1L64.2,153.4z"/>
						</g>
					</g>
					<path class="st2" d="M128.6,105.7c0,0-5.3,37.6-10.5,52.3c0,0-8.6,1.8-11.4-3c0,0,1-32.2,2.1-51.5
						C108.8,103.4,119.4,91.5,128.6,105.7z"/>
					<path class="st2" d="M112.8,111.9c4.4,3.3,10.7,2.5,14-1.8c3.3-4.4,2.5-10.6-1.9-13.9c-4.4-3.3-10.7-2.5-14,1.9
						C107.5,102.3,108.4,108.6,112.8,111.9z"/>
				</g>
				<path class="st6" d="M116,94.1c0,0-9.1,2.1-9.5,12.6l-1.5,37.8c0,0,9,6,20.8,5C125.8,149.4,139.3,99,116,94.1z"/>
				<path class="st7" d="M122.8,61.9c-1.2-1-3.4-4.2-3.3-5.8c0-0.5,0.5-0.9,0.5-1.5c0-0.6-0.3-0.9-0.5-1.4c-0.5-1.1-0.6-1.6-0.6-2.9
					c0-0.9-0.2-2.6,0.4-3.3c0.9-1,2.7-0.2,3.6,0.4c1.9,1.2,3,3,5.1,4.2c1.7,0.9,2.3,2.1,3.2,3.7c1.2,2.1,2.2,5.9-0.4,7.5
					C128.5,64.2,124.8,63.6,122.8,61.9z"/>
				<path class="st4" d="M169.8,288.9"/>
				<path class="st8" d="M146.6,83.7c0,0,1.8-3.4,5.7-9.9c0,0,8.3-8.5,3.7-19.3c0,0-2.6-9-18.3-7.7
					C137.7,46.8,136.2,71.5,146.6,83.7z"/>
				<path class="st4" d="M147.3,69.7c0,0-2.6,24.6,3,26.5L130.2,95c0,0,3.2-7.4-0.5-12.9L147.3,69.7z"/>
				<path class="st9" d="M131.3,90.7c0.3-5.6-0.4-6.8-1.6-8.6l17.6-12.4c0,0-0.9,8-0.6,15.2C141.6,89.7,137.4,90.8,131.3,90.7z"/>
				<path class="st4" d="M116,94.1c-4.5,3.3-5,11.1-3.4,16c1.8,5.6,2.6,12.8,4.4,20.9c2.5,11,4.2,19.5,6.9,30.4
					c2.3,9,38.6,1.8,38.6,1.8l13-44.4c0,0,2.2-11.6-8.3-15.5c0,0-11.1-6-19.2-8.7c-7.2-2.4-9.7-2.7-17.1-2.2
					C131,92.2,121.1,92.6,116,94.1z"/>
				<path class="st8" d="M125.6,85.5l-0.8-2.8c0,0-2.1-10.3-2.1-10.3c-0.3-1.3-0.2-3,0.2-4.3c0.4-1.4,0.6-2.9,0.4-4.4
					c-1.3-7.4,2.8-11.2,2.8-11.2c4.6-6.5,14.7-6,14.7-6c12.5,1.2,12.9,13.4,12.9,13.4c1.6,8.1-5.1,14.5-5.1,14.5
					c-0.5,0.5-0.4,3.2-0.6,3.9c-0.8,3.2-4,5-6.8,6.2c-3.1,1.3-6.8,2.7-10.1,2.9C129.6,87.5,126,87.1,125.6,85.5z"/>
				<path class="st7" d="M143.1,59.9c-3.7-4.6-10.9-0.4-15.6-3.3c-2.2-1.3-2.1-3.7-4.9-3.7c-6,0-5.3-6.5-2-8.4c0.7,0,1.4,0,2,0.1
					c1.7,0.2,2.8,0.9,4.4,0.3c1.8-0.6,3.3-1.8,4.9-2.7c2.1-1.1,4.3-2.5,6.8-2.6c3-0.1,4,2.1,6.2,3.5c1.5,1,3.4,0.9,5,1.5
					c2.5,0.9,4.6,2.4,6.9,3.7c1.6,0.9,3.7,2.2,3.5,4.3c-0.2,2-2.3,2.5-1.6,4.7c1.1,3.8,0.3,7.7-1,11.3c-0.8,2.2-1.7,4.4-2.9,6.4
					c-1.3,2-3,3.8-4.8,5.3c-0.6,0.5-2.6,2-3.4,3.2c-0.1-5,0.9-4.6-0.4-7c-0.5-1,0.1-1.8,0.4-2.7c0.4-0.9,1.2-1.7,1.1-2.8
					c-0.6,0.2-1.3,0.3-1.6,0c-0.6-0.5-0.1-2.2-0.2-2.9c-0.4-2.3-0.7-4.8-1.8-6.8C143.8,60.8,143.5,60.4,143.1,59.9z"/>
				<g>
					<g>
						<g>
							<g>
								<g>
									<g>
										<path class="st8" d="M146.4,76.6c0.4,0.4,1,0.7,1.7,0.8c2,0.2,3.9-1.4,4.2-3.7c0.3-2.2-1-4.2-3-4.4
											c-0.9-0.1-1.9,0.2-2.6,0.8c-1.1,0.9-1.3,2.7-1.3,4C145.5,75.1,145.8,76,146.4,76.6z"/>
									</g>
								</g>
							</g>
						</g>
					</g>
					<g>
						<g>
							<path class="st10" d="M148.3,71.3c0.3-1.2,2.5,0.3,2.1,0.9c-0.3,0.4-0.7,0.6-1.1,0.8c-0.5,0.3-0.8,0.6-0.9,1.2
								c0,0.1-0.1,0.3,0,0.3c0.3,0.3,1.4-0.8,1.7-1c0.5-0.4,0.7-1.2,0.5-1.9c-0.1-0.7-0.5-1-1.2-1C148.8,70.5,148.3,70.5,148.3,71.3
								C148.2,71.2,148.2,71.3,148.3,71.3L148.3,71.3z"/>
						</g>
						<g>
							<path class="st10" d="M148.9,72.6c-0.2-0.3-0.5-0.1-0.8,0.1c-0.3,0.1-0.4,0.4-0.5,0.6c-0.2,0.6-0.2,1.4,0.1,2
								c0.2,0.5,0.7,0.8,1.2,0.8c0.7,0.1,1-0.5,1.1-1.2c0-0.2,0.1-0.5-0.1-0.7c-0.2-0.1-0.3,0.1-0.4,0.2c-0.2,0.1-0.4,0.2-0.6,0.2
								c-0.4,0-0.8-0.3-1-0.6c0-0.1-0.1-0.1-0.1-0.2c0,0.4,0,0.5,0,0.3c0-0.1,0.1-0.2,0.2-0.3c0.2-0.3,0.5-0.4,0.7-0.7
								C148.8,73.1,149,72.7,148.9,72.6L148.9,72.6z"/>
						</g>
					</g>
				</g>
				<path class="st10" d="M129.1,71.7l3.4,1.3c0,0-4.6,0.3-4.8-1c0,0,0.7-2.6,1.4-5.1C129.2,66.9,128.6,71.5,129.1,71.7z"/>
				<g>
					<path class="st7" d="M135.1,66.9c0,0.7,0.4,1.3,0.9,1.3c0.5,0,0.9-0.6,0.9-1.3c0-0.7-0.4-1.3-0.9-1.3
						C135.5,65.6,135.1,66.1,135.1,66.9z"/>
					<path class="st7" d="M125.3,65.8c0,0.7,0.4,1.3,0.9,1.3c0.5,0,0.9-0.6,0.9-1.3c0-0.7-0.4-1.3-0.9-1.3
						C125.7,64.5,125.3,65.1,125.3,65.8z"/>
					<path class="st7" d="M134.2,64.3c-0.3,0.1-0.4-0.4-0.4-0.4c-0.1-0.4,0-0.8,0-0.8c0.1-0.3,0.4-0.4,0.4-0.4
						c0.8-0.1,2.4,0.1,3.8,0.5c0.7,0.2,2,0.8,2,1.5c0,0.2,0,0.6-0.2,0.6C139.7,65.4,137.2,64.6,134.2,64.3z"/>
					<path class="st7" d="M123,63.2c0.9,0,2.5,0.1,4.4,0.5c0.3,0.1,0.5-0.2,0.5-0.2c0.2-0.4,0.2-0.7,0.2-0.7c0-0.3-0.3-0.5-0.3-0.5
						c-0.8-0.3-1.8-0.5-3.2-0.5c-0.4,0-1.1,0.1-1.6,0.2C122.9,61.9,122.8,62.2,123,63.2z"/>
				</g>
				<g>
					<path class="st11" d="M127.2,75.8c-0.3,0-0.4,0.1-0.3,0.3c0,0,1.2,2.3,3.4,2.6c2.1,0.3,3.9-1.7,3.9-1.7c0.2-0.2,0-0.4-0.3-0.4
						C133.8,76.6,130.2,76.1,127.2,75.8z"/>
				</g>
				<path class="st5" d="M169.1,186.4c0,0,7.7,12.5,0,26.4c-7.7,14-31.3,8.9-31.3-9.2C137.7,185.7,154,178.9,169.1,186.4z"/>
				<path class="st12" d="M131,92.2c0,0-9.8,0.4-15,1.8c-4.5,3.3-5,11.1-3.4,16c1.8,5.6,2.6,12.8,4.4,20.9c2.5,11,2.3,19.5,5,30.5
					c2.3,9,44.8,1,44.8,1l8.7-43.8c0,0,2.2-11.6-8.3-15.5c0,0-10.6-5.8-18.7-8.5c0,0,1.3,8.5-12.7,6.2
					C135.9,100.8,127.4,98.7,131,92.2z"/>
				<path class="st12" d="M166.8,162.3c2,7.2,6.2,30.2,6.2,30.2c-5.5,22.9-56.3,6.4-56.6,3.1c-0.4-3.9,4.1-21.2,4.9-37.3
					C121.3,158.3,137.2,150.7,166.8,162.3z"/>
				<path class="st4" d="M156.9,122c5,5.6,22.7,31.5,27.9,35.6c1.4,1.1,13.3,6.1,13.1-3.1c-14.7-32.6-25.4-47.4-25.4-47.4
					s-11.7-5.3-17.3,4.1C155.2,111.1,153.4,118.1,156.9,122z"/>
				<path class="st4" d="M153.1,113.7c-1.1,6.5,3.3,12.6,9.7,13.7c6.5,1.1,12.6-3.3,13.7-9.7c1.1-6.5-3.3-12.6-9.7-13.7
					C160.3,102.8,154.1,107.2,153.1,113.7z"/>
				<path class="st12" d="M163.4,101.1c0,0,9.9,3.8,14.4,11.2l11.8,18.2c0,0-4.8,13.7-16.8,16.6l-18.8-22.9
					C153.9,124.2,143.3,110.8,163.4,101.1z"/>
			</g>
		</g>
		<g>
			<g>
				<g class="st13">
					<path class="st14" d="M54.6,174c0-0.6,0.1-1.2,0.1-1.8c0-0.1,0-0.2,0-0.3c0,0,0-0.1,0-0.1c0-0.1,0-0.1,0-0.2
						c0-0.5,0.1-1,0.2-1.4c0-0.1,0-0.2,0-0.3c0.1-0.5,0.1-1,0.2-1.6c0-0.1,0-0.2,0.1-0.3c0.1-0.5,0.2-0.9,0.3-1.4c0-0.1,0-0.2,0-0.2
						c0.1-0.5,0.2-1,0.4-1.5c0-0.1,0.1-0.2,0.1-0.4c0.1-0.5,0.3-1,0.4-1.5c3.2-10,9.8-16.5,17.6-18.6l26.5-7.1
						c-7.8,2.1-14.4,8.6-17.6,18.6c-0.2,0.5-0.3,1-0.5,1.5c0,0.1-0.1,0.2-0.1,0.3c-0.1,0.5-0.3,1-0.4,1.5c0,0.1,0,0.1,0,0.2
						c-0.1,0.5-0.2,1-0.3,1.4c0,0.1,0,0.2-0.1,0.3c-0.1,0.5-0.2,1-0.2,1.6c0,0.1,0,0.2,0,0.3c-0.1,0.5-0.1,1-0.2,1.4
						c0,0.1,0,0.2,0,0.2c0,0.1,0,0.3,0,0.4c0,0.6-0.1,1.2-0.1,1.8c0,0.2,0,0.5,0,0.7c0,0.5,0,1.1,0,1.6c0,0.2,0,0.4,0,0.6
						c0,0.4,0,0.8,0,1.2c0,0.2,0,0.5,0,0.7c0,0.5,0.1,1,0.1,1.4c0,0.2,0,0.3,0,0.5c0,0.3,0.1,0.5,0.1,0.8c0,0.4,0.1,0.7,0.1,1.1
						c0,0.2,0.1,0.5,0.1,0.7c0.1,0.4,0.1,0.7,0.2,1.1c0,0.2,0.1,0.4,0.1,0.6c0.1,0.4,0.2,0.8,0.2,1.2c0.1,0.2,0.1,0.5,0.2,0.7
						c0.1,0.4,0.2,0.7,0.3,1.1c0.1,0.2,0.1,0.5,0.2,0.7c0.1,0.3,0.2,0.7,0.3,1c0.1,0.2,0.1,0.5,0.2,0.7c0.1,0.3,0.2,0.7,0.3,1
						c0.1,0.3,0.2,0.5,0.2,0.8c0.1,0.3,0.2,0.6,0.3,0.9c0.1,0.3,0.2,0.5,0.3,0.8c0.1,0.3,0.2,0.6,0.3,0.9c0.1,0.3,0.2,0.5,0.3,0.8
						c0.1,0.3,0.2,0.6,0.4,0.9c0.1,0.3,0.2,0.5,0.3,0.8c0.1,0.3,0.3,0.5,0.4,0.8c0.1,0.3,0.3,0.6,0.4,0.9c0.1,0.3,0.3,0.5,0.4,0.8
						c0.2,0.3,0.3,0.6,0.5,0.9c0.1,0.2,0.3,0.5,0.4,0.7c0.2,0.4,0.5,0.8,0.7,1.1c0.1,0.2,0.2,0.4,0.4,0.6c0.3,0.4,0.6,0.9,0.9,1.3
						c0.1,0.1,0.2,0.2,0.2,0.4c0.1,0.1,0.2,0.2,0.3,0.3c0.2,0.3,0.5,0.7,0.7,1c0.1,0.2,0.2,0.3,0.4,0.5c0.2,0.3,0.4,0.6,0.7,0.8
						c0.1,0.2,0.3,0.3,0.4,0.5c0.2,0.3,0.5,0.5,0.7,0.8c0.1,0.2,0.3,0.3,0.4,0.5c0.2,0.2,0.3,0.3,0.5,0.5c0.3,0.3,0.6,0.6,0.9,0.9
						c0.2,0.2,0.3,0.3,0.5,0.5c0.3,0.3,0.6,0.6,0.9,0.8c0.2,0.2,0.4,0.3,0.5,0.5c0.3,0.3,0.7,0.6,1,0.8c0.2,0.1,0.3,0.3,0.5,0.4
						c0.5,0.4,1,0.8,1.5,1.1c0.4,0.3,0.8,0.5,1.2,0.8c0.1,0.1,0.3,0.2,0.4,0.2c0.3,0.2,0.5,0.3,0.8,0.5c0.2,0.1,0.3,0.2,0.5,0.2
						c0.3,0.1,0.5,0.3,0.8,0.4c0.2,0.1,0.3,0.2,0.5,0.2c0.2,0.1,0.5,0.2,0.7,0.3c0.2,0.1,0.4,0.2,0.5,0.2c0.2,0.1,0.5,0.2,0.7,0.3
						c0.2,0.1,0.4,0.1,0.5,0.2c0.2,0.1,0.5,0.2,0.7,0.2c0.2,0.1,0.3,0.1,0.5,0.2c0.3,0.1,0.5,0.2,0.8,0.2c0.2,0,0.3,0.1,0.5,0.1
						c0.1,0,0.2,0,0.3,0.1c0.4,0.1,0.9,0.2,1.3,0.3c0.2,0,0.3,0.1,0.5,0.1c0.4,0.1,0.8,0.1,1.1,0.2c0.1,0,0.3,0,0.5,0
						c0.3,0,0.7,0,1,0.1c0.1,0,0.3,0,0.4,0c0.5,0,0.9,0,1.4,0c0.1,0,0.2,0,0.4,0c0.3,0,0.6,0,0.9-0.1c0.2,0,0.3,0,0.5-0.1
						c0.3,0,0.5-0.1,0.8-0.1c0.3,0,0.5-0.1,0.8-0.1c0.1,0,0.3,0,0.4-0.1c0.4-0.1,0.8-0.2,1.2-0.3c-8.8,2.4-17.6,4.7-26.5,7.1
						c-0.4,0.1-0.8,0.2-1.2,0.3c-0.1,0-0.3,0-0.4,0.1c-0.2,0-0.4,0.1-0.7,0.1c0,0-0.1,0-0.1,0c-0.3,0-0.5,0.1-0.8,0.1
						c-0.2,0-0.3,0-0.5,0.1c-0.3,0-0.6,0-1,0.1c-0.1,0-0.2,0-0.3,0l0,0l0,0l0,0c0,0,0,0,0,0c-0.5,0-0.9,0-1.4,0c-0.1,0-0.3,0-0.4,0
						c-0.3,0-0.7,0-1-0.1c-0.1,0-0.1,0-0.2,0c-0.1,0-0.2,0-0.3,0c-0.4,0-0.8-0.1-1.1-0.1c-0.2,0-0.3-0.1-0.5-0.1
						c-0.4-0.1-0.8-0.2-1.3-0.3c-0.1,0-0.2,0-0.2,0c0,0,0,0-0.1,0c-0.1,0-0.3-0.1-0.4-0.1c-0.3-0.1-0.5-0.1-0.8-0.2
						c-0.2-0.1-0.3-0.1-0.5-0.2c-0.3-0.1-0.5-0.2-0.7-0.3c-0.2-0.1-0.4-0.1-0.5-0.2c-0.2-0.1-0.5-0.2-0.7-0.3
						c-0.2-0.1-0.4-0.2-0.5-0.2c-0.1-0.1-0.3-0.1-0.4-0.2c-0.1,0-0.2-0.1-0.3-0.1c-0.2-0.1-0.3-0.1-0.5-0.2
						c-0.3-0.1-0.5-0.3-0.8-0.4c-0.2-0.1-0.3-0.2-0.5-0.2c-0.3-0.2-0.6-0.3-0.8-0.5c-0.1-0.1-0.3-0.1-0.4-0.2
						c-0.4-0.2-0.8-0.5-1.2-0.8c-0.5-0.4-1-0.7-1.5-1.1c-0.2-0.1-0.3-0.3-0.5-0.4c-0.3-0.3-0.7-0.5-1-0.8c-0.2-0.2-0.4-0.3-0.5-0.5
						c-0.3-0.3-0.6-0.5-0.9-0.8c-0.2-0.2-0.4-0.3-0.5-0.5c-0.3-0.3-0.6-0.6-0.9-0.9c-0.1-0.1-0.2-0.2-0.3-0.3
						c-0.1-0.1-0.1-0.1-0.2-0.2c-0.1-0.1-0.3-0.3-0.4-0.5c-0.2-0.3-0.5-0.5-0.7-0.8c-0.1-0.2-0.3-0.3-0.4-0.5
						c-0.2-0.3-0.4-0.6-0.7-0.8c-0.1-0.2-0.2-0.3-0.4-0.5c-0.3-0.3-0.5-0.7-0.8-1c-0.1-0.1-0.1-0.2-0.2-0.3c0,0,0,0-0.1-0.1
						c-0.1-0.1-0.1-0.2-0.2-0.3c-0.3-0.4-0.6-0.8-0.9-1.3c-0.1-0.2-0.3-0.4-0.4-0.6c-0.2-0.4-0.5-0.8-0.7-1.1
						c-0.1-0.1-0.1-0.2-0.2-0.3c-0.1-0.1-0.1-0.3-0.2-0.4c-0.2-0.3-0.3-0.6-0.5-0.9c-0.1-0.3-0.3-0.5-0.4-0.8
						c-0.2-0.3-0.3-0.6-0.4-0.9c-0.1-0.2-0.1-0.3-0.2-0.4c-0.1-0.1-0.1-0.2-0.2-0.4c-0.1-0.3-0.2-0.5-0.4-0.8
						c-0.1-0.3-0.3-0.6-0.4-0.9c-0.1-0.3-0.2-0.5-0.3-0.8c-0.1-0.1-0.1-0.3-0.2-0.4c-0.1-0.1-0.1-0.3-0.2-0.4
						c-0.1-0.3-0.2-0.5-0.3-0.8c-0.1-0.3-0.2-0.6-0.3-0.9c-0.1-0.2-0.2-0.5-0.3-0.7c0-0.1-0.1-0.2-0.1-0.3c-0.1-0.2-0.1-0.4-0.2-0.6
						c-0.1-0.2-0.1-0.5-0.2-0.7c-0.1-0.3-0.2-0.7-0.3-1c-0.1-0.2-0.1-0.5-0.2-0.7c0-0.1,0-0.1-0.1-0.2c-0.1-0.3-0.1-0.6-0.2-0.9
						c-0.1-0.2-0.1-0.5-0.2-0.7c-0.1-0.4-0.2-0.8-0.2-1.2c0-0.2-0.1-0.4-0.1-0.6c0,0,0,0,0-0.1c-0.1-0.3-0.1-0.7-0.2-1
						c0-0.3-0.1-0.5-0.1-0.8c-0.1-0.4-0.1-0.8-0.1-1.1c0-0.2-0.1-0.4-0.1-0.7c0,0,0,0,0-0.1c0-0.2,0-0.3,0-0.5
						c0-0.5-0.1-0.9-0.1-1.4c0-0.2,0-0.5,0-0.7c0-0.4,0-0.8,0-1.2c0-0.1,0-0.1,0-0.2c0-0.1,0-0.3,0-0.4c0-0.6,0-1.1,0-1.7
						C54.6,174.5,54.6,174.3,54.6,174z"/>
					<g class="st13">
						<defs>
							<path id="SVGID_5_" class="st13" d="M100.4,242.2c8.8-2.4,17.7-4.7,26.5-7.1c0.8-0.2,1.5-0.4,2.3-0.7l-26.5,7.1
								C101.9,241.8,101.1,242,100.4,242.2z"/>
						</defs>
						<clipPath id="SVGID_1_">
							<use xlink:href="#SVGID_5_"  style="overflow:visible;"/>
						</clipPath>
						<g class="st15">
							<path class="st16" d="M100.4,242.2l26.5-7.1c0.8-0.2,1.5-0.4,2.3-0.7l-26.5,7.1C101.9,241.8,101.1,242,100.4,242.2"/>
						</g>
					</g>
					<g>
						<path class="st14" d="M87,236.1c8.8-2.4,17.6-4.7,26.5-7.1c-1.8,0.5-3.7,3.6-5.5,6.1l-26.5,7.1
							C83.4,239.7,85.3,236.6,87,236.1z"/>
						<g>
							<defs>
								<path id="SVGID_7_" d="M62.1,130.9c8.8-2.4,17.6-4.7,26.5-7.1c-1.8,0.5-5-1.6-8-3.2l-26.5,7.1
									C57,129.3,60.2,131.4,62.1,130.9z"/>
							</defs>
							<use xlink:href="#SVGID_7_"  style="overflow:visible;fill:#2A407C;"/>
							<clipPath id="SVGID_2_">
								<use xlink:href="#SVGID_7_"  style="overflow:visible;"/>
							</clipPath>
							<path class="st17" d="M62.1,130.9l26.5-7.1c-0.1,0-0.1,0-0.2,0L61.9,131C61.9,131,62,131,62.1,130.9"/>
							<path class="st17" d="M61.9,131l26.5-7.1c-0.1,0-0.2,0-0.3,0L61.6,131C61.7,131,61.8,131,61.9,131"/>
							<path class="st17" d="M61.6,131l26.5-7.1c-0.1,0-0.3,0-0.4,0L61.2,131C61.3,131,61.4,131,61.6,131"/>
							<path class="st17" d="M61.2,131l26.5-7.1c-0.2,0-0.4-0.1-0.6-0.1l-26.5,7.1C60.7,130.9,61,131,61.2,131"/>
							<path class="st17" d="M60.5,130.9l26.5-7.1c-0.6-0.1-1.2-0.4-1.8-0.7l-26.5,7.1C59.4,130.5,60,130.7,60.5,130.9"/>
							<path class="st17" d="M58.7,130.2l26.5-7.1c-1.5-0.7-3.1-1.6-4.6-2.5l-26.5,7.1C55.6,128.6,57.3,129.6,58.7,130.2"/>
						</g>
						<path class="st14" d="M105.7,232.1c0.1-0.1,0.3-0.1,0.4-0.2c8.8-2.4,17.6-4.7,26.5-7.1c-0.1,0-0.3,0.1-0.4,0.2
							c-1.7,1-2.3,5.5-3,9.4l-26.5,7.1C103.4,237.6,104,233.1,105.7,232.1z"/>
						<path class="st14" d="M78.5,125.8c0,0-0.1-0.1-0.1-0.1c-0.1-0.1-0.2-0.1-0.2-0.2c0,0-0.1-0.1-0.2-0.2
							c-0.1-0.1-0.1-0.1-0.2-0.2c0,0,0,0-0.1-0.1c0,0,0-0.1-0.1-0.1c-0.1-0.1-0.3-0.3-0.4-0.4c0,0,0,0-0.1-0.1
							c-0.2-0.2-0.3-0.4-0.5-0.6c0,0-0.1-0.1-0.1-0.1c-0.1-0.2-0.3-0.3-0.4-0.5c0,0-0.1-0.1-0.1-0.1c-0.2-0.2-0.3-0.4-0.5-0.6
							c0,0,0-0.1-0.1-0.1c-0.2-0.2-0.3-0.4-0.5-0.6c0,0,0,0-0.1-0.1c-0.2-0.3-0.4-0.6-0.6-0.9c-0.1-0.1-0.2-0.2-0.3-0.4
							c-0.1-0.1-0.1-0.2-0.2-0.2c-0.2-0.2-0.3-0.4-0.5-0.6l26.5-7.1c0.2,0.2,0.3,0.4,0.5,0.6c0.1,0.1,0.1,0.1,0.2,0.2
							c0.1,0.2,0.2,0.3,0.4,0.5c0.2,0.2,0.4,0.5,0.6,0.7c0,0,0.1,0.1,0.1,0.1c0.1,0.2,0.3,0.4,0.4,0.6c0,0,0.1,0.1,0.1,0.1
							c0.2,0.2,0.3,0.4,0.5,0.6c0,0,0.1,0.1,0.1,0.1c0.1,0.2,0.3,0.3,0.4,0.5c0,0,0.1,0.1,0.1,0.1c0.2,0.2,0.3,0.4,0.5,0.6
							c0,0,0,0,0.1,0.1c0.1,0.2,0.3,0.3,0.4,0.5c0,0,0.1,0.1,0.1,0.1c0.1,0.1,0.2,0.2,0.2,0.2c0,0,0.1,0.1,0.1,0.1
							c0.1,0.1,0.2,0.1,0.2,0.2c0,0,0.1,0.1,0.1,0.1c0.1,0.1,0.2,0.1,0.2,0.2c0,0,0.1,0.1,0.1,0.1c0.1,0.1,0.2,0.2,0.4,0.3
							c0.2,0.1,0.3,0.2,0.5,0.3c0,0,0.1,0,0.1,0c0.1,0.1,0.3,0.1,0.4,0.1c0.1,0,0.2,0,0.3,0c0.1,0,0.2,0,0.3,0c0,0,0.1,0,0.1,0
							c0.1,0,0.2,0,0.3,0c-8.8,2.4-17.6,4.7-26.5,7.1c-0.1,0-0.1,0-0.2,0c0,0,0,0-0.1,0c0,0-0.1,0-0.1,0c0,0,0,0-0.1,0
							c-0.1,0-0.1,0-0.2,0c0,0,0,0,0,0c-0.1,0-0.2,0-0.3,0c0,0,0,0,0,0c-0.1,0-0.3-0.1-0.4-0.1c0,0,0,0,0,0c0,0,0,0-0.1,0
							c-0.2-0.1-0.3-0.2-0.5-0.3c-0.1-0.1-0.2-0.2-0.4-0.3c0,0-0.1-0.1-0.1-0.1C78.7,125.9,78.6,125.8,78.5,125.8z"/>
						<path class="st14" d="M96.4,128.6c-0.1-0.4-0.3-0.8-0.4-1.2c0,0,0-0.1,0-0.1c0-0.1,0-0.1-0.1-0.2c-0.2-0.5-0.3-1.1-0.5-1.6
							c-0.2-0.6-0.4-1.3-0.6-1.9l26.5-7.1c0.2,0.6,0.4,1.2,0.6,1.9c0.2,0.6,0.4,1.1,0.5,1.7c0,0,0,0.1,0,0.1
							c0.1,0.4,0.3,0.8,0.4,1.2c0,0.1,0,0.1,0.1,0.2c0.1,0.4,0.3,0.8,0.4,1.1c0,0.1,0.1,0.2,0.1,0.3c0,0.1,0.1,0.2,0.1,0.3
							c0,0.1,0.1,0.2,0.1,0.3c0,0.1,0.1,0.2,0.1,0.3c0,0.1,0.1,0.2,0.1,0.3c0.1,0.2,0.2,0.4,0.3,0.6c0,0,0,0.1,0.1,0.1
							c0.1,0.2,0.2,0.4,0.4,0.6c0.1,0.1,0.2,0.2,0.3,0.4c0,0,0,0,0.1,0.1c0.1,0.1,0.2,0.2,0.2,0.3c0,0,0.1,0.1,0.1,0.1
							c0.1,0.1,0.2,0.2,0.3,0.3c0.1,0.1,0.2,0.1,0.3,0.2c0.1,0.1,0.3,0.1,0.4,0.2c0.1,0,0.1,0,0.2,0c0.1,0,0.2,0,0.3,0
							c0.1,0,0.1,0,0.2,0c0.1,0,0.2,0,0.3,0c0.1,0,0.1,0,0.2,0c0.2,0,0.4,0,0.6-0.1c0,0,0.1,0,0.1,0c0.3,0,0.5-0.1,0.8-0.2
							c-8.8,2.4-17.7,4.7-26.5,7.1c-0.3,0.1-0.5,0.1-0.8,0.2c0,0,0,0-0.1,0c0,0,0,0,0,0c-0.2,0-0.4,0.1-0.6,0.1c0,0,0,0-0.1,0
							c0,0-0.1,0-0.1,0c-0.1,0-0.2,0-0.3,0c0,0-0.1,0-0.1,0c0,0-0.1,0-0.1,0c-0.1,0-0.2,0-0.3,0c0,0-0.1,0-0.1,0c0,0,0,0,0,0
							c-0.3-0.1-0.5-0.2-0.8-0.3c-0.1-0.1-0.2-0.2-0.3-0.3c0,0-0.1-0.1-0.1-0.1c0,0-0.1-0.1-0.1-0.1c0,0-0.1-0.1-0.1-0.1
							c0,0,0,0-0.1-0.1c-0.1-0.1-0.2-0.2-0.3-0.3c0,0,0,0,0,0c-0.1-0.2-0.2-0.4-0.3-0.6c0,0,0,0,0,0c0,0,0-0.1-0.1-0.1
							c-0.1-0.2-0.2-0.4-0.3-0.6c0,0,0-0.1-0.1-0.1c0,0,0-0.1-0.1-0.2c0-0.1-0.1-0.2-0.1-0.3c-0.1-0.1-0.1-0.2-0.1-0.3
							c0-0.1-0.1-0.2-0.1-0.3c0-0.1-0.1-0.1-0.1-0.2c0,0,0-0.1,0-0.1c-0.1-0.4-0.3-0.7-0.4-1.1C96.5,128.8,96.5,128.7,96.4,128.6z"
							/>
						<path class="st14" d="M114.1,144.1c0-1,0.1-2.1,0.1-3.2c0-0.5,0-1,0.1-1.5l26.5-7.1c0,0.5,0,1-0.1,1.6c0,1.1-0.1,2.2-0.1,3.2
							c0,0,0,0,0,0.1c0,0.5,0,1,0,1.4c0,0.1,0,0.1,0,0.2c0,0.2,0,0.4,0,0.6c0,0.1,0,0.2,0,0.3c0,0.2,0,0.3,0,0.5c0,0.1,0,0.2,0,0.3
							c0,0.2,0.1,0.4,0.1,0.6c0,0,0,0.1,0,0.2c0,0.1,0,0.2,0.1,0.2c0,0.1,0,0.2,0.1,0.3c0,0,0,0.1,0,0.1c0,0.1,0.1,0.3,0.1,0.4
							c0,0,0,0.1,0,0.1c0.1,0.1,0.1,0.3,0.2,0.4c0,0,0,0,0,0c0.1,0.1,0.1,0.3,0.2,0.4c0,0.1,0.1,0.1,0.1,0.2
							c0.1,0.1,0.1,0.2,0.2,0.2c0,0,0.1,0.1,0.1,0.1c0.1,0.1,0.1,0.1,0.2,0.2c0,0,0.1,0.1,0.1,0.1c0.1,0.1,0.2,0.2,0.4,0.3
							c0.2,0.1,0.4,0.3,0.6,0.4c0,0,0.1,0,0.1,0.1c0.2,0.1,0.5,0.2,0.7,0.3c0,0,0.1,0,0.1,0c0.2,0.1,0.4,0.2,0.7,0.2
							c0.1,0,0.1,0,0.1,0c0.3,0.1,0.5,0.1,0.8,0.2c0.2,0,0.4,0.1,0.6,0.1c0.1,0,0.3,0.1,0.4,0.1c0.2,0,0.4,0.1,0.6,0.1
							c0.1,0,0.3,0.1,0.4,0.1c0.1,0,0.2,0,0.4,0.1c0.5,0.1,1.1,0.2,1.6,0.3l-26.5,7.1c-0.8-0.2-1.6-0.3-2.4-0.5
							c-0.2,0-0.4-0.1-0.6-0.1c-0.1,0-0.3-0.1-0.4-0.1c-0.2,0-0.4-0.1-0.6-0.1c0,0-0.1,0-0.1,0c-0.2-0.1-0.5-0.1-0.7-0.2
							c0,0-0.1,0-0.2,0c-0.2-0.1-0.5-0.1-0.7-0.2c0,0-0.1,0-0.1,0c-0.2-0.1-0.4-0.2-0.6-0.2c0,0-0.1,0-0.1-0.1c0,0-0.1,0-0.1-0.1
							c-0.2-0.1-0.4-0.2-0.6-0.4c-0.1-0.1-0.2-0.2-0.4-0.3c0,0-0.1-0.1-0.1-0.1c-0.1-0.1-0.2-0.1-0.2-0.2c0,0,0,0-0.1,0
							c0,0,0,0-0.1-0.1c-0.1-0.1-0.1-0.2-0.2-0.2c0,0,0,0-0.1-0.1c0,0,0-0.1-0.1-0.1c0-0.1-0.1-0.1-0.1-0.2c0-0.1-0.1-0.2-0.1-0.2
							c0,0,0,0,0,0c0,0,0,0,0,0c0-0.1-0.1-0.2-0.1-0.3c0,0,0-0.1,0-0.1c0,0,0-0.1,0-0.1c0,0,0-0.1,0-0.1c0-0.1-0.1-0.2-0.1-0.3
							c0,0,0-0.1,0-0.1c0,0,0,0,0,0c0-0.1,0-0.2-0.1-0.3c0-0.1,0-0.2-0.1-0.2c0,0,0,0,0,0c0,0,0-0.1,0-0.1c0-0.2-0.1-0.4-0.1-0.6
							c0,0,0-0.1,0-0.1c0,0,0-0.1,0-0.2c0-0.2,0-0.3,0-0.5c0-0.1,0-0.2,0-0.3c0-0.2,0-0.4,0-0.6c0-0.1,0-0.1,0-0.2c0,0,0,0,0,0
							C114.1,145.1,114.1,144.6,114.1,144.1C114.1,144.1,114.1,144.1,114.1,144.1z"/>
						<path class="st14" d="M119.1,219.2c0-0.1,0-0.1,0-0.2c0-0.1,0.1-0.2,0.1-0.3c0-0.1,0-0.1,0.1-0.2c0.1-0.1,0.1-0.3,0.2-0.4
							c0.4-0.7,1.1-1,2-1.3c8.8-2.4,17.7-4.7,26.5-7.1c-0.9,0.2-1.6,0.6-2,1.3c-0.1,0.1-0.1,0.2-0.2,0.4c0,0,0,0.1,0,0.2
							c0,0.1-0.1,0.2-0.1,0.3c0,0.1,0,0.1,0,0.2c0,0.1,0,0.2-0.1,0.3c0,0.1,0,0.2,0,0.2c0,0.1,0,0.2,0,0.3c0,0.1,0,0.2,0,0.2
							c0,0.1,0,0.2,0,0.3c0,0.1,0,0.2,0,0.3c0,0.1,0,0.2,0,0.3c0,0.1,0,0.3,0,0.4c0,0.1,0,0.2,0,0.3c0,0.1,0,0.3,0,0.5
							c0,0.1,0,0.2,0,0.3c0,0.3,0.1,0.6,0.1,0.9c0,0,0,0,0,0c0,0.3,0.1,0.6,0.1,0.9c0,0.1,0,0.2,0,0.3c0,0.3,0.1,0.5,0.1,0.8
							c0,0.1,0,0.1,0,0.2c0.1,0.3,0.1,0.7,0.2,1c0.1,0.3,0.1,0.6,0.2,0.9c0,0,0,0.1,0,0.1c0.1,0.4,0.1,0.8,0.2,1.2l-26.5,7.1
							c-0.1-0.4-0.1-0.8-0.2-1.2c-0.1-0.7-0.2-1.4-0.4-2.1c0-0.1,0-0.1,0-0.2c0-0.3-0.1-0.5-0.1-0.8c0-0.1,0-0.2,0-0.3
							c0-0.3-0.1-0.6-0.1-0.9c0,0,0,0,0,0c0-0.3-0.1-0.6-0.1-0.9c0,0,0-0.1,0-0.1c0-0.1,0-0.1,0-0.2c0-0.2,0-0.3,0-0.5
							c0-0.1,0-0.2,0-0.3c0-0.1,0-0.3,0-0.4c0-0.1,0-0.1,0-0.2c0,0,0-0.1,0-0.1c0-0.1,0-0.2,0-0.2c0-0.1,0-0.2,0-0.3
							c0-0.1,0-0.2,0-0.2c0,0,0-0.1,0-0.1c0-0.1,0-0.1,0-0.2c0-0.1,0-0.2,0-0.2C119.1,219.4,119.1,219.3,119.1,219.2z"/>
						<path class="st14" d="M158.8,183.6c-2.6,1.9-5.8,3.8-6.1,6.3c0,0.1,0,0.3,0,0.5c0,0,0,0,0,0c0,0.1,0,0.3,0,0.4
							c0,0.1,0,0.1,0,0.2c0,0.1,0,0.2,0.1,0.3c0,0.1,0,0.1,0,0.2c0,0.1,0,0.2,0.1,0.3c0,0.1,0.1,0.2,0.1,0.3c0,0.1,0,0.1,0.1,0.2
							c0.1,0.2,0.1,0.3,0.2,0.5c0,0.1,0.1,0.2,0.1,0.2c0,0.1,0.1,0.2,0.1,0.3c0,0.1,0.1,0.2,0.1,0.3c0.1,0.1,0.1,0.2,0.2,0.4
							c0,0.1,0.1,0.2,0.1,0.3c0.1,0.1,0.1,0.3,0.2,0.4c0,0.1,0.1,0.2,0.1,0.3c0.1,0.1,0.1,0.3,0.2,0.4c0,0.1,0.1,0.2,0.1,0.3
							c0.1,0.1,0.2,0.3,0.2,0.4c0,0.1,0.1,0.2,0.1,0.3c0.1,0.2,0.2,0.3,0.3,0.5c0,0.1,0.1,0.1,0.1,0.2c0.1,0.2,0.2,0.4,0.3,0.6
							c0,0,0,0.1,0.1,0.1c0.1,0.2,0.3,0.5,0.4,0.7c0,0.1,0.1,0.2,0.1,0.2c0.1,0.2,0.2,0.3,0.3,0.5c0.1,0.2,0.3,0.5,0.4,0.7
							l-26.5,7.1c-0.5-0.9-1-1.7-1.4-2.6c0-0.1-0.1-0.1-0.1-0.2c-0.1-0.1-0.1-0.3-0.2-0.4c-0.1-0.1-0.1-0.2-0.2-0.3
							c-0.1-0.1-0.1-0.2-0.2-0.3c-0.1-0.1-0.1-0.2-0.2-0.4c-0.1-0.1-0.1-0.2-0.2-0.3c-0.1-0.1-0.1-0.2-0.2-0.4
							c-0.1-0.1-0.1-0.2-0.2-0.3c-0.1-0.1-0.1-0.2-0.2-0.4c0-0.1-0.1-0.1-0.1-0.2c0-0.1-0.1-0.1-0.1-0.2c0-0.1-0.1-0.2-0.1-0.3
							c0-0.1-0.1-0.2-0.1-0.3c0-0.1-0.1-0.2-0.1-0.3c0-0.1,0-0.1-0.1-0.2c0,0,0-0.1,0-0.1c-0.1-0.2-0.1-0.3-0.2-0.5
							c0-0.1,0-0.1-0.1-0.2c0,0,0,0,0-0.1c0-0.1-0.1-0.2-0.1-0.3c0-0.1,0-0.1-0.1-0.2c0,0,0,0,0-0.1c0-0.1,0-0.1,0-0.2
							c0-0.1,0-0.1,0-0.2c0,0,0-0.1,0-0.1c0,0,0-0.1,0-0.1c0,0,0-0.1,0-0.1c0-0.1,0-0.2,0-0.3c0,0,0,0,0,0c0,0,0,0,0,0
							c0-0.1,0-0.3,0-0.4c0,0,0-0.1,0-0.1c0.3-2.5,3.5-4.3,6.1-6.3L158.8,183.6z"/>
						<path class="st14" d="M124.7,170.2c0.1-0.3,0.1-0.5,0.2-0.8c0,0,0-0.1,0-0.1c0.1-0.3,0.2-0.5,0.3-0.8c0,0,0-0.1,0-0.1
							c0.1-0.3,0.2-0.6,0.4-0.9c0-0.1,0.1-0.1,0.1-0.2c0.1-0.3,0.3-0.6,0.4-0.9c0,0,0-0.1,0-0.1c0.1-0.3,0.3-0.6,0.4-0.9
							c0-0.1,0.1-0.1,0.1-0.2c0.1-0.2,0.1-0.3,0.2-0.5c0-0.1,0.1-0.2,0.1-0.3c0-0.1,0.1-0.2,0.1-0.3c0.2-0.3,0.3-0.6,0.5-1l26.5-7.1
							c-0.1,0.3-0.3,0.6-0.5,1c0,0.1-0.1,0.2-0.1,0.3c0,0.1-0.1,0.2-0.1,0.3c-0.1,0.2-0.1,0.3-0.2,0.5c0,0.1-0.1,0.1-0.1,0.2
							c-0.1,0.3-0.3,0.6-0.4,0.9c0,0,0,0.1,0,0.1c-0.1,0.3-0.3,0.6-0.4,0.9c0,0.1-0.1,0.1-0.1,0.2c-0.1,0.3-0.2,0.6-0.4,0.9
							c0,0,0,0.1,0,0.1c-0.1,0.3-0.2,0.5-0.3,0.8c0,0,0,0.1,0,0.1c-0.1,0.3-0.2,0.5-0.2,0.8c0,0.1,0,0.1,0,0.2
							c-0.1,0.3-0.1,0.5-0.1,0.8c0,0.1,0,0.1,0,0.2c0,0.1,0,0.3,0,0.4c0,0.2,0,0.3,0,0.5c0,0,0,0,0,0.1c0,0.2,0,0.3,0.1,0.5
							c0,0.1,0.1,0.3,0.1,0.4c0,0,0,0,0,0c0.1,0.1,0.1,0.3,0.2,0.4c0,0,0,0.1,0.1,0.1c0,0.1,0.1,0.2,0.1,0.3
							c0.1,0.1,0.1,0.2,0.2,0.3c0,0.1,0.1,0.1,0.1,0.2c0.1,0.1,0.2,0.3,0.3,0.4c0,0,0.1,0.1,0.1,0.1c0.1,0.2,0.3,0.3,0.5,0.5
							c0,0,0.1,0.1,0.1,0.1c0.1,0.1,0.3,0.3,0.4,0.4c0.1,0.1,0.1,0.1,0.2,0.2c0.1,0.1,0.2,0.2,0.4,0.3c0.1,0.1,0.1,0.1,0.2,0.2
							c0.1,0.1,0.3,0.3,0.4,0.4c0.1,0,0.1,0.1,0.2,0.1c0.2,0.2,0.4,0.3,0.6,0.5c0,0,0.1,0.1,0.1,0.1c0.2,0.1,0.4,0.3,0.5,0.4
							c0.1,0.1,0.2,0.1,0.2,0.2c0.2,0.1,0.4,0.3,0.5,0.4c0.1,0.1,0.3,0.2,0.4,0.3c0.1,0.1,0.2,0.1,0.3,0.2c0.2,0.2,0.4,0.3,0.6,0.5
							l-26.5,7.1c-0.2-0.2-0.4-0.4-0.7-0.5c-0.1-0.1-0.1-0.1-0.2-0.2c-0.2-0.1-0.4-0.3-0.5-0.4c-0.1-0.1-0.3-0.2-0.4-0.3
							c-0.1-0.1-0.2-0.2-0.3-0.2c-0.2-0.1-0.3-0.3-0.5-0.4c-0.1,0-0.1-0.1-0.2-0.1c-0.2-0.2-0.4-0.3-0.6-0.5
							c-0.1-0.1-0.1-0.1-0.2-0.2c-0.1-0.1-0.3-0.2-0.4-0.4c-0.1-0.1-0.1-0.1-0.2-0.2c-0.1-0.1-0.2-0.2-0.4-0.3
							c-0.1-0.1-0.1-0.1-0.2-0.2c-0.1-0.1-0.2-0.2-0.4-0.4c0,0-0.1-0.1-0.1-0.1c0,0,0,0,0,0c-0.2-0.2-0.3-0.3-0.4-0.5
							c0,0-0.1-0.1-0.1-0.1c-0.1-0.1-0.2-0.3-0.3-0.4c0,0,0,0,0-0.1c0,0-0.1-0.1-0.1-0.1c-0.1-0.1-0.1-0.2-0.2-0.3
							c0,0,0-0.1-0.1-0.1c0-0.1-0.1-0.1-0.1-0.2c0,0,0-0.1-0.1-0.1c0,0,0,0,0-0.1c0-0.1-0.1-0.2-0.1-0.3c0,0,0,0,0,0c0,0,0,0,0,0
							c0-0.1,0-0.1-0.1-0.2c0-0.1,0-0.2-0.1-0.2c0,0,0,0,0,0c0-0.1,0-0.2-0.1-0.2c0-0.1,0-0.1,0-0.2c0,0,0,0,0-0.1c0,0,0,0,0,0
							c0-0.1,0-0.2,0-0.4c0,0,0,0,0,0c0-0.1,0-0.3,0-0.4c0-0.1,0-0.1,0-0.1c0,0,0,0,0,0c0-0.3,0.1-0.5,0.1-0.8
							C124.7,170.3,124.7,170.2,124.7,170.2z"/>
					</g>
					<path class="st18" d="M41.9,166c-0.3,2.5-3.5,4.3-6.1,6.3c0,3.6,0.2,7.1,0.7,10.7c2.9,2.4,6.4,4.8,7,7.3c0.6,2.5-1.4,6.1-3,9.5
						c1.2,3.4,2.6,6.7,4.2,9.9c2.6,0.5,5.5,0.9,7.2,2c0.4,0.3,0.8,0.7,1.1,1.1c1.4,2.1,0.9,6.7,0.7,10.8c2.1,2.6,4.5,5,6.9,7.2
						c3-1.2,6.2-3,8.1-1.7c1.9,1.3,3.1,6,4.4,10.1c2.7,1.3,5.5,2.3,8.3,3c2.1-2.8,4.2-6.3,6.1-6.2c0.4,0,0.8,0.2,1.3,0.5
						c1.8,1.2,3.8,4.2,5.8,6.7c2.7-0.3,5.4-0.9,8-1.7c0.8-3.9,1.3-8.5,3-9.4c1.7-1,5.2,1.3,8.3,3c2.2-1.8,4.2-3.8,6.1-6.1
						c-0.7-4.2-1.8-8.9-0.7-10.8c1.1-1.9,4.8-1.6,8-1.7c0.6-1.5,1.2-3,1.7-4.6c0.5-1.6,1-3.2,1.3-4.9c-2-3.7-4.5-7.6-4.3-10
						c0.3-2.5,3.5-4.3,6.1-6.3c0-3.6-0.2-7.1-0.7-10.7c-2.9-2.4-6.4-4.8-7-7.3c-0.6-2.5,1.4-6.1,3-9.5c-1.2-3.4-2.6-6.7-4.2-9.9
						c-2.6-0.5-5.5-0.9-7.2-2c-0.4-0.3-0.8-0.7-1.1-1.1c-1.4-2.1-0.9-6.7-0.7-10.8c-2.1-2.6-4.5-5-6.9-7.2c-3,1.2-6.2,2.9-8.1,1.7
						c-1.9-1.3-3.1-6-4.4-10.1c-2.8-1.3-5.5-2.3-8.3-3c-2.1,2.8-4.2,6.3-6.1,6.2c-0.4,0-0.8-0.2-1.3-0.5c-1.8-1.2-3.8-4.2-5.8-6.7
						c-2.7,0.3-5.4,0.9-8,1.7c-0.8,3.9-1.3,8.5-3,9.4c-1.7,1-5.2-1.3-8.3-3c-2.2,1.8-4.2,3.8-6.1,6.1c0.7,4.2,1.8,8.9,0.7,10.8
						c-1.1,1.9-4.8,1.6-8,1.7c-0.6,1.5-1.2,3-1.7,4.6c-0.5,1.6-1,3.2-1.3,4.9C39.7,159.6,42.2,163.5,41.9,166z M56.5,162.9
						c5.8-18.3,22.9-24.8,38.1-14.5c15.2,10.3,22.9,33.4,17.1,51.7c-5.8,18.3-22.9,24.8-38.1,14.5C58.3,204.3,50.7,181.1,56.5,162.9
						z"/>
					<g>
						<path class="st19" d="M146.6,221.9c-1.9,2.3-3.9,4.4-6.1,6.1l-26.5,7.1c2.2-1.8,4.2-3.8,6.1-6.1L146.6,221.9z"/>
						<path class="st19" d="M129.2,211.8c0.5-1.6,1-3.2,1.3-4.9l26.5-7.1c-0.4,1.6-0.8,3.3-1.3,4.9c-0.5,1.6-1.1,3.1-1.7,4.6
							l-26.5,7.1C128.1,215,128.6,213.4,129.2,211.8z"/>
						<path class="st19" d="M111.2,135.9c-0.4-0.4-0.8-0.9-1.3-1.3c-0.2-0.2-0.4-0.4-0.6-0.6c-0.6-0.6-1.3-1.2-2-1.8l26.5-7.1
							c0.7,0.6,1.3,1.2,2,1.8c0.2,0.2,0.4,0.4,0.6,0.6c0.4,0.4,0.9,0.9,1.3,1.3c0.1,0.1,0.2,0.2,0.3,0.3c0.3,0.3,0.5,0.6,0.8,0.8
							c0.2,0.2,0.3,0.4,0.5,0.6c0.5,0.6,1,1.2,1.5,1.8l-26.5,7.1c-0.5-0.6-1-1.2-1.5-1.8c-0.2-0.2-0.3-0.4-0.5-0.5
							C111.9,136.6,111.6,136.3,111.2,135.9z"/>
						<path class="st19" d="M158.4,175.4C158.4,175.4,158.4,175.4,158.4,175.4c0.1,1.1,0.2,2.1,0.2,3.1c0,0.3,0,0.6,0,0.9
							c0,0.7,0.1,1.4,0.1,2.1c0,0.1,0,0.3,0,0.4c0,0.6,0,1.1,0,1.7l-26.5,7.1c0-0.7,0-1.4,0-2.1c0-0.7,0-1.4-0.1-2.2
							c0-0.3,0-0.6,0-0.9c-0.1-1-0.1-2-0.2-3c-0.1-0.9-0.2-1.7-0.3-2.6l26.5-7.1C158.2,173.7,158.3,174.5,158.4,175.4z"/>
						<path class="st19" d="M125.6,158c-0.1-0.3-0.3-0.7-0.5-1c-0.2-0.5-0.5-1-0.7-1.5c-0.3-0.7-0.7-1.5-1.1-2.2l26.5-7.1
							c0.3,0.6,0.6,1.3,0.9,1.9c0,0.1,0.1,0.2,0.1,0.2c0.2,0.5,0.5,1,0.7,1.5c0.2,0.3,0.3,0.7,0.4,1c0.3,0.6,0.5,1.2,0.7,1.8
							c0.1,0.3,0.2,0.5,0.3,0.8c0,0,0,0.1,0,0.1c0.3,0.9,0.7,1.7,1,2.6l-26.5,7.1c-0.3-0.9-0.6-1.8-1-2.6c-0.1-0.3-0.2-0.6-0.3-0.8
							C126.1,159.1,125.8,158.5,125.6,158z"/>
						<path class="st19" d="M92.5,122.7c-0.4-0.2-0.8-0.3-1.2-0.5c-0.3-0.1-0.5-0.2-0.8-0.3c-0.4-0.2-0.9-0.3-1.3-0.5
							c-0.2-0.1-0.4-0.1-0.6-0.2c-0.7-0.2-1.3-0.4-2-0.6l26.5-7.1c0.7,0.2,1.3,0.4,2,0.6c0.2,0.1,0.4,0.1,0.7,0.2
							c0.4,0.1,0.9,0.3,1.3,0.4c0.3,0.1,0.5,0.2,0.8,0.3c0.4,0.2,0.8,0.3,1.2,0.5c0.3,0.1,0.6,0.2,0.8,0.4c0.2,0.1,0.5,0.2,0.7,0.3
							c0.3,0.1,0.5,0.3,0.8,0.4l-26.5,7.1c-0.5-0.2-1-0.5-1.5-0.7C93.1,122.9,92.8,122.8,92.5,122.7z"/>
					</g>
				</g>
			</g>
			<g>
				<path class="st0" d="M11.2,396.4c0,12.7,23.1,23,51.7,23c28.5,0,51.7-10.3,51.7-23c0-12.7-23.1-23-51.7-23
					C34.3,373.4,11.2,383.7,11.2,396.4z"/>
				<g>
					<g>
						<g>
							<path class="st2" d="M89.1,395.7c0,0,5.5-1,3.9,3.5c0,0-12.8,5.5-21.7,4.3c0,0-6.3-0.2-5.3-7l-0.1-5.5l8.4,1.6l-0.5,5.3
								L89.1,395.7z"/>
						</g>
						<path class="st20" d="M66,396.4c0,0.9,0.3,1.7,0.8,2.4c2.2,2.5,6.5,2.6,9.6,2.4c4.8-0.3,9.9-1,14.6-2c1-0.2,1.3-0.6,1.3-0.9
							c-0.5-1.2-1.5-2.3-3.3-2.6l4.7-0.6c4.3-0.2,6.3,0.8,7.3,1.5c1.2,3.4-4.6,5.7-4.6,5.7s-6.2,2.3-13.6,3.8c0,0-16.4,3.9-18.4-1.2
							L66,396.4z"/>
					</g>
					<g>
						<g>
							<path class="st2" d="M56.5,388.1c0,0,5.5-1,3.9,3.5c0,0-12.8,5.5-21.7,4.3c0,0-6.3-0.2-5.3-7l-0.1-5.5l8.4,1.6l-0.5,5.3
								L56.5,388.1z"/>
						</g>
						<path class="st20" d="M33.4,388.8c0,0.9,0.3,1.7,0.8,2.4c2.2,2.5,6.5,2.6,9.6,2.4c4.8-0.3,9.9-1,14.6-2c1-0.2,1.3-0.6,1.3-0.9
							c-0.5-1.2-1.5-2.3-3.3-2.6l4.7-0.6c4.3-0.2,6.3,0.8,7.3,1.5c1.2,3.4-4.6,5.7-4.6,5.7s-6.2,2.3-13.6,3.8c0,0-16.4,3.9-18.4-1.2
							L33.4,388.8z"/>
					</g>
					<g>
						<g>
							<path class="st21" d="M58,240.1c0,8.6-7,15.6-15.6,15.6c-8.6,0-15.6-7-15.6-15.6c0-8.6,7-15.6,15.6-15.6
								C51,224.5,58,231.5,58,240.1z"/>
							<path class="st21" d="M32.6,315.4c0,0,0.2,3.9,7.3,4c0,0,6.7,2.3,9.6-6.4c11.4-34.3,8.4-70.1,8.4-70.1s-16.1-8.9-31-2.8
								C26.8,240.1,29.2,285.2,32.6,315.4z"/>
						</g>
						<path class="st21" d="M49.4,313c0,0-5.5,74.1-6,76.8c-5.4,3.4-10.1-0.1-10.1-0.1c0-3.6-3.9-33.9-4.3-39.6
							c-0.7-9.8-1.9-22.1,4.3-36.2L49.4,313z"/>
						<g>
							<path class="st22" d="M77.9,317.7c0,0,1.5,3.6,8.2,1.4c0,0,7.1-0.1,6.9-9.2c-0.6-36.1-16.5-73.6-16.5-73.6s-17.8-1.7-29.9,9
								C46.6,245.3,64.7,290.2,77.9,317.7z"/>
							<path class="st22" d="M76.2,235c2.9,8.2-1.4,17.1-9.6,19.9c-8.2,2.9-17.1-1.4-19.9-9.6c-2.9-8.2,1.4-17.1,9.6-19.9
								C64.4,222.5,73.3,226.8,76.2,235z"/>
						</g>
						<path class="st22" d="M26.8,237.9c1.9-17.4,10.6-25.5,10.6-25.5l30.2-3.8c0,0,8.3,14.5,9.2,29.3c-3.6,9.9-16.5,12.7-16.5,12.7
							l-9.8,2.9C50.5,253.5,28.4,250.1,26.8,237.9z"/>
						<g>
							<path class="st22" d="M91.6,317.1c0,0-15,77.9-15.9,80.4c0.4-0.2-7.1,3.4-10.4-1.2c0.6-3.6,0.9-43.1,1.3-48.8
								c0.8-9.8,0.6-18.9,8.8-31.9C75.5,315.5,95.9,300.8,91.6,317.1z"/>
						</g>
					</g>
					<path class="st23" d="M65.1,372.6"/>
					<g>
						<g>
							<path class="st2" d="M24.5,180.7c0,0,5.5,6.5,16.5,22.1l-1.9,3.2c0,0-18.8-9.5-24.8-20.1L24.5,180.7z"/>
						</g>
						<g>
							<path class="st2" d="M40,157.5c0,0-14.1,30.8-22.6,29.7c0,0-2.9,0.2-3.5-2c0,0-6-5.3,18.9-43.6c0,0,2.4-3.3,7.4-2.4
								C40.3,139.1,47.8,144.1,40,157.5z"/>
						</g>
					</g>
					<g>
						<rect x="47.6" y="133.4" class="st24" width="15.3" height="16.2"/>
					</g>
					<g>
						<path class="st4" d="M72.3,133.8l0.6-2.6c0,0,1.1-9.5,1.1-9.5c0.1-1.2-0.1-2.7-0.6-3.9c-0.5-1.2-0.9-2.5-0.8-3.9
							c0.6-6.8-3.8-9.9-3.8-9.9c-5.2-5.5-15.3-4.2-15.3-4.2c-5.2,1-9.6,3.2-12,7.6c-2.1,4-3.1,8.9-1.4,13.2c1.8,4.7,5,8.3,9.2,11.5
							c2.7,2.1,5.2,2.2,8.6,3.1c2.3,0.6,6.8,0.9,9.2,0.7C68.5,135.9,72,135.3,72.3,133.8z"/>
					</g>
					<g>
						<path class="st23" d="M65.4,125"/>
					</g>
					<g>
						<path class="st23" d="M65.4,125c-0.8-1.1-3.5-1.7-3.5-1.7c-3.3,0-2.9,4.4-3.2,6.3c-0.1,0.6-0.2,1.3-0.4,1.9
							c-1.6,5.6-6.3,5.6-10.3,6.3c-0.2-0.1-0.3-0.2-0.5-0.3c-0.7-2.5-3.1-5.1-3.1-5.1c-6.1-5.2-8-14.7-5.7-22.1
							c0.7-2.2,2.2-4.6,3.8-6.3c3.4-3.6,7.8-5.6,12.5-6.5c4.7-0.9,21.5,1.4,16.9,11.6C71.9,109.1,65,117.1,65.4,125"/>
					</g>
					<g>
						<g>
							<g>
								<path class="st25" d="M65.4,125c-0.6-1.5-2.1-2.7-3.7-2.2c-1.2,0.4-1.9,1.4-1.8,2.7c0,0.3,0.1,0.5,0.1,0.8
									c0.5,2.9,3.6,4,3.6,4"/>
							</g>
							<g>
								<path class="st26" d="M61.9,124.2c0.2-0.1,0.5-0.2,0.7-0.2c1.1-0.1,2,1.6,0.9,2c-0.4,0.4,0,0.9,0,0.9c0.4,0.4,0.9,1,0.8,1.6
									c-0.1,0.3-0.5,0.5-0.8,0.6c-0.3,0.1-0.3-0.2-0.1-0.3c0.2-0.1,0.3-0.2,0.4-0.3c0,0,0,0,0-0.1c0,0,0,0,0,0c0-0.1,0-0.2,0-0.3
									c-0.3,0.2-0.7,0.2-0.9,0c-0.2-0.3,0-0.7-0.1-0.9c-0.1-0.2-0.1-0.4-0.3-0.6c-0.5-0.8,0.4-1,0.4-1c0.1,0,0.2,0,0.3,0
									c0.5-0.2-0.1-0.9-0.3-1.1c-0.3-0.1-0.7-0.1-1,0.2c-0.2,0.3-0.3,0.7-0.3,1c0,0.4,0.1,0.8,0.3,1.2c0.1,0.2,0.2,0.5,0.3,0.7
									c0.1,0.2-0.2,0.3-0.3,0.1c-0.2-0.5-0.7-1.2-0.8-1.9C61.3,125.1,61.4,124.5,61.9,124.2z"/>
							</g>
							<g>
								<path class="st26" d="M65.4,125c0,0-0.1-0.2-0.3-0.5c-0.1-0.2-0.3-0.3-0.5-0.5c-0.2-0.2-0.5-0.4-0.7-0.5
									c-0.3-0.1-0.6-0.3-1-0.3c-0.3,0-0.7,0-1.1,0.1c-0.1,0-0.4,0.1-0.6,0.2c-0.1,0.1-0.3,0.2-0.4,0.3c-0.3,0.3-0.5,0.6-0.6,1
									c-0.1,0.4-0.1,0.8,0,1.2l0,0.3l0,0v0c0,0,0,0,0,0l0,0l0,0l0,0.1l0,0.2c0,0.2,0.1,0.4,0.2,0.6c0.1,0.4,0.3,0.7,0.5,1
									c0.2,0.3,0.4,0.6,0.7,0.8c0.5,0.5,0.9,0.8,1.3,1c0.3,0.2,0.5,0.3,0.5,0.3s-0.2,0-0.6-0.2c-0.4-0.2-0.9-0.4-1.5-0.8
									c-0.3-0.2-0.6-0.5-0.8-0.8c-0.3-0.3-0.5-0.7-0.7-1.1c-0.1-0.2-0.2-0.5-0.2-0.7l0-0.2l0-0.1l0,0l0-0.1l0,0l0-0.3
									c-0.1-0.4-0.1-1,0-1.5c0.1-0.5,0.4-1,0.8-1.3c0.1-0.1,0.2-0.2,0.3-0.2l0.4-0.2c0.2-0.1,0.4-0.2,0.7-0.2c0.5-0.1,1-0.1,1.4,0
									c0.4,0.1,0.8,0.3,1.1,0.5c0.3,0.3,0.5,0.5,0.7,0.7c0.1,0.3,0.3,0.5,0.4,0.6C65.3,124.7,65.4,125,65.4,125z"/>
							</g>
						</g>
						<g>
							<g>
								<path class="st11" d="M63.5,129.6c0,0.5,0.4,0.9,0.9,0.9c0.5,0,0.9-0.4,0.9-0.9c0-0.5-0.4-0.9-0.9-0.9
									C63.9,128.7,63.5,129.1,63.5,129.6z"/>
							</g>
							<g>
								<path class="st27" d="M64.2,130.1c0.4,0,0.7-0.3,0.7-0.7c0-0.3-0.2-0.6-0.5-0.7l0,0c0.5,0,0.9,0.4,0.9,0.9
									c0,0.5-0.4,0.9-0.9,0.9c-0.5,0-0.9-0.4-0.9-0.9c0,0,0,0,0-0.1C63.5,129.9,63.8,130.1,64.2,130.1z"/>
							</g>
						</g>
					</g>
					<g>
						<path class="st20" d="M23.1,219.6c0.1-0.1,16.9-24.2,16.9-24.2c0.8-3.6-1-10.6-1-10.6l-5.4-37.1c0.6-4.2,0.9-9.6,6.7-8.7
							c4.1,0.7,4.9,1.2,7.4,2.1c-0.7,3.4,5.2,5.7,5.2,5.7c8.2,3.5,10.1,1.2,10.1,1.2c2.2,1.2,9.5,4.9,11.4,6.4
							c2,1.6,3.2,4.2,2.6,8.4L71,198l1,8.7L82.8,234c-3.3-1.2-7-1.7-10.5-1.3c-3.3,0.4-6.2,2.4-9.5,2.7c-5,0.6-8.7-1.3-12.5-3.7
							c-4.6-1-9.5-2.6-14.5-5.1c-0.1,0-0.2,0-0.3,0c-3.7,0-8,0-10.8-3C24.1,223.1,22.4,220.7,23.1,219.6z"/>
					</g>
					<g>
						<path class="st4" d="M81.3,210.7L81.2,168c-1-11.7-6.8-13.6-6.8-13.6c-11.7-1.4-9.9,20.4-9.9,20.4l4.9,36.8"/>
					</g>
					<g>
						<path class="st4" d="M118.6,234c-5.4-2.9-5.9-3.8-6.8-5.2c-4.1-5.8,4.2-5.6,6.3-5.2c1.2,0.3,1.3,3.1,5,6.6
							c0,0,5.8,3.4,7.3,3.1c0,0,1.5,0.2,1.5,1.3C131.8,234.7,127.7,237.1,118.6,234z"/>
					</g>
					<g>
						<g>
							<path class="st25" d="M73.6,204.8"/>
						</g>
						<g>
							<path class="st4" d="M80.4,206.2l36.6,20c1.6,4.4-0.5,5-0.5,5l-28.3-8.1c-12.1-3.2-16.9-8.3-16.9-8.3s-5.3-3.7,1.5-9.1
								C72.8,205.6,75.8,203.2,80.4,206.2z"/>
						</g>
					</g>
					<g>
						<path class="st23" d="M68.6,122.4c-0.9,7.1,0.1,16.4-3.4,24.2c-1.6,3.4-3.3,5.2-2.4,9.1c0.8,3.3,2.3,6.4,3.2,9.7
							c1.9,7.5-0.7,14.8-9.4,12.1c-4.2-1.3-4.6-1.3-8.4,0.2c-3.2,1.2-6.2,1.6-9.4,0c-4.9-2.4-3.4-6-6.2-9.7
							c-2.1-2.8-5.1-2.7-6.7-6.4c-1.9-4.5,0.4-6.9,2.7-10.7c2.4-4,2.8-6.6,2-11.4c-0.7-4,0.3-6,1.7-9.7c1.4-3.8,0.8-7.1,1.4-10.9
							c1.3-7.5,5.4-17.7,13.2-19.9c3.9-1.1,8.8-1.9,12.5-0.6c5,1.9,10.7,3.8,10.5,10C69.7,115,69.5,116,68.6,122.4z"/>
					</g>
					<path class="st4" d="M117.1,223.5c0,0-1,3,2.7,2.3l3.7-2.8c0,0,1.1-0.6,0.7-1.7c0,0-0.4-0.6-1.6,0L117.1,223.5z"/>
				</g>
			</g>
		</g>
		<g>
			<path class="st4" d="M183.4,153.7c0,0-9.6,15.5-20.5,39.4c0,0,0,4.6,3.4,3.4c3.5-1.3,30.2-34.6,30.4-38.2
				C197.3,149.2,183.4,153.7,183.4,153.7z"/>
			<g>
				<g>
					<path class="st4" d="M160.1,205c4.7-4.3,5-5.4,5.6-7c2.7-6.9-5.7-4.6-7.7-3.6c-1.1,0.6-0.5,3.5-3.4,7.9c0,0-5,4.9-6.6,5
						c0,0-1.5,0.6-1.2,1.7C146.9,209,151.7,210.5,160.1,205z"/>
				</g>
				<path class="st4" d="M157.5,194.5c0,0,3.2,0.9,0.4,3.7l-4.5,1.5c0,0-1.2,0.6-1.9-0.4c0,0-0.3-0.7,0.9-1.4L157.5,194.5z"/>
			</g>
		</g>
	</g>
	<g>
		<g>
			<g>
				<path class="st28" d="M297.3,33.6c0,0-4.3,11.9,2.3,33.7c0,0,4.1,10.6,18.6,10.9c0,0-6.2-10.8-4.9-43.6
					C313.2,34.7,306.4,28.2,297.3,33.6z"/>
				<ellipse class="st0" cx="280.2" cy="337.7" rx="53.7" ry="23.9"/>
				<g>
					<g>
						<g>
							<path class="st2" d="M337.7,123.5l-11.8-42.7c-4.2-11.4-10.6-11.7-10.6-11.7c-12.1,1.8-4.4,23.1-4.4,23.1l15,35.5"/>
						</g>
						<g>
							<g>
								<path class="st2" d="M381.4,135.1c-6.2-1.3-7-2-8.3-3.1c-5.8-4.6,2.5-6.9,4.7-7c1.3-0.1,2.2,2.7,6.9,5.1
									c0,0,6.8,1.6,8.2,0.9c0,0,1.6-0.2,1.9,0.8C394.7,131.9,391.4,135.5,381.4,135.1z"/>
							</g>
							<g>
								<g>
									<path class="st2" d="M327.9,119.6"/>
								</g>
								<g>
									<path class="st2" d="M335,118.9l42.4,8.9c2.9,3.9,1.1,5.1,1.1,5.1l-30.6,0.4c-13,0.4-19.3-3.2-19.3-3.2s-6.4-2.1-1.3-9.5
										C327.3,120.7,329.6,117.3,335,118.9z"/>
								</g>
							</g>
							<path class="st2" d="M376.8,125.2c0,0-0.1,3.3,3.4,1.4l2.8-3.9c0,0,0.9-0.9,0.2-1.9c0,0-0.6-0.5-1.6,0.5L376.8,125.2z"/>
						</g>
					</g>
					<path class="st6" d="M318.2,69.1c0,0,7.7,5.4,10.2,15c0,0-4.3,14.8-15.6,15C312.8,99.1,301.4,72.9,318.2,69.1z"/>
					<path class="st4" d="M288.8,72h17.5c-0.8-2.5-2.4-9.1,0.1-13.6l-17.6-11.6C288.7,46.8,291.9,66.3,288.8,72z"/>
					<path class="st9" d="M290.8,61c1,2.7,2.7,4,5.5,4.8c3.1,1,6,1.2,8.9,0.7c-0.3-2.7-0.1-5.7,1.2-8.1l-17.6-11.6
						c0,0,1,5.9,1.3,12.2C290.3,59.7,290.5,60.4,290.8,61z"/>
					<path class="st4" d="M309.7,62.5l0.9-2.6l2.3-7.7c0.3-1.2,0.5-2.9,0-4.1c-0.5-1.4-0.9-3.8-0.4-6.4c1.4-7-1.7-10.7-1.7-10.7
						c-4.1-6.5-13.8-6.4-13.8-6.4c-12,0.6-13,12.2-13,12.2c-1.9,7.7,4.2,14.1,4.2,14.1c0.8,0.8,0.9,2.1,1.2,3.1
						c0.4,1.1,1,2.1,1.8,2.9c1.7,1.9,3.9,3.8,6.1,4.9c2.1,1.1,6.3,2.2,9.2,2.2C308,63.9,309.2,64,309.7,62.5z"/>
					<path class="st4" d="M273.3,243.9c-8.9,16.4-10.4,23-12,35.4c-0.9,7.2-0.6,37.7-1.6,42.2c-0.4,1.9,6.8,0.9,6.8,0.9
						c1.3-3.2,22.2-73.2,22.2-73.2s2.3-7.2,0.4-8.5C279.3,234.4,277.2,236.8,273.3,243.9z"/>
					<path class="st29" d="M313.1,125.7c0,0,6.8,28.8,5.9,32c-2.6,9.1-27,21.8-49.3,3.2c0,0,5.1-21.3,15.7-39.3
						C285.3,121.5,289.2,125.5,313.1,125.7z"/>
					<path class="st30" d="M309.6,67.1c0,0,8.9,17.2,12.9,26.7c-1.7,11.1-7.7,27.5-10.1,31c-5.3,7.6-29.5,0.8-29.5,0.8l-7-23.3
						c20.4-7.3,9.6-28.8,9.6-28.8l3.2-2c0,0,3.3,10.6,16.5,10.2c0,0,4.4-2.8,1.2-14.9C306.4,66.8,308.3,66.8,309.6,67.1z"/>
					<path class="st2" d="M287.4,165.4c0,0,2.3,46.5,10.9,71.5c1.3,3.7,16-1.2,16-1.2s7.4-40,7-56.5c-0.3-9.4-3.6-29.5-3.6-29.5
						S290.1,145.9,287.4,165.4z"/>
					<path class="st2" d="M298.8,236.7l15.5-1.1c0,0-9.6,79.3-10.4,82.7c0,0-6.7,2.4-6.5,0.5c0.3-4.6-5.3-40.2-5.4-47.5
						C291.7,259.5,292.1,252.1,298.8,236.7z"/>
					<path class="st31" d="M316.7,221.7c2.1-13.2,4.9-32.4,4.6-42.7c-0.3-9.4-3.6-29.5-3.6-29.5s-27.6-3.6-30.3,15.9
						c0,0,1.8,34.8,7.8,60.3C302.1,226.9,310.6,225.6,316.7,221.7z"/>
					<path class="st4" d="M268.4,169.3c0,0,0.2,46.5,6.3,72.2c0.9,3.8,14.9,2.7,14.9,2.7s9.1-44,10.3-60.5
						c0.7-9.3,2.5-25.7,2.5-25.7S269.7,154.7,268.4,169.3z"/>
					<path class="st4" d="M275.2,79.1c-7.1,5.2-3.5,13.1-3.5,13.1l13.5,32.8c0,0,21.9,7.4,27.2-0.1c2.4-3.5,4.7-12.7,7.6-25.9
						c2-9,2.1-24.7-2.9-29.4c-2.9-2.7-12.4-2.6-12.5-3l-15.3,4.9L275.2,79.1z"/>
					<path class="st4" d="M304.1,122.2c1.3-0.2,8.3,2.5,8.3,2.5s5,21.5,5.3,24.7c0.3,3.3-22.2,20.2-47.3,10.5
						c0,0,12.7-29.9,14.5-36.1C287.1,116.8,304.1,122.2,304.1,122.2z"/>
					<path class="st6" d="M316.3,80.4c0,0,7.4,8.7,8,15.2c0.3,3.6-4.2,9.6-6.5,11.9C316.2,109.1,306.6,86.4,316.3,80.4z"/>
					<path class="st32" d="M276.6,152.9c0,0-8.8,2-8,18.2c0.8,15.8,29.6,19.1,33.3,3.2C305.8,157.1,292.3,147.1,276.6,152.9z"/>
					<path class="st28" d="M289.8,55.3c-0.1-5.5,0.1-5.1,0.1-5.1c0.1-1.6,3.3,1.8,3.2-0.2c-0.3-9.5,3.2-14.1,4.5-14.8
						c3.7-2,7.6-2.6,10.6-2c4.8,0.9,4.6,7.3,4.6,7.3c4.1-23.5-22.1-16-22.1-16c-12.8,3.3-11.4,15.4-11.4,15.4
						C277.7,52.7,290,60.1,290,60.1L289.8,55.3z"/>
					<g>
						<g>
							<g>
								<g>
									<g>
										<g>
											<path class="st8" d="M290.6,53.4c-0.4,0.3-1,0.5-1.7,0.5c-1.9,0-3.4-1.8-3.4-3.9c0-2.1,1.4-3.8,3.3-3.8
												c0.9,0,1.7,0.4,2.3,1c0.9,0.9,0.9,2.7,0.7,3.8C291.6,52.1,291.2,52.9,290.6,53.4z"/>
										</g>
									</g>
								</g>
							</g>
						</g>
						<g>
							<g>
								<path class="st10" d="M289.5,48.2c-0.1-1.1-2.4-0.1-2,0.6c0.2,0.4,0.6,0.6,0.9,0.9c0.4,0.3,0.6,0.7,0.7,1.2
									c0,0.1,0,0.3,0,0.3c-0.3,0.2-1.2-0.9-1.4-1.1c-0.4-0.4-0.5-1.2-0.3-1.8c0.2-0.6,0.6-0.9,1.2-0.8
									C289.1,47.5,289.6,47.5,289.5,48.2C289.6,48.2,289.5,48.3,289.5,48.2L289.5,48.2z"/>
							</g>
							<g>
								<path class="st10" d="M288.8,49.4c0.2-0.2,0.5,0,0.7,0.1c0.2,0.2,0.3,0.4,0.4,0.7c0.1,0.6,0.1,1.3-0.3,1.9
									c-0.3,0.4-0.7,0.7-1.2,0.6c-0.7,0-0.9-0.6-0.9-1.2c0-0.2,0-0.5,0.1-0.6c0.2-0.1,0.3,0.1,0.4,0.3c0.2,0.1,0.4,0.2,0.6,0.2
									c0.4,0,0.8-0.2,1-0.4c0-0.1,0.1-0.1,0.1-0.2c0,0.4,0,0.5-0.1,0.3c0-0.1-0.1-0.2-0.1-0.3c-0.2-0.3-0.4-0.4-0.6-0.7
									C288.9,49.9,288.7,49.5,288.8,49.4L288.8,49.4z"/>
							</g>
						</g>
					</g>
					<g>
						<path class="st7" d="M301.2,45.2c0.1,0.7-0.2,1.2-0.7,1.3c-0.4,0-0.9-0.5-0.9-1.1c-0.1-0.7,0.2-1.2,0.7-1.3
							C300.7,44.1,301.2,44.6,301.2,45.2z"/>
						<path class="st7" d="M310.4,44c0,0.7-0.3,1.2-0.8,1.2c-0.5,0-0.8-0.5-0.9-1.2c0-0.7,0.3-1.2,0.8-1.2
							C310,42.8,310.4,43.3,310.4,44z"/>
						<path class="st28" d="M297.3,44.4c1.7-2.2,6.4-1.8,6.4-1.8s0.3,0,0.2-0.8c0,0,0-0.7-0.6-0.7C303.3,41.1,297.6,40.4,297.3,44.4
							z"/>
						<path class="st28" d="M312.8,40.4c-1.6-0.9-5.2,0.2-5.2,0.2c-0.6,0.1-0.4,0.8-0.4,0.8c0.1,0.8,0.4,0.8,0.4,0.8s2.6-1.1,5-0.8
							C312.7,41.1,312.8,40.7,312.8,40.4z"/>
						<g>
							<path class="st11" d="M309.3,53.7l-6.6,1.2c-0.3,0.1-0.5,0.3-0.3,0.5c0,0,1.9,1.9,4,1.5c2.1-0.4,3.2-2.8,3.2-2.8
								C309.7,53.8,309.6,53.6,309.3,53.7z"/>
						</g>
						<path class="st10" d="M304.6,51.6c3.4-0.2,3.6-1.1,3.6-1.1l-1.8-3.6C306.4,46.8,306.8,50.4,304.6,51.6z"/>
					</g>
					<path class="st32" d="M268.4,169.3c0,0,0.1,32.5,3.7,58.1c6.6,2.6,14.2,5.1,20.3,2.5c2.8-14.3,6.7-35.8,7.5-46.3
						c0.7-9.3,2.5-25.7,2.5-25.7S269.7,154.7,268.4,169.3z"/>
					<path class="st32" d="M313.1,125.7c0,0,6.8,28.8,5.9,32c-2.6,9.1-27,21.8-49.3,3.2c0,0,5.1-21.3,15.7-39.3
						C285.3,121.5,289.2,125.5,313.1,125.7z"/>
					<path class="st6" d="M282.8,125.6c0,0,24.9,7.7,30.2,0.1c2.4-3.5,7.7-20.8,9.4-31.9c-4-9.4-12.9-26.7-12.9-26.7
						c-1.3-0.3-3.2-0.4-3.2-0.4c3.2,12-1.2,14.9-1.2,14.9C292,82,288.7,71.5,288.7,71.5l-3.2,2c0,0,9.9,20.5-9.2,29.9
						C276.3,103.4,280.2,124.2,282.8,125.6z"/>
					<path class="st11" d="M290.7,53.8c0,0.6-0.5,1.1-1.1,1.1c-0.6,0-1.1-0.5-1.1-1.1c0-0.6,0.5-1.1,1.1-1.1
						C290.2,52.7,290.7,53.2,290.7,53.8z"/>
					<g>
						<path class="st4" d="M285.9,82.1c3.9,4.1,3.7,10.6-0.4,14.5c-4.1,3.9-17.1,11.3-17.2,5.6c-0.2-11.1,0.2-17.2,4.3-21
							C276.7,77.2,282,77.9,285.9,82.1z"/>
						<path class="st4" d="M286.3,91.5l-9-5.2l-9,5.6c0,0-5.3,33.5-3.3,41.2c2.1,8.2,5.8,2.2,7.6-0.1
							C272.7,133.1,287.4,98,286.3,91.5z"/>
						<path class="st4" d="M266.4,136.4c0,0,16.1,11.5,30.4,17.7c0,0,4.7-2,2.4-4.2c-4-3.7-21.5-20.5-25.6-24.2
							C266.4,123.4,266.4,136.4,266.4,136.4z"/>
						<g>
							<g>
								<path class="st4" d="M305,160.6c-5.8-2.5-6.4-3.4-7.5-4.8c-4.7-5.7,3.8-6.2,6-5.9c1.3,0.2,1.6,3.1,5.7,6.4
									c0,0,6.3,3,7.8,2.6c0,0,1.6,0.1,1.7,1.2C318.7,160.1,314.6,163,305,160.6z"/>
							</g>
							<path class="st4" d="M303.2,149.9c0,0-2.5,2.1,1.2,3.4l4.7-0.6c0,0,1.3,0.1,1.5-1.1c0,0-0.1-0.8-1.4-0.8L303.2,149.9z"/>
						</g>
					</g>
					<path class="st6" d="M285.5,73.5l-11.9,5.7c0,0-6.9,3.4-7.2,16.4c0,0,8.8,11.1,17.6,8.6l7.9-17.9
						C291.9,86.3,293,79.5,285.5,73.5z"/>
					<path class="st6" d="M308.2,66.8c0,0,6.5,0.3,10,2.3c0,0,5.7,7.1,3.4,22.3C321.6,91.4,307.2,82.8,308.2,66.8z"/>
					<g>
						<path class="st2" d="M304.2,315.2c0,0,0.3,5.8,1.8,7.6c1.4,1.8,5.6,5.3,5.6,5.3l4.6,3.3c0,0,3.2,5.2-5.2,3.4
							c-10.1-2.2-17-11.5-17-11.5l3.6-9.1L304.2,315.2z"/>
						<path class="st31" d="M316.1,331.4l-4.1-2.9c0.2,0.5,0.6,1.1,0.3,1.6c-0.6,1.1-1.9,1.6-3,1.2c-5.9-2.2-10.4-7.4-13.8-12.3
							l-1.7,4.3c0,0,6.9,9.2,17,11.5C319.3,336.6,316.1,331.4,316.1,331.4z"/>
					</g>
					<g>
						<path class="st4" d="M266.6,321.7c0,0,0.3,5.8,1.8,7.6c1.4,1.8,5.6,5.3,5.6,5.3l4.6,3.3c0,0,3.2,5.2-5.2,3.4
							c-10.1-2.2-17-11.5-17-11.5l3.6-9.1L266.6,321.7z"/>
						<path class="st31" d="M278.6,337.9l-4.1-2.9c0.2,0.5,0.6,1.1,0.3,1.6c-0.6,1.1-1.9,1.6-3,1.2c-5.9-2.2-10.4-7.4-13.8-12.3
							l-1.7,4.3c0,0,6.9,9.2,17,11.5C281.7,343.1,278.6,337.9,278.6,337.9z"/>
					</g>
				</g>
				<path class="st28" d="M282.1,29.9c0,0-6.7,10.7-4.7,33.5c0,0,1.8,11.2,16,14.5c0,0,0.4-34.7,9.2-46.3
					C302.5,31.7,292.1,26.6,282.1,29.9z"/>
			</g>
			<g>
				<g>
					<g>
						<path class="st18" d="M328.3,158.5c-3.7,3.7-11.9,1.4-18.4-5c-6.5-6.5-8.7-14.7-5-18.4l10.8-10.8l23.4,23.4L328.3,158.5z"/>
					</g>
					<path class="st33" d="M310,153.5c-2.9-2.9-4.9-6.1-6-9.1l-0.3,0.3c-2.4,2.4-0.9,7.7,3.2,11.9c4.2,4.2,9.5,5.6,11.9,3.2l0.3-0.3
						C316.1,158.4,312.8,156.3,310,153.5z"/>
					<g>
						<path class="st18" d="M324,139.4c-8.7-8.7-11.8-19.9-6.8-24.9c5-5,16.1-1.9,24.9,6.8c8.7,8.7,11.8,19.9,6.8,24.9
							C343.9,151.2,332.8,148.1,324,139.4z"/>
						<path class="st33" d="M324,139.4c-8.4-8.4-11.5-19-7.3-24.3l-5,5c-5,5-1.9,16.1,6.8,24.9c8.7,8.7,19.9,11.8,24.9,6.8l5.6-5.6
							C343.9,151.2,332.8,148.1,324,139.4z"/>
						<path class="st34" d="M327.5,135.9c-5.4-5.4-7.3-12.3-4.2-15.4c3.1-3.1,10-1.2,15.4,4.2c5.4,5.4,7.3,12.3,4.2,15.4
							C339.8,143.2,332.9,141.4,327.5,135.9z"/>
					</g>
				</g>
				<path class="st35" d="M415,119c19.5-19.5,19.5-51,0-70.5c-19.5-19.5-51-19.5-70.5,0c-10.9,10.9-15.7,25.6-14.4,39.8l-0.1-0.1
					c0,0,1.6,13.8-11.5,26.9l0,0c-4.7,4.7-1.8,15.2,6.4,23.4c8.2,8.2,18.7,11.1,23.4,6.4l0,0c13.1-13.1,26.9-11.5,26.9-11.5
					l-0.1-0.1C389.4,134.7,404.1,129.9,415,119z"/>
				<path class="st35" d="M394.1,131.5c-5.1,0-10.2-0.5-15.1-1.8c-4.9-1.3-9.5-3.4-13.4-6.6c-4.2-3.4-7.4-7.8-10.2-12.4
					c-5.4-8.8-9.1-19.2-7.2-29.6c2-10.6,7.4-20.6,15.2-28.1c3.8-3.7,8.1-6.8,12.9-9c4.2-1.9,8.7-2.8,13.2-3.3
					c5.2-0.5,10.4-0.4,15.5,0.4c0.2,0,0.5,0.1,0.7,0.1c-19.2-11.8-44.7-9.4-61.3,7.3c-10.9,10.9-15.7,25.6-14.4,39.8l-0.1-0.1
					c0,0,1.6,13.8-11.5,26.9c-4.7,4.7-1.8,15.2,6.4,23.4c8.2,8.2,18.7,11.1,23.4,6.4l0,0c13.1-13.1,26.9-11.5,26.9-11.5l-0.1-0.1
					C381.5,134,388,133.3,394.1,131.5z"/>
				<path class="st36" d="M421.4,79.1c1,11.5-3.9,21.3-11,21.9c-7,0.6-13.6-8.2-14.6-19.7c-1-11.5,3.9-21.3,11-21.9
					C413.9,58.8,420.4,67.6,421.4,79.1z"/>
				<path class="st37" d="M359.7,115.8"/>
				<path class="st38" d="M339.3,136.6l21-21c1.6-1.5,3,0.1,3,0.1c1.2,1.1,1.5,3.5,1.2,5c-0.7,2.8-3.9,3.1-6.1,2.8
					c-1.3-0.1-2.4-0.6-3.5-1.3c-2.2-1.4-4.2-3.8-5.1-6.3c-1.1-2.8-0.5-6.2,1.8-8.2c2-1.8,4.9-1,4.3,2c-0.3,1.4-2,3.1-3.1,3.7
					c-1.5,0.8-3.2,0.8-4.8,0.5c-3.3-0.8-6.1-3.4-7.5-6.4c-0.8-1.6-1.4-3.7-1.3-5.5c0.1-2.5,1.5-5,3.9-5.8c3.7-1.3,5.8,3.3,4.3,6.3
					l-21,21"/>
			</g>
		</g>
		<g>
			<path class="st8" d="M346.7,201.8c0,0-3.3-2.1-0.1-6.1c8.2-0.5,17.8-4.9,17.8-4.9c12-3.8,28.8-22.3,36.5-30.8
				c8.6-9.5,21.7-1.4,14.7,9.4c-13.1,20.3-47.5,33.6-68.6,32.8"/>
			<path class="st39" d="M436,296.1c-5-23.4-6.5-77.7-6.5-77.7s4-5.3,18.5-6.3c14.5-0.9,13.5,8,13.4,6.8c0,0,0,38.4-6.7,76.2
				C454.7,295.2,444.4,302.3,436,296.1z"/>
			<path class="st40" d="M461.2,221.7c1.4-9.7-1.5-19.5-3.1-29.3h-44.1c-2.8,9.4-5.7,19-5.7,19s-1.9,22.2,17,24.9
				C425.4,236.3,458.2,242,461.2,221.7z"/>
			<path class="st0" d="M487.1,390.8c0,18.7-34,33.8-76,33.8c-42,0-76-15.1-76-33.8c0-18.7,34-33.8,76-33.8
				C453.1,357,487.1,372.1,487.1,390.8z"/>
			<g>
				<path class="st1" d="M366.9,389.6l2.5-0.1c0.9-0.1,0.8,1.2,1,1.3c2.6,1,5,1.8,5.9,1.9c0,0,4.6-0.6,5.1-2l-0.7-8.6
					c-5.2-0.4-10.6-1.4-10.6-1.4l-11.4-1.6c-5.5-0.6-6.5,1.4-6.5,1.4S349,385.3,366.9,389.6z"/>
				<path class="st41" d="M373.8,389.1c-0.8-0.4-2.1-0.8-2.9-1c-5.6-1-11.1-1.5-15.8-5.1c-1.1-0.9-1.9-2-2-3.3
					c-0.5,0.3-0.7,0.6-0.7,0.6s-3.4,5,14.5,9.3l2.5-0.1c0.9-0.1,0.8,1.2,1,1.3c2.6,1,5,1.8,5.9,1.9c0,0,4.6-0.6,5.1-2l-0.2-2.1
					C379.4,389.5,376.2,390.2,373.8,389.1z"/>
			</g>
			<g>
				<path class="st1" d="M442.9,387.4l2.5-0.1c0.9-0.1,0.8,1.2,1,1.3c2.6,1,5,1.8,5.9,1.9c0,0,4.6-0.6,5.1-2l-0.7-8.6
					c-5.2-0.4-10.6-1.4-10.6-1.4l-11.4-1.6c-5.5-0.6-6.5,1.4-6.5,1.4S425,383.2,442.9,387.4z"/>
				<path class="st41" d="M449.8,386.9c-0.8-0.4-2.1-0.8-2.9-1c-5.6-1-11.1-1.5-15.8-5.1c-1.1-0.9-1.9-2-2-3.3
					c-0.5,0.3-0.7,0.6-0.7,0.6s-3.4,5,14.5,9.3l2.5-0.1c0.9-0.1,0.8,1.2,1,1.3c2.6,1,5,1.8,5.9,1.9c0,0,4.6-0.6,5.1-2l-0.2-2.1
					C455.4,387.4,452.2,388,449.8,386.9z"/>
			</g>
			<path class="st39" d="M443.8,380.4c-1.9-2.2-8-83.9-8-83.9c-1-12.6,19.9-7.3,19.9-7.3c3,12.5,2.5,14.9,3.5,30.4
				c0.4,6.1-0.6,56.9-0.4,60.8C458.9,380.4,449.2,386.8,443.8,380.4z"/>
			<path class="st42" d="M427.8,203.7c0,0-12.5,21.4-4.8,35.3c7.7,14,40.2-1.2,38.2-17.4C459,203.9,443,196.3,427.8,203.7z"/>
			<path class="st4" d="M418.8,176.5c-2,7.2-10.4,34.9-10.4,34.9c23,21.7,52.7,4.5,53,1.2c0.4-3.9-4-18.9-4.8-35.1
				C456.6,177.5,448.4,164.9,418.8,176.5z"/>
			<path class="st5" d="M409.1,298.2"/>
			<path class="st42" d="M391.1,292.1c2.4-23.8,19.4-84.6,19.4-84.6s5-4.6,19-1c14.1,3.6,15.6,21.9,15.9,20.8
				c0,0-16.4,38.5-38.1,72.4C407.3,299.6,396.8,305,391.1,292.1z"/>
			<path class="st42" d="M369.9,379.5c0.4-2.9,21.6-88.3,21.6-88.3c5-10.5,19.3,0.6,19.3,0.6c0,7.6-0.3,16.9-5.2,31.6
				c-1.9,5.8-20,58.5-21.2,62.2C384.4,385.7,373.8,389.1,369.9,379.5z"/>
			<g>
				<path class="st2" d="M473.2,121.2c0,0,2.3,38.3,0.8,53.8c0,0,0,7-12.4,10.6c0,0-4.5-42.7-8.2-61.8
					C453.4,123.8,460.8,109.7,473.2,121.2z"/>
				<path class="st2" d="M459.3,131.1c5.1,2.2,11-0.2,13.1-5.2c2.2-5-0.2-10.9-5.3-13c-5.1-2.2-11,0.2-13.1,5.2
					C451.9,123.1,454.3,128.9,459.3,131.1z"/>
			</g>
			<path class="st43" d="M464.5,110.3c0,0,9.1,2.1,9.5,12.6l1.5,37.8c0,0-9,6-20.8,5C454.8,165.7,441.3,115.2,464.5,110.3z"/>
			<path class="st4" d="M410.7,305.1"/>
			<path class="st4" d="M430.3,86.3c0,0-0.1,13.5-1.3,26.9l17.8-3c0,0-2.6-6.1,1.1-11.6L430.3,86.3z"/>
			<path class="st4" d="M464.5,110.3c4.5,3.3,5,11.1,3.4,16c-1.8,5.6-2.6,12.8-4.4,20.9c-2.5,11-4.2,19.4-6.9,30.4
				c-2.3,9-38.6,1.8-38.6,1.8l-13-44.4c0,0-2.2-11.6,8.3-15.5c0,0,11.1-6,19.2-8.7c7.2-2.4,9.7-2.6,17.1-2.2
				C449.5,108.5,459.4,108.9,464.5,110.3z"/>
			<path class="st42" d="M411.4,202.6c0,0-7.7,12.5,0,26.4c7.7,14,31.3,8.9,31.3-9.2C442.8,202,426.6,195.1,411.4,202.6z"/>
			<path class="st43" d="M449.5,108.5c0,0,9.8,0.4,15,1.8c4.7,3.4,4.6,10.1,3.7,15.1c-1.7,9.7-3.5,19.4-4.4,29.2
				c-0.4,4.3-1.5,13.1-1.8,17.5c-0.3,4.2-1.6,6.5-6,8.7c-3.3,1.7-5.7,0.3-9.3,0.4c-9.1,0.2-18-0.7-27-1.9c-0.4,0-14.4,9.4-9.8,2.5
				l-5-47.1c0,0-2.2-11.6,8.3-15.5c0,0,7.4-4.6,15.5-7.4C428.8,112.1,442.9,112.4,449.5,108.5z"/>
			<path class="st8" d="M424.4,101.9l-0.8-2.9c0,0-1.8-10.8-1.8-10.8c-0.2-1.4-0.1-3.1,0.3-4.5c0.4-1.4,0.8-3,0.6-4.6
				c-1-7.7,3.3-11.6,3.3-11.6c5-6.6,15.5-5.7,15.5-5.7c5.4,0.8,10.2,3.1,12.9,8c2.5,4.5,3.8,10,2.3,15c-1.6,5.5-4.7,9.8-8.8,13.7
				c-2.6,2.5-5.3,2.8-8.7,4.1c-2.4,0.9-6.9,1.4-9.5,1.4C428.5,104.1,424.8,103.6,424.4,101.9z"/>
			<path class="st44" d="M426.4,72.1l1.7,6.7c1.9,0.8,2.7,1.6,2.4,4.1l-0.6,5.5l1.5,0.6c-0.1-2.2,3-2.3,3-2.3
				c2.3-0.1,2.6,1.8,2.5,3.6c-0.3,4.8,1.4,12.4,5.4,13.8c1.6,0.5,4.6,1.1,5.1-1.1c0.6-2.6,5.6-7.9,5.6-7.9c6-5.8,7.5-15.7,4.7-23.2
				c-0.9-2.3-2.5-4.7-4.3-6.3c-3.7-3.6-8.4-5.3-13.4-6c0,0-6.8-0.8-10.7,1.9c-2.4,1.7-3.9,3.2-5,4.5C424.4,66,422.9,69.1,426.4,72.1
				z"/>
			<g>
				<g>
					<g>
						<g>
							<g>
								<path class="st8" d="M431.9,93.7c0.4,0.4,1,0.6,1.8,0.7c2,0.1,3.8-1.7,4-3.9c0.2-2.3-1.3-4.2-3.3-4.3c-0.9,0-1.8,0.3-2.5,1
									c-1,0.9-1.2,2.8-1,4.1C430.9,92.2,431.3,93.1,431.9,93.7z"/>
							</g>
						</g>
					</g>
				</g>
			</g>
			<g>
				<g>
					<path class="st10" d="M433.4,88.2c0.2-1.2,2.5,0.1,2.1,0.8c-0.2,0.4-0.7,0.6-1,0.9c-0.5,0.3-0.7,0.7-0.8,1.3c0,0.1,0,0.3,0,0.3
						c0.3,0.2,1.4-0.9,1.6-1.1c0.5-0.5,0.6-1.3,0.4-1.9c-0.2-0.6-0.6-1-1.3-1C434,87.5,433.4,87.5,433.4,88.2
						C433.4,88.2,433.4,88.3,433.4,88.2L433.4,88.2z"/>
				</g>
				<g>
					<path class="st10" d="M434.1,89.5c-0.2-0.3-0.5-0.1-0.8,0.1c-0.2,0.2-0.4,0.4-0.5,0.7c-0.2,0.6-0.1,1.4,0.2,2
						c0.3,0.5,0.7,0.8,1.3,0.8c0.7,0,1-0.6,1-1.2c0-0.2,0.1-0.6-0.1-0.7c-0.2-0.1-0.3,0.1-0.4,0.3c-0.2,0.1-0.4,0.2-0.6,0.2
						c-0.4,0-0.8-0.2-1-0.5c0-0.1-0.1-0.1-0.1-0.2c0,0.4,0,0.5,0,0.3c0-0.1,0.1-0.2,0.2-0.3c0.2-0.3,0.5-0.4,0.7-0.7
						C434,90.1,434.2,89.6,434.1,89.5L434.1,89.5z"/>
				</g>
			</g>
			<g>
				<path class="st4" d="M334.1,197.7c0.9-1.4,0.1-2.1,2-2.1c2.1-0.1,4-1.1,5.5-1.1c2.5,0.1,12,2.3,5.6,7.7
					c-1.5,1.3-5.7,6.9-8.7,5.3c-4.3-2.5-2.9-1.6-5.1-7L334.1,197.7z"/>
			</g>
			<path class="st4" d="M422.7,128c3.3,5.2,1.8,12.1-3.4,15.4c-5.2,3.3-12.1,1.8-15.4-3.4c-3.3-5.2-1.8-12.1,3.4-15.4
				C412.5,121.3,419.4,122.8,422.7,128z"/>
			<path class="st43" d="M408.7,169.3c-1.4,15.2-2.4,52.4-2.4,52.4c5.4,14.4,56.9,2.2,57.2-1c0.4-3.9-0.7-31.6-1.5-47.8
				C462,172.9,438.3,157.7,408.7,169.3z"/>
			<path class="st43" d="M415.7,118.2c-13.6,3.8-15.2,20.2-15.2,20.2l-6.1,26.9c0,0,15.4,12.2,24.8,8.8c0,0,7.6-20.3,10-40.6
				C429.2,133.5,429.1,118.6,415.7,118.2z"/>
			<path class="st44" d="M423.5,71.9c1.5,1.2,3.5,0.4,5.2,0c2.4,2.8-0.5,5.6,3.1,7c1.9,0.7,4.7,0.9,6.9,1.3c1.7,0.3,3.4-0.1,4.6,1.1
				c1.3,1.4,0.1,5.6,1.6,6.5c2.7,1.4,4.8-6,8.3-5.4c2.9,0.5,3.5,5.2,2.4,7.5c0.3-0.3,0.6-0.4,0.8-0.5c1.4-3.7,3.2-3.7,4.7-6.3
				c2.4-4,2-3.1,2.5-6.9c0,0-0.5-1.7-0.5-1.7c-1.1-4.1-3.1-4.8-4-6.6c-1-1.8-2.5-3.1-3.7-4.8c-1.2-1.5-1.7-3.5-3.1-4.9
				c-2-2-5.3-3.1-8.1-3.4c-3-0.4-5.8,1.5-8.8,0.9c-1.2-0.2-2.3-1.3-3.6-1.2c-1.5,0.1-2.5,1.6-3.8,2.1c-2.4,1.1-6.1,0.6-8.2,2.3
				c-2.3,1.9-1.8,4.5-0.4,6.8c0.8,1.3,2.4,2,3.1,3.3C423,69.3,423.5,71.9,423.5,71.9z"/>
		</g>
	</g>
</g>
</svg>
