<?xml version="1.0" encoding="utf-8"?>
<!-- Generator: Adobe Illustrator 22.0.1, SVG Export Plug-In . SVG Version: 6.00 Build 0)  -->
<svg version="1.1" id="OBJECTS" xmlns="http://www.w3.org/2000/svg" xmlns:xlink="http://www.w3.org/1999/xlink" x="0px" y="0px"
	 viewBox="0 0 500 500" style="enable-background:new 0 0 500 500;" xml:space="preserve">
<style type="text/css">
	.st0{opacity:0.28;fill:#210656;}
	.st1{fill:#D0DDFF;}
	.st2{fill:#D8F4FF;}
	.st3{fill:#E6FFFF;}
	.st4{fill:#BEC0E9;}
	.st5{fill:#000039;}
	.st6{fill:#003284;}
	.st7{fill:#93A5C9;}
	.st8{fill:#A3BAD7;}
	.st9{fill:#FFFFFF;}
	.st10{fill:#BBC5E1;}
	.st11{fill:#E1F1FF;}
	.st12{fill:#E5F0FF;}
	.st13{fill:#E0F3FF;}
	.st14{fill:#B6BAD7;}
	.st15{fill:#00A3FF;}
	.st16{fill:#35EFFF;}
	.st17{fill:#00D4FF;}
	.st18{fill:#0075EC;}
	.st19{fill:#FFE200;}
	.st20{fill:#FFFF4E;}
	.st21{fill:#FF2149;}
	.st22{fill:#FF528A;}
	.st23{fill:#0FE490;}
	.st24{fill:#45FFC6;}
	.st25{fill:#1FFFC6;}
	.st26{fill:#0042FF;}
	.st27{fill:#FF3EDD;}
	.st28{fill:#FF497E;}
	.st29{fill:#FFC400;}
	.st30{opacity:0.34;}
	.st31{fill:#FF1754;}
	.st32{fill:#FF3FAA;}
	.st33{fill:#B5112B;}
	.st34{fill:#FF478B;}
	.st35{fill:#DF093C;}
	.st36{fill:#DFE4FF;}
	.st37{fill:#C5C4E0;}
	.st38{fill:#FFD300;}
	.st39{fill:#02FD00;}
	.st40{fill:#D6DEEB;}
	.st41{fill:#BCCACB;}
	.st42{fill:#E9F1EB;}
	.st43{fill:#E6F8FF;}
	.st44{fill:#D1DDED;}
	.st45{fill:#682118;}
	.st46{fill:#9A2F18;}
	.st47{fill:#7F2E18;}
	.st48{fill:#B45A18;}
	.st49{fill:#9B4318;}
	.st50{fill:#C35E18;}
	.st51{fill:#B45018;}
	.st52{fill:#DC6218;}
	.st53{fill:url(#SVGID_1_);}
	.st54{fill:url(#SVGID_2_);}
	.st55{fill:url(#SVGID_3_);}
	.st56{fill:#FF3967;}
	.st57{fill:#D1F0FF;}
	.st58{fill:#BDC6F4;}
	.st59{fill:#9A9CDF;}
	.st60{fill:#FFEEB1;}
	.st61{fill:#FFFF00;}
	.st62{fill:#FFD100;}
	.st63{fill:#FFA600;}
	.st64{fill:#FFDB00;}
	.st65{fill:#FFFF6C;}
	.st66{fill:#FFB800;}
	.st67{opacity:0.2;fill:#FFFFFF;}
	.st68{opacity:0.53;fill:#FFFFFF;}
	.st69{opacity:0.3;fill:#00A3FF;}
	.st70{opacity:0.4;fill:#00E3FF;}
	.st71{opacity:0.81;fill:url(#SVGID_4_);}
	.st72{opacity:0.3;fill:#002AB4;}
	.st73{fill:#FF2232;}
	.st74{fill:#FF787D;}
	.st75{fill:#B51413;}
	.st76{fill:#FFC500;}
	.st77{fill:#FFED00;}
	.st78{fill:#FF9700;}
	.st79{fill:#FFB100;}
	.st80{fill:#3DD376;}
	.st81{fill:#84FA9C;}
	.st82{fill:#1A9F58;}
	.st83{fill:none;stroke:#12D77E;stroke-width:2;stroke-linecap:round;stroke-linejoin:round;stroke-miterlimit:10;}
	.st84{fill:#12D77E;}
	.st85{fill:none;stroke:#12FFFF;stroke-width:2;stroke-linecap:round;stroke-linejoin:round;stroke-miterlimit:10;}
	.st86{fill:none;stroke:#FF3181;stroke-width:2;stroke-linecap:round;stroke-linejoin:round;stroke-miterlimit:10;}
	.st87{fill:none;stroke:#FFD000;stroke-width:2;stroke-linecap:round;stroke-linejoin:round;stroke-miterlimit:10;}
	.st88{opacity:0.28;fill:#FFFFFF;}
	.st89{opacity:0.81;fill:url(#SVGID_5_);}
	.st90{fill:#12FFFF;}
	.st91{fill:#FF3181;}
	.st92{fill:#FFD000;}
	.st93{opacity:0.81;fill:url(#SVGID_6_);}
</style>
<g>
	<g>
		<g>
			<path class="st0" d="M353.7,408.5H150c-7.5,0-13.6-6.1-13.6-13.6V277.4c0-7.5,6.1-13.6,13.6-13.6h203.7c7.5,0,13.6,6.1,13.6,13.6
				v117.5C367.4,402.4,361.3,408.5,353.7,408.5z"/>
			<path class="st1" d="M356.4,404.5H147.3c-7.5,0-13.6-6.1-13.6-13.6V270c0-7.5,6.1-13.6,13.6-13.6h209.1c7.5,0,13.6,6.1,13.6,13.6
				v120.9C370,398.4,363.9,404.5,356.4,404.5z"/>
			<path class="st2" d="M356.4,402.7H147.3c-7.5,0-13.6-6.1-13.6-13.6v1.8c0,7.5,6.1,13.6,13.6,13.6h209.1c7.5,0,13.6-6.1,13.6-13.6
				V389C370,396.6,363.9,402.7,356.4,402.7z"/>
			<g>
				<path class="st3" d="M346.1,359.5H157.6c-2.7,0-4.8-2.2-4.8-4.8v-77.6c0-2.7,2.2-4.8,4.8-4.8h188.5c2.7,0,4.8,2.2,4.8,4.8v77.6
					C351,357.4,348.8,359.5,346.1,359.5z"/>
				<path class="st4" d="M346.1,358.2H157.6c-2.7,0-4.8-2.2-4.8-4.8v-76.3c0-2.7,2.2-4.8,4.8-4.8h188.5c2.7,0,4.8,2.2,4.8,4.8v76.3
					C351,356,348.8,358.2,346.1,358.2z"/>
			</g>
		</g>
		<path class="st5" d="M239.7,339.3h9.6c0.5,0,1-0.5,1-1v-8.8c0-0.5-0.5-1-1-1h-9.6c-0.6,0-1,0.5-1,1v8.8
			C238.7,338.8,239.2,339.3,239.7,339.3z M224,339.3h9.6c0.5,0,1-0.5,1-1v-8.8c0-0.5-0.5-1-1-1H224c-0.6,0-1,0.5-1,1v8.8
			C223,338.8,223.4,339.3,224,339.3z M161.1,297.7h9.6c0.5,0,1-0.5,1-1v-8.8c0-0.5-0.5-1-1-1h-9.6c-0.6,0-1,0.5-1,1v8.8
			C160.1,297.3,160.6,297.7,161.1,297.7z M224,310.8h9.6c0.5,0,1-0.5,1-1V301c0-0.5-0.5-1-1-1H224c-0.6,0-1,0.5-1,1v8.8
			C223,310.3,223.4,310.8,224,310.8z M224,325h9.6c0.5,0,1-0.5,1-1v-8.8c0-0.5-0.5-1-1-1H224c-0.6,0-1,0.5-1,1v8.8
			C223,324.6,223.4,325,224,325z M224,285h9.6c0.5,0,1-0.5,1-1v-4.6c0-0.5-0.5-1-1-1H224c-0.6,0-1,0.5-1,1v4.6
			C223,284.5,223.4,285,224,285z M224,297.7h9.6c0.5,0,1-0.5,1-1v-8.8c0-0.5-0.5-1-1-1H224c-0.6,0-1,0.5-1,1v8.8
			C223,297.3,223.4,297.7,224,297.7z M161.1,285h9.6c0.5,0,1-0.5,1-1v-4.6c0-0.5-0.5-1-1-1h-9.6c-0.6,0-1,0.5-1,1v4.6
			C160.1,284.5,160.6,285,161.1,285z M186.4,300h-25.3c-0.6,0-1,0.5-1,1v8.8c0,0.5,0.4,1,1,1h25.3c0.5,0,1-0.5,1-1V301
			C187.4,300.4,187,300,186.4,300z M186.4,314.2h-9.6c-0.6,0-1,0.5-1,1v8.8c0,0.5,0.4,1,1,1h9.6c0.5,0,1-0.5,1-1v-8.8
			C187.4,314.7,187,314.2,186.4,314.2z M170.7,328.5h-9.6c-0.6,0-1,0.5-1,1v8.8c0,0.5,0.4,1,1,1h9.6c0.5,0,1-0.5,1-1v-8.8
			C171.7,328.9,171.2,328.5,170.7,328.5z M186.4,286.9h-9.6c-0.6,0-1,0.5-1,1v8.8c0,0.5,0.4,1,1,1h9.6c0.5,0,1-0.5,1-1v-8.8
			C187.4,287.3,187,286.9,186.4,286.9z M186.4,328.5h-9.6c-0.6,0-1,0.5-1,1v8.8c0,0.5,0.4,1,1,1h9.6c0.5,0,1-0.5,1-1v-8.8
			C187.4,328.9,187,328.5,186.4,328.5z M170.7,314.2h-9.6c-0.6,0-1,0.5-1,1v8.8c0,0.5,0.4,1,1,1h9.6c0.5,0,1-0.5,1-1v-8.8
			C171.7,314.7,171.2,314.2,170.7,314.2z M186.4,342.7h-9.6c-0.6,0-1,0.5-1,1v8.8c0,0.5,0.4,1,1,1h9.6c0.5,0,1-0.5,1-1v-8.8
			C187.4,343.1,187,342.7,186.4,342.7z M271.2,325h9.6c0.5,0,1-0.5,1-1v-8.8c0-0.5-0.5-1-1-1h-9.6c-0.6,0-1,0.5-1,1v8.8
			C270.2,324.6,270.6,325,271.2,325z M239.7,325h9.6c0.5,0,1-0.5,1-1v-8.8c0-0.5-0.5-1-1-1h-9.6c-0.6,0-1,0.5-1,1v8.8
			C238.7,324.6,239.2,325,239.7,325z M271.2,310.8h9.6c0.5,0,1-0.5,1-1V301c0-0.5-0.5-1-1-1h-9.6c-0.6,0-1,0.5-1,1v8.8
			C270.2,310.3,270.6,310.8,271.2,310.8z M255.4,285h9.6c0.5,0,1-0.5,1-1v-4.6c0-0.5-0.5-1-1-1h-9.6c-0.6,0-1,0.5-1,1v4.6
			C254.4,284.5,254.9,285,255.4,285z M271.2,339.3h9.6c0.5,0,1-0.5,1-1v-8.8c0-0.5-0.5-1-1-1h-9.6c-0.6,0-1,0.5-1,1v8.8
			C270.2,338.8,270.6,339.3,271.2,339.3z M318.3,285h9.6c0.5,0,1-0.5,1-1v-4.6c0-0.5-0.5-1-1-1h-9.6c-0.6,0-1,0.5-1,1v4.6
			C317.3,284.5,317.8,285,318.3,285z M271.2,285h9.6c0.5,0,1-0.5,1-1v-4.6c0-0.5-0.5-1-1-1h-9.6c-0.6,0-1,0.5-1,1v4.6
			C270.2,284.5,270.6,285,271.2,285z M271.2,297.7h9.6c0.5,0,1-0.5,1-1v-8.8c0-0.5-0.5-1-1-1h-9.6c-0.6,0-1,0.5-1,1v8.8
			C270.2,297.3,270.6,297.7,271.2,297.7z M186.4,278.3h-9.6c-0.6,0-1,0.5-1,1v4.6c0,0.5,0.4,1,1,1h9.6c0.5,0,1-0.5,1-1v-4.6
			C187.4,278.8,187,278.3,186.4,278.3z M239.7,297.7h9.6c0.5,0,1-0.5,1-1v-8.8c0-0.5-0.5-1-1-1h-9.6c-0.6,0-1,0.5-1,1v8.8
			C238.7,297.3,239.2,297.7,239.7,297.7z M255.4,297.7h9.6c0.5,0,1-0.5,1-1v-8.8c0-0.5-0.5-1-1-1h-9.6c-0.6,0-1,0.5-1,1v8.8
			C254.4,297.3,254.9,297.7,255.4,297.7z M239.7,310.8h9.6c0.5,0,1-0.5,1-1V301c0-0.5-0.5-1-1-1h-9.6c-0.6,0-1,0.5-1,1v8.8
			C238.7,310.3,239.2,310.8,239.7,310.8z M239.7,285h9.6c0.5,0,1-0.5,1-1v-4.6c0-0.5-0.5-1-1-1h-9.6c-0.6,0-1,0.5-1,1v4.6
			C238.7,284.5,239.2,285,239.7,285z M255.4,339.3h9.6c0.5,0,1-0.5,1-1v-8.8c0-0.5-0.5-1-1-1h-9.6c-0.6,0-1,0.5-1,1v8.8
			C254.4,338.8,254.9,339.3,255.4,339.3z M255.4,310.8h9.6c0.5,0,1-0.5,1-1V301c0-0.5-0.5-1-1-1h-9.6c-0.6,0-1,0.5-1,1v8.8
			C254.4,310.3,254.9,310.8,255.4,310.8z M255.4,325h9.6c0.5,0,1-0.5,1-1v-8.8c0-0.5-0.5-1-1-1h-9.6c-0.6,0-1,0.5-1,1v8.8
			C254.4,324.6,254.9,325,255.4,325z M170.7,342.7h-9.6c-0.6,0-1,0.5-1,1v8.8c0,0.5,0.4,1,1,1h9.6c0.5,0,1-0.5,1-1v-8.8
			C171.7,343.1,171.2,342.7,170.7,342.7z M312.2,314.2h-9.6c-0.6,0-1,0.5-1,1v8.8c0,0.5,0.4,1,1,1h9.6c0.5,0,1-0.5,1-1v-8.8
			C313.2,314.7,312.8,314.2,312.2,314.2z M312.2,300h-9.6c-0.6,0-1,0.5-1,1v8.8c0,0.5,0.4,1,1,1h9.6c0.5,0,1-0.5,1-1V301
			C313.2,300.4,312.8,300,312.2,300z M327.9,342.7h-9.6c-0.6,0-1,0.5-1,1v8.8c0,0.5,0.4,1,1,1h9.6c0.5,0,1-0.5,1-1v-8.8
			C328.9,343.1,328.5,342.7,327.9,342.7z M312.2,278.3h-9.6c-0.6,0-1,0.5-1,1v4.6c0,0.5,0.4,1,1,1h9.6c0.5,0,1-0.5,1-1v-4.6
			C313.2,278.8,312.8,278.3,312.2,278.3z M312.2,286.9h-9.6c-0.6,0-1,0.5-1,1v8.8c0,0.5,0.4,1,1,1h9.6c0.5,0,1-0.5,1-1v-8.8
			C313.2,287.3,312.8,286.9,312.2,286.9z M296.5,286.9h-9.6c-0.6,0-1,0.5-1,1v8.8c0,0.5,0.4,1,1,1h9.6c0.5,0,1-0.5,1-1v-8.8
			C297.5,287.3,297,286.9,296.5,286.9z M296.5,278.3h-9.6c-0.6,0-1,0.5-1,1v4.6c0,0.5,0.4,1,1,1h9.6c0.5,0,1-0.5,1-1v-4.6
			C297.5,278.8,297,278.3,296.5,278.3z M312.2,342.7h-9.6c-0.6,0-1,0.5-1,1v8.8c0,0.5,0.4,1,1,1h9.6c0.5,0,1-0.5,1-1v-8.8
			C313.2,343.1,312.8,342.7,312.2,342.7z M312.2,328.5h-9.6c-0.6,0-1,0.5-1,1v8.8c0,0.5,0.4,1,1,1h9.6c0.5,0,1-0.5,1-1v-8.8
			C313.2,328.9,312.8,328.5,312.2,328.5z M343.6,286.9h-25.3c-0.6,0-1,0.5-1,1v8.8c0,0.5,0.4,1,1,1h25.3c0.5,0,1-0.5,1-1v-8.8
			C344.6,287.3,344.2,286.9,343.6,286.9z M343.6,278.3h-9.6c-0.6,0-1,0.5-1,1v4.6c0,0.5,0.4,1,1,1h9.6c0.5,0,1-0.5,1-1v-4.6
			C344.6,278.8,344.2,278.3,343.6,278.3z M343.6,300h-25.3c-0.6,0-1,0.5-1,1v8.8c0,0.5,0.4,1,1,1h13.7c0.5,0,1,0.5,1,1V324
			c0,0.5,0.4,1,1,1h9.6c0.5,0,1-0.5,1-1v-23C344.6,300.4,344.2,300,343.6,300z M202.1,342.7h-9.6c-0.6,0-1,0.5-1,1v8.8
			c0,0.5,0.4,1,1,1h9.6c0.5,0,1-0.5,1-1v-8.8C203.1,343.1,202.7,342.7,202.1,342.7z M327.9,328.5h-9.6c-0.6,0-1,0.5-1,1v8.8
			c0,0.5,0.4,1,1,1h9.6c0.5,0,1-0.5,1-1v-8.8C328.9,328.9,328.5,328.5,327.9,328.5z M327.9,314.2h-9.6c-0.6,0-1,0.5-1,1v8.8
			c0,0.5,0.4,1,1,1h9.6c0.5,0,1-0.5,1-1v-8.8C328.9,314.7,328.5,314.2,327.9,314.2z M343.6,342.7h-9.6c-0.6,0-1,0.5-1,1v8.8
			c0,0.5,0.4,1,1,1h9.6c0.5,0,1-0.5,1-1v-8.8C344.6,343.1,344.2,342.7,343.6,342.7z M343.6,328.5h-9.6c-0.6,0-1,0.5-1,1v8.8
			c0,0.5,0.4,1,1,1h9.6c0.5,0,1-0.5,1-1v-8.8C344.6,328.9,344.2,328.5,343.6,328.5z M217.9,328.5h-9.6c-0.6,0-1,0.5-1,1v8.8
			c0,0.5,0.4,1,1,1h9.6c0.5,0,1-0.5,1-1v-8.8C218.9,328.9,218.4,328.5,217.9,328.5z M202.1,286.9h-9.6c-0.6,0-1,0.5-1,1v8.8
			c0,0.5,0.4,1,1,1h9.6c0.5,0,1-0.5,1-1v-8.8C203.1,287.3,202.7,286.9,202.1,286.9z M217.9,342.7h-9.6c-0.6,0-1,0.5-1,1v8.8
			c0,0.5,0.4,1,1,1h9.6c0.5,0,1-0.5,1-1v-8.8C218.9,343.1,218.4,342.7,217.9,342.7z M202.1,278.3h-9.6c-0.6,0-1,0.5-1,1v4.6
			c0,0.5,0.4,1,1,1h9.6c0.5,0,1-0.5,1-1v-4.6C203.1,278.8,202.7,278.3,202.1,278.3z M296.5,300h-9.6c-0.6,0-1,0.5-1,1v8.8
			c0,0.5,0.4,1,1,1h9.6c0.5,0,1-0.5,1-1V301C297.5,300.4,297,300,296.5,300z M202.1,328.5h-9.6c-0.6,0-1,0.5-1,1v8.8
			c0,0.5,0.4,1,1,1h9.6c0.5,0,1-0.5,1-1v-8.8C203.1,328.9,202.7,328.5,202.1,328.5z M202.1,314.2h-9.6c-0.6,0-1,0.5-1,1v8.8
			c0,0.5,0.4,1,1,1h9.6c0.5,0,1-0.5,1-1v-8.8C203.1,314.7,202.7,314.2,202.1,314.2z M202.1,300h-9.6c-0.6,0-1,0.5-1,1v8.8
			c0,0.5,0.4,1,1,1h9.6c0.5,0,1-0.5,1-1V301C203.1,300.4,202.7,300,202.1,300z M217.9,314.2h-9.6c-0.6,0-1,0.5-1,1v8.8
			c0,0.5,0.4,1,1,1h9.6c0.5,0,1-0.5,1-1v-8.8C218.9,314.7,218.4,314.2,217.9,314.2z M296.5,314.2h-9.6c-0.6,0-1,0.5-1,1v8.8
			c0,0.5,0.4,1,1,1h9.6c0.5,0,1-0.5,1-1v-8.8C297.5,314.7,297,314.2,296.5,314.2z M296.5,342.7H224c-0.6,0-1,0.5-1,1v8.8
			c0,0.5,0.4,1,1,1h72.5c0.5,0,1-0.5,1-1v-8.8C297.5,343.1,297,342.7,296.5,342.7z M296.5,328.5h-9.6c-0.6,0-1,0.5-1,1v8.8
			c0,0.5,0.4,1,1,1h9.6c0.5,0,1-0.5,1-1v-8.8C297.5,328.9,297,328.5,296.5,328.5z M217.9,300h-9.6c-0.6,0-1,0.5-1,1v8.8
			c0,0.5,0.4,1,1,1h9.6c0.5,0,1-0.5,1-1V301C218.9,300.4,218.4,300,217.9,300z M217.9,286.9h-9.6c-0.6,0-1,0.5-1,1v8.8
			c0,0.5,0.4,1,1,1h9.6c0.5,0,1-0.5,1-1v-8.8C218.9,287.3,218.4,286.9,217.9,286.9z M217.9,278.3h-9.6c-0.6,0-1,0.5-1,1v4.6
			c0,0.5,0.4,1,1,1h9.6c0.5,0,1-0.5,1-1v-4.6C218.9,278.8,218.4,278.3,217.9,278.3z"/>
		<g>
			<path class="st6" d="M161.1,278.5h9.6c0.5,0,1,0.5,1,1v-0.2c0-0.5-0.5-1-1-1h-9.6c-0.6,0-1,0.5-1,1v0.2
				C160.1,279,160.6,278.5,161.1,278.5z"/>
			<path class="st6" d="M161.1,287.1h9.6c0.5,0,1,0.5,1,1v-0.2c0-0.5-0.5-1-1-1h-9.6c-0.6,0-1,0.5-1,1v0.2
				C160.1,287.5,160.6,287.1,161.1,287.1z"/>
			<path class="st6" d="M224,328.6h9.6c0.5,0,1,0.5,1,1v-0.2c0-0.5-0.5-1-1-1H224c-0.6,0-1,0.5-1,1v0.2
				C223,329.1,223.4,328.6,224,328.6z"/>
			<path class="st6" d="M224,300.2h9.6c0.5,0,1,0.5,1,1V301c0-0.5-0.5-1-1-1H224c-0.6,0-1,0.5-1,1v0.2
				C223,300.6,223.4,300.2,224,300.2z"/>
			<path class="st6" d="M224,287.1h9.6c0.5,0,1,0.5,1,1v-0.2c0-0.5-0.5-1-1-1H224c-0.6,0-1,0.5-1,1v0.2
				C223,287.5,223.4,287.1,224,287.1z"/>
			<path class="st6" d="M224,314.4h9.6c0.5,0,1,0.5,1,1v-0.2c0-0.5-0.5-1-1-1H224c-0.6,0-1,0.5-1,1v0.2
				C223,314.9,223.4,314.4,224,314.4z"/>
			<path class="st6" d="M170.7,342.7h-9.6c-0.6,0-1,0.5-1,1v0.2c0-0.5,0.4-1,1-1h9.6c0.5,0,1,0.5,1,1v-0.2
				C171.7,343.1,171.2,342.7,170.7,342.7z"/>
			<path class="st6" d="M186.4,314.2h-9.6c-0.6,0-1,0.5-1,1v0.2c0-0.5,0.4-1,1-1h9.6c0.5,0,1,0.5,1,1v-0.2
				C187.4,314.7,187,314.2,186.4,314.2z"/>
			<path class="st6" d="M170.7,328.5h-9.6c-0.6,0-1,0.5-1,1v0.2c0-0.5,0.4-1,1-1h9.6c0.5,0,1,0.5,1,1v-0.2
				C171.7,328.9,171.2,328.5,170.7,328.5z"/>
			<path class="st6" d="M224,278.5h9.6c0.5,0,1,0.5,1,1v-0.2c0-0.5-0.5-1-1-1H224c-0.6,0-1,0.5-1,1v0.2
				C223,279,223.4,278.5,224,278.5z"/>
			<path class="st6" d="M186.4,286.9h-9.6c-0.6,0-1,0.5-1,1v0.2c0-0.5,0.4-1,1-1h9.6c0.5,0,1,0.5,1,1v-0.2
				C187.4,287.3,187,286.9,186.4,286.9z"/>
			<path class="st6" d="M186.4,300h-25.3c-0.6,0-1,0.5-1,1v0.2c0-0.5,0.4-1,1-1h25.3c0.5,0,1,0.5,1,1V301
				C187.4,300.4,187,300,186.4,300z"/>
			<path class="st6" d="M170.7,314.2h-9.6c-0.6,0-1,0.5-1,1v0.2c0-0.5,0.4-1,1-1h9.6c0.5,0,1,0.5,1,1v-0.2
				C171.7,314.7,171.2,314.2,170.7,314.2z"/>
			<path class="st6" d="M186.4,342.7h-9.6c-0.6,0-1,0.5-1,1v0.2c0-0.5,0.4-1,1-1h9.6c0.5,0,1,0.5,1,1v-0.2
				C187.4,343.1,187,342.7,186.4,342.7z"/>
			<path class="st6" d="M186.4,328.5h-9.6c-0.6,0-1,0.5-1,1v0.2c0-0.5,0.4-1,1-1h9.6c0.5,0,1,0.5,1,1v-0.2
				C187.4,328.9,187,328.5,186.4,328.5z"/>
			<path class="st6" d="M271.2,328.6h9.6c0.5,0,1,0.5,1,1v-0.2c0-0.5-0.5-1-1-1h-9.6c-0.6,0-1,0.5-1,1v0.2
				C270.2,329.1,270.6,328.6,271.2,328.6z"/>
			<path class="st6" d="M271.2,300.2h9.6c0.5,0,1,0.5,1,1V301c0-0.5-0.5-1-1-1h-9.6c-0.6,0-1,0.5-1,1v0.2
				C270.2,300.6,270.6,300.2,271.2,300.2z"/>
			<path class="st6" d="M271.2,314.4h9.6c0.5,0,1,0.5,1,1v-0.2c0-0.5-0.5-1-1-1h-9.6c-0.6,0-1,0.5-1,1v0.2
				C270.2,314.9,270.6,314.4,271.2,314.4z"/>
			<path class="st6" d="M186.4,278.3h-9.6c-0.6,0-1,0.5-1,1v0.2c0-0.5,0.4-1,1-1h9.6c0.5,0,1,0.5,1,1v-0.2
				C187.4,278.8,187,278.3,186.4,278.3z"/>
			<path class="st6" d="M255.4,278.5h9.6c0.5,0,1,0.5,1,1v-0.2c0-0.5-0.5-1-1-1h-9.6c-0.6,0-1,0.5-1,1v0.2
				C254.4,279,254.9,278.5,255.4,278.5z"/>
			<path class="st6" d="M255.4,287.1h9.6c0.5,0,1,0.5,1,1v-0.2c0-0.5-0.5-1-1-1h-9.6c-0.6,0-1,0.5-1,1v0.2
				C254.4,287.5,254.9,287.1,255.4,287.1z"/>
			<path class="st6" d="M318.3,278.5h9.6c0.5,0,1,0.5,1,1v-0.2c0-0.5-0.5-1-1-1h-9.6c-0.6,0-1,0.5-1,1v0.2
				C317.3,279,317.8,278.5,318.3,278.5z"/>
			<path class="st6" d="M271.2,287.1h9.6c0.5,0,1,0.5,1,1v-0.2c0-0.5-0.5-1-1-1h-9.6c-0.6,0-1,0.5-1,1v0.2
				C270.2,287.5,270.6,287.1,271.2,287.1z"/>
			<path class="st6" d="M271.2,278.5h9.6c0.5,0,1,0.5,1,1v-0.2c0-0.5-0.5-1-1-1h-9.6c-0.6,0-1,0.5-1,1v0.2
				C270.2,279,270.6,278.5,271.2,278.5z"/>
			<path class="st6" d="M255.4,300.2h9.6c0.5,0,1,0.5,1,1V301c0-0.5-0.5-1-1-1h-9.6c-0.6,0-1,0.5-1,1v0.2
				C254.4,300.6,254.9,300.2,255.4,300.2z"/>
			<path class="st6" d="M239.7,287.1h9.6c0.5,0,1,0.5,1,1v-0.2c0-0.5-0.5-1-1-1h-9.6c-0.6,0-1,0.5-1,1v0.2
				C238.7,287.5,239.2,287.1,239.7,287.1z"/>
			<path class="st6" d="M239.7,300.2h9.6c0.5,0,1,0.5,1,1V301c0-0.5-0.5-1-1-1h-9.6c-0.6,0-1,0.5-1,1v0.2
				C238.7,300.6,239.2,300.2,239.7,300.2z"/>
			<path class="st6" d="M239.7,314.4h9.6c0.5,0,1,0.5,1,1v-0.2c0-0.5-0.5-1-1-1h-9.6c-0.6,0-1,0.5-1,1v0.2
				C238.7,314.9,239.2,314.4,239.7,314.4z"/>
			<path class="st6" d="M255.4,314.4h9.6c0.5,0,1,0.5,1,1v-0.2c0-0.5-0.5-1-1-1h-9.6c-0.6,0-1,0.5-1,1v0.2
				C254.4,314.9,254.9,314.4,255.4,314.4z"/>
			<path class="st6" d="M239.7,328.6h9.6c0.5,0,1,0.5,1,1v-0.2c0-0.5-0.5-1-1-1h-9.6c-0.6,0-1,0.5-1,1v0.2
				C238.7,329.1,239.2,328.6,239.7,328.6z"/>
			<path class="st6" d="M239.7,278.5h9.6c0.5,0,1,0.5,1,1v-0.2c0-0.5-0.5-1-1-1h-9.6c-0.6,0-1,0.5-1,1v0.2
				C238.7,279,239.2,278.5,239.7,278.5z"/>
			<path class="st6" d="M255.4,328.6h9.6c0.5,0,1,0.5,1,1v-0.2c0-0.5-0.5-1-1-1h-9.6c-0.6,0-1,0.5-1,1v0.2
				C254.4,329.1,254.9,328.6,255.4,328.6z"/>
			<path class="st6" d="M296.5,342.7H224c-0.6,0-1,0.5-1,1v0.2c0-0.5,0.4-1,1-1h72.5c0.5,0,1,0.5,1,1v-0.2
				C297.5,343.1,297,342.7,296.5,342.7z"/>
			<path class="st6" d="M327.9,342.7h-9.6c-0.6,0-1,0.5-1,1v0.2c0-0.5,0.4-1,1-1h9.6c0.5,0,1,0.5,1,1v-0.2
				C328.9,343.1,328.5,342.7,327.9,342.7z"/>
			<path class="st6" d="M312.2,278.3h-9.6c-0.6,0-1,0.5-1,1v0.2c0-0.5,0.4-1,1-1h9.6c0.5,0,1,0.5,1,1v-0.2
				C313.2,278.8,312.8,278.3,312.2,278.3z"/>
			<path class="st6" d="M312.2,300h-9.6c-0.6,0-1,0.5-1,1v0.2c0-0.5,0.4-1,1-1h9.6c0.5,0,1,0.5,1,1V301
				C313.2,300.4,312.8,300,312.2,300z"/>
			<path class="st6" d="M312.2,286.9h-9.6c-0.6,0-1,0.5-1,1v0.2c0-0.5,0.4-1,1-1h9.6c0.5,0,1,0.5,1,1v-0.2
				C313.2,287.3,312.8,286.9,312.2,286.9z"/>
			<path class="st6" d="M312.2,314.2h-9.6c-0.6,0-1,0.5-1,1v0.2c0-0.5,0.4-1,1-1h9.6c0.5,0,1,0.5,1,1v-0.2
				C313.2,314.7,312.8,314.2,312.2,314.2z"/>
			<path class="st6" d="M312.2,342.7h-9.6c-0.6,0-1,0.5-1,1v0.2c0-0.5,0.4-1,1-1h9.6c0.5,0,1,0.5,1,1v-0.2
				C313.2,343.1,312.8,342.7,312.2,342.7z"/>
			<path class="st6" d="M312.2,328.5h-9.6c-0.6,0-1,0.5-1,1v0.2c0-0.5,0.4-1,1-1h9.6c0.5,0,1,0.5,1,1v-0.2
				C313.2,328.9,312.8,328.5,312.2,328.5z"/>
			<path class="st6" d="M343.6,278.3h-9.6c-0.6,0-1,0.5-1,1v0.2c0-0.5,0.4-1,1-1h9.6c0.5,0,1,0.5,1,1v-0.2
				C344.6,278.8,344.2,278.3,343.6,278.3z"/>
			<path class="st6" d="M327.9,328.5h-9.6c-0.6,0-1,0.5-1,1v0.2c0-0.5,0.4-1,1-1h9.6c0.5,0,1,0.5,1,1v-0.2
				C328.9,328.9,328.5,328.5,327.9,328.5z"/>
			<path class="st6" d="M296.5,278.3h-9.6c-0.6,0-1,0.5-1,1v0.2c0-0.5,0.4-1,1-1h9.6c0.5,0,1,0.5,1,1v-0.2
				C297.5,278.8,297,278.3,296.5,278.3z"/>
			<path class="st6" d="M343.6,300h-25.3c-0.6,0-1,0.5-1,1v0.2c0-0.5,0.4-1,1-1h25.3c0.5,0,1,0.5,1,1V301
				C344.6,300.4,344.2,300,343.6,300z"/>
			<path class="st6" d="M343.6,286.9h-25.3c-0.6,0-1,0.5-1,1v0.2c0-0.5,0.4-1,1-1h25.3c0.5,0,1,0.5,1,1v-0.2
				C344.6,287.3,344.2,286.9,343.6,286.9z"/>
			<path class="st6" d="M343.6,328.5h-9.6c-0.6,0-1,0.5-1,1v0.2c0-0.5,0.4-1,1-1h9.6c0.5,0,1,0.5,1,1v-0.2
				C344.6,328.9,344.2,328.5,343.6,328.5z"/>
			<path class="st6" d="M327.9,314.2h-9.6c-0.6,0-1,0.5-1,1v0.2c0-0.5,0.4-1,1-1h9.6c0.5,0,1,0.5,1,1v-0.2
				C328.9,314.7,328.5,314.2,327.9,314.2z"/>
			<path class="st6" d="M343.6,342.7h-9.6c-0.6,0-1,0.5-1,1v0.2c0-0.5,0.4-1,1-1h9.6c0.5,0,1,0.5,1,1v-0.2
				C344.6,343.1,344.2,342.7,343.6,342.7z"/>
			<path class="st6" d="M217.9,328.5h-9.6c-0.6,0-1,0.5-1,1v0.2c0-0.5,0.4-1,1-1h9.6c0.5,0,1,0.5,1,1v-0.2
				C218.9,328.9,218.4,328.5,217.9,328.5z"/>
			<path class="st6" d="M202.1,278.3h-9.6c-0.6,0-1,0.5-1,1v0.2c0-0.5,0.4-1,1-1h9.6c0.5,0,1,0.5,1,1v-0.2
				C203.1,278.8,202.7,278.3,202.1,278.3z"/>
			<path class="st6" d="M217.9,342.7h-9.6c-0.6,0-1,0.5-1,1v0.2c0-0.5,0.4-1,1-1h9.6c0.5,0,1,0.5,1,1v-0.2
				C218.9,343.1,218.4,342.7,217.9,342.7z"/>
			<path class="st6" d="M202.1,342.7h-9.6c-0.6,0-1,0.5-1,1v0.2c0-0.5,0.4-1,1-1h9.6c0.5,0,1,0.5,1,1v-0.2
				C203.1,343.1,202.7,342.7,202.1,342.7z"/>
			<path class="st6" d="M202.1,286.9h-9.6c-0.6,0-1,0.5-1,1v0.2c0-0.5,0.4-1,1-1h9.6c0.5,0,1,0.5,1,1v-0.2
				C203.1,287.3,202.7,286.9,202.1,286.9z"/>
			<path class="st6" d="M202.1,328.5h-9.6c-0.6,0-1,0.5-1,1v0.2c0-0.5,0.4-1,1-1h9.6c0.5,0,1,0.5,1,1v-0.2
				C203.1,328.9,202.7,328.5,202.1,328.5z"/>
			<path class="st6" d="M202.1,300h-9.6c-0.6,0-1,0.5-1,1v0.2c0-0.5,0.4-1,1-1h9.6c0.5,0,1,0.5,1,1V301
				C203.1,300.4,202.7,300,202.1,300z"/>
			<path class="st6" d="M202.1,314.2h-9.6c-0.6,0-1,0.5-1,1v0.2c0-0.5,0.4-1,1-1h9.6c0.5,0,1,0.5,1,1v-0.2
				C203.1,314.7,202.7,314.2,202.1,314.2z"/>
			<path class="st6" d="M296.5,314.2h-9.6c-0.6,0-1,0.5-1,1v0.2c0-0.5,0.4-1,1-1h9.6c0.5,0,1,0.5,1,1v-0.2
				C297.5,314.7,297,314.2,296.5,314.2z"/>
			<path class="st6" d="M296.5,328.5h-9.6c-0.6,0-1,0.5-1,1v0.2c0-0.5,0.4-1,1-1h9.6c0.5,0,1,0.5,1,1v-0.2
				C297.5,328.9,297,328.5,296.5,328.5z"/>
			<path class="st6" d="M296.5,286.9h-9.6c-0.6,0-1,0.5-1,1v0.2c0-0.5,0.4-1,1-1h9.6c0.5,0,1,0.5,1,1v-0.2
				C297.5,287.3,297,286.9,296.5,286.9z"/>
			<path class="st6" d="M296.5,300h-9.6c-0.6,0-1,0.5-1,1v0.2c0-0.5,0.4-1,1-1h9.6c0.5,0,1,0.5,1,1V301
				C297.5,300.4,297,300,296.5,300z"/>
			<path class="st6" d="M217.9,278.3h-9.6c-0.6,0-1,0.5-1,1v0.2c0-0.5,0.4-1,1-1h9.6c0.5,0,1,0.5,1,1v-0.2
				C218.9,278.8,218.4,278.3,217.9,278.3z"/>
			<path class="st6" d="M217.9,300h-9.6c-0.6,0-1,0.5-1,1v0.2c0-0.5,0.4-1,1-1h9.6c0.5,0,1,0.5,1,1V301
				C218.9,300.4,218.4,300,217.9,300z"/>
			<path class="st6" d="M217.9,286.9h-9.6c-0.6,0-1,0.5-1,1v0.2c0-0.5,0.4-1,1-1h9.6c0.5,0,1,0.5,1,1v-0.2
				C218.9,287.3,218.4,286.9,217.9,286.9z"/>
			<path class="st6" d="M217.9,314.2h-9.6c-0.6,0-1,0.5-1,1v0.2c0-0.5,0.4-1,1-1h9.6c0.5,0,1,0.5,1,1v-0.2
				C218.9,314.7,218.4,314.2,217.9,314.2z"/>
		</g>
		<g>
			<g>
				<path class="st3" d="M276.5,397.7h-49.8c-2.7,0-4.8-2.2-4.8-4.8v-25.2c0-2.7,2.2-4.8,4.8-4.8h49.8c2.7,0,4.8,2.2,4.8,4.8v25.2
					C281.4,395.5,279.2,397.7,276.5,397.7z"/>
				<path class="st4" d="M276.5,397.4h-49.8c-2.7,0-4.8-2.2-4.8-4.8v-24.9c0-2.7,2.2-4.8,4.8-4.8h49.8c2.7,0,4.8,2.2,4.8,4.8v24.9
					C281.4,395.2,279.2,397.4,276.5,397.4z"/>
			</g>
			<rect x="221.9" y="391" class="st3" width="59.4" height="0.7"/>
			<rect x="221.9" y="390.8" class="st7" width="59.4" height="0.7"/>
		</g>
	</g>
	<g>
		<path class="st8" d="M364.8,254H139c-2.1,0-4.1-1.3-4.8-3.4L113.7,198c-0.6-4.3,2.6-7.2,6.1-7.2h264.1c4.1,0,6.8,3.9,6,7.8
			l-20.4,52C368.9,252.7,366.9,254,364.8,254z"/>
	</g>
	<path class="st9" d="M119.8,191h264.1c3.6,0,6.1,2.9,6.2,6.3c0-3.4-2.5-6.5-6.2-6.5H119.8c-3.3,0-6.3,2.6-6.2,6.4
		C113.6,193.5,116.5,191,119.8,191z"/>
	<g>
		<path class="st10" d="M365.6,256.4H138.1c-2.2,0-4.1-1.4-4.8-3.4L114,199.6c-1.2-3.3,1.3-6.9,4.8-6.9h266c3.6,0,6,3.5,4.8,6.9
			L370.4,253C369.7,255,367.8,256.4,365.6,256.4z"/>
	</g>
	<g>
		<path class="st5" d="M384.9,192.8h-266c-3.6,0-6,3.5-4.8,6.9l18.4,51h238.8l18.4-51C390.9,196.3,388.5,192.8,384.9,192.8z"/>
	</g>
	<g>
		<polygon class="st11" points="119.5,199 137,248.9 365.7,248.9 384.2,199 		"/>
	</g>
	<g>
		<path class="st9" d="M376.3,233.6l13.5-34.4c1.1-3.3-1.4-6.7-4.9-6.7h-266c-3.1,0-5.4,2.7-5.1,5.6l12.9,33.1L115,199
			c-0.5-1.3-0.3-2.7,0.5-3.8c0.8-1.1,2-1.8,3.4-1.8h266c1.4,0,2.6,0.6,3.4,1.8c0.8,1.1,1,2.5,0.5,3.8L376.3,233.6z"/>
	</g>
	<g>
		<path class="st12" d="M384.9,193.8c1.4,0,2.6,0.6,3.4,1.8c0.8,1.1,1,2.5,0.5,3.8l-19.3,53.3c-0.6,1.6-2.2,2.7-3.9,2.7H138.1
			c-1.7,0-3.3-1.1-3.9-2.7L115,199.3c-0.5-1.3-0.3-2.7,0.5-3.8c0.8-1.1,2-1.8,3.4-1.8H384.9 M384.9,192.8h-266c-3.6,0-6,3.5-4.8,6.9
			l19.3,53.3c0.7,2,2.7,3.4,4.8,3.4h227.5c2.2,0,4.1-1.4,4.8-3.4l19.3-53.3C390.9,196.3,388.5,192.8,384.9,192.8L384.9,192.8z"/>
	</g>
	<ellipse class="st13" cx="352.4" cy="265.7" rx="5.1" ry="5.2"/>
	<circle class="st14" cx="352.4" cy="265.6" r="5.1"/>
	<circle class="st1" cx="352.4" cy="265.6" r="4.2"/>
	<path class="st13" d="M352.4,269.7c-2.3,0-4.2-1.9-4.2-4.2c0,0,0,0,0,0.1c0,2.3,1.9,4.2,4.2,4.2c2.3,0,4.2-1.9,4.2-4.2
		c0,0,0,0,0-0.1C356.6,267.8,354.7,269.7,352.4,269.7z"/>
	<g>
		<polygon class="st15" points="124.2,212.4 379.2,212.4 384.2,199 119.5,199 		"/>
	</g>
	<g>
		<polygon class="st16" points="384,199.4 384.2,199 119.5,199 119.6,199.4 		"/>
	</g>
	<g>
		<g>
			<g>
				
					<ellipse transform="matrix(0.5914 -0.8064 0.8064 0.5914 -113.3118 188.3915)" class="st17" cx="129.2" cy="206" rx="3" ry="4.1"/>
			</g>
			<g>
				
					<ellipse transform="matrix(0.5611 -0.8277 0.8277 0.5611 -113.7423 197.3362)" class="st18" cx="129.2" cy="205.9" rx="3" ry="4.1"/>
			</g>
			<g>
				
					<ellipse transform="matrix(0.5611 -0.8277 0.8277 0.5611 -113.7423 197.3362)" class="st19" cx="129.2" cy="205.9" rx="2.1" ry="2.9"/>
			</g>
			<g>
				<path class="st20" d="M128.5,203.7c1.4,0,2.8,1,3.3,2.3c0,0,0,0,0,0C131.3,204.6,129.9,203.6,128.5,203.7
					c-1.4-0.1-2.2,1-1.8,2.3c0,0,0,0,0,0C126.3,204.7,127.1,203.7,128.5,203.7z"/>
			</g>
		</g>
		<g>
			<g>
				
					<ellipse transform="matrix(0.5914 -0.8064 0.8064 0.5914 -109.5169 195.8808)" class="st17" cx="138.5" cy="206" rx="3" ry="4.1"/>
			</g>
			<g>
				
					<ellipse transform="matrix(0.5611 -0.8277 0.8277 0.5611 -109.6661 205.0239)" class="st18" cx="138.5" cy="205.9" rx="3" ry="4.1"/>
			</g>
			<g>
				
					<ellipse transform="matrix(0.5611 -0.8277 0.8277 0.5611 -109.6661 205.0239)" class="st21" cx="138.5" cy="205.9" rx="2.1" ry="2.9"/>
			</g>
			<g>
				<path class="st22" d="M137.8,203.7c1.4,0,2.8,1,3.3,2.3c0,0,0,0,0,0C140.6,204.6,139.2,203.6,137.8,203.7
					c-1.4-0.1-2.2,1-1.8,2.3c0,0,0,0,0,0C135.6,204.7,136.4,203.7,137.8,203.7z"/>
			</g>
		</g>
		<g>
			<g>
				
					<ellipse transform="matrix(0.5914 -0.8064 0.8064 0.5914 -105.7221 203.3701)" class="st17" cx="147.8" cy="206" rx="3" ry="4.1"/>
			</g>
			<g>
				
					<ellipse transform="matrix(0.5611 -0.8277 0.8277 0.5611 -105.5899 212.7117)" class="st18" cx="147.8" cy="205.9" rx="3" ry="4.1"/>
			</g>
			<g>
				
					<ellipse transform="matrix(0.5611 -0.8277 0.8277 0.5611 -105.5899 212.7117)" class="st23" cx="147.8" cy="205.9" rx="2.1" ry="2.9"/>
			</g>
			<g>
				<path class="st24" d="M147.1,203.7c1.4,0,2.8,1,3.3,2.3c0,0,0,0,0,0C149.9,204.6,148.4,203.6,147.1,203.7
					c-1.4-0.1-2.2,1-1.8,2.3c0,0,0,0,0,0C144.9,204.7,145.7,203.7,147.1,203.7z"/>
			</g>
		</g>
	</g>
	<g>
		<line class="st25" x1="255.4" y1="224.6" x2="255.4" y2="219.8"/>
	</g>
	<g>
		<path class="st25" d="M240,221.3H135.8c-0.8,0-1.5-0.7-1.5-1.5s0.7-1.5,1.5-1.5H240c0.8,0,1.5,0.7,1.5,1.5S240.8,221.3,240,221.3z
			"/>
	</g>
	<g>
		<path class="st26" d="M260.2,221.3H248c-0.8,0-1.5-0.7-1.5-1.5s0.7-1.5,1.5-1.5h12.2c0.8,0,1.5,0.7,1.5,1.5
			S261.1,221.3,260.2,221.3z"/>
	</g>
	<g>
		<path class="st25" d="M301.6,221.3h-33.8c-0.8,0-1.5-0.7-1.5-1.5s0.7-1.5,1.5-1.5h33.8c0.8,0,1.5,0.7,1.5,1.5
			S302.4,221.3,301.6,221.3z"/>
	</g>
	<g>
		<path class="st27" d="M323.1,221.3h-6.8c-0.8,0-1.5-0.7-1.5-1.5s0.7-1.5,1.5-1.5h6.8c0.8,0,1.5,0.7,1.5,1.5S324,221.3,323.1,221.3
			z"/>
	</g>
	<g>
		<path class="st27" d="M334.8,221.3H328c-0.8,0-1.5-0.7-1.5-1.5s0.7-1.5,1.5-1.5h6.8c0.8,0,1.5,0.7,1.5,1.5
			S335.6,221.3,334.8,221.3z"/>
	</g>
	<g>
		<path class="st26" d="M156.1,228.3h-17.6c-0.8,0-1.5-0.7-1.5-1.5s0.7-1.5,1.5-1.5h17.6c0.8,0,1.5,0.7,1.5,1.5
			S156.9,228.3,156.1,228.3z"/>
	</g>
	<g>
		<path class="st25" d="M201.2,228.3h-35.3c-0.8,0-1.5-0.7-1.5-1.5s0.7-1.5,1.5-1.5h35.3c0.8,0,1.5,0.7,1.5,1.5
			S202,228.3,201.2,228.3z"/>
	</g>
	<g>
		<path class="st26" d="M270.2,228.3h-58.9c-0.8,0-1.5-0.7-1.5-1.5s0.7-1.5,1.5-1.5h58.9c0.8,0,1.5,0.7,1.5,1.5
			S271,228.3,270.2,228.3z"/>
	</g>
	<g>
		<path class="st28" d="M178.9,236.9h-37.8c-0.8,0-1.5-0.7-1.5-1.5s0.7-1.5,1.5-1.5h37.8c0.8,0,1.5,0.7,1.5,1.5
			S179.7,236.9,178.9,236.9z"/>
	</g>
	<g>
		<path class="st28" d="M191.5,236.9h-4.1c-0.8,0-1.5-0.7-1.5-1.5s0.7-1.5,1.5-1.5h4.1c0.8,0,1.5,0.7,1.5,1.5
			S192.4,236.9,191.5,236.9z"/>
	</g>
	<g>
		<path class="st28" d="M207.3,236.9h-6.1c-0.8,0-1.5-0.7-1.5-1.5s0.7-1.5,1.5-1.5h6.1c0.8,0,1.5,0.7,1.5,1.5
			S208.1,236.9,207.3,236.9z"/>
	</g>
	<g>
		<path class="st28" d="M223,236.9h-8.7c-0.8,0-1.5-0.7-1.5-1.5s0.7-1.5,1.5-1.5h8.7c0.8,0,1.5,0.7,1.5,1.5S223.8,236.9,223,236.9z"
			/>
	</g>
	<g>
		<path class="st28" d="M288.5,228.3h-11.1c-0.8,0-1.5-0.7-1.5-1.5s0.7-1.5,1.5-1.5h11.1c0.8,0,1.5,0.7,1.5,1.5
			S289.3,228.3,288.5,228.3z"/>
	</g>
	<g>
		<path class="st28" d="M319.7,228.3h-24.3c-0.8,0-1.5-0.7-1.5-1.5s0.7-1.5,1.5-1.5h24.3c0.8,0,1.5,0.7,1.5,1.5
			S320.6,228.3,319.7,228.3z"/>
	</g>
	<g>
		<path class="st29" d="M170.3,244.7h-27c-0.8,0-1.5-0.7-1.5-1.5s0.7-1.5,1.5-1.5h27c0.8,0,1.5,0.7,1.5,1.5S171.1,244.7,170.3,244.7
			z"/>
	</g>
	<g>
		<path class="st29" d="M362.3,238.6h-60.7c-0.8,0-1.5-0.7-1.5-1.5s0.7-1.5,1.5-1.5h60.7c0.8,0,1.5,0.7,1.5,1.5
			S363.2,238.6,362.3,238.6z"/>
	</g>
	<g>
		<path class="st29" d="M359,244.7h-9.5c-0.8,0-1.5-0.7-1.5-1.5s0.7-1.5,1.5-1.5h9.5c0.8,0,1.5,0.7,1.5,1.5S359.8,244.7,359,244.7z"
			/>
	</g>
	<g>
		<path class="st29" d="M344.6,244.7h-8.2c-0.8,0-1.5-0.7-1.5-1.5s0.7-1.5,1.5-1.5h8.2c0.8,0,1.5,0.7,1.5,1.5
			S345.5,244.7,344.6,244.7z"/>
	</g>
	<g class="st30">
		<polygon class="st11" points="291,199 200.5,199 150.5,248.9 241.1,248.9 		"/>
		<polygon class="st11" points="356.8,199 319.4,199 269.5,248.9 306.9,248.9 		"/>
		<polygon class="st11" points="383.7,200.3 384.2,199 374.7,199 324.8,248.9 335.1,248.9 		"/>
	</g>
</g>
<g>
	<path class="st31" d="M442.5,406.3H386V322h56.5c2.7,0,4.9,2.2,4.9,4.9v74.4C447.4,404.1,445.2,406.3,442.5,406.3z"/>
	<path class="st32" d="M442.5,322h-0.2c2.7,0,4.9,2.2,4.9,4.9v74.4c0,2.7-2.2,4.9-4.9,4.9h0.2c2.7,0,4.9-2.2,4.9-4.9v-74.4
		C447.4,324.2,445.2,322,442.5,322z"/>
	<g>
		<rect x="386" y="322" class="st33" width="10.4" height="84.3"/>
		
			<rect x="396.4" y="322" transform="matrix(-1 -1.224647e-16 1.224647e-16 -1 793.9763 728.2728)" class="st34" width="1.1" height="84.3"/>
		<rect x="430.8" y="322" class="st35" width="7" height="84.3"/>
		<rect x="431.6" y="321.2" class="st36" width="7" height="85.8"/>
		<rect x="431.6" y="321.2" class="st9" width="0.5" height="85.8"/>
		<g>
			<rect x="432.8" y="321.2" class="st9" width="0.1" height="85.8"/>
			<rect x="432.9" y="321.2" class="st37" width="0.2" height="85.8"/>
		</g>
		<g>
			<rect x="433.8" y="321.2" class="st9" width="0.1" height="85.8"/>
			<rect x="433.9" y="321.2" class="st37" width="0.2" height="85.8"/>
		</g>
		<g>
			<rect x="434.8" y="321.2" class="st9" width="0.1" height="85.8"/>
			<rect x="434.8" y="321.2" class="st37" width="0.2" height="85.8"/>
		</g>
		<g>
			<rect x="435.8" y="321.2" class="st9" width="0.1" height="85.8"/>
			<rect x="435.8" y="321.2" class="st37" width="0.2" height="85.8"/>
		</g>
		<g>
			<rect x="436.8" y="321.2" class="st9" width="0.1" height="85.8"/>
			<rect x="436.8" y="321.2" class="st37" width="0.2" height="85.8"/>
		</g>
		<g>
			<rect x="437.8" y="321.2" class="st9" width="0.1" height="85.8"/>
			<rect x="437.8" y="321.2" class="st37" width="0.2" height="85.8"/>
		</g>
		<rect x="400.3" y="393.3" class="st38" width="17.2" height="8.8"/>
		<rect x="400.3" y="390" class="st38" width="17.2" height="2.1"/>
		<rect x="400.3" y="386.8" class="st39" width="8.6" height="2.1"/>
	</g>
</g>
<g>
	<circle class="st40" cx="79.2" cy="333.9" r="36.8"/>
	<path class="st41" d="M108.9,330c-2.7-13.8-14.8-24.2-29.4-24.2c-16.6,0-30,13.4-30,30c0,16.6,13.4,30,30,30
		c14.5,0,26.7-10.4,29.4-24.1h3.9c1,0,1.9-0.2,2.7-0.7c0.4-2.3,0.7-4.7,0.7-7.1c0-1,0-1.9-0.1-2.9c-0.9-0.6-2-1-3.2-1H108.9z"/>
	<path class="st42" d="M79.2,297.6c20.2,0,36.7,16.3,36.8,36.5c0-0.1,0-0.2,0-0.3c0-20.3-16.5-36.8-36.8-36.8s-36.8,16.5-36.8,36.8
		c0,0.1,0,0.2,0,0.3C42.6,314,59,297.6,79.2,297.6z"/>
	<g>
		<path class="st9" d="M112.7,339.8h-9c-3.2,0-5.8-2.6-5.8-5.8v0c0-3.2,2.6-5.8,5.8-5.8h9c3.2,0,5.8,2.6,5.8,5.8v0
			C118.6,337.1,115.9,339.8,112.7,339.8z"/>
		<circle class="st43" cx="79.5" cy="333.9" r="30"/>
		<path class="st9" d="M79.5,304.2c16.5,0,29.9,13.3,30,29.8c0,0,0-0.1,0-0.1c0-16.6-13.4-30-30-30c-16.6,0-30,13.4-30,30
			c0,0,0,0.1,0,0.1C49.5,317.5,62.9,304.2,79.5,304.2z"/>
		<ellipse class="st9" cx="79.5" cy="334.1" rx="26.3" ry="26.5"/>
		<circle class="st44" cx="79.5" cy="333.9" r="26.3"/>
		<circle class="st44" cx="79.5" cy="333.9" r="24.3"/>
		<circle class="st45" cx="79.5" cy="333.9" r="23.8"/>
		<path class="st46" d="M79.5,310.4c13.1,0,23.7,10.6,23.8,23.6c0,0,0-0.1,0-0.1c0-13.1-10.6-23.8-23.8-23.8s-23.8,10.6-23.8,23.8
			c0,0,0,0.1,0,0.1C55.8,320.9,66.4,310.4,79.5,310.4z"/>
		<circle class="st47" cx="79.5" cy="333.9" r="18.4"/>
		<path class="st48" d="M79.5,315.6c10.1,0,18.4,8.2,18.4,18.3c0,0,0-0.1,0-0.1c0-10.2-8.2-18.4-18.4-18.4S61,323.7,61,333.9
			c0,0,0,0.1,0,0.1C61.1,323.8,69.3,315.6,79.5,315.6z"/>
		<circle class="st49" cx="79.5" cy="333.9" r="11.1"/>
		<path class="st50" d="M79.5,322.9c6.1,0,11,4.9,11,11c0,0,0,0,0-0.1c0-6.1-4.9-11.1-11.1-11.1c-6.1,0-11.1,4.9-11.1,11.1
			c0,0,0,0,0,0.1C68.4,327.8,73.4,322.9,79.5,322.9z"/>
		<circle class="st51" cx="79.5" cy="333.9" r="4.5"/>
		<path class="st52" d="M79.5,329.5c2.5,0,4.4,2,4.5,4.4c0,0,0-0.1,0-0.1c0-2.5-2-4.5-4.5-4.5s-4.5,2-4.5,4.5c0,0,0,0.1,0,0.1
			C75,331.5,77,329.5,79.5,329.5z"/>
	</g>
	<linearGradient id="SVGID_1_" gradientUnits="userSpaceOnUse" x1="78.2645" y1="331.6025" x2="50.4123" y2="303.7504">
		<stop  offset="0" style="stop-color:#E6EEFF;stop-opacity:0"/>
		<stop  offset="0.9979" style="stop-color:#E6EEFF"/>
	</linearGradient>
	<circle class="st53" cx="73" cy="326.4" r="12"/>
	<linearGradient id="SVGID_2_" gradientUnits="userSpaceOnUse" x1="71.8238" y1="339.6652" x2="58.8779" y2="326.7193">
		<stop  offset="0" style="stop-color:#E6EEFF;stop-opacity:0"/>
		<stop  offset="0.9979" style="stop-color:#E6EEFF"/>
	</linearGradient>
	<circle class="st54" cx="69.4" cy="337.2" r="5.6"/>
	<linearGradient id="SVGID_3_" gradientUnits="userSpaceOnUse" x1="97.2496" y1="343.365" x2="89.1537" y2="335.2691">
		<stop  offset="0" style="stop-color:#E6EEFF;stop-opacity:0"/>
		<stop  offset="0.9979" style="stop-color:#E6EEFF"/>
	</linearGradient>
	<circle class="st55" cx="95.7" cy="341.8" r="3.5"/>
</g>
<g>
	<path class="st56" d="M443.9,427.4h-5.2c-2.8,0-5-2.3-5-5l0,0c0-2.8,2.3-5,5-5h5.2c2.8,0,5,2.3,5,5l0,0
		C448.9,425.2,446.6,427.4,443.9,427.4z"/>
	<path class="st57" d="M441.5,424.1l-1,3.4l-52.7,0.1c-0.9,0-1.7-0.7-1.7-1.7l0,0c0-0.9,0.7-1.7,1.7-1.7L441.5,424.1z"/>
	<path class="st58" d="M441.5,420.8l0,3.3l-53.7,0.1c-0.9,0-1.7-0.7-1.7-1.7l0,0c0-0.9,0.7-1.7,1.7-1.7L441.5,420.8z"/>
	<path class="st59" d="M440.5,417.4l1.1,3.3l-53.7,0.1c-0.9,0-1.7-0.7-1.7-1.7l0,0c0-0.9,0.7-1.7,1.7-1.7L440.5,417.4z"/>
	<g>
		<g>
			<path class="st60" d="M384.2,417.7l-12.9,4c-0.9,0.2-0.9,1.5,0,1.7l12.9,4l2.3-4.9L384.2,417.7z"/>
			<path class="st61" d="M438.7,424.1l-1,3.4l-52.7,0.1c-0.9,0-1.7-0.7-1.7-1.7l0,0c0-0.9,0.7-1.7,1.7-1.7L438.7,424.1z"/>
			<path class="st62" d="M438.7,420.8l0,3.3l-53.7,0.1c-0.9,0-1.7-0.7-1.7-1.7l0,0c0-0.9,0.7-1.7,1.7-1.7L438.7,420.8z"/>
			<path class="st63" d="M437.7,417.4l1.1,3.3l-53.7,0.1c-0.9,0-1.7-0.7-1.7-1.7l0,0c0-0.9,0.7-1.7,1.7-1.7L437.7,417.4z"/>
			<path class="st64" d="M371.1,423.4l6.3,1.8c0.3-0.6,0.6-1.9,0.6-2.7c0-0.8-0.2-1.8-0.5-2.4l-6.4,1.6
				C370.2,422,370.2,423.2,371.1,423.4z"/>
			<path class="st65" d="M371,422.5c-0.2,0-0.2,0.2,0.1,0.3l6.9,0.6c0.1-0.2,0.1-0.5,0-0.7L371,422.5z"/>
			<path class="st66" d="M371.1,421.8c-0.1,0-0.1,0-0.1,0.1c0,0,0,0,0,0c0,0-0.1,0-0.1,0.1c0,0,0,0,0,0c-0.1,0.1-0.1,0.1-0.2,0.2
				c0,0,0,0,0,0c0,0,0,0,0,0.1c0,0,0,0,0,0c0,0,0,0,0,0.1c0,0,0,0,0,0.1c0,0,0,0,0,0c0.1-0.1,0.3-0.3,0.5-0.3l6.8-1.1
				c-0.1-0.3-0.3-0.9-0.4-1.1L371.1,421.8z"/>
			<path class="st65" d="M383.3,425.9c0,0.9,0.8,1.7,1.7,1.7l52.7-0.1l0.5-1.7L383.3,425.9z"/>
			<path class="st65" d="M385,424.2l53.7-0.1l0-0.2l-54.4,0.1C384.5,424.2,384.8,424.2,385,424.2z"/>
			<path class="st65" d="M385,420.9l53.7-0.1l-0.1-0.2l-54.4,0.1C384.5,420.8,384.7,420.9,385,420.9z"/>
		</g>
		<path class="st65" d="M383.3,419.2c0,0.9,0.8,1.7,1.7,1.7l0.1,0c-0.9,0-1.7-0.7-1.7-1.7c0-0.9,0.7-1.7,1.7-1.7l-0.1,0
			C384.1,417.5,383.3,418.3,383.3,419.2z"/>
		<path class="st65" d="M383.3,422.6c0,0.9,0.8,1.7,1.7,1.7l0.1,0c-0.9,0-1.7-0.7-1.7-1.7c0-0.9,0.7-1.7,1.7-1.7l-0.1,0
			C384.1,420.9,383.3,421.6,383.3,422.6z"/>
		<path class="st65" d="M383.3,425.9c0,0.9,0.8,1.7,1.7,1.7l0.1,0c-0.9,0-1.7-0.7-1.7-1.7c0-0.9,0.7-1.7,1.7-1.7l-0.1,0
			C384.1,424.2,383.3,425,383.3,425.9z"/>
	</g>
</g>
<g>
	<g>
		<path class="st67" d="M274.7,207.4H78.5c-2.8,0-5.1-2.3-5.1-5.1V78.5c0-2.8,2.3-5.1,5.1-5.1h196.2c2.8,0,5.1,2.3,5.1,5.1v123.8
			C279.7,205.1,277.5,207.4,274.7,207.4z"/>
		<path class="st68" d="M274.7,206.7H78.5c-2.8,0-5.1-2.3-5.1-5.1v0.7c0,2.8,2.3,5.1,5.1,5.1h196.2c2.8,0,5.1-2.3,5.1-5.1v-0.7
			C279.7,204.4,277.5,206.7,274.7,206.7z"/>
		<path class="st69" d="M273.9,72.2H79.3c-3.2,0-5.9,2.6-5.9,5.9v1.2c0-3.2,2.6-5.9,5.9-5.9h194.6c3.2,0,5.9,2.6,5.9,5.9V78
			C279.7,74.8,277.1,72.2,273.9,72.2z"/>
		<path class="st69" d="M273.9,73.4H79.3c-3.2,0-5.9,2.6-5.9,5.9V95h206.3V79.3C279.7,76,277.1,73.4,273.9,73.4z"/>
		<path class="st70" d="M273.9,73.4H79.3c-3.2,0-5.9,2.6-5.9,5.9v0.2c0-3.2,2.6-5.9,5.9-5.9h194.6c3.2,0,5.9,2.6,5.9,5.9v-0.2
			C279.7,76,277.1,73.4,273.9,73.4z"/>
		<rect x="73.4" y="94.2" class="st70" width="206.3" height="0.9"/>
		<linearGradient id="SVGID_4_" gradientUnits="userSpaceOnUse" x1="81.7636" y1="150.9137" x2="271.8515" y2="150.9137">
			<stop  offset="0" style="stop-color:#190849"/>
			<stop  offset="1" style="stop-color:#300877"/>
		</linearGradient>
		<path class="st71" d="M267.7,200.3H85.9c-2.3,0-4.2-1.9-4.2-4.2v-90.4c0-2.3,1.9-4.2,4.2-4.2h181.7c2.3,0,4.2,1.9,4.2,4.2v90.4
			C271.9,198.4,270,200.3,267.7,200.3z"/>
		<circle class="st72" cx="85" cy="84.2" r="5.8"/>
		<path class="st70" d="M85,89.8c-3.2,0-5.8-2.6-5.8-5.7c0,0,0,0.1,0,0.1c0,3.2,2.6,5.8,5.8,5.8c3.2,0,5.8-2.6,5.8-5.8
			c0,0,0-0.1,0-0.1C90.8,87.3,88.2,89.8,85,89.8z"/>
		<circle class="st69" cx="85" cy="84.2" r="4.5"/>
		<circle class="st73" cx="85" cy="84.2" r="3.7"/>
		<path class="st74" d="M85,80.6c2,0,3.7,1.6,3.7,3.6c0,0,0,0,0-0.1c0-2-1.7-3.7-3.7-3.7c-2,0-3.7,1.7-3.7,3.7c0,0,0,0,0,0.1
			C81.3,82.3,83,80.6,85,80.6z"/>
		<circle class="st75" cx="85" cy="84.2" r="2.2"/>
		<path class="st74" d="M85,82.1c1.2,0,2.2,1,2.2,2.2c0,0,0,0,0-0.1c0-1.2-1-2.2-2.2-2.2c-1.2,0-2.2,1-2.2,2.2c0,0,0,0,0,0.1
			C82.8,83.1,83.8,82.1,85,82.1z"/>
		<circle class="st72" cx="101.9" cy="84.2" r="5.8"/>
		<path class="st70" d="M101.9,89.8c-3.2,0-5.8-2.6-5.8-5.7c0,0,0,0.1,0,0.1c0,3.2,2.6,5.8,5.8,5.8s5.8-2.6,5.8-5.8c0,0,0-0.1,0-0.1
			C107.7,87.3,105.1,89.8,101.9,89.8z"/>
		<circle class="st69" cx="101.9" cy="84.2" r="4.5"/>
		<circle class="st76" cx="101.9" cy="84.2" r="3.7"/>
		<path class="st77" d="M101.9,80.6c2,0,3.7,1.6,3.7,3.6c0,0,0,0,0-0.1c0-2-1.7-3.7-3.7-3.7s-3.7,1.7-3.7,3.7c0,0,0,0,0,0.1
			C98.2,82.3,99.9,80.6,101.9,80.6z"/>
		<circle class="st78" cx="101.9" cy="84.2" r="2.2"/>
		<path class="st79" d="M101.9,82.1c1.2,0,2.2,1,2.2,2.2c0,0,0,0,0-0.1c0-1.2-1-2.2-2.2-2.2s-2.2,1-2.2,2.2c0,0,0,0,0,0.1
			C99.7,83.1,100.7,82.1,101.9,82.1z"/>
		<circle class="st72" cx="118.8" cy="84.2" r="5.8"/>
		<path class="st70" d="M118.8,89.8c-3.2,0-5.8-2.6-5.8-5.7c0,0,0,0.1,0,0.1c0,3.2,2.6,5.8,5.8,5.8c3.2,0,5.8-2.6,5.8-5.8
			c0,0,0-0.1,0-0.1C124.6,87.3,122,89.8,118.8,89.8z"/>
		<circle class="st69" cx="118.8" cy="84.2" r="4.5"/>
		<circle class="st80" cx="118.8" cy="84.2" r="3.7"/>
		<path class="st81" d="M118.8,80.6c2,0,3.7,1.6,3.7,3.6c0,0,0,0,0-0.1c0-2-1.7-3.7-3.7-3.7c-2,0-3.7,1.7-3.7,3.7c0,0,0,0,0,0.1
			C115.2,82.3,116.8,80.6,118.8,80.6z"/>
		<circle class="st82" cx="118.8" cy="84.2" r="2.2"/>
		<path class="st81" d="M118.8,82.1c1.2,0,2.2,1,2.2,2.2c0,0,0,0,0-0.1c0-1.2-1-2.2-2.2-2.2c-1.2,0-2.2,1-2.2,2.2c0,0,0,0,0,0.1
			C116.6,83.1,117.6,82.1,118.8,82.1z"/>
		<polyline class="st83" points="91.8,107.3 87.2,111.9 91.8,116.4 		"/>
		<polyline class="st83" points="103.2,107.3 107.7,111.9 103.2,116.4 		"/>
		<line class="st83" x1="95.6" y1="117.2" x2="99.2" y2="107.3"/>
		<circle class="st84" cx="112.6" cy="117.3" r="1.3"/>
		<circle class="st84" cx="117.9" cy="117.3" r="1.3"/>
		<circle class="st84" cx="123.2" cy="117.3" r="1.3"/>
		<line class="st83" x1="89.5" y1="126.5" x2="226" y2="126.5"/>
		<line class="st83" x1="234.3" y1="126.5" x2="244.8" y2="126.5"/>
		<line class="st83" x1="250.8" y1="126.5" x2="264.2" y2="126.5"/>
		<line class="st85" x1="89.5" y1="137.2" x2="174.9" y2="137.2"/>
		<line class="st85" x1="187.6" y1="137.2" x2="202.9" y2="137.2"/>
		<line class="st85" x1="202.9" y1="143.4" x2="161.4" y2="143.4"/>
		<line class="st85" x1="155.7" y1="143.4" x2="147.3" y2="143.4"/>
		<line class="st85" x1="140.6" y1="143.4" x2="132.3" y2="143.4"/>
		<line class="st85" x1="125.6" y1="143.4" x2="117.2" y2="143.4"/>
		<line class="st85" x1="110.6" y1="143.4" x2="102.2" y2="143.4"/>
		<line class="st86" x1="231.7" y1="150.9" x2="102.2" y2="150.9"/>
		<line class="st85" x1="92.5" y1="143.4" x2="89.5" y2="143.4"/>
		<line class="st85" x1="92.5" y1="150.9" x2="89.5" y2="150.9"/>
		<line class="st85" x1="92.5" y1="158.4" x2="89.5" y2="158.4"/>
		<line class="st85" x1="92.5" y1="165.9" x2="89.5" y2="165.9"/>
		<line class="st86" x1="239.6" y1="150.9" x2="257.5" y2="150.9"/>
		<line class="st86" x1="101.9" y1="158.4" x2="137.7" y2="158.4"/>
		<line class="st86" x1="101.9" y1="166.1" x2="137.7" y2="166.1"/>
		<line class="st86" x1="101.9" y1="173.8" x2="137.7" y2="173.8"/>
		<line class="st86" x1="101.9" y1="181.5" x2="137.7" y2="181.5"/>
		<line class="st87" x1="161.4" y1="181.5" x2="234.3" y2="181.5"/>
		<line class="st87" x1="204.6" y1="173.8" x2="234.3" y2="173.8"/>
		<line class="st87" x1="222.5" y1="165.9" x2="234.3" y2="165.9"/>
	</g>
	<g>
		<g>
			<path class="st67" d="M392.7,283.3h-91.6c-2.9,0-5.2-2.3-5.2-5.2V129.8c0-2.9,2.3-5.2,5.2-5.2h91.6c2.9,0,5.2,2.3,5.2,5.2v148.3
				C397.9,281,395.6,283.3,392.7,283.3z"/>
			<path class="st88" d="M392.8,282.7h-91.8c-2.8,0-5.1-2.3-5.1-5.1v0.6c0,2.8,2.3,5.1,5.1,5.1h91.8c2.8,0,5.1-2.3,5.1-5.1v-0.6
				C397.9,280.4,395.6,282.7,392.8,282.7z"/>
			<path class="st69" d="M394,123.8h-94.1c-2.2,0-3.9,1.7-3.9,3.9v0.8c0-2.2,1.7-3.9,3.9-3.9H394c2.2,0,3.9,1.7,3.9,3.9v-0.8
				C397.9,125.6,396.2,123.8,394,123.8z"/>
			<path class="st69" d="M394,124.7h-94.1c-2.2,0-3.9,1.7-3.9,3.9V139h101.9v-10.5C397.9,126.4,396.2,124.7,394,124.7z"/>
			<path class="st70" d="M394,124.7h-94.1c-2.2,0-3.9,1.7-3.9,3.9v0.1c0-2.2,1.7-3.9,3.9-3.9H394c2.2,0,3.9,1.7,3.9,3.9v-0.1
				C397.9,126.4,396.2,124.7,394,124.7z"/>
			<rect x="296" y="138.5" class="st70" width="101.9" height="0.6"/>
			<linearGradient id="SVGID_5_" gradientUnits="userSpaceOnUse" x1="301.5437" y1="210.971" x2="392.6509" y2="210.971">
				<stop  offset="0" style="stop-color:#190849"/>
				<stop  offset="1" style="stop-color:#300877"/>
			</linearGradient>
			<path class="st89" d="M388.5,278.6h-82.7c-2.3,0-4.2-1.9-4.2-4.2V147.5c0-2.3,1.9-4.2,4.2-4.2h82.7c2.3,0,4.2,1.9,4.2,4.2v126.9
				C392.7,276.7,390.8,278.6,388.5,278.6z"/>
			<circle class="st72" cx="303.7" cy="131.9" r="3.9"/>
			<path class="st70" d="M303.7,135.6c-2.1,0-3.8-1.7-3.9-3.8c0,0,0,0,0,0.1c0,2.1,1.7,3.9,3.9,3.9s3.9-1.7,3.9-3.9c0,0,0,0,0-0.1
				C307.5,133.9,305.8,135.6,303.7,135.6z"/>
			<circle class="st69" cx="303.7" cy="131.9" r="3"/>
			<circle class="st73" cx="303.7" cy="131.9" r="2.5"/>
			<path class="st74" d="M303.7,129.5c1.3,0,2.4,1.1,2.5,2.4c0,0,0,0,0,0C306.1,130.5,305,129.4,303.7,129.5c-1.4-0.1-2.5,1-2.5,2.4
				c0,0,0,0,0,0C301.3,130.5,302.3,129.5,303.7,129.5z"/>
			<circle class="st75" cx="303.7" cy="131.9" r="1.5"/>
			<path class="st74" d="M303.7,130.4c0.8,0,1.5,0.6,1.5,1.4c0,0,0,0,0,0C305.2,131,304.5,130.4,303.7,130.4
				c-0.8-0.1-1.5,0.6-1.5,1.4c0,0,0,0,0,0C302.2,131.1,302.9,130.4,303.7,130.4z"/>
			<circle class="st72" cx="314.9" cy="131.9" r="3.9"/>
			<path class="st70" d="M314.9,135.6c-2.1,0-3.8-1.7-3.9-3.8c0,0,0,0,0,0.1c0,2.1,1.7,3.9,3.9,3.9c2.1,0,3.9-1.7,3.9-3.9
				c0,0,0,0,0-0.1C318.8,133.9,317.1,135.6,314.9,135.6z"/>
			<circle class="st69" cx="314.9" cy="131.9" r="3"/>
			<circle class="st76" cx="314.9" cy="131.9" r="2.5"/>
			<path class="st77" d="M314.9,129.5c1.3,0,2.4,1.1,2.5,2.4c0,0,0,0,0,0C317.4,130.5,316.3,129.4,314.9,129.5
				c-1.4-0.1-2.5,1-2.5,2.4c0,0,0,0,0,0C312.5,130.5,313.6,129.5,314.9,129.5z"/>
			<circle class="st78" cx="314.9" cy="131.9" r="1.5"/>
			<path class="st79" d="M314.9,130.4c0.8,0,1.5,0.6,1.5,1.4c0,0,0,0,0,0C316.4,131,315.8,130.4,314.9,130.4
				c-0.8-0.1-1.5,0.6-1.5,1.4c0,0,0,0,0,0C313.5,131.1,314.1,130.4,314.9,130.4z"/>
			<circle class="st72" cx="326.2" cy="131.9" r="3.9"/>
			<path class="st70" d="M326.2,135.6c-2.1,0-3.8-1.7-3.9-3.8c0,0,0,0,0,0.1c0,2.1,1.7,3.9,3.9,3.9c2.1,0,3.9-1.7,3.9-3.9
				c0,0,0,0,0-0.1C330,133.9,328.3,135.6,326.2,135.6z"/>
			<circle class="st69" cx="326.2" cy="131.9" r="3"/>
			<circle class="st80" cx="326.2" cy="131.9" r="2.5"/>
			<path class="st81" d="M326.2,129.5c1.3,0,2.4,1.1,2.5,2.4c0,0,0,0,0,0C328.7,130.5,327.5,129.4,326.2,129.5
				c-1.4-0.1-2.5,1-2.5,2.4c0,0,0,0,0,0C323.8,130.5,324.8,129.5,326.2,129.5z"/>
			<circle class="st82" cx="326.2" cy="131.9" r="1.5"/>
			<path class="st81" d="M326.2,130.4c0.8,0,1.5,0.6,1.5,1.4c0,0,0,0,0,0C327.7,131,327,130.4,326.2,130.4c-0.8-0.1-1.5,0.6-1.5,1.4
				c0,0,0,0,0,0C324.7,131.1,325.4,130.4,326.2,130.4z"/>
			<g>
				<path class="st84" d="M369.9,160.7h-63.2c-0.4,0-0.8-0.3-0.8-0.8c0-0.4,0.3-0.8,0.8-0.8h63.2c0.4,0,0.8,0.3,0.8,0.8
					C370.7,160.4,370.3,160.7,369.9,160.7z"/>
			</g>
			<g>
				<path class="st84" d="M380.1,160.7h-4.7c-0.4,0-0.8-0.3-0.8-0.8c0-0.4,0.3-0.8,0.8-0.8h4.7c0.4,0,0.8,0.3,0.8,0.8
					C380.9,160.4,380.5,160.7,380.1,160.7z"/>
			</g>
			<g>
				<path class="st84" d="M387.6,160.7H384c-0.4,0-0.8-0.3-0.8-0.8c0-0.4,0.3-0.8,0.8-0.8h3.5c0.4,0,0.8,0.3,0.8,0.8
					C388.3,160.4,388,160.7,387.6,160.7z"/>
			</g>
			<g>
				<path class="st90" d="M342.2,167.9h-35.5c-0.4,0-0.8-0.3-0.8-0.8c0-0.4,0.3-0.8,0.8-0.8h35.5c0.4,0,0.8,0.3,0.8,0.8
					C343,167.5,342.6,167.9,342.2,167.9z"/>
			</g>
			<g>
				<path class="st90" d="M354.5,167.9h-10.2c-0.4,0-0.8-0.3-0.8-0.8c0-0.4,0.3-0.8,0.8-0.8h10.2c0.4,0,0.8,0.3,0.8,0.8
					C355.3,167.5,355,167.9,354.5,167.9z"/>
			</g>
			<g>
				<path class="st90" d="M354.5,172h-6.3c-0.4,0-0.8-0.3-0.8-0.8c0-0.4,0.3-0.8,0.8-0.8h6.3c0.4,0,0.8,0.3,0.8,0.8
					C355.3,171.6,355,172,354.5,172z"/>
			</g>
			<g>
				<path class="st90" d="M345.1,172h-0.7c-0.4,0-0.8-0.3-0.8-0.8c0-0.4,0.3-0.8,0.8-0.8h0.7c0.4,0,0.8,0.3,0.8,0.8
					C345.9,171.6,345.6,172,345.1,172z"/>
			</g>
			<g>
				<path class="st90" d="M340.7,172h-5.6c-0.4,0-0.8-0.3-0.8-0.8c0-0.4,0.3-0.8,0.8-0.8h5.6c0.4,0,0.8,0.3,0.8,0.8
					C341.5,171.6,341.1,172,340.7,172z"/>
			</g>
			<g>
				<path class="st90" d="M330.7,172h-5.6c-0.4,0-0.8-0.3-0.8-0.8c0-0.4,0.3-0.8,0.8-0.8h5.6c0.4,0,0.8,0.3,0.8,0.8
					C331.5,171.6,331.1,172,330.7,172z"/>
			</g>
			<g>
				<path class="st90" d="M320.7,172h-5.6c-0.4,0-0.8-0.3-0.8-0.8c0-0.4,0.3-0.8,0.8-0.8h5.6c0.4,0,0.8,0.3,0.8,0.8
					C321.5,171.6,321.1,172,320.7,172z"/>
			</g>
			<g>
				<path class="st91" d="M373.7,177h-58.5c-0.4,0-0.8-0.3-0.8-0.8c0-0.4,0.3-0.8,0.8-0.8h58.5c0.4,0,0.8,0.3,0.8,0.8
					C374.4,176.6,374.1,177,373.7,177z"/>
			</g>
			<g>
				<path class="st90" d="M308.7,172h-2c-0.4,0-0.8-0.3-0.8-0.8c0-0.4,0.3-0.8,0.8-0.8h2c0.4,0,0.8,0.3,0.8,0.8
					C309.5,171.6,309.1,172,308.7,172z"/>
			</g>
			<g>
				<path class="st90" d="M308.7,177h-2c-0.4,0-0.8-0.3-0.8-0.8c0-0.4,0.3-0.8,0.8-0.8h2c0.4,0,0.8,0.3,0.8,0.8
					C309.5,176.6,309.1,177,308.7,177z"/>
			</g>
			<g>
				<path class="st90" d="M308.7,182h-2c-0.4,0-0.8-0.3-0.8-0.8c0-0.4,0.3-0.8,0.8-0.8h2c0.4,0,0.8,0.3,0.8,0.8
					C309.5,181.6,309.1,182,308.7,182z"/>
			</g>
			<g>
				<path class="st90" d="M308.7,187h-2c-0.4,0-0.8-0.3-0.8-0.8c0-0.4,0.3-0.8,0.8-0.8h2c0.4,0,0.8,0.3,0.8,0.8
					C309.5,186.6,309.1,187,308.7,187z"/>
			</g>
			<g>
				<path class="st91" d="M386.2,177h-7.3c-0.4,0-0.8-0.3-0.8-0.8c0-0.4,0.3-0.8,0.8-0.8h7.3c0.4,0,0.8,0.3,0.8,0.8
					C386.9,176.6,386.6,177,386.2,177z"/>
			</g>
			<g>
				<path class="st91" d="M338.8,182h-23.8c-0.4,0-0.8-0.3-0.8-0.8c0-0.4,0.3-0.8,0.8-0.8h23.8c0.4,0,0.8,0.3,0.8,0.8
					C339.5,181.6,339.2,182,338.8,182z"/>
			</g>
			<g>
				<path class="st92" d="M375.4,197.3h-27.2c-0.4,0-0.8-0.3-0.8-0.8c0-0.4,0.3-0.8,0.8-0.8h27.2c0.4,0,0.8,0.3,0.8,0.8
					C376.2,197,375.8,197.3,375.4,197.3z"/>
			</g>
			<g>
				<path class="st92" d="M375.4,192.2h-19.7c-0.4,0-0.8-0.3-0.8-0.8c0-0.4,0.3-0.8,0.8-0.8h19.7c0.4,0,0.8,0.3,0.8,0.8
					C376.2,191.9,375.8,192.2,375.4,192.2z"/>
			</g>
			<g>
				<path class="st92" d="M375.4,187h-7.8c-0.4,0-0.8-0.3-0.8-0.8c0-0.4,0.3-0.8,0.8-0.8h7.8c0.4,0,0.8,0.3,0.8,0.8
					C376.2,186.6,375.8,187,375.4,187z"/>
			</g>
		</g>
		<g>
			<path class="st91" d="M335.1,153.8h-28.4c-0.4,0-0.8-0.3-0.8-0.8c0-0.4,0.3-0.8,0.8-0.8h28.4c0.4,0,0.8,0.3,0.8,0.8
				C335.9,153.4,335.6,153.8,335.1,153.8z"/>
		</g>
		<g>
			<path class="st92" d="M353.6,209.5h-46.9c-0.4,0-0.8-0.3-0.8-0.8c0-0.4,0.3-0.8,0.8-0.8h46.9c0.4,0,0.8,0.3,0.8,0.8
				C354.4,209.1,354,209.5,353.6,209.5z"/>
		</g>
		<g>
			<path class="st92" d="M353.6,215.6h-46.9c-0.4,0-0.8-0.3-0.8-0.8c0-0.4,0.3-0.8,0.8-0.8h46.9c0.4,0,0.8,0.3,0.8,0.8
				C354.4,215.3,354,215.6,353.6,215.6z"/>
		</g>
		<g>
			<path class="st92" d="M353.6,221.8h-46.9c-0.4,0-0.8-0.3-0.8-0.8s0.3-0.8,0.8-0.8h46.9c0.4,0,0.8,0.3,0.8,0.8
				S354,221.8,353.6,221.8z"/>
		</g>
		<g>
			<path class="st92" d="M353.6,258.6h-46.9c-0.4,0-0.8-0.3-0.8-0.8s0.3-0.8,0.8-0.8h46.9c0.4,0,0.8,0.3,0.8,0.8
				S354,258.6,353.6,258.6z"/>
		</g>
		<g>
			<path class="st84" d="M363.6,202.3h-12.8c-0.4,0-0.8-0.3-0.8-0.8c0-0.4,0.3-0.8,0.8-0.8h12.8c0.4,0,0.8,0.3,0.8,0.8
				C364.4,202,364,202.3,363.6,202.3z"/>
		</g>
		<g>
			<path class="st84" d="M387.6,202.3h-17.7c-0.4,0-0.8-0.3-0.8-0.8c0-0.4,0.3-0.8,0.8-0.8h17.7c0.4,0,0.8,0.3,0.8,0.8
				C388.3,202,388,202.3,387.6,202.3z"/>
		</g>
		<g>
			<path class="st84" d="M387.6,209.5h-17.7c-0.4,0-0.8-0.3-0.8-0.8c0-0.4,0.3-0.8,0.8-0.8h17.7c0.4,0,0.8,0.3,0.8,0.8
				C388.3,209.1,388,209.5,387.6,209.5z"/>
		</g>
		<g>
			<path class="st84" d="M312.5,267.9h-5.8c-0.4,0-0.8-0.3-0.8-0.8s0.3-0.8,0.8-0.8h5.8c0.4,0,0.8,0.3,0.8,0.8
				S312.9,267.9,312.5,267.9z"/>
		</g>
		<g>
			<path class="st84" d="M312.5,272.6h-5.8c-0.4,0-0.8-0.3-0.8-0.8s0.3-0.8,0.8-0.8h5.8c0.4,0,0.8,0.3,0.8,0.8
				S312.9,272.6,312.5,272.6z"/>
		</g>
		<g>
			<path class="st84" d="M359.5,272.6h-43.5c-0.4,0-0.8-0.3-0.8-0.8s0.3-0.8,0.8-0.8h43.5c0.4,0,0.8,0.3,0.8,0.8
				S359.9,272.6,359.5,272.6z"/>
		</g>
		<g>
			<path class="st84" d="M323.8,267.9H318c-0.4,0-0.8-0.3-0.8-0.8s0.3-0.8,0.8-0.8h5.8c0.4,0,0.8,0.3,0.8,0.8
				S324.2,267.9,323.8,267.9z"/>
		</g>
		<g>
			<path class="st84" d="M335.1,267.9h-5.8c-0.4,0-0.8-0.3-0.8-0.8s0.3-0.8,0.8-0.8h5.8c0.4,0,0.8,0.3,0.8,0.8
				S335.6,267.9,335.1,267.9z"/>
		</g>
		<g>
			<path class="st84" d="M346.5,267.9h-5.8c-0.4,0-0.8-0.3-0.8-0.8s0.3-0.8,0.8-0.8h5.8c0.4,0,0.8,0.3,0.8,0.8
				S346.9,267.9,346.5,267.9z"/>
		</g>
		<g>
			<path class="st84" d="M357.8,267.9H352c-0.4,0-0.8-0.3-0.8-0.8s0.3-0.8,0.8-0.8h5.8c0.4,0,0.8,0.3,0.8,0.8
				S358.2,267.9,357.8,267.9z"/>
		</g>
		<g>
			<path class="st84" d="M369.1,267.9h-5.8c-0.4,0-0.8-0.3-0.8-0.8s0.3-0.8,0.8-0.8h5.8c0.4,0,0.8,0.3,0.8,0.8
				S369.5,267.9,369.1,267.9z"/>
		</g>
		<g>
			<path class="st84" d="M378.1,267.9h-3.5c-0.4,0-0.8-0.3-0.8-0.8s0.3-0.8,0.8-0.8h3.5c0.4,0,0.8,0.3,0.8,0.8
				S378.6,267.9,378.1,267.9z"/>
		</g>
	</g>
	<g>
		<g>
			<path class="st67" d="M433.9,152.2h-72c-1.7,0-3.2-1.4-3.2-3.2V83.5c0-1.7,1.4-3.2,3.2-3.2h72c1.7,0,3.2,1.4,3.2,3.2V149
				C437.1,150.8,435.7,152.2,433.9,152.2z"/>
			<path class="st69" d="M434.1,79.7h-72.3c-1.7,0-3,1.3-3,3v0.6c0-1.7,1.3-3,3-3h72.3c1.7,0,3,1.3,3,3v-0.6
				C437.1,81.1,435.7,79.7,434.1,79.7z"/>
			<path class="st69" d="M434.1,80.4h-72.3c-1.7,0-3,1.3-3,3v8h78.3v-8C437.1,81.7,435.7,80.4,434.1,80.4z"/>
			<path class="st70" d="M434.1,80.4h-72.3c-1.7,0-3,1.3-3,3v0.1c0-1.7,1.3-3,3-3h72.3c1.7,0,3,1.3,3,3v-0.1
				C437.1,81.7,435.7,80.4,434.1,80.4z"/>
			<rect x="358.7" y="91" class="st70" width="78.3" height="0.4"/>
			<linearGradient id="SVGID_6_" gradientUnits="userSpaceOnUse" x1="363.0037" y1="121.6687" x2="433.0308" y2="121.6687">
				<stop  offset="0" style="stop-color:#190849"/>
				<stop  offset="1" style="stop-color:#300877"/>
			</linearGradient>
			<path class="st93" d="M430.6,148.6h-65.2c-1.3,0-2.4-1.1-2.4-2.4v-49c0-1.3,1.1-2.4,2.4-2.4h65.2c1.3,0,2.4,1.1,2.4,2.4v49
				C433,147.5,432,148.6,430.6,148.6z"/>
			<circle class="st72" cx="364.7" cy="85.9" r="3"/>
			<path class="st70" d="M364.7,88.8c-1.6,0-2.9-1.3-3-2.9c0,0,0,0,0,0.1c0,1.6,1.3,3,3,3c1.6,0,3-1.3,3-3c0,0,0,0,0-0.1
				C367.6,87.5,366.3,88.8,364.7,88.8z"/>
			<circle class="st69" cx="364.7" cy="85.9" r="2.3"/>
			<circle class="st73" cx="364.7" cy="85.9" r="1.9"/>
			<path class="st74" d="M364.7,84.1c1,0,1.9,0.8,1.9,1.9c0,0,0,0,0,0C366.5,84.9,365.7,84,364.7,84.1c-1-0.1-1.9,0.8-1.9,1.8
				c0,0,0,0,0,0C362.8,84.9,363.6,84.1,364.7,84.1z"/>
			<circle class="st75" cx="364.7" cy="85.9" r="1.1"/>
			<path class="st74" d="M364.7,84.8c0.6,0,1.1,0.5,1.1,1.1c0,0,0,0,0,0C365.8,85.3,365.3,84.8,364.7,84.8c-0.6-0.1-1.1,0.5-1.1,1.1
				c0,0,0,0,0,0C363.5,85.3,364,84.8,364.7,84.8z"/>
			<circle class="st72" cx="373.3" cy="85.9" r="3"/>
			<path class="st70" d="M373.3,88.8c-1.6,0-2.9-1.3-3-2.9c0,0,0,0,0,0.1c0,1.6,1.3,3,3,3s3-1.3,3-3c0,0,0,0,0-0.1
				C376.2,87.5,374.9,88.8,373.3,88.8z"/>
			<circle class="st69" cx="373.3" cy="85.9" r="2.3"/>
			<circle class="st76" cx="373.3" cy="85.9" r="1.9"/>
			<path class="st77" d="M373.3,84.1c1,0,1.9,0.8,1.9,1.9c0,0,0,0,0,0C375.2,84.9,374.3,84,373.3,84.1c-1-0.1-1.9,0.8-1.9,1.8
				c0,0,0,0,0,0C371.4,84.9,372.3,84.1,373.3,84.1z"/>
			<circle class="st78" cx="373.3" cy="85.9" r="1.1"/>
			<path class="st79" d="M373.3,84.8c0.6,0,1.1,0.5,1.1,1.1c0,0,0,0,0,0C374.4,85.3,373.9,84.8,373.3,84.8c-0.6-0.1-1.1,0.5-1.1,1.1
				c0,0,0,0,0,0C372.2,85.3,372.7,84.8,373.3,84.8z"/>
			<circle class="st72" cx="381.9" cy="85.9" r="3"/>
			<path class="st70" d="M381.9,88.8c-1.6,0-2.9-1.3-3-2.9c0,0,0,0,0,0.1c0,1.6,1.3,3,3,3c1.6,0,3-1.3,3-3c0,0,0,0,0-0.1
				C384.9,87.5,383.6,88.8,381.9,88.8z"/>
			<circle class="st69" cx="381.9" cy="85.9" r="2.3"/>
			<circle class="st80" cx="381.9" cy="85.9" r="1.9"/>
			<path class="st81" d="M381.9,84.1c1,0,1.9,0.8,1.9,1.9c0,0,0,0,0,0C383.8,84.9,383,84,381.9,84.1c-1-0.1-1.9,0.8-1.9,1.8
				c0,0,0,0,0,0C380.1,84.9,380.9,84.1,381.9,84.1z"/>
			<circle class="st82" cx="381.9" cy="85.9" r="1.1"/>
			<path class="st81" d="M381.9,84.8c0.6,0,1.1,0.5,1.1,1.1c0,0,0,0,0,0C383.1,85.3,382.6,84.8,381.9,84.8c-0.6-0.1-1.1,0.5-1.1,1.1
				c0,0,0,0,0,0C380.8,85.3,381.3,84.8,381.9,84.8z"/>
			<g>
				<path class="st84" d="M415.5,108.1H367c-0.3,0-0.6-0.3-0.6-0.6c0-0.3,0.3-0.6,0.6-0.6h48.6c0.3,0,0.6,0.3,0.6,0.6
					C416.1,107.8,415.9,108.1,415.5,108.1z"/>
			</g>
			<g>
				<path class="st84" d="M423.4,108.1h-3.6c-0.3,0-0.6-0.3-0.6-0.6c0-0.3,0.3-0.6,0.6-0.6h3.6c0.3,0,0.6,0.3,0.6,0.6
					C424,107.8,423.7,108.1,423.4,108.1z"/>
			</g>
			<g>
				<path class="st84" d="M429.1,108.1h-2.7c-0.3,0-0.6-0.3-0.6-0.6c0-0.3,0.3-0.6,0.6-0.6h2.7c0.3,0,0.6,0.3,0.6,0.6
					C429.7,107.8,429.4,108.1,429.1,108.1z"/>
			</g>
			<g>
				<path class="st90" d="M394.2,113.6H367c-0.3,0-0.6-0.3-0.6-0.6s0.3-0.6,0.6-0.6h27.3c0.3,0,0.6,0.3,0.6,0.6
					S394.6,113.6,394.2,113.6z"/>
			</g>
			<g>
				<path class="st90" d="M403.7,113.6h-7.8c-0.3,0-0.6-0.3-0.6-0.6s0.3-0.6,0.6-0.6h7.8c0.3,0,0.6,0.3,0.6,0.6
					S404.1,113.6,403.7,113.6z"/>
			</g>
			<g>
				<path class="st90" d="M403.7,116.8h-4.9c-0.3,0-0.6-0.3-0.6-0.6s0.3-0.6,0.6-0.6h4.9c0.3,0,0.6,0.3,0.6,0.6
					S404.1,116.8,403.7,116.8z"/>
			</g>
			<g>
				<path class="st90" d="M396.5,116.8h-0.6c-0.3,0-0.6-0.3-0.6-0.6s0.3-0.6,0.6-0.6h0.6c0.3,0,0.6,0.3,0.6,0.6
					S396.8,116.8,396.5,116.8z"/>
			</g>
			<g>
				<path class="st90" d="M393.1,116.8h-4.3c-0.3,0-0.6-0.3-0.6-0.6s0.3-0.6,0.6-0.6h4.3c0.3,0,0.6,0.3,0.6,0.6
					S393.4,116.8,393.1,116.8z"/>
			</g>
			<g>
				<path class="st90" d="M385.4,116.8h-4.3c-0.3,0-0.6-0.3-0.6-0.6s0.3-0.6,0.6-0.6h4.3c0.3,0,0.6,0.3,0.6,0.6
					S385.7,116.8,385.4,116.8z"/>
			</g>
			<g>
				<path class="st90" d="M377.7,116.8h-4.3c-0.3,0-0.6-0.3-0.6-0.6s0.3-0.6,0.6-0.6h4.3c0.3,0,0.6,0.3,0.6,0.6
					S378.1,116.8,377.7,116.8z"/>
			</g>
			<g>
				<path class="st91" d="M418.4,120.6h-45c-0.3,0-0.6-0.3-0.6-0.6s0.3-0.6,0.6-0.6h45c0.3,0,0.6,0.3,0.6,0.6
					S418.8,120.6,418.4,120.6z"/>
			</g>
			<g>
				<path class="st90" d="M368.5,116.8H367c-0.3,0-0.6-0.3-0.6-0.6s0.3-0.6,0.6-0.6h1.5c0.3,0,0.6,0.3,0.6,0.6
					S368.8,116.8,368.5,116.8z"/>
			</g>
			<g>
				<path class="st90" d="M368.5,120.6H367c-0.3,0-0.6-0.3-0.6-0.6s0.3-0.6,0.6-0.6h1.5c0.3,0,0.6,0.3,0.6,0.6
					S368.8,120.6,368.5,120.6z"/>
			</g>
			<g>
				<path class="st90" d="M368.5,124.4H367c-0.3,0-0.6-0.3-0.6-0.6s0.3-0.6,0.6-0.6h1.5c0.3,0,0.6,0.3,0.6,0.6
					S368.8,124.4,368.5,124.4z"/>
			</g>
			<g>
				<path class="st91" d="M428,120.6h-5.6c-0.3,0-0.6-0.3-0.6-0.6s0.3-0.6,0.6-0.6h5.6c0.3,0,0.6,0.3,0.6,0.6S428.4,120.6,428,120.6
					z"/>
			</g>
			<g>
				<path class="st91" d="M391.6,124.4h-18.3c-0.3,0-0.6-0.3-0.6-0.6s0.3-0.6,0.6-0.6h18.3c0.3,0,0.6,0.3,0.6,0.6
					S391.9,124.4,391.6,124.4z"/>
			</g>
			<g>
				<path class="st92" d="M419.8,129.5h-20.9c-0.3,0-0.6-0.3-0.6-0.6s0.3-0.6,0.6-0.6h20.9c0.3,0,0.6,0.3,0.6,0.6
					S420.1,129.5,419.8,129.5z"/>
			</g>
			<g>
				<path class="st92" d="M419.8,126.8h-6c-0.3,0-0.6-0.3-0.6-0.6s0.3-0.6,0.6-0.6h6c0.3,0,0.6,0.3,0.6,0.6S420.1,126.8,419.8,126.8
					z"/>
			</g>
		</g>
		<g>
			<path class="st91" d="M388.8,102.8H367c-0.3,0-0.6-0.3-0.6-0.6s0.3-0.6,0.6-0.6h21.9c0.3,0,0.6,0.3,0.6,0.6
				S389.1,102.8,388.8,102.8z"/>
		</g>
		<g>
			<path class="st92" d="M403,140.2h-36c-0.3,0-0.6-0.3-0.6-0.6s0.3-0.6,0.6-0.6h36c0.3,0,0.6,0.3,0.6,0.6S403.3,140.2,403,140.2z"
				/>
		</g>
		<g>
			<path class="st84" d="M410.7,133.3h-9.8c-0.3,0-0.6-0.3-0.6-0.6s0.3-0.6,0.6-0.6h9.8c0.3,0,0.6,0.3,0.6,0.6
				S411,133.3,410.7,133.3z"/>
		</g>
		<g>
			<path class="st84" d="M429.1,133.3h-13.6c-0.3,0-0.6-0.3-0.6-0.6s0.3-0.6,0.6-0.6h13.6c0.3,0,0.6,0.3,0.6,0.6
				S429.4,133.3,429.1,133.3z"/>
		</g>
		<g>
			<path class="st84" d="M429.1,138.8h-13.6c-0.3,0-0.6-0.3-0.6-0.6s0.3-0.6,0.6-0.6h13.6c0.3,0,0.6,0.3,0.6,0.6
				S429.4,138.8,429.1,138.8z"/>
		</g>
		<g>
			<path class="st84" d="M371.4,144H367c-0.3,0-0.6-0.3-0.6-0.6s0.3-0.6,0.6-0.6h4.4c0.3,0,0.6,0.3,0.6,0.6S371.7,144,371.4,144z"/>
		</g>
		<g>
			<path class="st84" d="M407.5,144h-33.4c-0.3,0-0.6-0.3-0.6-0.6s0.3-0.6,0.6-0.6h33.4c0.3,0,0.6,0.3,0.6,0.6S407.8,144,407.5,144z
				"/>
		</g>
	</g>
</g>
</svg>
