<?xml version="1.0" encoding="utf-8"?>
<!-- Generator: Adobe Illustrator 22.0.1, SVG Export Plug-In . SVG Version: 6.00 Build 0)  -->
<svg version="1.1" id="Layer_1" xmlns="http://www.w3.org/2000/svg" xmlns:xlink="http://www.w3.org/1999/xlink" x="0px" y="0px"
	 viewBox="0 0 468 444" style="enable-background:new 0 0 468 444;" xml:space="preserve">
<style type="text/css">
	.st0{fill:#9DAAD3;}
	.st1{fill:#561136;}
	.st2{fill:#151F34;}
	.st3{fill:#E69376;}
	.st4{fill:#1A2652;}
	.st5{fill:#F6A382;}
	.st6{fill:#E0856E;}
	.st7{fill:#1E2732;}
	.st8{fill:#6651A1;}
	.st9{fill:#161F29;}
	.st10{fill:#2C3C70;}
	.st11{fill:#F79F7D;}
	.st12{fill:#E98A6F;}
	.st13{fill:#3B2314;}
	.st14{fill:#FFFFFF;}
	.st15{enable-background:new    ;}
	.st16{fill:#0092C5;}
	.st17{fill:#3DAEE3;}
	.st18{fill:#80BAE5;}
	.st19{fill:#7C284B;}
	.st20{fill:#A0426E;}
	.st21{fill:#CB4E7E;}
	.st22{fill:#17181C;}
	.st23{fill:#104473;}
	.st24{fill:#065098;}
	.st25{fill:#862952;}
	.st26{fill:#260F00;}
	.st27{fill:#394572;}
	.st28{fill:#424887;}
	.st29{fill:#5760AA;}
	.st30{fill:#6174B7;}
	.st31{fill:#053B6B;}
	.st32{fill:#007FA2;}
	.st33{fill:#030308;}
	.st34{fill:#30528A;}
	.st35{fill:#FFD37C;}
	.st36{fill:#3F1900;}
	.st37{fill:#004E88;}
	.st38{fill:#0061A2;}
	.st39{fill:#196EAA;}
	.st40{fill:#4F1531;}
	.st41{fill:#00468A;}
	.st42{fill:#0058A8;}
	.st43{fill:#340E07;}
	.st44{fill:#F3B68E;}
	.st45{fill:#F7B68D;}
	.st46{fill:#DC9D7E;}
	.st47{fill:#E6E7E8;}
	.st48{fill:#7EC68C;}
	.st49{fill:#F28CB5;}
	.st50{fill:#97C3E8;}
	.st51{fill:#A3DDF5;}
	.st52{fill:none;stroke:#699ED4;stroke-width:12.4726;stroke-miterlimit:10;}
	.st53{fill:none;stroke:#699ED4;stroke-width:13.462;stroke-miterlimit:10;}
</style>
<g>
	<g>
		<g>
			<path class="st0" d="M268.3,264.2l-61.9-26l-48.3,32.6l25.6,10.8c-0.6,0.5-1.5,1-1.7,1.1c-0.9,0.4-2,0.7-3.2,0.9
				c-2.2,0.4-4.8,0.3-6.3,1.4c-2.4,1.6-0.5,4.6,4.2,6.7c0.1,0.1,0.3,0.1,0.4,0.2c5,2.1,11.1,2.5,13.6,0.8c2-1.4,0.5-3.5,1.7-5.1
				c0.1-0.1,1.1-1,2-1.5l25.6,10.8l20-13.5c-0.1,0-0.2-0.1-0.3-0.1c-1-0.4-2.4-0.9-2.6-1c-3-0.7-7,0.1-9.6-0.9
				c-3.2-1.4-2.5-4.6,1.4-7.2c3.9-2.6,9.7-3.7,12.8-2.4c2,0.9,1.9,2.3,2.7,3.4c0.4,0.6,1,1.2,1.8,1.7c0.1,0.1,0.5,0.2,0.9,0.4
				c0.4,0.2,0.8,0.4,1.2,0.5L268.3,264.2z"/>
		</g>
		<path class="st0" d="M202.6,355.7c-1.6-1.1-4.3-1-6.4-1.4c-1.1-0.2-2.3-0.5-3.2-0.9c-0.2-0.1-1.2-0.7-1.8-1.1l26.1-11l-20.3-13.7
			c0.1,0,0.2-0.1,0.3-0.1c1-0.4,2.4-0.9,2.7-1c3-0.7,7.1,0.1,9.8-1c3.1-1.4,2.4-4.6-1.5-7.3c-4-2.7-9.8-3.8-13.2-2.4
			c-1.9,0.8-1.8,2.2-2.6,3.4c-0.4,0.6-1,1.2-1.8,1.7c-0.1,0.1-0.5,0.2-0.9,0.4c-0.4,0.2-0.8,0.4-1.3,0.5l-20.3-13.7l-62.9,26.5
			l49.1,33.1l26-11c0.9,0.5,1.9,1.4,2,1.5c1.2,1.6-0.4,3.8,1.7,5.2c2.5,1.7,8.7,1.3,13.8-0.8c0.1-0.1,0.3-0.1,0.4-0.2
			C203.1,360.3,205,357.3,202.6,355.7z"/>
		<g>
			<path class="st0" d="M251.2,293.9l26-11c0.9,0.5,1.9,1.4,2,1.5c1.2,1.6-0.4,3.8,1.7,5.2c2.5,1.7,8.7,1.3,13.8-0.8
				c0.1-0.1,0.3-0.1,0.4-0.2c4.8-2.1,6.7-5.1,4.3-6.8c-1.6-1.1-4.3-1-6.4-1.4c-1.1-0.2-2.3-0.5-3.2-0.9c-0.2-0.1-1.2-0.7-1.8-1.1
				l26.1-11l49.1,33.1l-62.9,26.5L280,313.4c0.1,0,0.2-0.1,0.3-0.1c1-0.4,2.5-0.9,2.7-1c3-0.7,7.1,0.1,9.7-1
				c3.2-1.4,2.6-4.7-1.4-7.3c-4-2.7-9.8-3.8-13.1-2.4c-2,0.9-1.9,2.3-2.7,3.4c-0.4,0.6-1,1.2-1.8,1.7c-0.1,0.1-0.5,0.2-0.9,0.4
				c-0.4,0.2-0.8,0.4-1.2,0.5L251.2,293.9z"/>
		</g>
		<g>
			<g>
				<path class="st0" d="M335.1,365.9l-25.6-10.8c-0.9,0.5-1.9,1.4-2,1.5c-1.2,1.6,0.3,3.7-1.7,5.1c-2.5,1.7-8.6,1.3-13.6-0.8
					c-0.1-0.1-0.3-0.1-0.4-0.2c-4.7-2.1-6.6-5.1-4.2-6.7c1.5-1,4.2-1,6.3-1.4c1.1-0.2,2.3-0.5,3.2-0.9c0.2-0.1,1.2-0.6,1.7-1.1
					l-25.6-10.8l-20,13.5c-0.4-0.1-0.9-0.3-1.2-0.5c-0.5-0.2-0.8-0.4-0.9-0.4c-0.8-0.5-1.4-1.1-1.8-1.7c-0.8-1.1-0.7-2.5-2.6-3.3
					c-3.3-1.4-9-0.3-12.9,2.3c-3.9,2.6-4.5,5.8-1.5,7.2c2.7,1.1,6.7,0.3,9.7,1c0.2,0,1.6,0.5,2.6,1c0.1,0,0.2,0.1,0.3,0.1l-20,13.5
					l61.9,26L335.1,365.9z"/>
			</g>
		</g>
	</g>
</g>
<g>
	<g>
		<path class="st0" d="M189.5,259.3c0,8.7-15.8,15.7-35.4,15.7c-19.5,0-35.4-7-35.4-15.7c0-8.7,15.8-15.7,35.4-15.7
			C173.6,243.6,189.5,250.6,189.5,259.3z"/>
		<g>
			<g>
				<polygon class="st1" points="163.6,258.3 164.2,258.2 164.8,253.3 163.3,251.5 				"/>
				<g>
					<polygon class="st2" points="162.9,257.9 163.6,258.3 163.5,250.3 162.3,250 					"/>
					<g>
						<path class="st3" d="M168.3,247.8l1.3,4.3c0,0,1.8,4.1,3.2,5.7c0,0,2.6,3.6-2.3,3.4c0,0-5.2-0.3-5.1-3.6
							c0.1-2.9-2.6-6.5-2.6-6.5c-1-1.7,0-3.1,0.3-3.4l0.9-1l4.4-0.8L168.3,247.8z"/>
						<path class="st2" d="M173.1,259.2c-2.2,0.4-4.4-0.4-5.7-1.7c-1.4-1.3-2.9-6.2-2.4-4.6c0.2,0.7-1.4-5.3-1-6.2l-0.9,1
							c-0.3,0.4-1.4,1.8-0.4,3.5c0,0,2.7,3.5,2.7,6.4c-0.1,3.4,5.1,3.6,5.1,3.6c2.9,0.1,3.2-1.1,2.9-2.1
							C173.3,259.1,173.2,259.2,173.1,259.2z"/>
						<path class="st2" d="M175.5,260.6c0,0,0.7,1.4-1.6,1.4c0,0-8.8-0.6-8.8-4.3l0-3c0,0,0.7,4.3,6.1,4.3c0,0,2.4,0,1.2-1.5
							L175.5,260.6z"/>
					</g>
				</g>
			</g>
			<g>
				<path class="st4" d="M161.4,57.5c0,3.2-2.6,5.8-5.8,5.8s-5.8-2.6-5.8-5.8c0-3.2,2.6-5.8,5.8-5.8S161.4,54.2,161.4,57.5z"/>
				<path class="st5" d="M159.8,84.4h11.5c-0.5-1.7-1.6-6,0.1-9l-11.6-7.6C159.7,67.8,161.8,80.6,159.8,84.4z"/>
				<path class="st6" d="M161.1,77.2c0.7,1.8,1.8,2.6,3.6,3.2c2,0.6,3.9,0.8,5.8,0.4c-0.2-1.8-0.1-3.8,0.8-5.4l-11.6-7.6
					c0,0,0.6,3.9,0.9,8C160.7,76.3,160.9,76.7,161.1,77.2z"/>
				<path class="st5" d="M173.6,78.1l0.6-1.7l1.5-5.1c0.2-0.8,0.3-1.9,0-2.7c-0.3-0.9-0.6-2.5-0.2-4.2c0.9-4.6-1.1-7-1.1-7
					c-2.7-4.3-9.1-4.2-9.1-4.2c-7.9,0.4-8.5,8-8.5,8c-1.3,5.1,2.8,9.3,2.8,9.3c0.5,0.5,0.6,1.4,0.8,2.1c0.3,0.7,0.7,1.4,1.2,1.9
					c1.1,1.3,2.6,2.5,4,3.2c1.4,0.7,4.1,1.5,6.1,1.4C172.4,79.1,173.2,79.1,173.6,78.1z"/>
				<g>
					<polygon class="st1" points="136.7,259.2 137.3,259.3 139.4,254.8 138.6,252.6 					"/>
					<g>
						<polygon class="st2" points="136.2,258.6 136.7,259.2 139.2,251.6 138.1,250.9 						"/>
						<g>
							<path class="st5" d="M144.5,250.8c-0.1,3.6-0.4,7.6,1.1,10.9c0,0,1.3,4.2-3.2,2.4c0,0-4.9-1.9-3.7-5.1c1-2.7-0.4-7-0.4-7
								c-0.4-1.9,1-2.9,1.4-3.2l1.2-0.7h4.6L144.5,250.8z"/>
							<path class="st2" d="M145.4,263.1c-2.2-0.3-4-1.8-4.8-3.5c-0.9-1.7-0.8-6.8-0.8-5.1c0,0.7,0.4-5.5,1.1-6.2l-1.2,0.7
								c-0.4,0.3-1.9,1.3-1.5,3.2c0,0,1.5,4.2,0.5,6.9c-1.2,3.2,3.7,5.1,3.7,5.1c2.7,1.1,3.4,0,3.4-1.1
								C145.6,263.1,145.5,263.1,145.4,263.1z"/>
							<path class="st2" d="M147.3,265.2c0,0,0.3,1.6-2,0.8c0,0-8.1-3.3-6.9-6.9l1-2.9c0,0-0.7,4.3,4.4,6.1c0,0,2.3,0.8,1.6-1.1
								L147.3,265.2z"/>
						</g>
					</g>
				</g>
				<path class="st5" d="M149.6,197.6c-5.8,10.8-6.9,15.2-7.9,23.3c-0.6,4.8-0.4,24.8-1,27.8c-0.3,1.2,4.5,0.6,4.5,0.6
					c0.9-2.1,14.6-48.2,14.6-48.2s1.5-4.8,0.3-5.6C153.5,191.3,152.1,192.9,149.6,197.6z"/>
				<path class="st7" d="M145.2,250.3c0.9-2.1,14.5-49.2,14.5-49.2s1.5-4.8,0.3-5.6c-6.4-4.2-7.8-2.6-10.4,2.1
					c-5.8,10.8-6.9,15.2-7.9,23.3c-0.6,4.8-1.6,24.1-2.2,27.1C139.4,248.1,142.9,252.2,145.2,250.3z"/>
				<path class="st7" d="M175.7,119.7c0,0,4.5,19,3.9,21c-1.7,6-17.8,14.3-32.5,2.1c0,0,3.4-14,10.3-25.9
					C157.4,117,160,119.6,175.7,119.7z"/>
				<path class="st8" d="M173.4,81.2c0,0,5.9,11.3,8.5,17.6c-1.1,7.3-5.1,18.1-6.7,20.4c-3.5,5-19.4,0.5-19.4,0.5l-4.6-15.4
					c13.4-4.8,6.4-19,6.4-19l2.1-1.3c0,0,2.1,7,10.9,6.7c0,0,2.9-1.9,0.8-9.8C171.3,80.9,172.6,81,173.4,81.2z"/>
				<path class="st3" d="M158.8,145.9c0,0,1.5,30.6,7.2,47.1c0.8,2.5,10.5-0.8,10.5-0.8s4.9-26.3,4.6-37.2
					c-0.2-6.2-2.4-19.5-2.4-19.5S160.6,133.1,158.8,145.9z"/>
				<path class="st3" d="M166.3,192.8l10.2-0.7c0,0-6.3,52.2-6.9,54.4c0,0-4.4,1.6-4.3,0.3c0.2-3.1-3.5-26.5-3.6-31.3
					C161.6,207.9,161.9,203,166.3,192.8z"/>
				<path class="st9" d="M158.8,145.9c0,0,1.5,30.6,7.2,47.1c0.8,2.5,10.5-0.8,10.5-0.8s4.9-26.3,4.6-37.2
					c-0.2-6.2-2.4-19.5-2.4-19.5S160.6,133.1,158.8,145.9z"/>
				<path class="st9" d="M171,246.9c1-2,5.6-54.8,5.6-54.8l-10.2,0.7c-4.4,10.2-4.7,15.1-4.5,22.8c0.1,4.8,2.4,28.2,2.2,31.3
					C164,246.9,169.6,249.5,171,246.9z"/>
				<g>
					<g>
						<path class="st3" d="M192,118.3l-7.8-28.1c-2.8-7.5-7-7.7-7-7.7c-8,1.2-2.9,15.2-2.9,15.2l9.9,23.4"/>
					</g>
					<g>
						<g>
							<path class="st3" d="M214.5,139.4c-3.4-2.5-3.6-3.2-4.1-4.2c-2.2-4.3,3.4-3.4,4.8-2.9c0.8,0.3,0.5,2.2,2.7,5
								c0,0,3.6,2.9,4.6,2.9c0,0,1,0.3,0.9,1C223.3,141.1,220.3,142.4,214.5,139.4z"/>
						</g>
						<g>
							<g>
								<path class="st3" d="M186.9,115.1"/>
							</g>
							<g>
								<path class="st3" d="M191.4,116.7l22.7,17.2c0.6,3.1-0.8,3.4-0.8,3.4l-18.3-8.3c-7.9-3.4-10.6-7.3-10.6-7.3s-3.2-3,1.9-6
									C186.3,115.6,188.6,114.2,191.4,116.7z"/>
							</g>
						</g>
						<path class="st3" d="M214.5,132.1c0,0-1,1.9,1.6,1.8l2.7-1.5c0,0,0.8-0.3,0.7-1.1c0,0-0.2-0.5-1.1-0.2L214.5,132.1z"/>
					</g>
				</g>
				<path class="st5" d="M146.3,148.4c0,0,0.1,30.6,4.2,47.5c0.6,2.5,9.8,1.8,9.8,1.8s6-29,6.8-39.8c0.4-6.2,1.7-16.9,1.7-16.9
					S147.2,138.8,146.3,148.4z"/>
				<path class="st5" d="M150.8,89c-4.7,3.4-2.3,8.6-2.3,8.6l8.9,21.6c0,0,14.4,4.9,17.9-0.1c1.6-2.3,3.1-8.3,5-17.1
					c1.3-5.9,1.4-16.3-1.9-19.4c-1.9-1.8-8.2-1.7-8.2-1.9L160,84L150.8,89z"/>
				<path class="st5" d="M169.8,117.5c0.9-0.2,5.5,1.7,5.5,1.7s3.3,14.1,3.5,16.3c0.2,2.1-14.6,13.3-31.1,6.9c0,0,8.3-19.7,9.6-23.8
					C158.6,113.8,169.8,117.5,169.8,117.5z"/>
				<path class="st8" d="M177.8,89.9c0,0,4.9,5.7,5.3,10c0.2,2.4-2.8,6.4-4.3,7.8C177.8,108.8,171.5,93.9,177.8,89.9z"/>
				<path class="st7" d="M151.7,137.7c0,0-5.8,1.3-5.3,12c0.5,10.4,19.5,12.6,21.9,2.1C171,140.4,162.1,133.8,151.7,137.7z"/>
				<path class="st10" d="M160.4,73.4c0-3.6,0.1-3.4,0.1-3.4c0.1-1.1,2.1,1.2,2.1-0.2c-0.2-6.3,2.1-9.3,3-9.7c2.4-1.3,5-1.7,7-1.3
					c3.2,0.6,3.1,4.8,3.1,4.8C178.3,48.1,161,53,161,53c-8.4,2.2-7.5,10.1-7.5,10.1c-1,8.5,7,13.4,7,13.4L160.4,73.4z"/>
				<g>
					<g>
						<g>
							<g>
								<g>
									<g>
										<path class="st11" d="M160.9,72.1c-0.3,0.2-0.6,0.3-1.1,0.3c-1.2,0-2.2-1.2-2.3-2.6c0-1.4,0.9-2.5,2.2-2.5
											c0.6,0,1.1,0.3,1.5,0.7c0.6,0.6,0.6,1.7,0.5,2.5C161.6,71.3,161.4,71.8,160.9,72.1z"/>
									</g>
								</g>
							</g>
						</g>
					</g>
					<g>
						<g>
							<path class="st12" d="M160.2,68.7c-0.1-0.7-1.5,0-1.3,0.4c0.1,0.2,0.4,0.4,0.6,0.6c0.3,0.2,0.4,0.4,0.5,0.8c0,0,0,0.2,0,0.2
								c-0.2,0.1-0.8-0.6-1-0.7c-0.3-0.3-0.3-0.8-0.2-1.2c0.1-0.4,0.4-0.6,0.8-0.5C159.9,68.2,160.3,68.3,160.2,68.7
								C160.3,68.7,160.2,68.8,160.2,68.7L160.2,68.7z"/>
						</g>
						<g>
							<path class="st12" d="M159.8,69.5c0.2-0.2,0.3,0,0.5,0.1c0.1,0.1,0.2,0.3,0.3,0.4c0.1,0.4,0,0.9-0.2,1.2
								c-0.2,0.3-0.5,0.4-0.8,0.4c-0.4,0-0.6-0.4-0.6-0.8c0-0.1,0-0.3,0.1-0.4c0.1-0.1,0.2,0.1,0.3,0.2c0.1,0.1,0.2,0.1,0.4,0.1
								c0.3,0,0.5-0.1,0.7-0.3c0,0,0.1-0.1,0.1-0.1c0,0.2,0,0.3,0,0.2c0-0.1,0-0.1-0.1-0.2c-0.1-0.2-0.3-0.3-0.4-0.4
								C159.8,69.8,159.7,69.6,159.8,69.5L159.8,69.5z"/>
						</g>
					</g>
				</g>
				<g>
					<path class="st13" d="M167.9,66.8c0,0.4-0.2,0.8-0.5,0.8c-0.3,0-0.6-0.3-0.6-0.7c0-0.4,0.2-0.8,0.5-0.8
						C167.6,66,167.9,66.3,167.9,66.8z"/>
					<path class="st13" d="M174,65.9c0,0.4-0.2,0.8-0.5,0.8c-0.3,0-0.6-0.3-0.6-0.8c0-0.4,0.2-0.8,0.5-0.8
						C173.7,65.2,174,65.5,174,65.9z"/>
					<path class="st10" d="M165.3,66.2c1.1-1.2,3.8-1.1,3.8-1.1s0.2,0,0.1-0.6c0,0,0-0.5-0.4-0.4C168.9,64.1,165.5,63.8,165.3,66.2z
						"/>
					<path class="st10" d="M175.6,63.9c-1.2-1-3.4-0.2-3.4-0.2c-0.4,0.1-0.3,0.5-0.3,0.5c0.1,0.5,0.3,0.5,0.3,0.5s1.8-0.6,3.2-0.2
						C175.5,64.3,175.5,64.1,175.6,63.9z"/>
					<g>
						<path class="st14" d="M173.2,72.3l-4.3,0.8c-0.2,0-0.3,0.2-0.2,0.3c0,0,1.2,1.2,2.6,1c1.4-0.3,2.1-1.9,2.1-1.9
							C173.5,72.4,173.4,72.3,173.2,72.3z"/>
					</g>
					<path class="st12" d="M170.1,70.9c2.3-0.2,2.4-0.8,2.4-0.8l-1.2-2.4C171.3,67.8,171.6,70.2,170.1,70.9z"/>
				</g>
				<path class="st7" d="M146.3,148.4c0,0,0.1,30.6,4.2,47.5c0.6,2.5,9.8,1.8,9.8,1.8s6-29,6.8-39.8c0.4-6.2,1.7-16.9,1.7-16.9
					S147.2,138.8,146.3,148.4z"/>
				<path class="st7" d="M175.7,119.7c0,0,4.5,19,3.9,21c-1.7,6-17.8,14.3-32.5,2.1c0,0,3.4-14,10.3-25.9
					C157.4,117,160,119.6,175.7,119.7z"/>
				<path class="st8" d="M155.8,119.7c0,0,16.4,5.1,19.9,0.1c1.6-2.3,5.1-13.7,6.2-21c-2.6-6.2-8.5-17.6-8.5-17.6
					c-0.8-0.2-2.1-0.3-2.1-0.3c2.1,7.9-0.8,9.8-0.8,9.8c-8.7,0.2-10.9-6.7-10.9-6.7l-2.1,1.3c0,0,6.5,13.5-6.1,19.7
					C151.5,105,151.2,119.5,155.8,119.7z"/>
				<path class="st14" d="M161,72.4c0,0.4-0.3,0.7-0.7,0.7s-0.7-0.3-0.7-0.7c0-0.4,0.3-0.7,0.7-0.7S161,72,161,72.4z"/>
				<g>
					<path class="st5" d="M157.8,91c2.6,2.7,2.4,7-0.3,9.5c-2.7,2.6-11.2,7.4-11.3,3.7c-0.2-7.3,0.1-11.3,2.8-13.8
						C151.8,87.8,155.3,88.3,157.8,91z"/>
					<path class="st5" d="M158.1,97.2l-5.9-3.4l-5.9,3.7c0,0-3.5,22.1-2.2,27.1c1.4,5.4,3.8,1.4,5-0.1
						C149.1,124.6,158.8,101.5,158.1,97.2z"/>
					<path class="st5" d="M145,126.8c0,0,10.6,7.6,20,11.7c0,0,3.1-1.3,1.6-2.7c-2.6-2.4-14.2-13.5-16.8-15.9
						C145,118.2,145,126.8,145,126.8z"/>
					<g>
						<g>
							<path class="st5" d="M170.4,142.7c-3.8-1.7-4.2-2.3-4.9-3.1c-3.1-3.7,2.5-4.1,4-3.9c0.8,0.1,1,2.1,3.8,4.2c0,0,4.2,2,5.1,1.7
								c0,0,1,0.1,1.1,0.8C179.4,142.4,176.8,144.3,170.4,142.7z"/>
						</g>
						<path class="st5" d="M169.2,135.7c0,0-1.6,1.4,0.8,2.3l3.1-0.4c0,0,0.9,0,1-0.7c0,0,0-0.5-0.9-0.6L169.2,135.7z"/>
					</g>
				</g>
			</g>
		</g>
	</g>
	<g class="st15">
		<path class="st16" d="M235.7,163.1c0,0-0.1,0-0.1,0c-0.1,0-0.1,0-0.2,0c-0.1,0-0.1,0-0.2,0c0,0-0.1,0-0.1,0l-0.1,12.1l-20,13.5
			l0.1-14.4l16.6-11.2c-0.2,0-0.5,0.1-0.7,0.1c-0.1,0-0.1,0-0.2,0c-0.1,0-0.2,0-0.3,0.1c-0.1,0-0.1,0-0.2,0c-0.1,0-0.2,0-0.3,0.1
			c-0.1,0-0.1,0-0.2,0c-0.1,0-0.3,0.1-0.4,0.1c0,0-0.1,0-0.1,0c-0.2,0-0.4,0.1-0.5,0.1c0,0-0.1,0-0.1,0c-0.2,0.1-0.5,0.2-0.7,0.2
			c0,0,0,0,0,0c-0.2,0.1-0.5,0.2-0.7,0.3c0,0,0,0-0.1,0c-0.3,0.1-0.5,0.2-0.8,0.3c0,0,0,0,0,0c-0.3,0.1-0.5,0.3-0.8,0.4c0,0,0,0,0,0
			c-0.3,0.1-0.5,0.3-0.8,0.4c0,0,0,0,0,0c-0.3,0.2-0.5,0.3-0.8,0.5c-2.2,1.5-3.4,3.2-3.4,4.6c0-4.8,0.1-9.6,0.1-14.4
			c0-1.4,1.2-3.1,3.4-4.6c0.2-0.2,0.5-0.3,0.8-0.5c0,0,0,0,0,0c0.3-0.2,0.5-0.3,0.8-0.4c0,0,0,0,0,0c0.3-0.1,0.5-0.3,0.8-0.4
			c0,0,0,0,0,0c0.3-0.1,0.5-0.2,0.8-0.3c0,0,0,0,0,0c0,0,0,0,0,0c0.2-0.1,0.5-0.2,0.7-0.3c0,0,0,0,0,0c0.2-0.1,0.5-0.2,0.7-0.2
			c0,0,0,0,0.1,0c0,0,0,0,0,0c0.2-0.1,0.4-0.1,0.5-0.1c0,0,0.1,0,0.1,0c0.1,0,0.3-0.1,0.4-0.1c0,0,0.1,0,0.1,0c0,0,0.1,0,0.1,0
			c0.1,0,0.2,0,0.3-0.1c0.1,0,0.1,0,0.2,0c0.1,0,0.2,0,0.3,0c0,0,0.1,0,0.1,0c0,0,0,0,0,0c0.2,0,0.5-0.1,0.7-0.1c0,0,0,0,0.1,0
			c0,0,0,0,0,0c0.2,0,0.4,0,0.6-0.1c0,0,0,0,0.1,0c0,0,0,0,0.1,0c0.2,0,0.4,0,0.6,0c0,0,0,0,0,0c0,0,0,0,0,0c0.2,0,0.4,0,0.5,0
			c0,0,0,0,0.1,0c0,0,0,0,0.1,0c0.2,0,0.4,0,0.5,0c0,0,0,0,0,0c0,0,0,0,0,0c0.2,0,0.4,0,0.5,0.1c0,0,0,0,0.1,0c0,0,0,0,0,0
			c0.1,0,0.1,0,0.2,0c0.1,0,0.1,0,0.2,0c0.1,0,0.1,0,0.2,0c0,0,0.1,0,0.1,0c0,0,0,0,0,0c0.2,0,0.3,0.1,0.5,0.1c0,0,0.1,0,0.1,0
			c0.1,0,0.3,0.1,0.4,0.2c0.1,0.1,0.2,0.1,0.3,0.2c0,0,0.1,0,0.1,0c0,0,0.1,0,0.1,0.1c0,0,0.1,0,0.1,0.1c0,0,0.1,0,0.1,0.1
			c0.1,0,0.1,0.1,0.2,0.1c0,0,0.1,0,0.1,0.1c0,0,0,0,0,0c0.1,0,0.1,0.1,0.2,0.2c0,0,0,0,0,0c0,0,0.1,0.1,0.1,0.1v0h0v0c0,0,0,0,0,0
			c0,0,0,0,0.1,0.1c0,0,0.1,0.1,0.1,0.1c0,0,0,0,0,0.1c0,0,0,0,0,0c0,0,0,0,0,0.1c0,0,0.1,0.1,0.1,0.1c0,0,0,0.1,0.1,0.1
			c0,0,0.1,0.1,0.1,0.1c0,0,0,0,0,0c0,0,0,0,0,0c0,0.1,0.1,0.2,0.1,0.2c0,0,0,0,0,0c0,0.1,0.1,0.2,0.1,0.3c0,0.1,0.1,0.1,0.1,0.2
			c0,0,0,0.1,0,0.1c0,0.1,0.1,0.2,0.1,0.3c0,0,0,0.1,0.1,0.1c0,0,0,0.1,0,0.1c0,0.1,0.1,0.1,0.1,0.2c0,0,0.1,0.1,0.1,0.1
			c0,0.1,0.1,0.1,0.1,0.2c0,0,0,0.1,0.1,0.1c0.1,0.1,0.1,0.2,0.2,0.2c0,0,0,0,0,0c0.1,0.1,0.2,0.2,0.2,0.2c0,0,0.1,0,0.1,0.1
			c0.1,0.1,0.1,0.1,0.2,0.2c0,0,0.1,0.1,0.1,0.1c0.1,0.1,0.1,0.1,0.2,0.2c0,0,0.1,0,0.1,0.1c0.1,0.1,0.2,0.1,0.3,0.2c0,0,0,0,0,0
			c0,0,0,0,0,0c0,0,0,0,0,0c0,0,0,0,0,0c0,0,0,0,0,0c0,0,0,0,0.1,0c0,0,0,0,0,0c0,0,0,0,0.1,0c0,0,0,0,0.1,0c0,0,0,0,0.1,0
			c0,0,0.1,0,0.1,0c0,0,0,0,0.1,0c0,0,0.1,0,0.1,0c0,0,0,0,0.1,0c0.1,0,0.1,0,0.2,0.1c0.4,0.2,0.8,0.4,1.2,0.5l20-13.5l-0.1,14.4
			l-20,13.5c-0.4-0.1-0.9-0.3-1.2-0.5c-0.1,0-0.1-0.1-0.2-0.1c0,0,0,0,0,0c0,0-0.1,0-0.1-0.1c0,0,0,0,0,0c0,0-0.1,0-0.1,0
			c0,0,0,0-0.1,0c0,0,0,0-0.1,0c0,0,0,0,0,0c0,0,0,0-0.1,0c0,0,0,0,0,0c0,0,0,0-0.1,0c0,0,0,0,0,0c0,0,0,0,0,0c0,0,0,0,0,0
			c0,0,0,0,0,0c0,0,0,0,0,0c-0.1-0.1-0.2-0.1-0.3-0.2c0,0-0.1,0-0.1-0.1c-0.1-0.1-0.1-0.1-0.2-0.2c0,0,0,0-0.1,0c0,0,0,0,0,0
			c-0.1-0.1-0.1-0.1-0.2-0.2c0,0-0.1,0-0.1-0.1c-0.1-0.1-0.2-0.2-0.2-0.2c0,0,0,0,0,0c0,0,0,0,0,0c-0.1-0.1-0.1-0.2-0.2-0.2
			c0,0,0-0.1-0.1-0.1c0-0.1-0.1-0.1-0.1-0.2c0,0,0,0,0,0c0,0,0-0.1-0.1-0.1c0-0.1-0.1-0.1-0.1-0.2c0,0,0-0.1-0.1-0.1
			c0,0,0-0.1-0.1-0.1c0,0,0,0,0,0c0-0.1-0.1-0.2-0.1-0.3c0,0,0-0.1,0-0.1c0-0.1-0.1-0.2-0.1-0.3c0-0.1-0.1-0.2-0.1-0.3
			c0,0,0,0,0-0.1c0-0.1-0.1-0.2-0.1-0.2c0,0,0-0.1,0-0.1c0,0,0-0.1-0.1-0.1c0,0,0-0.1-0.1-0.1c0,0-0.1-0.1-0.1-0.1
			c0,0,0-0.1-0.1-0.1c0,0,0,0,0-0.1c0,0-0.1-0.1-0.1-0.1c0,0,0,0-0.1-0.1c0-0.1-0.1-0.1-0.2-0.2c0,0,0,0,0,0
			c-0.1-0.1-0.1-0.1-0.2-0.2c0,0-0.1,0-0.1-0.1c0,0-0.1-0.1-0.2-0.1c0,0-0.1,0-0.1-0.1c-0.1,0-0.1-0.1-0.2-0.1c0,0-0.1,0-0.1,0
			c-0.1-0.1-0.2-0.1-0.3-0.2c-0.1-0.1-0.3-0.1-0.4-0.2c0,0-0.1,0-0.1,0C236,163.2,235.8,163.2,235.7,163.1z"/>
		<path class="st17" d="M153,162.5l0.1-14.4l25.6,10.8l-0.1,12c0,0,0,0,0,0c0.1,0,0.1,0,0.2,0c0.2,0,0.4,0,0.6,0.1c0,0,0,0,0.1,0
			c0.1,0,0.3,0,0.4,0c0.1,0,0.1,0,0.2,0c0.1,0,0.2,0,0.3,0c0,0,0.1,0,0.1,0c0.3,0,0.5,0,0.8,0c0,0,0.1,0,0.1,0c0.2,0,0.4,0,0.6,0
			c0,0,0,0,0,0c0.2,0,0.4,0,0.5,0c0,0,0.1,0,0.1,0c0.2,0,0.3,0,0.5-0.1c0,0,0,0,0.1,0c0.2,0,0.3-0.1,0.5-0.1c0,0,0.1,0,0.1,0
			c0.1,0,0.3-0.1,0.4-0.1c0,0,0,0,0.1,0c0,0,0.1,0,0.1,0c0.1,0,0.1,0,0.2-0.1c0,0,0.1,0,0.1,0c0.1,0,0.1,0,0.2-0.1c0,0,0.1,0,0.1,0
			c0.1,0,0.1-0.1,0.2-0.1c0,0,0.1,0,0.1,0c0.1,0,0.1-0.1,0.2-0.1c0,0,0.1,0,0.1,0c0.1,0,0.2-0.1,0.2-0.1c1-0.6,1.1-1.5,1.1-2.3
			c0-0.2,0-0.5,0-0.7c0-0.7,0.1-1.4,0.5-2c0.1-0.1,1.1-1,2-1.5l25.6,10.8l-0.1,14.4l-25.6-10.8c-0.9,0.5-1.9,1.4-2,1.5
			c-0.4,0.6-0.5,1.2-0.5,1.8c0,0.2,0,0.5,0,0.7c0,0.9-0.1,1.9-1.1,2.6c-0.1,0-0.1,0.1-0.2,0.1c0,0-0.1,0-0.1,0
			c-0.1,0-0.1,0.1-0.2,0.1c0,0-0.1,0-0.1,0c-0.1,0-0.1,0.1-0.2,0.1c0,0-0.1,0-0.1,0c0,0,0,0-0.1,0c0,0-0.1,0-0.1,0c0,0-0.1,0-0.1,0
			c-0.1,0-0.1,0-0.2,0.1c0,0-0.1,0-0.1,0c0,0,0,0,0,0c0,0,0,0,0,0c-0.1,0-0.3,0.1-0.4,0.1c0,0,0,0-0.1,0c0,0,0,0-0.1,0
			c-0.2,0-0.3,0.1-0.5,0.1c0,0,0,0,0,0c0,0,0,0,0,0c-0.2,0-0.3,0-0.5,0.1c0,0,0,0-0.1,0c0,0,0,0-0.1,0c-0.2,0-0.4,0-0.6,0
			c0,0,0,0,0,0c0,0,0,0,0,0c-0.2,0-0.4,0-0.6,0c0,0,0,0-0.1,0c0,0,0,0,0,0c-0.2,0-0.5,0-0.8,0c0,0,0,0-0.1,0c0,0,0,0-0.1,0
			c-0.1,0-0.2,0-0.3,0c-0.1,0-0.1,0-0.2,0c-0.2,0-0.3,0-0.5,0c0,0,0,0,0,0c0,0,0,0,0,0c-0.2,0-0.4,0-0.6-0.1c-0.1,0-0.1,0-0.2,0
			c-0.2,0-0.4,0-0.5-0.1c0,0,0,0-0.1,0c0,0,0,0,0,0c-0.2,0-0.3-0.1-0.5-0.1c0,0-0.1,0-0.1,0c-0.1,0-0.3,0-0.4-0.1
			c-0.1,0-0.1,0-0.2,0c-0.1,0-0.2,0-0.3-0.1c-0.1,0-0.1,0-0.2,0c-0.1,0-0.2,0-0.3-0.1c0,0-0.1,0-0.1,0c0,0,0,0-0.1,0
			c-0.3-0.1-0.6-0.1-0.8-0.2c0,0-0.1,0-0.1,0c-0.3-0.1-0.6-0.2-0.8-0.3c0,0-0.1,0-0.1,0c-0.3-0.1-0.6-0.2-0.9-0.3c0,0,0,0-0.1,0
			c-0.3-0.1-0.6-0.2-0.9-0.3c-0.1-0.1-0.3-0.1-0.4-0.2c-0.2-0.1-0.4-0.2-0.6-0.3c-0.1,0-0.1-0.1-0.2-0.1c-0.1-0.1-0.2-0.1-0.4-0.2
			c-0.1,0-0.1-0.1-0.2-0.1c-0.1-0.1-0.2-0.1-0.3-0.2c-0.1,0-0.1-0.1-0.2-0.1c0,0-0.1,0-0.1-0.1c-0.1,0-0.1-0.1-0.2-0.1
			c-0.1,0-0.1-0.1-0.2-0.1c-0.1-0.1-0.2-0.1-0.3-0.2c0,0-0.1,0-0.1-0.1c-0.1-0.1-0.3-0.2-0.4-0.3c0,0-0.1-0.1-0.1-0.1
			c-0.1-0.1-0.2-0.1-0.2-0.2c0,0,0,0,0,0c-0.1-0.1-0.2-0.2-0.3-0.2c0,0-0.1-0.1-0.1-0.1c-0.1-0.1-0.2-0.2-0.3-0.3c0,0,0,0,0,0
			c-0.1-0.1-0.2-0.2-0.3-0.3c0,0,0-0.1-0.1-0.1c0-0.1-0.1-0.1-0.1-0.2c0,0,0,0,0,0c0,0,0-0.1-0.1-0.1c0-0.1-0.1-0.1-0.1-0.2
			c0,0,0-0.1,0-0.1c0,0,0,0,0-0.1c0-0.1-0.1-0.1-0.1-0.2c0,0,0,0,0,0c0-0.1,0-0.1-0.1-0.2c0,0,0-0.1,0-0.1c0,0,0,0,0,0
			c0-0.1,0-0.1,0-0.2c0,0,0,0,0,0c0,0,0,0,0,0c0-0.1,0-0.2,0-0.2c0,0,0,0,0,0c0-3.4,0.1-6.8,0.1-10.2L153,162.5z"/>
		<g>
			<path class="st18" d="M263.3,141.6l-61.9-26l-48.3,32.6l25.6,10.8c-0.6,0.5-1.5,1-1.7,1.1c-0.9,0.4-2,0.7-3.2,0.9
				c-2.2,0.4-4.8,0.3-6.3,1.4c-2.4,1.6-0.5,4.6,4.2,6.7c0.1,0.1,0.3,0.1,0.4,0.2c5,2.1,11.1,2.5,13.6,0.8c2-1.4,0.5-3.5,1.7-5.1
				c0.1-0.1,1.1-1,2-1.5l25.6,10.8l20-13.5c-0.1,0-0.2-0.1-0.3-0.1c-1-0.4-2.4-0.9-2.6-1c-3-0.7-7,0.1-9.6-0.9
				c-3.2-1.4-2.5-4.6,1.4-7.2c3.9-2.6,9.7-3.7,12.8-2.4c2,0.9,1.9,2.3,2.7,3.4c0.4,0.6,1,1.2,1.8,1.7c0.1,0.1,0.5,0.2,0.9,0.4
				c0.4,0.2,0.8,0.4,1.2,0.5L263.3,141.6z"/>
		</g>
	</g>
	<g class="st15">
		<g>
			<path class="st19" d="M206.7,200.2c0,0,0,0.1,0,0.1c0,0,0,0.1,0,0.1c0,0,0,0.1,0,0.1c0,0,0,0.1,0,0.1c0,0,0,0.1,0,0.1
				c0,0,0,0.1,0,0.1c0,0,0,0.1,0,0.1c0,0,0,0.1,0,0.1c0,0,0,0,0,0c0,0.1-0.1,0.2-0.1,0.3c0,0,0,0,0,0c0,0.1-0.1,0.2-0.2,0.3
				c0,0,0,0,0,0c-0.1,0.1-0.1,0.2-0.2,0.2c0,0,0,0-0.1,0.1c0,0,0,0-0.1,0.1c0,0-0.1,0.1-0.1,0.1c0,0-0.1,0-0.1,0.1c0,0,0,0-0.1,0.1
				c0,0-0.1,0.1-0.1,0.1c0,0-0.1,0-0.1,0.1c-0.1,0-0.1,0.1-0.2,0.1c0,0,0,0-0.1,0c0,0-0.1,0.1-0.1,0.1c0,0-0.1,0-0.1,0
				c-0.1,0-0.2,0.1-0.2,0.1c-0.3,0.1-0.7,0.2-1,0.3c-0.3,0.1-0.6,0.1-0.9,0.2c-0.3,0-0.6,0.1-0.9,0.1c-0.4,0-0.9,0.1-1.3,0.1
				c-1,0-1.9,0-2.9,0c-0.4,0-0.9,0-1.3,0.1l0.1,14.6c0.4,0,0.8-0.1,1.3-0.1c1,0,1.9,0,2.9,0c0.4,0,0.9,0,1.3-0.1
				c0.3,0,0.6-0.1,0.9-0.1c0.3,0,0.6-0.1,0.9-0.2c0.4-0.1,0.7-0.2,1-0.3c0.1,0,0.2-0.1,0.3-0.1c0,0,0,0,0.1,0c0.1,0,0.1-0.1,0.2-0.1
				c0,0,0,0,0,0c0,0,0,0,0,0c0.1,0,0.1-0.1,0.2-0.1c0,0,0.1,0,0.1-0.1c0,0,0.1-0.1,0.1-0.1c0,0,0,0,0,0c0,0,0,0,0,0
				c0,0,0.1,0,0.1-0.1c0,0,0.1-0.1,0.1-0.1c0,0,0,0,0.1-0.1c0,0,0,0,0,0c0,0,0,0,0,0c0.1-0.1,0.1-0.2,0.2-0.2c0,0,0,0,0,0
				c0,0,0,0,0,0c0.1-0.1,0.1-0.2,0.2-0.3l0,0c0,0,0,0,0,0c0-0.1,0.1-0.2,0.1-0.3c0,0,0,0,0,0c0,0,0,0,0,0c0,0,0-0.1,0-0.1
				c0,0,0-0.1,0-0.1c0,0,0-0.1,0-0.1c0,0,0,0,0-0.1c0,0,0,0,0,0c0,0,0-0.1,0-0.1c0,0,0-0.1,0-0.1c0,0,0-0.1,0-0.1c0,0,0,0,0-0.1
				c0,0,0,0,0,0L206.7,200.2z"/>
			<path class="st19" d="M194.9,203.8C194.9,203.8,194.9,203.8,194.9,203.8c-0.3,0.1-1.7,0.5-2.7,1c-0.1,0-0.2,0.1-0.3,0.1l0.1,14.6
				c0.1,0,0.2-0.1,0.3-0.1c1-0.4,2.4-0.9,2.7-1c0,0,0,0,0,0c0.2-0.1,0.5-0.1,0.7-0.1c0.3,0,0.6-0.1,0.9-0.1l-0.1-14.6
				c-0.3,0-0.6,0.1-0.9,0.1C195.4,203.7,195.1,203.7,194.9,203.8z"/>
		</g>
		<path class="st20" d="M212.4,233.2l-0.1-14.6l-26.1,11l0.1,12.2c-3,0.4-5.7,0.1-7.2-0.9c-1-0.7-1.1-1.5-1.1-2.4c0-0.2,0-0.5,0-0.7
			c0-0.7-0.1-1.4-0.5-2.1c-0.1-0.1-1.1-1-2-1.5l-26,11l0.1,14.6l26-11c0.9,0.5,1.9,1.4,2,1.5c0.4,0.6,0.5,1.2,0.5,1.8
			c0,0.2,0,0.5,0,0.7c0,1,0.1,1.9,1.2,2.6c2.5,1.7,8.7,1.3,13.8-0.8c0.1-0.1,0.3-0.1,0.4-0.2c3.4-1.5,5.4-3.5,5.3-5
			c0-3.5-0.1-6.9-0.1-10.4L212.4,233.2z"/>
		<path class="st19" d="M204.8,202.8l0.1,14.6c-2.7,1.1-6.8,0.3-9.8,1c-0.2,0.1-1.7,0.5-2.7,1c-0.1,0-0.2,0.1-0.3,0.1l-0.1-14.6
			c0.1,0,0.2-0.1,0.3-0.1c1-0.4,2.4-0.9,2.7-1C197.9,203.1,202,203.9,204.8,202.8z"/>
		<polygon class="st19" points="149.4,245.1 100.3,211.9 100.4,226.6 149.5,259.7 		"/>
		<path class="st21" d="M197.6,233c-1.6-1.1-4.3-1-6.4-1.4c-1.1-0.2-2.3-0.5-3.2-0.9c-0.2-0.1-1.2-0.7-1.8-1.1l26.1-11L192,204.9
			c0.1,0,0.2-0.1,0.3-0.1c1-0.4,2.4-0.9,2.7-1c3-0.7,7.1,0.1,9.8-1c3.1-1.4,2.4-4.6-1.5-7.3c-4-2.7-9.8-3.8-13.2-2.4
			c-1.9,0.8-1.8,2.2-2.6,3.4c-0.4,0.6-1,1.2-1.8,1.7c-0.1,0.1-0.5,0.2-0.9,0.4c-0.4,0.2-0.8,0.4-1.3,0.5l-20.3-13.7l-62.9,26.5
			l49.1,33.1l26-11c0.9,0.5,1.9,1.4,2,1.5c1.2,1.6-0.4,3.8,1.7,5.2c2.5,1.7,8.7,1.3,13.8-0.8c0.1-0.1,0.3-0.1,0.4-0.2
			C198.2,237.7,200.1,234.7,197.6,233z"/>
	</g>
	<g>
		<path class="st0" d="M328,289.1c0,8.7,15.8,15.7,35.4,15.7c19.5,0,35.4-7,35.4-15.7c0-8.7-15.8-15.7-35.4-15.7
			C343.8,273.4,328,280.4,328,289.1z"/>
		<g>
			<g>
				<g>
					<path class="st22" d="M351.4,285.6c-2.5,2.5-6.6,3.9-6.6,3.9c-3.5,0.9-5.5-1.4-5.5-1.4c-0.7-1,0.2-1.6,0.2-1.6
						c7.3-5.6,9.5-7.1,9.5-7.1h6.7c0.3,2.7,0.1,3.8,0.1,3.8c-0.6,0.8-1.8,1.9-3.7,2.2c-0.1,0-0.4-0.2-0.5-0.1L351.4,285.6z"/>
				</g>
				<path d="M339.4,286.4c0,0.2,0.1,0.3,0.1,0.5c0.6,1.2,2.1,1.7,3.4,1.7c1.5,0,2.9-0.8,4.2-1.4c1.3-0.6,2.4-1.4,3.5-2.4
					c0.8-0.6,1.7-0.9,2.6-1.3c1-0.4,1.8-1.1,2.6-1.8c0,0.7,0,1.3,0,1.3c-0.6,0.8-1.8,1.9-3.7,2.2c-0.1,0-0.4-0.2-0.5-0.1l-0.2,0.4
					c-2.5,2.5-6.6,3.9-6.6,3.9c-3.5,0.9-5.5-1.4-5.5-1.4C338.6,287.1,339.3,286.5,339.4,286.4z"/>
			</g>
			<g>
				<path class="st3" d="M356.4,224.8c-7.5,8.2-10.4-0.5-10.4-0.5l-0.9-50.7c-0.1,0.8-0.3-5.1,9.1-3.8c9.4,1.3,11.8,4.9,11.8,4.9
					S360.8,209.7,356.4,224.8"/>
				<path class="st3" d="M345.9,223.7c0,0,3.8,53.4,4.1,55.3c0,0,4.6,1,4.6,0c0.1-2.6,5.3-33.8,5.4-37.8c0.2-10.2-2.5-12.1-5.1-19
					C355,222.1,345.9,215.4,345.9,223.7z"/>
			</g>
			<g>
				<g>
					<path class="st23" d="M358.7,226.7c4.3-15.1,7.3-52,7.3-52s-2.4-3.7-11.8-4.9c-9.4-1.3-9.2,4.6-9.1,3.8c0,0-2.9,27.5-0.2,52.5
						C344.8,226.1,352.9,230.4,358.7,226.7z"/>
				</g>
			</g>
			<path class="st5" d="M372.9,146.4c1.3,4.7,6.8,22.8,6.8,22.8c-19.7,23.6-34.5,2.9-34.7,0.8c-0.2-2.6,2.6-12.4,3.2-23
				C348.2,147.1,353.6,138.8,372.9,146.4z"/>
			<path class="st23" d="M345.2,175.9c-0.9-6.3,1-12.7,2-19.2H376c1.8,6.1,3.8,12.5,3.8,12.5s1.2,14.5-11.1,16.3
				C368.6,185.5,347.1,189.3,345.2,175.9z"/>
			<g>
				<path class="st5" d="M378,225.9c-6.2,9.3-10.4,1.1-10.4,1.1l-10-49.4c0,0.8,0.3-6.4,9.8-6.6c9.5-0.1,12.4,3.1,12.4,3.1
					S380,210.3,378,225.9"/>
				<path class="st5" d="M367.4,226.3c0,0,9.9,56.3,10.5,58.1c0,0,4.7,0.3,4.6-0.7c-0.3-2.5,0.5-38,0-42
					c-1.3-10.1-2.7-11.8-6.3-18.2C376.2,223.5,366.2,218.2,367.4,226.3z"/>
			</g>
			<g>
				<path class="st22" d="M377.5,283.3l-2.8,8.5c0,0,0.6,7.6,6.7,2.9l1.8-1.8c0.9-0.8,0.7-1.9,0.7-1.9l-0.5-3.3l-0.6-4.5
					C382.7,283.3,378.8,280.7,377.5,283.3z"/>
				<path d="M381.4,293.6l1.8-1.8c0.4-0.3,0.5-0.7,0.6-1l0,0.2c0,0,0.3,1.1-0.7,1.9l-1.8,1.8c-6.1,4.7-6.7-2.9-6.7-2.9l0.1-0.3
					C375.1,293.3,376.5,297.4,381.4,293.6z"/>
			</g>
			<g>
				<g>
					<path class="st2" d="M379.3,226.1"/>
					<path class="st24" d="M366.4,228.3c-3.5-10.2-10-52.4-10-52.4c0,0.8,2-10.1,11.5-10.2c9.5-0.1,12,3.5,12,3.5s3,41.3,0.9,56.8
						C380.7,226.1,374,233.8,366.4,228.3z"/>
				</g>
			</g>
			<path class="st3" d="M349.7,114c0,0-16.1,18.9-24.1,25.2c0,0-5.4-2-5.2-5.6c0,0,11.8-17.5,19.2-27.8
				C339.5,105.8,349.5,102.9,349.7,114z"/>
			<path class="st3" d="M322.6,131.9c0,0-17.6,10.2-24.9,13.7c0,0-1.3,2,0.8,2.2c3.5,0.3,28-8,28.6-9.9
				C330,129,322.6,131.9,322.6,131.9z"/>
			<path class="st3" d="M338.7,111.8c1.3,3.4,5,5.1,8.4,3.9c3.4-1.2,5.1-5,3.8-8.4c-1.3-3.4-5-5.1-8.4-3.9
				C339.2,104.7,337.5,108.5,338.7,111.8z"/>
			<path class="st25" d="M346.8,103.1c0,0-5.7-2-9.7,3.6L323,127.1c0,0,2.9,6.5,9.7,10C332.8,137.1,357.9,114,346.8,103.1z"/>
			<path class="st5" d="M378.2,230.6"/>
			<path class="st11" d="M363,96.3c0,0,1.2-2.2,3.7-6.5c0,0,5.4-5.6,2.4-12.6c0,0-1.7-5.9-12-5C357.2,72.1,356.2,88.3,363,96.3z"/>
			<path class="st5" d="M363.5,87.1c0,0-1.7,16.1,2,17.3l-13.1-0.8c0,0,2.1-4.9-0.3-8.5L363.5,87.1z"/>
			<path class="st6" d="M353,100.8c0.2-3.7-0.2-4.4-1.1-5.6l11.5-8.1c0,0-0.6,5.2-0.4,9.9C359.8,100.2,357,100.9,353,100.8z"/>
			<path class="st5" d="M343,103.1c-2.9,2.1-3.3,7.3-2.2,10.5c1.2,3.7,1.7,8.4,2.9,13.7c1.6,7.2,2.7,12.7,4.5,19.9
				c1.5,5.9,25.2,1.1,25.2,1.1l8.5-29.1c0,0,1.5-7.6-5.4-10.1c0,0-7.2-3.9-12.5-5.7c-4.7-1.6-6.4-1.7-11.2-1.4
				C352.8,101.9,346.4,102.1,343,103.1z"/>
			<path class="st26" d="M347.2,73.3c-0.7,3.1-1.4,4.7-0.6,7.5c0.8,2.5,0.6,5.2,1.7,7.7c1.6,3.5,3.6,3.1,5.2-0.2
				c1.6-3.3,3.3-7.8-0.3-10.2C350.9,76.6,350,73.8,347.2,73.3L347.2,73.3z"/>
			<path class="st11" d="M349.3,97.5l-0.5-1.8c0,0-1.4-6.7-1.4-6.7c-0.2-0.8-0.1-2,0.1-2.8c0.2-0.9,0.4-1.9,0.2-2.9
				c-0.8-4.8,1.8-7.4,1.8-7.4c3-4.3,9.6-3.9,9.6-3.9c8.2,0.8,8.4,8.8,8.4,8.8c1.1,5.3-3.3,9.5-3.4,9.5c-0.4,0.3-0.3,2.1-0.4,2.6
				c-0.5,2.1-2.6,3.3-4.4,4.1c-2,0.9-4.4,1.8-6.6,1.9C351.9,98.8,349.6,98.5,349.3,97.5z"/>
			<path class="st26" d="M347.5,88.8c1.1,1,2.5,0.5,3.7,1.2c0.7,0.5,1.1,0.4,1.9,0.2c0.7-0.2,1.2-0.1,1.8,0.1
				c0.7,0.2,1.9,0.8,2.6,1.1c1,0.4,2.1,0.3,2.9-0.7c0.8-1,1.1-1.2,1.5-2.4c0.7-2.2,2.9-2.3,4.5-1.1c-1,1.9-2.2,3.1-2.2,3.1
				c-0.4,0.3-0.3,3.5-0.4,4c-0.5,2.1-2.6,3.3-4.4,4.1c-2,0.9-5.1,1-7.3,1.1c-0.8,0-2.5-0.8-2.8-1.9l-0.5-1.8c0,0-1.4-6.7-1.4-6.7
				c0-0.1,0-0.2,0-0.4C347.3,88.6,347.4,88.7,347.5,88.8z"/>
			<path class="st26" d="M347.3,76.2c1.8,0,1.8,1.5,3.2,2.4c3,1.8,7.7-0.9,10.2,2.1c0.2,0.3,0.4,0.6,0.6,0.9c0.7,1.3,0.9,3,1.2,4.5
				c0.1,0.4-0.3,1.6,0.1,1.9c0.2,0.2,0.6,0.1,1,0c0.1,0.7-0.5,1.2-0.7,1.8c-0.2,0.6-0.6,1.2-0.3,1.8c0.9,1.6,0.2,1.4,0.3,4.6
				c0.5-0.8,1.8-1.7,2.2-2.1c1.2-1,2.3-2.2,3.2-3.5c0.8-1.3,1.4-2.8,1.9-4.2c0.9-2.4,1.4-4.9,0.7-7.4c0,0-0.6-5.8-5.4-6.4
				c0,0,0.6-3.7-8.2-4.7c0,0-7,0.1-7.3-2.3c0,0-1.4,1.2-1.1,3.1c0,0-2.9,0.9-4.1-2.4C344.9,66.4,342.5,75,347.3,76.2z"/>
			<g>
				<g>
					<g>
						<g>
							<g>
								<g>
									<path class="st11" d="M362.9,91.6c0.2,0.3,0.5,0.5,0.9,0.6c1.1,0.2,2.2-0.8,2.5-2.3c0.3-1.5-0.4-2.8-1.5-3
										c-0.5-0.1-1,0.1-1.5,0.5c-0.6,0.5-0.8,1.7-0.8,2.6C362.5,90.6,362.6,91.2,362.9,91.6z"/>
								</g>
							</g>
						</g>
					</g>
				</g>
				<g>
					<g>
						<path class="st12" d="M364.1,88.1c0.2-0.8,1.6,0.2,1.4,0.6c-0.2,0.2-0.5,0.4-0.7,0.5c-0.3,0.2-0.5,0.4-0.6,0.8
							c0,0,0,0.2,0,0.2c0.2,0.2,0.9-0.5,1.1-0.7c0.3-0.3,0.4-0.8,0.3-1.2c-0.1-0.4-0.3-0.7-0.8-0.7
							C364.5,87.7,364.1,87.7,364.1,88.1C364.1,88.1,364.1,88.2,364.1,88.1L364.1,88.1z"/>
					</g>
					<g>
						<path class="st12" d="M364.5,89c-0.1-0.2-0.3-0.1-0.5,0c-0.2,0.1-0.3,0.2-0.3,0.4c-0.1,0.4-0.1,0.9,0,1.3
							c0.2,0.3,0.4,0.5,0.8,0.6c0.5,0,0.7-0.4,0.7-0.8c0-0.1,0.1-0.4,0-0.4c-0.1-0.1-0.2,0.1-0.3,0.1c-0.1,0.1-0.3,0.1-0.4,0.1
							c-0.3,0-0.5-0.2-0.7-0.4c0,0,0-0.1-0.1-0.1c0,0.3,0,0.3,0,0.2c0-0.1,0.1-0.1,0.1-0.2c0.1-0.2,0.3-0.3,0.5-0.4
							C364.4,89.4,364.6,89.1,364.5,89L364.5,89z"/>
					</g>
				</g>
			</g>
			<path class="st12" d="M351.6,88.4l2.2,0.9c0,0-3,0.2-3.1-0.7c0,0,0.5-1.7,0.9-3.3C351.7,85.3,351.3,88.3,351.6,88.4z"/>
			<g>
				<path class="st26" d="M355.5,85.3c0,0.5,0.3,0.8,0.6,0.8c0.3,0,0.6-0.4,0.6-0.8c0-0.5-0.3-0.8-0.6-0.8
					C355.7,84.4,355.5,84.8,355.5,85.3z"/>
				<path class="st26" d="M349.1,84.6c0,0.5,0.3,0.8,0.6,0.8c0.3,0,0.6-0.4,0.6-0.8c0-0.5-0.3-0.8-0.6-0.8
					C349.3,83.7,349.1,84.1,349.1,84.6z"/>
				<path class="st26" d="M354.9,83.6c-0.2,0-0.3-0.2-0.3-0.2c-0.1-0.3,0-0.5,0-0.5c0.1-0.2,0.2-0.3,0.2-0.3
					c0.5-0.1,1.6,0.1,2.5,0.3c0.5,0.1,1.3,0.5,1.3,1c0,0.1,0,0.4-0.1,0.4C358.5,84.3,356.9,83.8,354.9,83.6z"/>
				<path class="st26" d="M347.6,82.9c0.6,0,1.6,0.1,2.9,0.3c0.2,0.1,0.3-0.2,0.3-0.2c0.1-0.2,0.1-0.5,0.1-0.5
					c0-0.2-0.2-0.3-0.2-0.3c-0.5-0.2-1.2-0.3-2.1-0.3c-0.3,0-0.8,0-1.1,0.1C347.5,82.1,347.5,82.2,347.6,82.9z"/>
			</g>
			<g>
				<path class="st14" d="M350.4,91.1c-0.2,0-0.3,0.1-0.2,0.2c0,0,0.8,1.5,2.2,1.7c1.4,0.2,2.5-1.1,2.5-1.1c0.1-0.1,0-0.2-0.2-0.3
					C354.7,91.6,352.3,91.3,350.4,91.1z"/>
			</g>
			<path class="st24" d="M377.8,163.5c0,0,5.1,8.2,0,17.3c-5.1,9.1-20.5,5.8-20.5-6C357.2,163.1,367.8,158.6,377.8,163.5z"/>
			<path class="st25" d="M352.8,101.9c0,0-6.4,0.2-9.8,1.2c-2.9,2.1-3.3,7.3-2.2,10.5c1.2,3.7,1.7,8.4,2.9,13.7
				c1.6,7.2-0.4,12.5,1.4,19.6c1.5,5.9,32.9,0,32.9,0l4-27.6c0,0,1.5-7.6-5.4-10.1c0,0-6.9-3.8-12.2-5.6c0,0,0.8,5.6-8.3,4
				C356,107.5,350.5,106.1,352.8,101.9z"/>
			<path class="st25" d="M378,146.8c1.3,4.7,2.4,20.7,2.4,20.7c-3.6,15-36.8,4.2-37,2.1c-0.2-2.6,0.8-14.8,1.3-25.4
				C344.6,144.2,358.6,139.2,378,146.8z"/>
			<path class="st5" d="M368.2,119.8c2.2,4.4,10.2,26.7,12.8,30.2c0.7,0.9,7.3,5.2,8.8-0.6c-3.7-23.1-9.2-36.3-9.2-36.3
				s-6.5-5.4-11.6-0.4C369,112.7,366.6,116.8,368.2,119.8z"/>
			<path class="st5" d="M367.2,115.9c-0.7,4.2,2.1,8.2,6.4,9c4.2,0.7,8.2-2.1,9-6.4c0.7-4.2-2.1-8.2-6.4-9
				C372,108.8,368,111.7,367.2,115.9z"/>
			<path class="st25" d="M374.9,108.2c0,0,6.7,2.5,8.3,7.9l4.1,14.7c0,0-5.4,7.9-13.5,7.6l-8-17.7
				C365.9,120.8,360.5,110.8,374.9,108.2z"/>
			<path class="st3" d="M289.4,150.4l2.1-0.1c0,0-3.8,1-5-0.3c0,0-0.3-0.2,0.2-0.6c0,0,3.3-0.1,4.8-0.5c0,0-3.3,0.8-5.6,0.6
				c0,0-0.9-0.6,0.1-1.1c-0.7-0.3-0.1-0.8-0.1-0.8s0.7-0.4,2.2-0.9c0,0,2.4-0.8,5.1-2c0,0-2.2-1.4-1.4-2.6l3.3,1.8l3,1.9l0.4,2
				l-3.1,2.2c0,0-3.1,1.2-4.8,1.3C290.6,151.3,285.7,151.2,289.4,150.4z"/>
			<path class="st24" d="M366.4,228.3l8.6,53.8c0,0,2.9,2.8,9.5,0l1.1-26.3c0,0,2-17.4-4.9-29.8
				C380.7,226.1,367.1,215.1,366.4,228.3z"/>
			<path class="st23" d="M358.7,226.7c0,0,3.7,5.3,0.4,25.3l-3.4,27.3c0,0-3.9,2.3-8.2,0.1l-2.7-54.3
				C344.7,225,347.2,215.8,358.7,226.7z"/>
		</g>
	</g>
	<g class="st15">
		<path class="st27" d="M295.6,161c0-0.7-0.3-1.2-1.1-1.7c-0.1-0.1-0.2-0.1-0.4-0.2c0,0-0.1,0-0.1-0.1c-0.1,0-0.2-0.1-0.3-0.1
			c0,0,0,0-0.1,0c0,0,0,0-0.1,0c-0.2-0.1-0.3-0.1-0.5-0.2c0,0,0,0,0,0c0,0,0,0,0,0c-0.2,0-0.3-0.1-0.5-0.1c0,0,0,0-0.1,0
			c0,0,0,0-0.1,0c-0.2,0-0.4-0.1-0.6-0.1c0,0,0,0,0,0c0,0,0,0-0.1,0c-0.2,0-0.4-0.1-0.7-0.1c0,0,0,0-0.1,0c-0.2,0-0.5-0.1-0.7-0.1
			c0,0,0,0,0,0c-0.2,0-0.4,0-0.6-0.1c-0.2,0-0.4-0.1-0.7-0.1c0,0-0.1,0-0.1,0c-0.2,0-0.4-0.1-0.6-0.1c-0.1,0-0.2,0-0.3-0.1
			c-0.2,0-0.4-0.1-0.7-0.1c0,0-0.1,0-0.1,0c-0.2,0-0.3-0.1-0.5-0.1c0,0,0,0,0,0c-0.2,0-0.3-0.1-0.5-0.1c-0.1,0-0.1,0-0.2,0
			c-0.1,0-0.2-0.1-0.3-0.1c-0.1,0-0.1,0-0.2-0.1c-0.1,0-0.2-0.1-0.3-0.1c0,0-0.1,0-0.1,0c-0.1-0.1-0.3-0.1-0.4-0.2
			c-0.2-0.1-1.2-0.7-1.8-1.1l0.1,14.6c0.6,0.5,1.6,1.1,1.8,1.1c0.1,0.1,0.3,0.1,0.4,0.2c0,0,0,0,0,0c0,0,0.1,0,0.1,0
			c0.1,0,0.2,0.1,0.3,0.1c0.1,0,0.1,0,0.2,0.1c0.1,0,0.2,0.1,0.3,0.1c0,0,0.1,0,0.1,0c0,0,0,0,0,0c0.2,0,0.3,0.1,0.5,0.1
			c0,0,0,0,0,0c0.2,0,0.3,0.1,0.5,0.1c0,0,0,0,0,0c0,0,0,0,0.1,0c0.2,0,0.4,0.1,0.7,0.1c0.1,0,0.2,0,0.3,0c0,0,0,0,0.1,0
			c0.2,0,0.4,0.1,0.6,0.1c0,0,0.1,0,0.1,0c0.2,0,0.4,0.1,0.7,0.1c0,0,0,0,0,0c0.1,0,0.3,0,0.4,0c0.1,0,0.1,0,0.2,0
			c0.2,0,0.5,0.1,0.7,0.1c0,0,0,0,0.1,0c0.2,0,0.4,0.1,0.7,0.1c0,0,0,0,0.1,0c0.2,0,0.4,0.1,0.6,0.1c0,0,0.1,0,0.1,0
			c0.2,0,0.3,0.1,0.5,0.1c0.2,0,0.3,0.1,0.5,0.2c0,0,0.1,0,0.1,0.1c0.1,0,0.2,0.1,0.3,0.1c0,0,0.1,0,0.1,0.1
			c0.1,0.1,0.2,0.1,0.4,0.2c0.7,0.5,1.1,1.1,1.1,1.7L295.6,161z"/>
		<path class="st28" d="M274.4,193.2c0,0,0.1,0,0.2,0c0.1,0,0.1,0,0.2,0c0.1,0,0.1,0,0.2,0c0,0,0.1,0,0.1,0l0.1,12.3l20.3,13.7
			l-0.1-14.6L278.6,193c0.2,0,0.5,0.1,0.7,0.1c0.1,0,0.1,0,0.2,0c0.1,0,0.2,0,0.3,0.1c0.1,0,0.1,0,0.2,0c0.1,0,0.2,0,0.3,0.1
			c0.1,0,0.1,0,0.2,0c0.1,0,0.3,0.1,0.4,0.1c0,0,0.1,0,0.1,0c0.2,0,0.4,0.1,0.5,0.1c0,0,0.1,0,0.1,0c0.2,0.1,0.5,0.2,0.7,0.2
			c0,0,0,0,0,0c0.2,0.1,0.5,0.2,0.7,0.3c0,0,0,0,0.1,0c0.3,0.1,0.6,0.2,0.8,0.3c0,0,0,0,0,0c0.3,0.1,0.5,0.3,0.8,0.4c0,0,0,0,0,0
			c0.3,0.1,0.5,0.3,0.8,0.4c0,0,0,0,0,0c0.3,0.2,0.5,0.3,0.8,0.5c2.2,1.5,3.4,3.2,3.4,4.7c0-4.9-0.1-9.8-0.1-14.6
			c0-1.4-1.2-3.1-3.4-4.7c-0.3-0.2-0.5-0.3-0.8-0.5c0,0,0,0,0,0c-0.3-0.2-0.5-0.3-0.8-0.4c0,0,0,0,0,0c-0.3-0.1-0.5-0.3-0.8-0.4
			c0,0,0,0,0,0c-0.3-0.1-0.5-0.2-0.8-0.4c0,0,0,0,0,0c0,0,0,0,0,0c-0.2-0.1-0.5-0.2-0.7-0.3c0,0,0,0,0,0c-0.2-0.1-0.5-0.2-0.8-0.2
			c0,0,0,0-0.1,0c0,0,0,0,0,0c-0.2-0.1-0.4-0.1-0.5-0.2c0,0-0.1,0-0.1,0c-0.1,0-0.3-0.1-0.4-0.1c0,0-0.1,0-0.1,0c0,0-0.1,0-0.1,0
			c-0.1,0-0.2,0-0.3-0.1c-0.1,0-0.1,0-0.2,0c-0.1,0-0.2,0-0.3,0c0,0-0.1,0-0.1,0c0,0,0,0,0,0c-0.3,0-0.5-0.1-0.7-0.1c0,0,0,0-0.1,0
			c0,0,0,0,0,0c-0.2,0-0.4,0-0.6-0.1c0,0,0,0-0.1,0c0,0,0,0-0.1,0c-0.4,0-0.8,0-1.2,0c0,0,0,0-0.1,0c0,0,0,0-0.1,0
			c-0.2,0-0.4,0-0.5,0c0,0,0,0,0,0c0,0,0,0,0,0c-0.2,0-0.4,0-0.5,0.1c0,0,0,0-0.1,0c0,0,0,0,0,0c-0.1,0-0.1,0-0.2,0
			c-0.1,0-0.1,0-0.2,0c-0.1,0-0.1,0-0.2,0c0,0-0.1,0-0.1,0c0,0,0,0,0,0c-0.2,0-0.3,0.1-0.5,0.1c0,0-0.1,0-0.1,0
			c-0.2,0.1-0.3,0.1-0.4,0.2c-0.1,0.1-0.2,0.1-0.3,0.2c0,0-0.1,0-0.1,0.1c0,0-0.1,0-0.1,0.1c0,0-0.1,0-0.1,0.1c0,0-0.1,0-0.1,0.1
			c-0.1,0-0.1,0.1-0.2,0.1c0,0-0.1,0-0.1,0.1c0,0,0,0,0,0c-0.1,0.1-0.1,0.1-0.2,0.2c0,0,0,0,0,0c0,0-0.1,0.1-0.1,0.1c0,0,0,0,0,0
			c0,0,0,0-0.1,0.1c0,0-0.1,0.1-0.1,0.1c0,0,0,0,0,0.1c0,0,0,0,0,0c0,0,0,0,0,0.1c0,0-0.1,0.1-0.1,0.1c0,0,0,0.1-0.1,0.1
			c0,0-0.1,0.1-0.1,0.1c0,0,0,0,0,0c0,0,0,0,0,0.1c0,0.1-0.1,0.2-0.1,0.2c0,0,0,0,0,0.1c0,0.1-0.1,0.2-0.1,0.3
			c0,0.1-0.1,0.2-0.1,0.2c0,0,0,0.1,0,0.1c0,0.1-0.1,0.2-0.1,0.3c0,0.1-0.1,0.1-0.1,0.1c0,0,0,0,0,0.1c0,0.1-0.1,0.1-0.1,0.2
			c0,0-0.1,0.1-0.1,0.1c0,0.1-0.1,0.1-0.1,0.2c0,0,0,0.1-0.1,0.1c-0.1,0.1-0.1,0.2-0.2,0.2c0,0,0,0,0,0c-0.1,0.1-0.2,0.2-0.3,0.3
			c0,0-0.1,0-0.1,0.1c-0.1,0.1-0.1,0.1-0.2,0.2c0,0-0.1,0.1-0.1,0.1c-0.1,0.1-0.1,0.1-0.2,0.2c0,0-0.1,0-0.1,0.1
			c-0.1,0.1-0.2,0.1-0.3,0.2c0,0,0,0,0,0c0,0,0,0,0,0c0,0,0,0,0,0c0,0,0,0,0,0c0,0,0,0-0.1,0c0,0,0,0,0,0c0,0,0,0-0.1,0
			c0,0,0,0-0.1,0c0,0,0,0-0.1,0c0,0,0,0-0.1,0c0,0,0,0-0.1,0c0,0,0,0-0.1,0c0,0-0.1,0-0.1,0c0,0,0,0,0,0c-0.1,0-0.1,0.1-0.2,0.1
			c-0.4,0.2-0.8,0.4-1.2,0.5l-20.3-13.7l0.1,14.6l20.3,13.7c0.4-0.1,0.9-0.3,1.2-0.5c0.1-0.1,0.2-0.1,0.3-0.1c0,0,0,0,0,0
			c0,0,0.1,0,0.1-0.1c0,0,0,0,0,0c0,0,0.1,0,0.1,0c0,0,0,0,0,0c0,0,0,0,0.1,0c0,0,0,0,0,0c0,0,0,0,0.1,0c0,0,0,0,0,0c0,0,0,0,0,0
			c0,0,0,0,0,0c0,0,0,0,0,0c0,0,0,0,0,0c0,0,0,0,0,0c0.1-0.1,0.2-0.1,0.3-0.2c0,0,0.1,0,0.1-0.1c0.1-0.1,0.1-0.1,0.2-0.2
			c0,0,0,0,0.1,0c0,0,0,0,0,0c0.1-0.1,0.1-0.1,0.2-0.2c0,0,0.1,0,0.1-0.1c0.1-0.1,0.2-0.2,0.2-0.3c0,0,0,0,0,0c0,0,0,0,0,0
			c0.1-0.1,0.1-0.2,0.2-0.2c0,0,0-0.1,0.1-0.1c0-0.1,0.1-0.1,0.1-0.2c0,0,0,0,0-0.1c0,0,0-0.1,0.1-0.1c0-0.1,0.1-0.1,0.1-0.2
			c0,0,0-0.1,0-0.1c0,0,0-0.1,0.1-0.1c0,0,0,0,0,0c0-0.1,0.1-0.2,0.1-0.3c0,0,0-0.1,0-0.1c0-0.1,0.1-0.2,0.1-0.2
			c0-0.1,0.1-0.2,0.1-0.3c0,0,0,0,0,0c0-0.1,0.1-0.2,0.1-0.2c0,0,0-0.1,0-0.1c0,0,0-0.1,0.1-0.1c0,0,0-0.1,0.1-0.1
			c0,0,0.1-0.1,0.1-0.1c0,0,0-0.1,0.1-0.1c0,0,0,0,0-0.1c0,0,0.1-0.1,0.1-0.1c0,0,0,0,0.1-0.1c0-0.1,0.1-0.1,0.2-0.2c0,0,0,0,0,0
			c0.1-0.1,0.1-0.1,0.2-0.2c0,0,0.1,0,0.1-0.1c0.1,0,0.1-0.1,0.2-0.1c0,0,0.1,0,0.1-0.1c0.1,0,0.1-0.1,0.2-0.1c0,0,0.1,0,0.1,0
			c0.1-0.1,0.2-0.1,0.3-0.2c0.1-0.1,0.3-0.1,0.4-0.2c0,0,0.1,0,0.1,0C274.1,193.3,274.3,193.2,274.4,193.2z"/>
		<g>
			<polygon class="st29" points="358.3,177.9 358.4,192.5 295.5,219 295.4,204.4 			"/>
		</g>
		<g>
			<path class="st30" d="M246.3,171.3l26-11c0.9,0.5,1.9,1.4,2,1.5c1.2,1.6-0.4,3.8,1.7,5.2c2.5,1.7,8.7,1.3,13.8-0.8
				c0.1-0.1,0.3-0.1,0.4-0.2c4.8-2.1,6.7-5.1,4.3-6.8c-1.6-1.1-4.3-1-6.4-1.4c-1.1-0.2-2.3-0.5-3.2-0.9c-0.2-0.1-1.2-0.7-1.8-1.1
				l26.1-11l49.1,33.1l-62.9,26.5l-20.3-13.7c0.1,0,0.2-0.1,0.3-0.1c1-0.4,2.5-0.9,2.7-1c3-0.7,7.1,0.1,9.7-1
				c3.2-1.4,2.6-4.7-1.4-7.3c-4-2.7-9.8-3.8-13.1-2.4c-2,0.9-1.9,2.3-2.7,3.4c-0.4,0.6-1,1.2-1.8,1.7c-0.1,0.1-0.5,0.2-0.9,0.4
				c-0.4,0.2-0.8,0.4-1.2,0.5L246.3,171.3z"/>
		</g>
	</g>
	<g>
		<path class="st11" d="M158.1,240.2c0,0,2.2-1.4,0.1-4c-5.3-0.3-11.6-3.2-11.6-3.2c-7.9-2.5-18.9-14.6-23.9-20.2
			c-5.6-6.2-14.2-0.9-9.6,6.2c8.6,13.3,31.1,22,44.9,21.5"/>
		<path class="st31" d="M99.6,301.9c3.3-15.3,4.3-50.8,4.3-50.8s-2.6-3.5-12.1-4.1c-9.5-0.6-8.8,5.2-8.8,4.5c0,0,0,25.1,4.4,49.9
			C87.3,301.3,94.1,306,99.6,301.9z"/>
		<path class="st32" d="M83.1,253.2c-0.9-6.3,1-12.7,2-19.2h28.8c1.8,6.1,3.8,12.5,3.8,12.5s1.2,14.5-11.1,16.3
			C106.6,262.8,85,266.5,83.1,253.2z"/>
		<path class="st0" d="M66.1,363.9c0,12.2,22.3,22.1,49.8,22.1c27.5,0,49.8-9.9,49.8-22.1c0-12.2-22.3-22.1-49.8-22.1
			C88.4,341.8,66.1,351.7,66.1,363.9z"/>
		<g>
			<path class="st22" d="M144.8,363.1l-1.6-0.1c-0.6-0.1-0.6,0.8-0.6,0.8c-1.7,0.7-3.2,1.2-3.9,1.2c0,0-3-0.4-3.4-1.3l0.4-5.6
				c3.4-0.3,6.9-0.9,6.9-0.9l7.4-1c3.6-0.4,4.2,0.9,4.2,0.9S156.5,360.3,144.8,363.1z"/>
			<path class="st33" d="M140.3,362.8c0.5-0.3,1.3-0.5,1.9-0.6c3.7-0.6,7.3-1,10.3-3.4c0.7-0.6,1.3-1.3,1.3-2.2
				c0.3,0.2,0.4,0.4,0.4,0.4s2.2,3.3-9.5,6.1l-1.6-0.1c-0.6-0.1-0.6,0.8-0.6,0.8c-1.7,0.7-3.2,1.2-3.9,1.2c0,0-3-0.4-3.4-1.3
				l0.1-1.4C136.6,363.1,138.8,363.5,140.3,362.8z"/>
		</g>
		<g>
			<path class="st22" d="M95.1,361.7l-1.6-0.1c-0.6-0.1-0.6,0.8-0.6,0.8c-1.7,0.7-3.2,1.2-3.9,1.2c0,0-3-0.4-3.4-1.3l0.4-5.6
				c3.4-0.3,6.9-0.9,6.9-0.9l7.4-1c3.6-0.4,4.2,0.9,4.2,0.9S106.8,358.9,95.1,361.7z"/>
			<path class="st33" d="M90.6,361.4c0.5-0.3,1.4-0.5,1.9-0.6c3.7-0.6,7.3-1,10.3-3.4c0.7-0.6,1.3-1.3,1.3-2.1
				c0.3,0.2,0.4,0.4,0.4,0.4s2.2,3.3-9.5,6.1l-1.6-0.1c-0.6-0.1-0.6,0.8-0.6,0.8c-1.7,0.7-3.2,1.2-3.9,1.2c0,0-3-0.4-3.4-1.3
				l0.1-1.4C86.9,361.7,89,362.1,90.6,361.4z"/>
		</g>
		<path class="st31" d="M94.5,357.1c1.2-1.5,5.2-54.9,5.2-54.9c0.7-8.2-13-4.8-13-4.8c-2,8.2-1.7,9.7-2.3,19.9
			c-0.2,4,0.4,37.2,0.2,39.8C84.6,357.1,91,361.3,94.5,357.1z"/>
		<path class="st34" d="M105,241.5c0,0,8.2,14,3.2,23.1c-5.1,9.1-26.3-0.8-25-11.4C84.5,241.6,95,236.6,105,241.5z"/>
		<path class="st5" d="M110.8,223.7c1.3,4.7,6.8,22.8,6.8,22.8c-15.1,14.2-34.5,2.9-34.7,0.8c-0.2-2.6,2.6-12.4,3.2-23
			C86.1,224.3,91.5,216.1,110.8,223.7z"/>
		<path class="st2" d="M117.2,303.3"/>
		<path class="st34" d="M129,299.3c-1.6-15.6-12.7-55.4-12.7-55.4s-3.2-3-12.4-0.7c-9.2,2.3-10.2,14.3-10.4,13.6
			c0,0,10.7,25.2,24.9,47.4C118.4,304.2,125.2,307.8,129,299.3z"/>
		<path class="st34" d="M142.9,356.5c-0.3-1.9-14.1-57.8-14.1-57.8c-3.3-6.9-12.6,0.4-12.6,0.4c0,5,0.2,11,3.4,20.7
			c1.3,3.8,13.1,38.3,13.9,40.7C133.4,360.6,140.3,362.8,142.9,356.5z"/>
		<g>
			<path class="st3" d="M75.3,187.4c0,0-1.5,25.1-0.5,35.2c0,0,0,4.6,8.1,6.9c0,0,3-27.9,5.4-40.4C88.2,189.2,83.4,179.9,75.3,187.4
				z"/>
			<path class="st3" d="M84.3,193.9c-3.3,1.4-7.2-0.1-8.6-3.4c-1.4-3.3,0.1-7.1,3.5-8.5c3.3-1.4,7.2,0.1,8.6,3.4
				C89.2,188.7,87.6,192.5,84.3,193.9z"/>
		</g>
		<path class="st35" d="M80.9,180.3c0,0-5.9,1.4-6.2,8.2l-1,24.7c0,0,5.9,3.9,13.6,3.3C87.3,216.6,96.1,183.5,80.9,180.3z"/>
		<path class="st5" d="M116.1,307.9"/>
		<path class="st5" d="M103.3,164.6c0,0,0.1,8.8,0.8,17.6l-11.7-1.9c0,0,1.7-4-0.7-7.6L103.3,164.6z"/>
		<path class="st5" d="M80.9,180.3c-2.9,2.1-3.3,7.3-2.2,10.5c1.2,3.7,1.7,8.4,2.9,13.7c1.6,7.2,2.7,12.7,4.5,19.9
			c1.5,5.9,25.2,1.1,25.2,1.1l8.5-29.1c0,0,1.5-7.6-5.4-10.1c0,0-7.2-3.9-12.5-5.7c-4.7-1.6-6.4-1.7-11.2-1.4
			C90.7,179.1,84.3,179.4,80.9,180.3z"/>
		<path class="st34" d="M115.7,240.8c0,0,5.1,8.2,0,17.3c-5.1,9.1-20.5,5.8-20.5-6C95.1,240.3,105.8,235.9,115.7,240.8z"/>
		<path class="st35" d="M90.7,179.1c0,0-6.4,0.2-9.8,1.2c-3,2.2-3,6.6-2.4,9.9c1.1,6.3,2.3,12.7,2.8,19.1c0.3,2.8,1,8.6,1.2,11.4
			c0.2,2.8,1.1,4.3,3.9,5.7c2.1,1.1,3.7,0.2,6.1,0.3c5.9,0.2,11.8-0.5,17.7-1.2c0.2,0,9.4,6.2,6.4,1.6l3.3-30.8
			c0,0,1.5-7.6-5.4-10.1c0,0-4.8-3-10.1-4.8C104.3,181.5,95.1,181.7,90.7,179.1z"/>
		<path class="st11" d="M107.2,174.8l0.5-1.9c0,0,1.2-7.1,1.2-7.1c0.1-0.9,0-2-0.2-2.9c-0.3-0.9-0.5-1.9-0.4-3
			c0.7-5.1-2.2-7.6-2.2-7.6c-3.3-4.3-10.2-3.7-10.2-3.7c-3.6,0.5-6.7,2-8.4,5.3c-1.6,2.9-2.5,6.5-1.5,9.8c1,3.6,3.1,6.4,5.7,9
			c1.7,1.6,3.5,1.8,5.7,2.7c1.6,0.6,4.5,0.9,6.2,0.9C104.5,176.3,106.9,175.9,107.2,174.8z"/>
		<path class="st36" d="M105.9,155.3l-1.1,4.4c-1.2,0.5-1.8,1-1.6,2.7l0.4,3.6l-1,0.4c0.1-1.5-1.9-1.5-1.9-1.5
			c-1.5-0.1-1.7,1.2-1.6,2.4c0.2,3.1-0.9,8.1-3.6,9c-1,0.3-3,0.7-3.3-0.7c-0.4-1.7-3.7-5.1-3.7-5.1c-3.9-3.8-4.9-10.3-3-15.2
			c0.6-1.5,1.7-3.1,2.8-4.2c2.4-2.3,5.5-3.5,8.8-3.9c0,0,4.5-0.5,7,1.2c1.6,1.1,2.6,2.1,3.2,3C107.2,151.3,108.2,153.4,105.9,155.3z
			"/>
		<g>
			<g>
				<g>
					<g>
						<g>
							<path class="st11" d="M102.3,169.4c-0.3,0.3-0.7,0.4-1.1,0.4c-1.3,0.1-2.5-1.1-2.6-2.6c-0.1-1.5,0.8-2.7,2.1-2.8
								c0.6,0,1.2,0.2,1.7,0.6c0.7,0.6,0.8,1.8,0.7,2.7C102.9,168.5,102.7,169.1,102.3,169.4z"/>
						</g>
					</g>
				</g>
			</g>
		</g>
		<g>
			<g>
				<path class="st12" d="M101.3,165.9c-0.1-0.8-1.7,0.1-1.4,0.5c0.2,0.2,0.4,0.4,0.7,0.6c0.3,0.2,0.5,0.4,0.5,0.8c0,0,0,0.2,0,0.2
					c-0.2,0.2-0.9-0.6-1.1-0.7c-0.3-0.3-0.4-0.8-0.3-1.2c0.1-0.4,0.4-0.6,0.8-0.6C100.9,165.4,101.3,165.4,101.3,165.9
					C101.3,165.8,101.3,165.9,101.3,165.9L101.3,165.9z"/>
			</g>
			<g>
				<path class="st12" d="M100.8,166.7c0.2-0.2,0.3-0.1,0.5,0.1c0.2,0.1,0.3,0.3,0.3,0.4c0.1,0.4,0.1,0.9-0.1,1.3
					c-0.2,0.3-0.5,0.5-0.8,0.5c-0.5,0-0.6-0.4-0.7-0.8c0-0.1,0-0.4,0.1-0.4c0.1-0.1,0.2,0.1,0.3,0.2c0.1,0.1,0.3,0.1,0.4,0.1
					c0.3,0,0.5-0.1,0.7-0.4c0,0,0-0.1,0.1-0.1c0,0.3,0,0.3,0,0.2c0-0.1-0.1-0.1-0.1-0.2c-0.1-0.2-0.3-0.3-0.4-0.5
					C100.9,167.1,100.7,166.8,100.8,166.7L100.8,166.7z"/>
			</g>
		</g>
		<g>
			<path class="st5" d="M166.3,237.6c-0.6-0.9-0.1-1.4-1.3-1.4c-1.4,0-2.6-0.7-3.6-0.7c-1.6,0-7.9,1.5-3.7,5.1
				c1,0.8,3.8,4.5,5.7,3.4c2.8-1.6,1.9-1,3.3-4.6L166.3,237.6z"/>
		</g>
		<path class="st5" d="M108.3,191.9c-2.2,3.4-1.2,7.9,2.2,10.1c3.4,2.2,7.9,1.2,10.1-2.2c2.2-3.4,1.2-7.9-2.2-10.1
			C115,187.5,110.5,188.5,108.3,191.9z"/>
		<path class="st35" d="M117.5,218.9c0.9,10,1.6,34.3,1.6,34.3c-3.5,9.4-37.2,1.5-37.4-0.7c-0.2-2.6,0.5-20.7,1-31.3
			C82.6,221.3,98.1,211.3,117.5,218.9z"/>
		<path class="st35" d="M112.9,185.5c8.9,2.5,10,13.2,10,13.2l4,17.6c0,0-10.1,8-16.2,5.7c0,0-5-13.3-6.6-26.6
			C104.1,195.5,104.1,185.7,112.9,185.5z"/>
		<path class="st36" d="M107.7,155.2c-1,0.8-2.3,0.3-3.4,0c-1.6,1.8,0.3,3.7-2.1,4.6c-1.3,0.5-3.1,0.6-4.5,0.8
			c-1.1,0.2-2.2-0.1-3,0.8c-0.9,0.9,0,3.7-1.1,4.2c-1.8,0.9-3.2-3.9-5.4-3.5c-1.9,0.3-2.3,3.4-1.6,4.9c-0.2-0.2-0.4-0.3-0.5-0.3
			c-0.9-2.4-2.1-2.4-3.1-4.1c-1.6-2.6-1.3-2-1.6-4.5c0,0,0.3-1.1,0.3-1.1c0.7-2.7,2-3.2,2.6-4.3c0.6-1.2,1.6-2.1,2.4-3.1
			c0.8-1,1.1-2.3,2-3.2c1.3-1.3,3.5-2,5.3-2.2c2-0.3,3.8,1,5.7,0.6c0.8-0.1,1.5-0.9,2.3-0.8c1,0.1,1.6,1,2.5,1.4
			c1.6,0.7,4,0.4,5.4,1.5c1.5,1.2,1.2,3,0.2,4.5c-0.5,0.8-1.5,1.3-2,2.2C108.1,153.5,107.8,155.2,107.7,155.2z"/>
	</g>
	<g>
		<path class="st5" d="M381.9,148.1c0,0-8.1,14.1-14.5,30.1c0,0,0.1,3,2.4,2.1c2.2-0.9,20.3-26.5,20.3-28.8
			C390.1,145.5,381.9,148.1,381.9,148.1z"/>
		<path class="st5" d="M363.1,184.3l1.9-0.7c0,0-3.3,2-4.8,1.2c0,0-0.4-0.1,0-0.7c0,0,3.1-1.1,4.4-1.9c0,0-2.9,1.7-5.2,2.2
			c0,0-1.1-0.3-0.3-1.1c-0.8-0.1-0.3-0.7-0.3-0.7s0.5-0.6,1.9-1.5c0,0,2.1-1.4,4.3-3.4c0,0-2.5-0.7-2.1-2l3.7,0.7l3.5,1l1,1.8
			l-2.4,3c0,0-2.6,2.1-4.2,2.6C364.6,184.8,359.8,186.1,363.1,184.3z"/>
	</g>
	<g class="st15">
		<path class="st37" d="M281.6,233.1c0-0.6,0.3-1.2,1-1.7c0.1-0.1,0.2-0.1,0.4-0.2c0,0,0.1,0,0.1-0.1c0.1,0,0.2-0.1,0.3-0.1
			c0,0,0,0,0.1,0c0,0,0,0,0.1,0c0.1-0.1,0.3-0.1,0.5-0.2c0,0,0,0,0,0c0,0,0,0,0,0c0.2,0,0.3-0.1,0.5-0.1c0,0,0,0,0.1,0
			c0,0,0.1,0,0.1,0c0.2,0,0.4-0.1,0.6-0.1c0,0,0,0,0,0c0,0,0,0,0.1,0c0.2,0,0.4-0.1,0.6-0.1c0,0,0.1,0,0.1,0c0.2,0,0.4-0.1,0.7-0.1
			c0,0,0,0,0,0c0.1,0,0.1,0,0.2,0c0.2,0,0.3,0,0.5-0.1c0.2,0,0.4,0,0.6-0.1c0,0,0.1,0,0.1,0c0.2,0,0.4-0.1,0.6-0.1
			c0.1,0,0.2,0,0.3-0.1c0.2,0,0.4-0.1,0.7-0.1c0,0,0.1,0,0.1,0c0.2,0,0.3-0.1,0.5-0.1c0,0,0,0,0,0c0.2,0,0.3-0.1,0.5-0.1
			c0,0,0.1,0,0.1,0c0.1,0,0.2-0.1,0.3-0.1c0.1,0,0.1,0,0.2-0.1c0.1,0,0.2-0.1,0.3-0.1c0,0,0.1,0,0.1,0c0.1-0.1,0.3-0.1,0.4-0.2
			c0.2-0.1,1.2-0.6,1.7-1.1l-0.1,14.4c-0.6,0.5-1.5,1-1.7,1.1c-0.1,0.1-0.3,0.1-0.4,0.2c0,0,0,0,0,0c0,0-0.1,0-0.1,0
			c-0.1,0-0.2,0.1-0.3,0.1c-0.1,0-0.1,0-0.2,0.1c-0.1,0-0.2,0.1-0.3,0.1c0,0-0.1,0-0.1,0c0,0,0,0,0,0c-0.2,0-0.3,0.1-0.5,0.1
			c0,0,0,0,0,0c-0.2,0-0.3,0.1-0.5,0.1c0,0,0,0-0.1,0c0,0-0.1,0-0.1,0c-0.2,0-0.4,0.1-0.7,0.1c-0.1,0-0.2,0-0.3,0c0,0,0,0-0.1,0
			c-0.2,0-0.4,0.1-0.6,0.1c0,0-0.1,0-0.1,0c-0.2,0-0.4,0.1-0.6,0.1c0,0,0,0,0,0c-0.1,0-0.3,0-0.4,0.1c-0.1,0-0.1,0-0.2,0
			c-0.2,0-0.4,0.1-0.7,0.1c0,0-0.1,0-0.1,0c-0.2,0-0.4,0.1-0.6,0.1c0,0-0.1,0-0.1,0c-0.2,0-0.4,0.1-0.6,0.1c0,0-0.1,0-0.1,0
			c-0.2,0-0.3,0.1-0.5,0.1c0,0,0,0,0,0c-0.2,0-0.3,0.1-0.5,0.2c0,0-0.1,0-0.1,0.1c-0.1,0-0.2,0.1-0.3,0.1c0,0-0.1,0-0.1,0.1
			c-0.1,0.1-0.2,0.1-0.4,0.2c-0.7,0.5-1,1.1-1,1.7L281.6,233.1z"/>
		<path class="st37" d="M225.4,246.6C225.4,246.6,225.4,246.6,225.4,246.6c0-0.1,0-0.1,0-0.2c0,0,0,0,0,0c0,0,0-0.1,0-0.1
			c0,0,0-0.1,0-0.1c0,0,0-0.1,0-0.1c0,0,0,0,0-0.1c0,0,0,0,0,0l0.1-14.4c0,0,0,0.1,0,0.1c0,0,0,0.1,0,0.1c0,0,0,0.1,0,0.1
			c0,0,0,0.1,0,0.1c0,0,0,0.1,0,0.1c0,0,0,0.1,0,0.1c0,0,0,0.1,0,0.1c0,0,0,0.1,0,0.1c0,0,0,0,0,0c0,0.1,0.1,0.2,0.1,0.3
			c0,0,0,0,0,0c0,0.1,0.1,0.2,0.2,0.3c0,0,0,0,0,0c0.1,0.1,0.1,0.2,0.2,0.2c0,0,0,0,0.1,0.1c0,0,0,0,0.1,0.1c0,0,0.1,0.1,0.1,0.1
			c0,0,0.1,0,0.1,0.1c0,0,0,0,0.1,0.1c0,0,0.1,0.1,0.1,0.1c0,0,0,0,0.1,0.1c0.1,0,0.1,0.1,0.2,0.1c0,0,0,0,0.1,0
			c0.1,0,0.1,0.1,0.2,0.1c0,0,0,0,0.1,0c0.1,0,0.2,0.1,0.2,0.1c0.2,0.1,0.3,0.1,0.5,0.2c0.1,0,0.1,0,0.2,0c0.1,0,0.2,0.1,0.4,0.1
			c0,0,0.1,0,0.1,0c0.1,0,0.3,0.1,0.4,0.1c0.1,0,0.1,0,0.2,0c0.1,0,0.3,0,0.4,0.1c0,0,0.1,0,0.1,0c0.2,0,0.4,0,0.5,0.1
			c0.1,0,0.2,0,0.3,0c0.1,0,0.2,0,0.3,0c0.1,0,0.2,0,0.4,0c0.1,0,0.2,0,0.3,0c0.2,0,0.5,0,0.7,0c0,0,0,0,0,0c0.3,0,0.5,0,0.8,0
			c0.2,0,0.3,0,0.5,0c0.1,0,0.2,0,0.3,0c0.1,0,0.3,0,0.4,0c0,0,0.1,0,0.1,0c0.1,0,0.1,0,0.2,0c0.1,0,0.2,0,0.3,0c0.1,0,0.2,0,0.3,0
			c0.1,0,0.2,0,0.3,0c0,0,0.1,0,0.1,0v0l0,0v0c0.1,0,0.2,0,0.3,0c0,0,0,0,0.1,0c0.2,0,0.3,0,0.4,0.1c0,0,0,0,0.1,0
			c0.2,0,0.4,0.1,0.6,0.1c0,0,0,0,0,0c0,0,0,0,0,0c0,0,0,0,0,0c0,0,0,0,0,0c0,0,0,0,0,0c0,0,0,0,0.1,0c0,0,0,0,0,0c0,0,0,0,0.1,0
			c0,0,0,0,0,0c0,0,0.1,0,0.1,0c0,0,0,0,0.1,0c0,0,0.1,0,0.1,0c0,0,0,0,0.1,0c0,0,0.1,0,0.1,0c0,0,0,0,0.1,0c0,0,0.1,0,0.1,0
			c0,0,0,0,0.1,0c0,0,0.1,0,0.1,0c0,0,0.1,0,0.1,0c0,0,0.1,0,0.1,0c0,0,0.1,0,0.1,0c0,0,0.1,0,0.1,0c0,0,0.1,0,0.1,0
			c0,0,0.1,0,0.1,0c0,0,0.1,0,0.1,0c0,0,0.1,0,0.1,0c0,0,0.1,0,0.1,0c0,0,0.1,0,0.1,0c0,0,0.1,0,0.1,0c0,0,0.1,0,0.1,0
			c0,0,0.1,0,0.1,0c0.1,0,0.1,0.1,0.2,0.1c0.1,0,0.2,0.1,0.3,0.1l-0.1,14.4c-0.1,0-0.2-0.1-0.3-0.1c-0.1,0-0.1-0.1-0.2-0.1
			c0,0,0,0-0.1,0c0,0-0.1,0-0.1-0.1c0,0-0.1,0-0.1,0c0,0-0.1,0-0.1-0.1c0,0-0.1,0-0.1,0c0,0-0.1,0-0.1,0c0,0-0.1,0-0.1,0
			c0,0-0.1,0-0.1,0c0,0-0.1,0-0.1,0c0,0-0.1,0-0.1,0c0,0-0.1,0-0.1,0c0,0-0.1,0-0.1,0c0,0-0.1,0-0.1,0c0,0-0.1,0-0.1,0
			c0,0-0.1,0-0.1,0c0,0-0.1,0-0.1,0c0,0-0.1,0-0.1,0c0,0-0.1,0-0.1,0c0,0-0.1,0-0.1,0c0,0-0.1,0-0.1,0c0,0,0,0-0.1,0
			c0,0-0.1,0-0.1,0c0,0,0,0-0.1,0c0,0,0,0-0.1,0c0,0,0,0-0.1,0c0,0,0,0-0.1,0c0,0,0,0,0,0c0,0,0,0,0,0c0,0,0,0,0,0c0,0,0,0,0,0
			c-0.2,0-0.4-0.1-0.7-0.1c-0.2,0-0.3,0-0.5-0.1c0,0-0.1,0-0.1,0c-0.1,0-0.3,0-0.4,0c-0.1,0-0.2,0-0.3,0c-0.1,0-0.2,0-0.3,0
			c-0.1,0-0.2,0-0.3,0c-0.1,0-0.2,0-0.3,0c-0.1,0-0.3,0-0.4,0c-0.1,0-0.2,0-0.3,0c-0.2,0-0.3,0-0.5,0c-0.2,0-0.4,0-0.7,0
			c-0.1,0-0.1,0-0.2,0c-0.2,0-0.4,0-0.7,0c0,0,0,0,0,0v0l0,0v0c-0.1,0-0.2,0-0.3,0c-0.1,0-0.2,0-0.3,0c-0.1,0-0.2,0-0.3,0
			c-0.1,0-0.2,0-0.3,0c0,0,0,0,0,0c-0.2,0-0.3,0-0.5-0.1c0,0-0.1,0-0.1,0c-0.1,0-0.2,0-0.2,0v0l0,0v0c-0.1,0-0.1,0-0.2,0
			c-0.1,0-0.1,0-0.2,0c-0.1,0-0.3-0.1-0.4-0.1c0,0-0.1,0-0.1,0c0,0,0,0,0,0c-0.1,0-0.2-0.1-0.3-0.1c-0.1,0-0.1,0-0.2,0
			c-0.2-0.1-0.3-0.1-0.5-0.2c-0.1,0-0.2-0.1-0.2-0.1c0,0-0.1,0-0.1,0c-0.1,0-0.1-0.1-0.1-0.1c0,0,0,0,0,0c0,0,0,0-0.1,0
			c-0.1,0-0.1-0.1-0.2-0.1c0,0-0.1,0-0.1-0.1c0,0-0.1-0.1-0.1-0.1c0,0,0,0,0,0v0l0,0v0c0,0,0,0,0,0c0,0,0,0-0.1-0.1
			c0,0-0.1-0.1-0.1-0.1c0,0,0,0-0.1-0.1c0,0,0,0,0,0c0,0,0,0,0,0c-0.1-0.1-0.1-0.2-0.2-0.2c0,0,0,0,0,0c0,0,0,0,0,0
			c-0.1-0.1-0.1-0.2-0.2-0.3c0,0,0,0,0,0c0,0,0,0,0,0c0-0.1-0.1-0.2-0.1-0.3c0,0,0,0,0,0v0l0,0v0c0,0,0,0,0,0c0,0,0,0,0-0.1
			C225.4,246.7,225.4,246.7,225.4,246.6z"/>
		<g>
			<g>
				<polygon class="st38" points="220,249.7 219.8,264.1 281.7,290.2 281.9,275.8 				"/>
			</g>
		</g>
		<g>
			<polygon class="st37" points="281.9,275.8 281.7,290.2 330,257.6 330.1,243.2 			"/>
		</g>
		<g>
			<g>
				<path class="st39" d="M330.1,243.2l-25.6-10.8c-0.9,0.5-1.9,1.4-2,1.5c-1.2,1.6,0.3,3.7-1.7,5.1c-2.5,1.7-8.6,1.3-13.6-0.8
					c-0.1-0.1-0.3-0.1-0.4-0.2c-4.7-2.1-6.6-5.1-4.2-6.7c1.5-1,4.2-1,6.3-1.4c1.1-0.2,2.3-0.5,3.2-0.9c0.2-0.1,1.2-0.6,1.7-1.1
					l-25.6-10.8l-20,13.5c-0.4-0.1-0.9-0.3-1.2-0.5c-0.5-0.2-0.8-0.4-0.9-0.4c-0.8-0.5-1.4-1.1-1.8-1.7c-0.8-1.1-0.7-2.5-2.6-3.3
					c-3.3-1.4-9-0.3-12.9,2.3c-3.9,2.6-4.5,5.8-1.5,7.2c2.7,1.1,6.7,0.3,9.7,1c0.2,0,1.6,0.5,2.6,1c0.1,0,0.2,0.1,0.3,0.1l-20,13.5
					l61.9,26L330.1,243.2z"/>
			</g>
		</g>
	</g>
	<g>
		<path class="st0" d="M365.9,393.4c0,8.7-15.8,15.7-35.4,15.7c-19.5,0-35.4-7-35.4-15.7c0-8.7,15.8-15.7,35.4-15.7
			C350.1,377.6,365.9,384.7,365.9,393.4z"/>
		<g>
			<g>
				<g>
					<path class="st3" d="M312.6,392.9c0,0-3.8-0.7-2.7,2.4c0,0,8.8,3.8,14.9,2.9c0,0,4.3-0.1,3.6-4.8l0.1-3.8l-5.8,1.1l0.3,3.6
						L312.6,392.9z"/>
				</g>
				<path class="st40" d="M328.4,393.4c0,0.6-0.2,1.2-0.6,1.6c-1.5,1.7-4.5,1.8-6.6,1.7c-3.3-0.2-6.7-0.7-10-1.4
					c-0.7-0.2-0.9-0.4-0.9-0.6c0.4-0.8,1-1.6,2.2-1.8l-3.2-0.4c-2.9-0.1-4.3,0.6-5,1c-0.8,2.3,3.2,3.9,3.2,3.9s4.2,1.6,9.3,2.6
					c0,0,11.2,2.6,12.6-0.8L328.4,393.4z"/>
			</g>
			<g>
				<g>
					<path class="st3" d="M334.9,387.7c0,0-3.8-0.7-2.7,2.4c0,0,8.8,3.8,14.9,2.9c0,0,4.3-0.1,3.6-4.8l0.1-3.8l-5.8,1.1l0.3,3.6
						L334.9,387.7z"/>
				</g>
				<path class="st40" d="M350.7,388.2c0,0.6-0.2,1.2-0.6,1.6c-1.5,1.7-4.5,1.8-6.6,1.7c-3.3-0.2-6.7-0.7-10-1.4
					c-0.7-0.2-0.9-0.4-0.9-0.6c0.4-0.8,1-1.6,2.2-1.8l-3.2-0.4c-2.9-0.1-4.3,0.6-5,1c-0.8,2.3,3.2,3.9,3.2,3.9s4.2,1.6,9.3,2.6
					c0,0,11.2,2.6,12.6-0.8L350.7,388.2z"/>
			</g>
			<g>
				<g>
					<path class="st41" d="M333.8,286.5c0,5.9,4.8,10.7,10.7,10.7c5.9,0,10.7-4.8,10.7-10.7c0-5.9-4.8-10.7-10.7-10.7
						C338.6,275.8,333.8,280.6,333.8,286.5z"/>
					<path class="st41" d="M351.3,338c0,0-0.1,2.7-5,2.8c0,0-4.6,1.6-6.6-4.4c-7.8-23.5-5.7-47.9-5.7-47.9s11-6.1,21.2-1.9
						C355.3,286.5,353.6,317.3,351.3,338z"/>
				</g>
				<path class="st41" d="M339.8,336.4c0,0,3.8,50.7,4.1,52.5c3.7,2.3,6.9-0.1,6.9-0.1c0-2.5,2.7-23.2,3-27.1
					c0.5-6.7,1.3-15.1-2.9-24.8L339.8,336.4z"/>
				<g>
					<path class="st42" d="M320.3,339.5c0,0-1,2.5-5.6,0.9c0,0-4.8,0-4.7-6.3c0.4-24.7,11.3-50.3,11.3-50.3s12.2-1.2,20.5,6.2
						C341.7,290,329.3,320.8,320.3,339.5z"/>
					<path class="st42" d="M321.5,282.9c-2,5.6,1,11.7,6.6,13.6s11.7-1,13.6-6.6c2-5.6-1-11.7-6.6-13.6
						C329.5,274.4,323.4,277.4,321.5,282.9z"/>
				</g>
				<path class="st42" d="M355.3,284.9c-1.3-11.9-7.3-17.4-7.3-17.4l-20.7-2.6c0,0-5.7,9.9-6.3,20c2.5,6.7,11.3,8.7,11.3,8.7l6.7,2
					C339,295.6,354.1,293.3,355.3,284.9z"/>
				<g>
					<path class="st42" d="M310.9,339.1c0,0,10.3,53.3,10.9,55c-0.3-0.1,4.8,2.4,7.1-0.9c-0.4-2.5-0.6-29.5-0.9-33.4
						c-0.5-6.7-0.4-12.9-6-21.8C321.9,338,307.9,328,310.9,339.1z"/>
				</g>
			</g>
			<path class="st43" d="M329,377.1"/>
			<g>
				<g>
					<path class="st3" d="M356.8,245.8c0,0-3.8,4.4-11.3,15.2l1.3,2.2c0,0,12.8-6.5,16.9-13.7L356.8,245.8z"/>
				</g>
				<g>
					<path class="st3" d="M346.2,230c0,0,9.7,21.1,15.5,20.3c0,0,2,0.1,2.4-1.4c0,0,4.1-3.6-12.9-29.9c0,0-1.7-2.2-5.1-1.7
						C346,217.4,340.8,220.8,346.2,230z"/>
				</g>
			</g>
			<g>
				<rect x="330.5" y="213.5" class="st44" width="10.4" height="11.1"/>
			</g>
			<g>
				<path class="st5" d="M324.1,213.7l-0.4-1.8c0,0-0.8-6.5-0.8-6.5c-0.1-0.8,0.1-1.9,0.4-2.6c0.3-0.8,0.6-1.7,0.5-2.7
					c-0.4-4.7,2.6-6.8,2.6-6.8c3.6-3.8,10.4-2.9,10.4-2.9c3.6,0.7,6.6,2.2,8.2,5.2c1.4,2.8,2.1,6.1,1,9c-1.3,3.2-3.4,5.7-6.3,7.9
					c-1.8,1.4-3.6,1.5-5.9,2.1c-1.6,0.4-4.6,0.6-6.3,0.5C326.7,215.2,324.3,214.7,324.1,213.7z"/>
			</g>
			<g>
				<path class="st43" d="M328.8,207.7"/>
			</g>
			<g>
				<path class="st43" d="M328.8,207.7c0.5-0.7,2.4-1.2,2.4-1.2c2.3,0,2,3,2.2,4.3c0.1,0.4,0.2,0.9,0.2,1.3c1.1,3.8,4.3,3.8,7.1,4.3
					c0.1-0.1,0.2-0.1,0.3-0.2c0.5-1.7,2.1-3.5,2.1-3.5c4.2-3.6,5.5-10,3.9-15.1c-0.5-1.5-1.5-3.2-2.6-4.3c-2.3-2.5-5.3-3.8-8.6-4.4
					c-3.2-0.6-14.7,1-11.6,7.9C324.3,196.8,329.1,202.3,328.8,207.7"/>
			</g>
			<g>
				<g>
					<g>
						<path class="st45" d="M328.8,207.7c0.4-1,1.4-1.8,2.6-1.5c0.8,0.3,1.3,1,1.3,1.8c0,0.2-0.1,0.4-0.1,0.6
							c-0.3,2-2.4,2.8-2.4,2.8"/>
					</g>
					<g>
						<path class="st46" d="M331.2,207.1c-0.1-0.1-0.4-0.1-0.5-0.1c-0.8,0-1.4,1.1-0.6,1.3c0.3,0.3,0,0.6,0,0.6
							c-0.3,0.3-0.6,0.7-0.5,1.1c0,0.2,0.3,0.4,0.6,0.4c0.2,0,0.2-0.1,0.1-0.2c-0.1-0.1-0.2-0.1-0.3-0.2c0,0,0,0,0,0c0,0,0,0,0,0
							c0-0.1,0-0.1,0-0.2c0.2,0.1,0.5,0.1,0.6,0c0.1-0.2,0-0.4,0.1-0.6c0-0.1,0.1-0.3,0.2-0.4c0.3-0.6-0.3-0.7-0.3-0.7
							c-0.1,0-0.2,0-0.2,0c-0.3-0.2,0-0.6,0.2-0.7c0.2-0.1,0.5-0.1,0.7,0.1c0.2,0.2,0.2,0.4,0.2,0.7c0,0.3-0.1,0.6-0.2,0.8
							c-0.1,0.1-0.2,0.3-0.2,0.5c-0.1,0.2,0.1,0.2,0.2,0.1c0.2-0.3,0.5-0.8,0.5-1.3C331.6,207.8,331.5,207.4,331.2,207.1z"/>
					</g>
					<g>
						<path class="st46" d="M328.8,207.7c0,0,0.1-0.1,0.2-0.4c0.1-0.1,0.2-0.2,0.3-0.4c0.1-0.1,0.3-0.3,0.5-0.4
							c0.2-0.1,0.4-0.2,0.7-0.2c0.2,0,0.5,0,0.7,0.1c0.1,0,0.3,0.1,0.4,0.2c0.1,0.1,0.2,0.1,0.3,0.2c0.2,0.2,0.3,0.4,0.4,0.7
							c0.1,0.3,0.1,0.5,0,0.8l0,0.2l0,0v0c0,0,0,0,0,0l0,0l0,0l0,0.1l0,0.1c0,0.2-0.1,0.3-0.1,0.4c-0.1,0.2-0.2,0.5-0.4,0.7
							c-0.1,0.2-0.3,0.4-0.5,0.6c-0.3,0.3-0.6,0.6-0.9,0.7c-0.2,0.2-0.4,0.2-0.4,0.2s0.2,0,0.4-0.1c0.3-0.1,0.6-0.3,1-0.6
							c0.2-0.2,0.4-0.3,0.6-0.6c0.2-0.2,0.3-0.5,0.5-0.8c0.1-0.2,0.1-0.3,0.2-0.5l0-0.1l0-0.1l0,0l0,0l0,0l0-0.2
							c0.1-0.3,0.1-0.7,0-1c-0.1-0.4-0.3-0.7-0.6-0.9c-0.1-0.1-0.1-0.1-0.2-0.2l-0.2-0.1c-0.2-0.1-0.3-0.1-0.5-0.2
							c-0.3-0.1-0.7-0.1-0.9,0c-0.3,0.1-0.5,0.2-0.7,0.4c-0.2,0.2-0.3,0.3-0.5,0.5c-0.1,0.2-0.2,0.3-0.3,0.4
							C328.9,207.5,328.8,207.7,328.8,207.7z"/>
					</g>
				</g>
				<g>
					<g>
						<path class="st14" d="M330.1,210.9c0,0.3-0.3,0.6-0.6,0.6c-0.3,0-0.6-0.3-0.6-0.6c0-0.3,0.3-0.6,0.6-0.6
							C329.9,210.2,330.1,210.5,330.1,210.9z"/>
					</g>
					<g>
						<path class="st47" d="M329.7,211.2c-0.3,0-0.5-0.2-0.5-0.5c0-0.2,0.1-0.4,0.3-0.5l0,0c-0.3,0-0.6,0.3-0.6,0.6
							c0,0.3,0.3,0.6,0.6,0.6c0.3,0,0.6-0.3,0.6-0.6c0,0,0,0,0,0C330.1,211,329.9,211.2,329.7,211.2z"/>
					</g>
				</g>
			</g>
			<g>
				<path class="st40" d="M357.8,272.5c0-0.1-11.5-16.5-11.5-16.5c-0.5-2.4,0.7-7.3,0.7-7.3l3.7-25.4c-0.4-2.9-0.6-6.6-4.6-5.9
					c-2.8,0.5-3.3,0.9-5,1.4c0.5,2.4-3.6,3.9-3.6,3.9c-5.6,2.4-6.9,0.8-6.9,0.8c-1.5,0.8-6.5,3.3-7.8,4.4c-1.4,1.1-2.2,2.9-1.8,5.8
					l4,24l-0.7,6l-7.4,18.6c2.3-0.8,4.8-1.1,7.2-0.9c2.3,0.3,4.3,1.6,6.5,1.9c3.4,0.4,6-0.9,8.6-2.5c3.1-0.7,6.5-1.8,9.9-3.5
					c0.1,0,0.1,0,0.2,0c2.6,0,5.5,0,7.4-2C357.1,274.8,358.3,273.2,357.8,272.5z"/>
			</g>
			<g>
				<path class="st5" d="M318,266.3l0.1-29.2c0.7-8,4.7-9.3,4.7-9.3c8-0.9,6.8,13.9,6.8,13.9l-3.4,25.2"/>
			</g>
			<g>
				<path class="st5" d="M292.4,282.3c3.7-2,4-2.6,4.7-3.5c2.8-4-2.9-3.9-4.3-3.5c-0.8,0.2-0.9,2.1-3.4,4.5c0,0-4,2.3-5,2.2
					c0,0-1,0.1-1,0.9C283.4,282.7,286.2,284.4,292.4,282.3z"/>
			</g>
			<g>
				<g>
					<path class="st45" d="M323.2,262.3"/>
				</g>
				<g>
					<path class="st5" d="M318.6,263.2l-25,13.7c-1.1,3,0.3,3.4,0.3,3.4l19.4-5.6c8.3-2.2,11.5-5.7,11.5-5.7s3.6-2.5-1-6.2
						C323.8,262.9,321.7,261.2,318.6,263.2z"/>
				</g>
			</g>
			<g>
				<path class="st43" d="M326.6,205.9c0.6,4.8-0.1,11.3,2.3,16.5c1.1,2.4,2.3,3.5,1.6,6.3c-0.5,2.2-1.6,4.3-2.2,6.7
					c-1.3,5.1,0.5,10.1,6.4,8.3c2.9-0.9,3.2-0.9,5.8,0.1c2.2,0.8,4.2,1.1,6.4,0c3.4-1.6,2.4-4.1,4.2-6.6c1.4-1.9,3.5-1.8,4.6-4.4
					c1.3-3.1-0.3-4.7-1.8-7.3c-1.7-2.7-1.9-4.5-1.4-7.8c0.5-2.7-0.2-4.1-1.1-6.7c-0.9-2.6-0.5-4.8-1-7.4c-0.9-5.1-3.7-12.1-9.1-13.6
					c-2.6-0.7-6-1.3-8.6-0.4c-3.5,1.3-7.3,2.6-7.2,6.9C325.9,200.8,326,201.6,326.6,205.9z"/>
			</g>
			<path class="st5" d="M293.4,275.1c0,0,0.7,2-1.8,1.5l-2.5-1.9c0,0-0.8-0.4-0.5-1.2c0,0,0.3-0.4,1.1,0L293.4,275.1z"/>
		</g>
	</g>
</g>
<g>
	<path class="st48" d="M350.2,46.3c0,4.8-3.9,8.6-8.6,8.6c-4.8,0-8.6-3.9-8.6-8.6c0-4.8,3.9-8.6,8.6-8.6
		C346.3,37.6,350.2,41.5,350.2,46.3z"/>
	<path class="st48" d="M81,409.1c0,4.8-3.9,8.6-8.6,8.6c-4.8,0-8.6-3.9-8.6-8.6c0-4.8,3.9-8.6,8.6-8.6C77.1,400.5,81,404.3,81,409.1
		z"/>
	<path class="st49" d="M72.3,112c0,3.4-2.8,6.2-6.2,6.2c-3.4,0-6.2-2.8-6.2-6.2c0-3.4,2.8-6.2,6.2-6.2
		C69.6,105.8,72.3,108.6,72.3,112z"/>
	<path class="st49" d="M428.4,158.4c0,3.4-2.8,6.2-6.2,6.2c-3.4,0-6.2-2.8-6.2-6.2c0-3.4,2.8-6.2,6.2-6.2
		C425.6,152.2,428.4,154.9,428.4,158.4z"/>
	<circle class="st50" cx="251.2" cy="98.7" r="6.2"/>
	<path class="st51" d="M46.3,241.8c0,3.4-2.8,6.2-6.2,6.2c-3.4,0-6.2-2.8-6.2-6.2c0-3.4,2.8-6.2,6.2-6.2
		C43.5,235.7,46.3,238.4,46.3,241.8z"/>
	<path class="st51" d="M433.3,282.5c0,3.4-2.8,6.2-6.2,6.2c-3.4,0-6.2-2.8-6.2-6.2c0-3.4,2.8-6.2,6.2-6.2
		C430.5,276.3,433.3,279.1,433.3,282.5z"/>
	<path class="st35" d="M211.1,34.1c0,3.4-2.8,6.2-6.2,6.2c-3.4,0-6.2-2.8-6.2-6.2c0-3.4,2.8-6.2,6.2-6.2
		C208.3,28,211.1,30.7,211.1,34.1z"/>
	<path class="st35" d="M404.7,378.3c0,3.4-2.8,6.2-6.2,6.2c-3.4,0-6.2-2.8-6.2-6.2c0-3.4,2.8-6.2,6.2-6.2
		C402,372.1,404.7,374.9,404.7,378.3z"/>
</g>
<g>
	<g>
		<g>
			<line class="st52" x1="24.1" y1="290" x2="43.5" y2="290"/>
			<line class="st52" x1="46.4" y1="290" x2="56.1" y2="290"/>
		</g>
		<g>
			<line class="st53" x1="399.6" y1="331.4" x2="422.2" y2="331.4"/>
			<line class="st53" x1="425.5" y1="331.4" x2="436.8" y2="331.4"/>
		</g>
		<g>
			<line class="st52" x1="217.6" y1="404.9" x2="198.3" y2="404.9"/>
			<line class="st52" x1="195.4" y1="404.9" x2="185.7" y2="404.9"/>
		</g>
		<g>
			<line class="st52" x1="381.3" y1="69.7" x2="389.4" y2="69.7"/>
			<line class="st52" x1="391.5" y1="69.7" x2="398.6" y2="69.7"/>
			<line class="st52" x1="371.9" y1="69.7" x2="378.9" y2="69.7"/>
		</g>
		<line class="st52" x1="407.9" y1="206.5" x2="436.5" y2="206.5"/>
		<g>
			<line class="st52" x1="259.7" y1="61.5" x2="262.4" y2="64.2"/>
			<line class="st52" x1="264.3" y1="66.1" x2="267" y2="68.8"/>
			<line class="st52" x1="267" y1="61.5" x2="264.3" y2="64.2"/>
			<line class="st52" x1="262.4" y1="66.1" x2="259.7" y2="68.8"/>
		</g>
		<g>
			<line class="st52" x1="32.8" y1="152.4" x2="35.5" y2="155.1"/>
			<line class="st52" x1="37.4" y1="157" x2="40.1" y2="159.7"/>
			<line class="st52" x1="40.1" y1="152.4" x2="37.4" y2="155.1"/>
			<line class="st52" x1="35.5" y1="157" x2="32.8" y2="159.7"/>
		</g>
		<g>
			<line class="st52" x1="236.3" y1="320.8" x2="239" y2="323.5"/>
			<line class="st52" x1="240.9" y1="325.5" x2="243.6" y2="328.2"/>
			<line class="st52" x1="243.6" y1="320.8" x2="240.9" y2="323.5"/>
			<line class="st52" x1="239" y1="325.5" x2="236.3" y2="328.2"/>
		</g>
		<path class="st52" d="M107.2,99.5c0,1.9-1.5,3.4-3.4,3.4c-1.9,0-3.4-1.5-3.4-3.4c0-1.9,1.5-3.4,3.4-3.4
			C105.7,96.1,107.2,97.6,107.2,99.5z"/>
		<path class="st52" d="M328.5,115.2c0,1.9-1.5,3.4-3.4,3.4c-1.9,0-3.4-1.5-3.4-3.4c0-1.9,1.5-3.4,3.4-3.4
			C327,111.8,328.5,113.3,328.5,115.2z"/>
	</g>
</g>
</svg>
