<?xml version="1.0" encoding="utf-8"?>
<!-- Generator: Adobe Illustrator 22.0.1, SVG Export Plug-In . SVG Version: 6.00 Build 0)  -->
<svg version="1.1" id="OBJECTS" xmlns="http://www.w3.org/2000/svg" xmlns:xlink="http://www.w3.org/1999/xlink" x="0px" y="0px"
	 viewBox="0 0 392 355" style="enable-background:new 0 0 392 355;" xml:space="preserve">
<style type="text/css">
	.st0{opacity:0.2;}
	.st1{fill:#A5FE85;}
	.st2{fill:#CCCCCC;}
	.st3{fill:#FFFFFF;}
	.st4{enable-background:new    ;}
	.st5{fill:#12B878;}
	.st6{fill:#091A51;}
	.st7{opacity:0.4;}
	.st8{opacity:0.6;}
	.st9{opacity:0.8;}
	.st10{fill:#7CBF64;}
	.st11{fill:#333B57;}
</style>
<g>
	<g class="st0">
		<polygon class="st1" points="383.6,231.6 214.7,329.7 8.1,210.4 177,112.3 		"/>
	</g>
	<g class="st0">
		<polygon class="st1" points="327.6,228.4 209.1,297.3 64,213.6 182.6,144.7 		"/>
	</g>
	<g>
		<g>
			<path class="st2" d="M221.7,227.2l-12.6,7.3c0.4-0.2,0.7-0.8,0.7-1.8c0-3.1-6.4-12.7-6.7-13.2l12.6-7.3
				c0.3,0.5,6.7,10.1,6.7,13.2C222.4,226.4,222.1,227,221.7,227.2z"/>
		</g>
		<g>
			<polygon class="st2" points="203.2,202.3 203.2,212.2 172.2,194.3 172.2,184.4 			"/>
		</g>
		<g>
			<path class="st3" d="M203.2,212.2l-31-17.9l0,7.3c-0.3,0.1-6.8,2.3-6.8,5.4c0,3.1,2.6,4.6,2.7,4.7l39.1,22.6
				c0.1,0.1,2.7,1.6,2.7-1.5c0-3.1-6.4-12.7-6.7-13.2L203.2,212.2z M172.2,184.4l0,9.9L172.2,184.4z"/>
		</g>
		<g>
			<polygon class="st2" points="203.2,212.2 215.7,204.9 215.7,212.1 203.1,219.4 			"/>
		</g>
		<g>
			<polygon class="st2" points="203.2,202.3 215.7,195 215.7,204.9 203.2,212.2 			"/>
		</g>
		<g>
			<path class="st2" d="M125.8,51.8l12.6-7.3c1.6-0.9,4.1-0.9,7.8,1.2L133.5,53C129.8,50.9,127.4,50.8,125.8,51.8z"/>
		</g>
		<g>
			<path class="st2" d="M261.9,218.4l-12.6,7.3c3.1-1.8,3.1-7,3.1-7.4L265,211C265,211.4,265,216.6,261.9,218.4z"/>
		</g>
		<g>
			<polygon class="st2" points="133.5,53 146.1,45.7 200.3,77 187.7,84.3 			"/>
		</g>
		<g>
			<g class="st4">
				<g>
					<path class="st5" d="M188.7,166.4c0.7,0.4,1.3,1.4,1.3,2.2c0,0.8-0.6,1.1-1.3,0.7l-49.3-28.5c-0.7-0.4-1.3-1.4-1.3-2.2
						c0-0.8,0.6-1.1,1.3-0.7L188.7,166.4z"/>
				</g>
				<g>
					<path class="st5" d="M139.4,124.7c-0.7-0.4-1.3-1.4-1.3-2.2c0-0.8,0.6-1.1,1.3-0.7l36.6,21.2c0.7,0.4,1.3,1.4,1.3,2.2
						c0,0.8-0.6,1.1-1.3,0.7L139.4,124.7z"/>
				</g>
				<g>
					<path class="st5" d="M139.5,100.6c-0.7-0.4-1.3-1.4-1.3-2.2c0-0.8,0.6-1.1,1.3-0.7l24,13.9c0.7,0.4,1.3,1.4,1.3,2.2
						c0,0.8-0.6,1.1-1.3,0.7L139.5,100.6z"/>
				</g>
				<g>
					<path class="st5" d="M139.5,92.6c-0.7-0.4-1.3-1.4-1.3-2.2c0-0.8,0.6-1.1,1.3-0.7l61.9,35.8c0.7,0.4,1.3,1.4,1.3,2.2
						c0,0.8-0.6,1.1-1.3,0.7L139.5,92.6z"/>
				</g>
				<g>
					<path class="st6" d="M244,127.2c0.3,1.1,0.4,1.9,0.4,2.3l-0.2,83.8c0,0.4-0.2,1.3-0.5,1.9c-0.2,0.3-0.4,0.5-1.9-0.3
						l-108.3-62.6c-1.6-0.9-1.8-1.4-2-2c-0.1-0.3-0.2-0.6-0.3-0.9c-0.1-0.6-0.2-1.1-0.2-1.4l0.2-83.8c0-0.4,0.2-1.3,0.5-1.9
						c0.2-0.3,0.4-0.6,1.9,0.3L242,125.2C243.6,126.1,243.8,126.6,244,127.2z M226.7,159c0.7,0.4,1.3,0.1,1.3-0.7
						c0-0.8-0.6-1.8-1.3-2.2l-87.2-50.3c-0.7-0.4-1.3-0.1-1.3,0.7c0,0.8,0.6,1.8,1.3,2.2L226.7,159 M214,175.8
						c0.7,0.4,1.3,0.1,1.3-0.7c0-0.8-0.6-1.8-1.3-2.2l-74.6-43.1c-0.7-0.4-1.3-0.1-1.3,0.7c0,0.8,0.6,1.8,1.3,2.2L214,175.8
						 M139.5,89.7c-0.7-0.4-1.3-0.1-1.3,0.7c0,0.8,0.6,1.8,1.3,2.2l61.9,35.8c0.7,0.4,1.3,0.1,1.3-0.7c0-0.8-0.6-1.8-1.3-2.2
						L139.5,89.7 M188.7,169.3c0.7,0.4,1.3,0.1,1.3-0.7c0-0.8-0.6-1.8-1.3-2.2l-49.3-28.5c-0.7-0.4-1.3-0.1-1.3,0.7
						c0,0.8,0.6,1.8,1.3,2.2L188.7,169.3 M139.5,81.6c-0.7-0.4-1.3-0.1-1.3,0.7c0,0.8,0.6,1.8,1.3,2.2l36.6,21.2
						c0.7,0.4,1.3,0.1,1.3-0.7c0-0.8-0.6-1.8-1.3-2.2L139.5,81.6 M139.4,121.8c-0.7-0.4-1.3-0.1-1.3,0.7c0,0.8,0.6,1.8,1.3,2.2
						l36.6,21.2c0.7,0.4,1.3,0.1,1.3-0.7c0-0.8-0.6-1.8-1.3-2.2L139.4,121.8 M139.5,97.7c-0.7-0.4-1.3-0.1-1.3,0.7
						c0,0.8,0.6,1.8,1.3,2.2l24,13.9c0.7,0.4,1.3,0.1,1.3-0.7c0-0.8-0.6-1.8-1.3-2.2L139.5,97.7 M138.2,114.5c0,0.8,0.6,1.8,1.3,2.2
						l11.4,6.6c0.7,0.4,1.3,0.1,1.3-0.7c0-0.8-0.6-1.8-1.3-2.2l-11.4-6.6C138.8,113.4,138.2,113.7,138.2,114.5"/>
				</g>
				<g>
					<path class="st5" d="M150.8,120.3l-11.4-6.6c-0.7-0.4-1.3-0.1-1.3,0.7c0,0.8,0.6,1.8,1.3,2.2l11.4,6.6c0.7,0.4,1.3,0.1,1.3-0.7
						C152.1,121.7,151.5,120.7,150.8,120.3z"/>
				</g>
				<g>
					<path class="st5" d="M214,172.9c0.7,0.4,1.3,1.4,1.3,2.2c0,0.8-0.6,1.1-1.3,0.7l-74.6-43.1c-0.7-0.4-1.3-1.4-1.3-2.2
						c0-0.8,0.6-1.1,1.3-0.7L214,172.9z"/>
				</g>
				<g>
					<path class="st5" d="M139.5,84.5c-0.7-0.4-1.3-1.4-1.3-2.2c0-0.8,0.6-1.1,1.3-0.7l36.6,21.2c0.7,0.4,1.3,1.4,1.3,2.2
						c0,0.8-0.6,1.1-1.3,0.7L139.5,84.5z"/>
				</g>
				<g>
					<path class="st5" d="M226.7,156.1c0.7,0.4,1.3,1.4,1.3,2.2c0,0.8-0.6,1.1-1.3,0.7l-87.2-50.3c-0.7-0.4-1.3-1.4-1.3-2.2
						c0-0.8,0.6-1.1,1.3-0.7L226.7,156.1z"/>
				</g>
			</g>
		</g>
		<g class="st0">
			<path class="st3" d="M207.9,105.6l-76.8,43.8c-0.1-0.6-0.2-1.1-0.2-1.4l0.1-43.4L168.8,83L207.9,105.6z"/>
		</g>
		<g>
			<polygon class="st2" points="252.7,134.3 265.2,127 265,211 252.5,218.3 			"/>
		</g>
		<g>
			<polygon class="st2" points="187.7,84.3 200.3,77 254.4,108.3 241.9,115.6 			"/>
		</g>
		<g>
			<path class="st3" d="M241.9,115.6c10.8,6.3,10.8,18.1,10.8,18.7l-0.2,84c0,0.6,0,12.5-10.9,6.2l-54.2-31.3l-54.2-31.3
				c-10.8-6.3-10.8-18.1-10.8-18.7l0.2-84c0-0.6,0-12.5,10.9-6.2l54.2,31.3L241.9,115.6z M244,213.3l0.2-83.8c0-0.3-0.1-1.1-0.3-1.9
				c-0.3-0.9-0.5-1.5-2.1-2.4l-19.8-11.4l-14.2-8.2L168.8,83l-35.2-20.4c-1.5-0.9-1.7-0.6-1.9-0.3c-0.4,0.5-0.5,1.5-0.5,1.8
				l-0.2,83.8c0,0.3,0.1,0.8,0.2,1.4c0.1,0.3,0.1,0.6,0.2,0.9c0.2,0.6,0.4,1.1,2,2l108.3,62.6c1.5,0.9,1.7,0.6,1.9,0.3
				C243.9,214.6,244,213.7,244,213.3"/>
		</g>
		<g>
			<path class="st2" d="M241.9,115.6l12.6-7.3c10.8,6.3,10.8,18.1,10.8,18.7l-12.6,7.3C252.7,133.6,252.7,121.8,241.9,115.6z"/>
		</g>
	</g>
</g>
<g>
	<g class="st7">
		<path class="st1" d="M292,214c1.4,0.8,1.5,1.2,1.7,1.7c0.3,1,0.4,1.6,0.4,1.9l-0.2,71.6c0,0.3-0.1,1.1-0.5,1.6
			c-0.1,0.2-0.3,0.5-1.6-0.3l-92.6-53.5c-1.4-0.8-1.5-1.2-1.7-1.7c-0.1-0.3-0.2-0.5-0.2-0.8c-0.1-0.5-0.2-1-0.2-1.2l0.2-71.6
			c0-0.3,0.1-1.1,0.5-1.6c0.2-0.2,0.3-0.5,1.6,0.3L292,214z"/>
	</g>
	<g class="st8">
		<path class="st5" d="M318.5,229.3c1.4,0.8,1.5,1.2,1.7,1.7l0.1,0.3c0.2,0.7,0.3,1.4,0.3,1.6l-0.1,22c0,0.3-0.1,1.1-0.5,1.6
			c-0.1,0.2-0.3,0.5-1.6-0.3l-17-9.8c-1.4-0.8-1.5-1.2-1.7-1.7c-0.1-0.3-0.2-0.5-0.2-0.8c-0.1-0.5-0.2-1-0.2-1.2l0.1-22
			c0-0.3,0.1-1.1,0.5-1.6c0.1-0.3,0.3-0.5,1.6,0.3L318.5,229.3z"/>
	</g>
	<g class="st9">
		<path class="st5" d="M318.4,262.5c1.4,0.8,1.5,1.2,1.7,1.7l0.1,0.3c0.2,0.7,0.3,1.4,0.3,1.7l-0.1,38.5c0,0.3-0.1,1.1-0.5,1.6
			c-0.1,0.2-0.3,0.5-1.6-0.3l-17-9.8c-1.4-0.8-1.5-1.2-1.7-1.7c-0.1-0.3-0.2-0.5-0.2-0.8c-0.1-0.5-0.2-1-0.2-1.2l0.1-38.5
			c0-0.3,0.1-1.1,0.5-1.6c0.1-0.3,0.3-0.5,1.6,0.3L318.4,262.5z"/>
	</g>
</g>
<g>
	<g class="st4">
		<g>
			<path class="st1" d="M129.7,321.5c0.9,0.5,1.6,1.8,1.6,2.8c0,1-0.7,1.4-1.6,0.9l-63.4-36.6c-0.9-0.5-1.6-1.8-1.6-2.8
				c0-1,0.7-1.4,1.6-0.9L129.7,321.5z"/>
		</g>
		<g>
			<path class="st1" d="M66.4,268c-0.9-0.5-1.6-1.8-1.6-2.8c0-1,0.7-1.4,1.6-0.9l47.1,27.2c0.9,0.5,1.6,1.8,1.6,2.8
				c0,1-0.7,1.5-1.6,0.9L66.4,268z"/>
		</g>
		<g>
			<path class="st1" d="M66.5,237c-0.9-0.5-1.6-1.8-1.6-2.8c0-1,0.7-1.4,1.6-0.9l30.8,17.8c0.9,0.5,1.6,1.8,1.6,2.8
				c0,1-0.7,1.4-1.6,0.9L66.5,237z"/>
		</g>
		<g>
			<path class="st1" d="M66.5,226.7c-0.9-0.5-1.6-1.8-1.6-2.8c0-1,0.7-1.4,1.6-0.9l79.6,46c0.9,0.5,1.6,1.8,1.6,2.8
				c0,1-0.7,1.4-1.6,0.9L66.5,226.7z"/>
		</g>
		<g>
			<path class="st1" d="M81,262.4l-14.6-8.4c-0.9-0.5-1.6-0.1-1.6,0.9c0,1,0.7,2.3,1.6,2.8l14.6,8.4c0.9,0.5,1.6,0.1,1.6-0.9
				C82.6,264.1,81.9,262.9,81,262.4z"/>
		</g>
		<g>
			<path class="st1" d="M162.2,329.9c0.9,0.5,1.6,1.8,1.6,2.8c0,1-0.7,1.4-1.6,0.9l-95.9-55.3c-0.9-0.5-1.6-1.8-1.6-2.8
				c0-1,0.7-1.4,1.6-0.9L162.2,329.9z"/>
		</g>
		<g>
			<path class="st1" d="M66.5,216.3c-0.9-0.5-1.6-1.8-1.6-2.8c0-1,0.7-1.4,1.6-0.9l47.1,27.2c0.9,0.5,1.6,1.8,1.6,2.8
				c0,1-0.7,1.5-1.6,0.9L66.5,216.3z"/>
		</g>
		<g>
			<path class="st1" d="M178.6,308.3c0.9,0.5,1.6,1.8,1.6,2.8c0,1-0.7,1.5-1.6,0.9L66.4,247.3c-0.9-0.5-1.6-1.8-1.6-2.8
				c0-1,0.7-1.4,1.6-0.9L178.6,308.3z"/>
		</g>
	</g>
</g>
<g>
	<g class="st7">
		<g class="st4">
			<g>
				<path class="st3" d="M301.9,148.9c0.9,0.5,1.6,1.8,1.6,2.8c0,1-0.7,1.4-1.6,0.9l-63.4-36.6c-0.9-0.5-1.6-1.8-1.6-2.8
					c0-1,0.7-1.4,1.6-0.9L301.9,148.9z"/>
			</g>
			<g>
				<path class="st3" d="M238.6,95.4c-0.9-0.5-1.6-1.8-1.6-2.8c0-1,0.7-1.4,1.6-0.9l47.1,27.2c0.9,0.5,1.6,1.8,1.6,2.8
					c0,1-0.7,1.5-1.6,0.9L238.6,95.4z"/>
			</g>
			<g>
				<path class="st3" d="M238.7,64.4c-0.9-0.5-1.6-1.8-1.6-2.8c0-1,0.7-1.4,1.6-0.9l30.8,17.8c0.9,0.5,1.6,1.8,1.6,2.8
					c0,1-0.7,1.4-1.6,0.9L238.7,64.4z"/>
			</g>
			<g>
				<path class="st3" d="M238.7,54.1c-0.9-0.5-1.6-1.8-1.6-2.8c0-1,0.7-1.4,1.6-0.9l79.6,46c0.9,0.5,1.6,1.8,1.6,2.8
					c0,1-0.7,1.4-1.6,0.9L238.7,54.1z"/>
			</g>
			<g>
				<path class="st3" d="M253.2,89.8l-14.6-8.4c-0.9-0.5-1.6-0.1-1.6,0.9c0,1,0.7,2.3,1.6,2.8l14.6,8.4c0.9,0.5,1.6,0.1,1.6-0.9
					C254.8,91.5,254.1,90.3,253.2,89.8z"/>
			</g>
			<g>
				<path class="st3" d="M334.4,157.3c0.9,0.5,1.6,1.8,1.6,2.8c0,1-0.7,1.4-1.6,0.9l-95.9-55.3c-0.9-0.5-1.6-1.8-1.6-2.8
					c0-1,0.7-1.4,1.6-0.9L334.4,157.3z"/>
			</g>
			<g>
				<path class="st3" d="M238.7,43.7c-0.9-0.5-1.6-1.8-1.6-2.8c0-1,0.7-1.4,1.6-0.9l47.1,27.2c0.9,0.5,1.6,1.8,1.6,2.8
					c0,1-0.7,1.5-1.6,0.9L238.7,43.7z"/>
			</g>
			<g>
				<path class="st3" d="M350.7,135.7c0.9,0.5,1.6,1.8,1.6,2.8c0,1-0.7,1.5-1.6,0.9L238.6,74.7c-0.9-0.5-1.6-1.8-1.6-2.8
					c0-1,0.7-1.4,1.6-0.9L350.7,135.7z"/>
			</g>
		</g>
	</g>
	<g class="st0">
		<g>
			<g>
				<path class="st1" d="M355.5,65.5c2.6,1.5,4.5,4.9,4.5,8.9c0,4-1.9,5.1-4.5,3.6c-2.6-1.5-4.5-4.9-4.5-8.9
					C351,65.2,353,64,355.5,65.5z M355.5,75.6c1.2,0.7,2.1,0,2.1-2.7c0-2.7-0.8-4.4-2-5.1c-1.2-0.7-2,0-2.1,2.7
					C353.5,73.3,354.3,74.9,355.5,75.6"/>
			</g>
			<g>
				<polygon class="st1" points="352.1,86.7 352.1,84.5 356.6,87.1 356.6,99.2 354.1,97.8 354.2,87.9 				"/>
			</g>
			<g>
				<polygon class="st1" points="346.2,83.3 346.2,81.1 350.7,83.7 350.7,95.8 348.2,94.4 348.3,84.5 				"/>
			</g>
			<g>
				<path class="st1" d="M349.8,68.5c0,4-1.9,5.1-4.5,3.6c-2.6-1.5-4.5-4.9-4.5-8.9c0-4,1.9-5.1,4.5-3.6
					C347.9,61.1,349.8,64.5,349.8,68.5z M345.3,69.7c1.2,0.7,2.1,0.1,2.1-2.7c0-2.7-0.8-4.4-2-5.1c-1.2-0.7-2,0-2.1,2.7
					C343.3,67.4,344.1,69.1,345.3,69.7"/>
			</g>
			<g>
				<polygon class="st1" points="340.3,79.9 340.3,77.7 344.8,80.3 344.8,92.4 342.4,91 342.4,81.1 				"/>
			</g>
			<g>
				<path class="st1" d="M335.2,74.5c2.6,1.5,4.5,4.9,4.5,8.9c0,4-1.9,5.1-4.5,3.6c-2.6-1.5-4.5-4.9-4.5-8.9
					C330.6,74.2,332.6,73,335.2,74.5z M335.1,84.6c1.2,0.7,2.1,0,2.1-2.7c0-2.7-0.8-4.4-2-5.1c-1.2-0.7-2,0-2.1,2.7
					C333.1,82.3,333.9,83.9,335.1,84.6"/>
			</g>
			<g>
				<path class="st1" d="M325,68.6c2.6,1.5,4.5,4.9,4.5,8.9c0,4-1.9,5.1-4.5,3.6c-2.6-1.5-4.5-4.9-4.5-8.9
					C320.4,68.3,322.4,67.1,325,68.6z M324.9,78.7c1.2,0.7,2.1,0,2.1-2.7c0-2.7-0.8-4.4-2-5.1c-1.2-0.7-2,0-2.1,2.7
					C322.9,76.4,323.7,78,324.9,78.7"/>
			</g>
			<g>
				<path class="st1" d="M323.6,53.3c0,4-1.9,5.1-4.5,3.6c-2.6-1.5-4.5-4.9-4.5-8.9c0-4,1.9-5.1,4.5-3.6
					C321.7,46,323.6,49.4,323.6,53.3z M319.1,54.6c1.2,0.7,2.1,0.1,2.1-2.7c0-2.7-0.8-4.4-2-5.1c-1.2-0.7-2,0-2.1,2.7
					C317.1,52.3,317.9,53.9,319.1,54.6"/>
			</g>
			<g>
				<polygon class="st1" points="314.1,64.8 314.1,62.5 318.6,65.1 318.6,77.2 316.2,75.8 316.2,66 				"/>
			</g>
			<g>
				<path class="st1" d="M319.2,36.3c-2.6-1.5-4.5-4.9-4.5-8.9c0-4,1.9-5.1,4.5-3.6c2.6,1.5,4.5,4.9,4.5,8.9
					C323.7,36.6,321.8,37.8,319.2,36.3z M319.2,26.1c-1.2-0.7-2,0-2.1,2.7c0,2.7,0.8,4.4,2,5.1c1.2,0.7,2.1,0,2.1-2.7
					C321.2,28.5,320.4,26.8,319.2,26.1"/>
			</g>
			<g>
				<polygon class="st1" points="326.4,40.2 326.4,30.4 324.3,29.2 324.3,26.9 328.9,29.6 328.8,41.6 				"/>
			</g>
			<g>
				<path class="st1" d="M324.8,54c0-4,1.9-5.1,4.5-3.6c2.6,1.5,4.5,4.9,4.5,8.9c0,4-1.9,5.1-4.5,3.6C326.7,61.4,324.8,58,324.8,54z
					 M329.3,52.7c-1.2-0.7-2,0-2.1,2.7c0,2.7,0.8,4.4,2,5.1c1.2,0.7,2.1,0,2.1-2.7C331.4,55.1,330.5,53.4,329.3,52.7"/>
			</g>
			<g>
				<polygon class="st1" points="339,68.2 336.5,66.8 336.6,57 334.4,55.8 334.5,53.5 339,56.2 				"/>
			</g>
			<g>
				<path class="st1" d="M335.2,45.5c-2.6-1.5-4.5-4.9-4.5-8.9c0-4,1.9-5.1,4.5-3.6c2.6,1.5,4.5,4.9,4.5,8.9
					C339.7,45.8,337.8,47,335.2,45.5z M335.2,35.4c-1.2-0.7-2,0-2.1,2.7c0,2.7,0.8,4.4,2,5.1c1.2,0.7,2.1,0,2.1-2.7
					C337.2,37.7,336.4,36.1,335.2,35.4"/>
			</g>
			<g>
				<path class="st1" d="M345.4,51.4c-2.6-1.5-4.5-4.9-4.5-8.9c0-4,1.9-5.1,4.5-3.6c2.6,1.5,4.5,4.9,4.5,8.9
					C349.9,51.7,348,52.9,345.4,51.4z M345.4,41.3c-1.2-0.7-2,0-2.1,2.7c0,2.7,0.8,4.4,2,5.1c1.2,0.7,2.1,0,2.1-2.7
					C347.4,43.6,346.6,42,345.4,41.3"/>
			</g>
			<g>
				<polygon class="st1" points="352.6,55.4 352.6,45.5 350.5,44.3 350.5,42.1 355.1,44.7 355,56.8 				"/>
			</g>
		</g>
	</g>
</g>
<g>
	<g>
		<g>
			<path class="st10" d="M105.9,176.2l-10.2,5.9c0.9-0.5,0.9-2,0.9-2.1l10.2-5.9C106.8,174.2,106.8,175.7,105.9,176.2z"/>
		</g>
		<g>
			<path class="st10" d="M62.6,124.6l10.2-5.9c0.5-0.3,1.2-0.3,2.2,0.3L64.8,125C63.7,124.4,63,124.4,62.6,124.6z"/>
		</g>
		<g>
			<path class="st1" d="M93.6,141.6c0.2,0.1,3.1,1.8,3.1,5.3L96.5,180c0,0.2,0,3.5-3.1,1.8c-3.1-1.8-27.5-15.9-28.8-16.6
				c-0.2-0.1-3.1-1.8-3.1-5.3l0.1-33.1c0-0.2,0-3.5,3.1-1.8L93.6,141.6z"/>
		</g>
		<g>
			<polygon class="st10" points="96.6,146.9 106.9,141 106.8,174.1 96.5,180 			"/>
		</g>
		<g>
			<polygon class="st10" points="64.8,125 75,119.1 103.8,135.7 93.6,141.6 			"/>
		</g>
		<g>
			<path class="st10" d="M93.6,141.6l10.2-5.9c0.2,0.1,3.1,1.8,3.1,5.3l-10.2,5.9C96.6,143.4,93.7,141.7,93.6,141.6z"/>
		</g>
		<polygon class="st6" points="65.1,147.2 65.1,144.5 74.9,145.7 74.9,148.6 68.8,147.8 74.9,154 74.8,157.3 		"/>
		<polygon class="st6" points="74.5,161.9 81.3,143.5 83.9,145 77.1,163.4 		"/>
		<polygon class="st6" points="83.3,162 83.4,159.1 89.4,159.9 83.4,153.7 83.4,150.4 93.1,160.5 93.1,163.2 		"/>
	</g>
	<g>
		<g>
			<path class="st10" d="M286.8,140.4l-11,6.4c0.9-0.5,0.9-2.1,0.9-2.3l11-6.4C287.8,138.3,287.7,139.9,286.8,140.4z"/>
		</g>
		<g>
			<path class="st10" d="M240.3,85l11-6.4c0.5-0.3,1.2-0.3,2.4,0.4l-11,6.4C241.5,84.7,240.7,84.7,240.3,85z"/>
		</g>
		<g>
			<polygon class="st10" points="276.9,109 287.9,102.6 287.8,138.2 276.8,144.5 			"/>
		</g>
		<g>
			<polygon class="st10" points="242.6,85.4 253.6,79 284.6,96.9 273.6,103.3 			"/>
		</g>
		<g>
			<path class="st1" d="M276.9,109l-0.1,35.6c0,0.2,0,3.8-3.3,1.9c-3.3-1.9-29.6-17.1-30.9-17.9c-0.2-0.1-3.3-1.9-3.3-5.7l0.1-35.6
				c0-0.2,0-3.8,3.3-1.9l30.9,17.8C273.7,103.4,276.9,105.2,276.9,109z"/>
		</g>
		<g>
			<path class="st10" d="M273.6,103.3l11-6.4c0.2,0.1,3.3,1.9,3.3,5.7l-11,6.4C276.9,105.2,273.7,103.4,273.6,103.3z"/>
		</g>
		<path class="st11" d="M252,124.6l-0.1-0.2c-1.7-4-2.5-8.5-2.5-13c0-4.6,1-8.2,2.7-10.3l0.4-0.5l3.2,1.9l-0.5,0.7
			c-1.6,2.3-2.3,5.3-2.3,9.4c0,4.3,0.7,8.2,2.4,12.4l0.8,2.1L252,124.6z"/>
		<path class="st11" d="M260.4,129.5l0.5-0.7c1.6-2.3,2.3-5.3,2.3-9.4c0-4.2-0.7-8.2-2.4-12.4l-0.8-2.1l4,2.3l0.1,0.2
			c1.7,3.9,2.6,8.6,2.5,13c0,4.6-1,8.1-2.7,10.3l-0.4,0.5L260.4,129.5z"/>
	</g>
	<g>
		<g>
			<path class="st1" d="M310.9,294.1l-0.1,30.8c0,0.2,0,3.3-2.9,1.6c-2.9-1.7-25.6-14.8-26.8-15.5c-0.1-0.1-2.9-1.7-2.9-5l0.1-30.8
				c0-0.2,0-3.3,2.9-1.6l26.8,15.5C308.1,289.2,310.9,290.8,310.9,294.1z"/>
		</g>
		<path class="st10" d="M317.5,283.6l-26.8-15.5c-1-0.6-1.6-0.6-2.1-0.3l-9.5,5.5c0.4-0.2,1.1-0.2,2.1,0.3l26.8,15.5
			c0.1,0.1,2.9,1.7,2.9,5l-0.1,30.8c0,0.1,0,1.5-0.8,2l9.5-5.5c0.8-0.5,0.8-1.9,0.8-2l0.1-30.8C320.4,285.2,317.7,283.7,317.5,283.6
			z"/>
		<path class="st6" d="M290.7,308.2c-1.9-1.1-3-2.9-2.9-5l0-4.8c0-0.5-0.2-0.9-0.6-1.2l-0.8-0.5l0-2.6l1.2,0.7
			c0.1,0.1,0.2,0.1,0.2,0.1c0,0,0-0.1,0-0.3l0-4.8c0-2.1,1-2.4,1.6-2.4c0.5,0,1.1,0.2,1.7,0.6l1,0.6l0,2.6l-1.1-0.6
			c-0.3-0.2-0.4-0.2-0.5-0.2c-0.2,0-0.2,0.5-0.2,0.7l0,4.6c0,0.4,0,1.3-0.6,1.7c0.4,0.6,0.6,1.3,0.6,2.2l0,4.6
			c0,0.9,0.4,1.6,1.1,2.1l0.7,0.4l0,2.6L290.7,308.2z"/>
		<path class="st6" d="M299.6,312.9c-0.5,0-1.1-0.2-1.7-0.6l-1-0.6l0-2.6l1,0.6c0.3,0.2,0.5,0.2,0.6,0.2c0.2,0,0.2-0.5,0.2-0.7
			l0-4.6c0-0.4,0-1.3,0.6-1.7c-0.4-0.6-0.6-1.3-0.6-2.2l0-4.6c0-0.9-0.4-1.6-1.2-2.1l-0.6-0.4l0-2.6l1.4,0.8c1.9,1.1,3,2.9,3,5
			l0,4.8c0,0.5,0.2,0.9,0.6,1.2l0.8,0.5l0,2.6l-1.2-0.7c-0.1-0.1-0.1-0.1-0.2-0.1c0,0,0,0.1,0,0.3l0,4.8
			C301.3,312.6,300.2,312.9,299.6,312.9z"/>
	</g>
</g>
<g>
	<g class="st8">
		<g>
			<g>
				<path class="st1" d="M109.7,81.5c3,1.8,5.3,5.7,5.3,10.4c0,4.7-2.3,6-5.3,4.3c-3-1.8-5.3-5.7-5.3-10.4
					C104.4,81.1,106.7,79.7,109.7,81.5z M109.7,93.3c1.4,0.8,2.4,0.1,2.4-3.2c0-3.2-1-5.1-2.4-6c-1.4-0.8-2.4,0-2.4,3.2
					C107.3,90.6,108.3,92.5,109.7,93.3"/>
			</g>
			<g>
				<polygon class="st1" points="105.6,106.3 105.6,103.7 110.9,106.8 110.9,121 108.1,119.3 108.1,107.8 				"/>
			</g>
			<g>
				<polygon class="st1" points="98.7,102.3 98.7,99.7 104,102.8 104,117 101.1,115.3 101.2,103.8 				"/>
			</g>
			<g>
				<path class="st1" d="M103,84.9c0,4.7-2.3,6-5.3,4.3c-3-1.8-5.3-5.7-5.3-10.4c0-4.7,2.3-6,5.3-4.3C100.8,76.3,103,80.3,103,84.9z
					 M97.7,86.4c1.4,0.8,2.4,0.1,2.4-3.2c0-3.2-1-5.1-2.4-6c-1.4-0.8-2.4,0-2.4,3.2C95.3,83.7,96.3,85.6,97.7,86.4"/>
			</g>
			<g>
				<polygon class="st1" points="91.8,98.4 91.8,95.7 97.1,98.8 97.1,113 94.2,111.3 94.3,99.8 				"/>
			</g>
			<g>
				<path class="st1" d="M85.8,92c3.1,1.8,5.3,5.7,5.3,10.4c0,4.7-2.3,6-5.3,4.3c-3-1.8-5.3-5.7-5.3-10.4
					C80.5,91.6,82.8,90.3,85.8,92z M85.8,103.9c1.4,0.8,2.4,0.1,2.4-3.2c0-3.2-1-5.1-2.4-6c-1.4-0.8-2.4-0.1-2.4,3.2
					C83.4,101.2,84.4,103.1,85.8,103.9"/>
			</g>
			<g>
				<path class="st1" d="M73.8,85.1c3,1.8,5.3,5.7,5.3,10.4c0,4.7-2.3,6-5.3,4.3c-3-1.8-5.3-5.7-5.3-10.4
					C68.5,84.7,70.8,83.3,73.8,85.1z M73.8,97c1.4,0.8,2.4,0.1,2.4-3.2c0-3.2-1-5.1-2.4-6c-1.4-0.8-2.4-0.1-2.4,3.2
					C71.4,94.3,72.4,96.2,73.8,97"/>
			</g>
			<g>
				<path class="st1" d="M72.3,67.2c0,4.7-2.3,6-5.3,4.3c-3-1.8-5.3-5.7-5.3-10.4c0-4.7,2.3-6,5.3-4.3C70,58.6,72.3,62.5,72.3,67.2z
					 M67,68.7c1.4,0.8,2.4,0.1,2.4-3.2c0-3.2-1-5.1-2.4-6c-1.4-0.8-2.4,0-2.4,3.2C64.6,66,65.5,67.9,67,68.7"/>
			</g>
			<g>
				<polygon class="st1" points="61.1,80.6 61.1,78 66.4,81 66.3,95.2 63.5,93.6 63.5,82 				"/>
			</g>
			<g>
				<path class="st1" d="M67,47.2c-3-1.8-5.3-5.7-5.3-10.4c0-4.7,2.3-6,5.3-4.3c3.1,1.8,5.3,5.7,5.3,10.4
					C72.3,47.6,70.1,48.9,67,47.2z M67,35.3c-1.4-0.8-2.4,0-2.4,3.2c0,3.2,1,5.1,2.4,5.9c1.4,0.8,2.4,0.1,2.4-3.2
					C69.5,38,68.5,36.1,67,35.3"/>
			</g>
			<g>
				<polygon class="st1" points="75.5,51.8 75.5,40.3 73.1,38.8 73.1,36.2 78.4,39.3 78.3,53.5 				"/>
			</g>
			<g>
				<path class="st1" d="M73.6,68c0-4.7,2.3-6,5.3-4.3c3,1.8,5.3,5.7,5.3,10.4c0,4.7-2.3,6-5.3,4.3C75.9,76.6,73.6,72.7,73.6,68z
					 M78.9,66.5c-1.4-0.8-2.4,0-2.4,3.2c0,3.2,1,5.1,2.4,5.9c1.4,0.8,2.4,0.1,2.4-3.2C81.4,69.2,80.4,67.3,78.9,66.5"/>
			</g>
			<g>
				<polygon class="st1" points="90.2,84.7 87.4,83 87.4,71.5 85,70.1 85,67.4 90.3,70.5 				"/>
			</g>
			<g>
				<path class="st1" d="M85.8,58c-3-1.8-5.3-5.7-5.3-10.4c0-4.7,2.3-6,5.3-4.3c3.1,1.8,5.3,5.7,5.3,10.4
					C91.1,58.4,88.8,59.8,85.8,58z M85.8,46.1c-1.4-0.8-2.4,0-2.4,3.2c0,3.2,1,5.1,2.4,5.9c1.4,0.8,2.4,0.1,2.4-3.2
					C88.2,48.8,87.2,46.9,85.8,46.1"/>
			</g>
			<g>
				<path class="st1" d="M97.8,64.9c-3-1.8-5.3-5.7-5.3-10.4c0-4.7,2.3-6,5.3-4.3c3.1,1.8,5.3,5.7,5.3,10.4
					C103.1,65.3,100.8,66.7,97.8,64.9z M97.8,53c-1.4-0.8-2.4,0-2.4,3.2c0,3.2,1,5.1,2.4,5.9c1.4,0.8,2.4,0.1,2.4-3.2
					C100.2,55.7,99.2,53.8,97.8,53"/>
			</g>
			<g>
				<polygon class="st1" points="106.2,69.6 106.3,58 103.8,56.6 103.8,54 109.1,57 109.1,71.2 				"/>
			</g>
		</g>
	</g>
	<g class="st7">
		<path class="st1" d="M146.5,31.7c2.5,1.4,2.7,2.2,3.1,3.2l0.2,0.5c0.4,1.2,0.5,2.5,0.5,3l-0.2,70.4c0,0.6-0.2,2.1-0.8,2.9
			c-0.3,0.4-0.6,0.9-3-0.5l-31-17.9c-2.5-1.4-2.8-2.2-3.1-3.2c-0.2-0.5-0.3-1-0.4-1.4c-0.2-0.9-0.3-1.8-0.3-2.2l0.2-70.4
			c0-0.6,0.3-2.1,0.8-2.9c0.3-0.5,0.6-0.9,3,0.5L146.5,31.7z"/>
	</g>
</g>
</svg>
